<?xml version="1.0" encoding="utf-8" ?>
<svg baseProfile="full" height="384" version="1.1" width="384" xmlns="http://www.w3.org/2000/svg" xmlns:ev="http://www.w3.org/2001/xml-events" xmlns:xlink="http://www.w3.org/1999/xlink"><defs /><circle cx="162" cy="78" fill="#000000" r="4" /><circle cx="174" cy="78" fill="#000000" r="4" /><circle cx="186" cy="78" fill="#403838" r="4" /><circle cx="210" cy="78" fill="#403838" r="4" /><circle cx="222" cy="78" fill="#000000" r="4" /><circle cx="234" cy="78" fill="#000000" r="4" /><circle cx="150" cy="90" fill="#000000" r="4" /><circle cx="162" cy="90" fill="#f8d060" r="4" /><circle cx="174" cy="90" fill="#f8d060" r="4" /><circle cx="186" cy="90" fill="#c09818" r="4" /><circle cx="198" cy="90" fill="#403838" r="4" /><circle cx="210" cy="90" fill="#c09818" r="4" /><circle cx="222" cy="90" fill="#f8d060" r="4" /><circle cx="234" cy="90" fill="#f8d060" r="4" /><circle cx="246" cy="90" fill="#000000" r="4" /><circle cx="138" cy="102" fill="#000000" r="4" /><circle cx="150" cy="102" fill="#f8d060" r="4" /><circle cx="162" cy="102" fill="#f8d060" r="4" /><circle cx="174" cy="102" fill="#f8d060" r="4" /><circle cx="186" cy="102" fill="#f8d060" r="4" /><circle cx="198" cy="102" fill="#c09818" r="4" /><circle cx="210" cy="102" fill="#f8d060" r="4" /><circle cx="222" cy="102" fill="#f8d060" r="4" /><circle cx="234" cy="102" fill="#f8d060" r="4" /><circle cx="246" cy="102" fill="#f8d060" r="4" /><circle cx="258" cy="102" fill="#000000" r="4" /><circle cx="126" cy="114" fill="#000000" r="4" /><circle cx="138" cy="114" fill="#f8e8b8" r="4" /><circle cx="150" cy="114" fill="#f8d060" r="4" /><circle cx="162" cy="114" fill="#f8d060" r="4" /><circle cx="174" cy="114" fill="#f8d060" r="4" /><circle cx="186" cy="114" fill="#f8d060" r="4" /><circle cx="198" cy="114" fill="#c09818" r="4" /><circle cx="210" cy="114" fill="#f8d060" r="4" /><circle cx="222" cy="114" fill="#f8d060" r="4" /><circle cx="234" cy="114" fill="#f8d060" r="4" /><circle cx="246" cy="114" fill="#f8d060" r="4" /><circle cx="258" cy="114" fill="#f8e8b8" r="4" /><circle cx="270" cy="114" fill="#000000" r="4" /><circle cx="126" cy="126" fill="#403838" r="4" /><circle cx="138" cy="126" fill="#f8e8b8" r="4" /><circle cx="150" cy="126" fill="#f8e8b8" r="4" /><circle cx="162" cy="126" fill="#f8d060" r="4" /><circle cx="174" cy="126" fill="#f8d060" r="4" /><circle cx="186" cy="126" fill="#f8d060" r="4" /><circle cx="198" cy="126" fill="#f8d060" r="4" /><circle cx="210" cy="126" fill="#f8d060" r="4" /><circle cx="222" cy="126" fill="#f8d060" r="4" /><circle cx="234" cy="126" fill="#f8d060" r="4" /><circle cx="246" cy="126" fill="#f8e8b8" r="4" /><circle cx="258" cy="126" fill="#f8e8b8" r="4" /><circle cx="270" cy="126" fill="#403838" r="4" /><circle cx="114" cy="138" fill="#000000" r="4" /><circle cx="126" cy="138" fill="#f8e8b8" r="4" /><circle cx="138" cy="138" fill="#f8e8b8" r="4" /><circle cx="150" cy="138" fill="#f8e8b8" r="4" /><circle cx="162" cy="138" fill="#f8e8b8" r="4" /><circle cx="174" cy="138" fill="#f8d060" r="4" /><circle cx="186" cy="138" fill="#f8d060" r="4" /><circle cx="198" cy="138" fill="#f8d060" r="4" /><circle cx="210" cy="138" fill="#f8d060" r="4" /><circle cx="222" cy="138" fill="#f8d060" r="4" /><circle cx="234" cy="138" fill="#f8e8b8" r="4" /><circle cx="246" cy="138" fill="#f8e8b8" r="4" /><circle cx="258" cy="138" fill="#f8e8b8" r="4" /><circle cx="270" cy="138" fill="#f8e8b8" r="4" /><circle cx="282" cy="138" fill="#000000" r="4" /><circle cx="114" cy="150" fill="#403838" r="4" /><circle cx="126" cy="150" fill="#f8e8b8" r="4" /><circle cx="138" cy="150" fill="#f8e8b8" r="4" /><circle cx="150" cy="150" fill="#f8e8b8" r="4" /><circle cx="162" cy="150" fill="#f8d060" r="4" /><circle cx="174" cy="150" fill="#403838" r="4" /><circle cx="186" cy="150" fill="#403838" r="4" /><circle cx="198" cy="150" fill="#f8d060" r="4" /><circle cx="210" cy="150" fill="#403838" r="4" /><circle cx="222" cy="150" fill="#403838" r="4" /><circle cx="234" cy="150" fill="#f8d060" r="4" /><circle cx="246" cy="150" fill="#f8e8b8" r="4" /><circle cx="258" cy="150" fill="#f8e8b8" r="4" /><circle cx="270" cy="150" fill="#f8e8b8" r="4" /><circle cx="282" cy="150" fill="#403838" r="4" /><circle cx="102" cy="162" fill="#403838" r="4" /><circle cx="114" cy="162" fill="#f8d060" r="4" /><circle cx="126" cy="162" fill="#f8d060" r="4" /><circle cx="138" cy="162" fill="#f8e8b8" r="4" /><circle cx="150" cy="162" fill="#f8d060" r="4" /><circle cx="162" cy="162" fill="#403838" r="4" /><circle cx="174" cy="162" fill="#8860c0" r="4" /><circle cx="186" cy="162" fill="#8860c0" r="4" /><circle cx="198" cy="162" fill="#c09818" r="4" /><circle cx="210" cy="162" fill="#8860c0" r="4" /><circle cx="222" cy="162" fill="#8860c0" r="4" /><circle cx="234" cy="162" fill="#403838" r="4" /><circle cx="246" cy="162" fill="#f8d060" r="4" /><circle cx="258" cy="162" fill="#f8e8b8" r="4" /><circle cx="270" cy="162" fill="#f8d060" r="4" /><circle cx="282" cy="162" fill="#f8d060" r="4" /><circle cx="294" cy="162" fill="#403838" r="4" /><circle cx="102" cy="174" fill="#403838" r="4" /><circle cx="114" cy="174" fill="#f8d060" r="4" /><circle cx="126" cy="174" fill="#f8d060" r="4" /><circle cx="138" cy="174" fill="#f8d060" r="4" /><circle cx="150" cy="174" fill="#403838" r="4" /><circle cx="162" cy="174" fill="#8860c0" r="4" /><circle cx="174" cy="174" fill="#8860c0" r="4" /><circle cx="186" cy="174" fill="#8860c0" r="4" /><circle cx="198" cy="174" fill="#8860c0" r="4" /><circle cx="210" cy="174" fill="#8860c0" r="4" /><circle cx="222" cy="174" fill="#8860c0" r="4" /><circle cx="234" cy="174" fill="#8860c0" r="4" /><circle cx="246" cy="174" fill="#403838" r="4" /><circle cx="258" cy="174" fill="#f8d060" r="4" /><circle cx="270" cy="174" fill="#f8d060" r="4" /><circle cx="282" cy="174" fill="#f8d060" r="4" /><circle cx="294" cy="174" fill="#403838" r="4" /><circle cx="102" cy="186" fill="#000000" r="4" /><circle cx="114" cy="186" fill="#f8d060" r="4" /><circle cx="126" cy="186" fill="#f8d060" r="4" /><circle cx="138" cy="186" fill="#c09818" r="4" /><circle cx="150" cy="186" fill="#684888" r="4" /><circle cx="162" cy="186" fill="#8860c0" r="4" /><circle cx="174" cy="186" fill="#8860c0" r="4" /><circle cx="186" cy="186" fill="#8860c0" r="4" /><circle cx="198" cy="186" fill="#8860c0" r="4" /><circle cx="210" cy="186" fill="#8860c0" r="4" /><circle cx="222" cy="186" fill="#8860c0" r="4" /><circle cx="234" cy="186" fill="#8860c0" r="4" /><circle cx="246" cy="186" fill="#684888" r="4" /><circle cx="258" cy="186" fill="#c09818" r="4" /><circle cx="270" cy="186" fill="#f8d060" r="4" /><circle cx="282" cy="186" fill="#f8d060" r="4" /><circle cx="294" cy="186" fill="#000000" r="4" /><circle cx="102" cy="198" fill="#000000" r="4" /><circle cx="114" cy="198" fill="#c09818" r="4" /><circle cx="126" cy="198" fill="#f8d060" r="4" /><circle cx="138" cy="198" fill="#403838" r="4" /><circle cx="150" cy="198" fill="#8860c0" r="4" /><circle cx="162" cy="198" fill="#e8e8f8" r="4" /><circle cx="174" cy="198" fill="#c0c0d0" r="4" /><circle cx="186" cy="198" fill="#8860c0" r="4" /><circle cx="198" cy="198" fill="#8860c0" r="4" /><circle cx="210" cy="198" fill="#8860c0" r="4" /><circle cx="222" cy="198" fill="#c0c0d0" r="4" /><circle cx="234" cy="198" fill="#e8e8f8" r="4" /><circle cx="246" cy="198" fill="#8860c0" r="4" /><circle cx="258" cy="198" fill="#403838" r="4" /><circle cx="270" cy="198" fill="#f8d060" r="4" /><circle cx="282" cy="198" fill="#c09818" r="4" /><circle cx="294" cy="198" fill="#000000" r="4" /><circle cx="306" cy="198" fill="#000000" r="4" /><circle cx="318" cy="198" fill="#000000" r="4" /><circle cx="78" cy="210" fill="#000000" r="4" /><circle cx="90" cy="210" fill="#000000" r="4" /><circle cx="102" cy="210" fill="#000000" r="4" /><circle cx="114" cy="210" fill="#c09818" r="4" /><circle cx="126" cy="210" fill="#f8d060" r="4" /><circle cx="138" cy="210" fill="#000000" r="4" /><circle cx="150" cy="210" fill="#e8e8f8" r="4" /><circle cx="162" cy="210" fill="#000000" r="4" /><circle cx="174" cy="210" fill="#e8e8f8" r="4" /><circle cx="186" cy="210" fill="#8860c0" r="4" /><circle cx="198" cy="210" fill="#8860c0" r="4" /><circle cx="210" cy="210" fill="#8860c0" r="4" /><circle cx="222" cy="210" fill="#e8e8f8" r="4" /><circle cx="234" cy="210" fill="#000000" r="4" /><circle cx="246" cy="210" fill="#e8e8f8" r="4" /><circle cx="258" cy="210" fill="#000000" r="4" /><circle cx="270" cy="210" fill="#f8d060" r="4" /><circle cx="282" cy="210" fill="#403838" r="4" /><circle cx="294" cy="210" fill="#8860c0" r="4" /><circle cx="306" cy="210" fill="#000000" r="4" /><circle cx="318" cy="210" fill="#8860c0" r="4" /><circle cx="330" cy="210" fill="#000000" r="4" /><circle cx="66" cy="222" fill="#000000" r="4" /><circle cx="78" cy="222" fill="#8860c0" r="4" /><circle cx="90" cy="222" fill="#000000" r="4" /><circle cx="102" cy="222" fill="#8860c0" r="4" /><circle cx="114" cy="222" fill="#403838" r="4" /><circle cx="126" cy="222" fill="#f8d060" r="4" /><circle cx="138" cy="222" fill="#000000" r="4" /><circle cx="150" cy="222" fill="#684888" r="4" /><circle cx="162" cy="222" fill="#c0c0d0" r="4" /><circle cx="174" cy="222" fill="#8860c0" r="4" /><circle cx="186" cy="222" fill="#c85878" r="4" /><circle cx="198" cy="222" fill="#f080a0" r="4" /><circle cx="210" cy="222" fill="#c85878" r="4" /><circle cx="222" cy="222" fill="#8860c0" r="4" /><circle cx="234" cy="222" fill="#c0c0d0" r="4" /><circle cx="246" cy="222" fill="#684888" r="4" /><circle cx="258" cy="222" fill="#000000" r="4" /><circle cx="270" cy="222" fill="#f8d060" r="4" /><circle cx="282" cy="222" fill="#000000" r="4" /><circle cx="294" cy="222" fill="#684888" r="4" /><circle cx="306" cy="222" fill="#403838" r="4" /><circle cx="318" cy="222" fill="#684888" r="4" /><circle cx="330" cy="222" fill="#8860c0" r="4" /><circle cx="342" cy="222" fill="#000000" r="4" /><circle cx="54" cy="234" fill="#000000" r="4" /><circle cx="66" cy="234" fill="#8860c0" r="4" /><circle cx="78" cy="234" fill="#684888" r="4" /><circle cx="90" cy="234" fill="#403838" r="4" /><circle cx="102" cy="234" fill="#684888" r="4" /><circle cx="114" cy="234" fill="#000000" r="4" /><circle cx="126" cy="234" fill="#f8d060" r="4" /><circle cx="138" cy="234" fill="#403838" r="4" /><circle cx="150" cy="234" fill="#000000" r="4" /><circle cx="162" cy="234" fill="#684888" r="4" /><circle cx="174" cy="234" fill="#8860c0" r="4" /><circle cx="186" cy="234" fill="#f080a0" r="4" /><circle cx="198" cy="234" fill="#684888" r="4" /><circle cx="210" cy="234" fill="#f080a0" r="4" /><circle cx="222" cy="234" fill="#8860c0" r="4" /><circle cx="234" cy="234" fill="#684888" r="4" /><circle cx="246" cy="234" fill="#000000" r="4" /><circle cx="258" cy="234" fill="#403838" r="4" /><circle cx="270" cy="234" fill="#f8d060" r="4" /><circle cx="282" cy="234" fill="#000000" r="4" /><circle cx="294" cy="234" fill="#684888" r="4" /><circle cx="306" cy="234" fill="#684888" r="4" /><circle cx="318" cy="234" fill="#684888" r="4" /><circle cx="330" cy="234" fill="#684888" r="4" /><circle cx="342" cy="234" fill="#000000" r="4" /><circle cx="54" cy="246" fill="#000000" r="4" /><circle cx="66" cy="246" fill="#684888" r="4" /><circle cx="78" cy="246" fill="#684888" r="4" /><circle cx="90" cy="246" fill="#684888" r="4" /><circle cx="102" cy="246" fill="#684888" r="4" /><circle cx="114" cy="246" fill="#000000" r="4" /><circle cx="126" cy="246" fill="#f8d060" r="4" /><circle cx="138" cy="246" fill="#c09818" r="4" /><circle cx="150" cy="246" fill="#403838" r="4" /><circle cx="162" cy="246" fill="#000000" r="4" /><circle cx="174" cy="246" fill="#000000" r="4" /><circle cx="186" cy="246" fill="#c85878" r="4" /><circle cx="198" cy="246" fill="#f080a0" r="4" /><circle cx="210" cy="246" fill="#c85878" r="4" /><circle cx="222" cy="246" fill="#000000" r="4" /><circle cx="234" cy="246" fill="#000000" r="4" /><circle cx="246" cy="246" fill="#403838" r="4" /><circle cx="258" cy="246" fill="#c09818" r="4" /><circle cx="270" cy="246" fill="#f8d060" r="4" /><circle cx="282" cy="246" fill="#403838" r="4" /><circle cx="294" cy="246" fill="#684888" r="4" /><circle cx="306" cy="246" fill="#684888" r="4" /><circle cx="318" cy="246" fill="#8860c0" r="4" /><circle cx="330" cy="246" fill="#000000" r="4" /><circle cx="66" cy="258" fill="#000000" r="4" /><circle cx="78" cy="258" fill="#8860c0" r="4" /><circle cx="90" cy="258" fill="#684888" r="4" /><circle cx="102" cy="258" fill="#684888" r="4" /><circle cx="114" cy="258" fill="#403838" r="4" /><circle cx="126" cy="258" fill="#000000" r="4" /><circle cx="138" cy="258" fill="#f8d060" r="4" /><circle cx="150" cy="258" fill="#000000" r="4" /><circle cx="162" cy="258" fill="#f8e020" r="4" /><circle cx="174" cy="258" fill="#f8e020" r="4" /><circle cx="186" cy="258" fill="#403838" r="4" /><circle cx="198" cy="258" fill="#403838" r="4" /><circle cx="210" cy="258" fill="#403838" r="4" /><circle cx="222" cy="258" fill="#f8e020" r="4" /><circle cx="234" cy="258" fill="#f8e020" r="4" /><circle cx="246" cy="258" fill="#000000" r="4" /><circle cx="258" cy="258" fill="#f8d060" r="4" /><circle cx="270" cy="258" fill="#000000" r="4" /><circle cx="282" cy="258" fill="#c0c0d0" r="4" /><circle cx="294" cy="258" fill="#c0c0d0" r="4" /><circle cx="306" cy="258" fill="#000000" r="4" /><circle cx="318" cy="258" fill="#000000" r="4" /><circle cx="78" cy="270" fill="#000000" r="4" /><circle cx="90" cy="270" fill="#000000" r="4" /><circle cx="102" cy="270" fill="#c0c0d0" r="4" /><circle cx="114" cy="270" fill="#c0c0d0" r="4" /><circle cx="126" cy="270" fill="#000000" r="4" /><circle cx="138" cy="270" fill="#000000" r="4" /><circle cx="150" cy="270" fill="#000000" r="4" /><circle cx="162" cy="270" fill="#f85848" r="4" /><circle cx="174" cy="270" fill="#f85848" r="4" /><circle cx="186" cy="270" fill="#f8e020" r="4" /><circle cx="198" cy="270" fill="#c09818" r="4" /><circle cx="210" cy="270" fill="#f8e020" r="4" /><circle cx="222" cy="270" fill="#f85848" r="4" /><circle cx="234" cy="270" fill="#f85848" r="4" /><circle cx="246" cy="270" fill="#000000" r="4" /><circle cx="258" cy="270" fill="#000000" r="4" /><circle cx="270" cy="270" fill="#9898b8" r="4" /><circle cx="282" cy="270" fill="#9898b8" r="4" /><circle cx="294" cy="270" fill="#000000" r="4" /><circle cx="102" cy="282" fill="#000000" r="4" /><circle cx="114" cy="282" fill="#9898b8" r="4" /><circle cx="126" cy="282" fill="#9898b8" r="4" /><circle cx="138" cy="282" fill="#b03820" r="4" /><circle cx="150" cy="282" fill="#c09818" r="4" /><circle cx="162" cy="282" fill="#f85848" r="4" /><circle cx="174" cy="282" fill="#f85848" r="4" /><circle cx="186" cy="282" fill="#c09818" r="4" /><circle cx="198" cy="282" fill="#f85848" r="4" /><circle cx="210" cy="282" fill="#c09818" r="4" /><circle cx="222" cy="282" fill="#f85848" r="4" /><circle cx="234" cy="282" fill="#f85848" r="4" /><circle cx="246" cy="282" fill="#c09818" r="4" /><circle cx="258" cy="282" fill="#b03820" r="4" /><circle cx="270" cy="282" fill="#000000" r="4" /><circle cx="282" cy="282" fill="#000000" r="4" /><circle cx="114" cy="294" fill="#000000" r="4" /><circle cx="126" cy="294" fill="#000000" r="4" /><circle cx="138" cy="294" fill="#b03820" r="4" /><circle cx="150" cy="294" fill="#b03820" r="4" /><circle cx="162" cy="294" fill="#c09818" r="4" /><circle cx="174" cy="294" fill="#c09818" r="4" /><circle cx="186" cy="294" fill="#b03820" r="4" /><circle cx="198" cy="294" fill="#f85848" r="4" /><circle cx="210" cy="294" fill="#b03820" r="4" /><circle cx="222" cy="294" fill="#c09818" r="4" /><circle cx="234" cy="294" fill="#c09818" r="4" /><circle cx="246" cy="294" fill="#b03820" r="4" /><circle cx="258" cy="294" fill="#b03820" r="4" /><circle cx="270" cy="294" fill="#b03820" r="4" /><circle cx="282" cy="294" fill="#403838" r="4" /><circle cx="114" cy="306" fill="#000000" r="4" /><circle cx="126" cy="306" fill="#f85848" r="4" /><circle cx="138" cy="306" fill="#b03820" r="4" /><circle cx="150" cy="306" fill="#b03820" r="4" /><circle cx="162" cy="306" fill="#f85848" r="4" /><circle cx="174" cy="306" fill="#f85848" r="4" /><circle cx="186" cy="306" fill="#b03820" r="4" /><circle cx="198" cy="306" fill="#f85848" r="4" /><circle cx="210" cy="306" fill="#b03820" r="4" /><circle cx="222" cy="306" fill="#f85848" r="4" /><circle cx="234" cy="306" fill="#f85848" r="4" /><circle cx="246" cy="306" fill="#b03820" r="4" /><circle cx="258" cy="306" fill="#b03820" r="4" /><circle cx="270" cy="306" fill="#f85848" r="4" /><circle cx="282" cy="306" fill="#000000" r="4" /><circle cx="126" cy="318" fill="#000000" r="4" /><circle cx="138" cy="318" fill="#f85848" r="4" /><circle cx="150" cy="318" fill="#f85848" r="4" /><circle cx="162" cy="318" fill="#f85848" r="4" /><circle cx="174" cy="318" fill="#b03820" r="4" /><circle cx="186" cy="318" fill="#f85848" r="4" /><circle cx="198" cy="318" fill="#f85848" r="4" /><circle cx="210" cy="318" fill="#f85848" r="4" /><circle cx="222" cy="318" fill="#b03820" r="4" /><circle cx="234" cy="318" fill="#f85848" r="4" /><circle cx="246" cy="318" fill="#f85848" r="4" /><circle cx="258" cy="318" fill="#f85848" r="4" /><circle cx="270" cy="318" fill="#000000" r="4" /><circle cx="138" cy="330" fill="#000000" r="4" /><circle cx="150" cy="330" fill="#000000" r="4" /><circle cx="162" cy="330" fill="#000000" r="4" /><circle cx="174" cy="330" fill="#000000" r="4" /><circle cx="186" cy="330" fill="#f85848" r="4" /><circle cx="198" cy="330" fill="#f85848" r="4" /><circle cx="210" cy="330" fill="#f85848" r="4" /><circle cx="222" cy="330" fill="#000000" r="4" /><circle cx="234" cy="330" fill="#000000" r="4" /><circle cx="246" cy="330" fill="#000000" r="4" /><circle cx="258" cy="330" fill="#000000" r="4" /><circle cx="174" cy="342" fill="#000000" r="4" /><circle cx="186" cy="342" fill="#000000" r="4" /><circle cx="198" cy="342" fill="#000000" r="4" /><circle cx="210" cy="342" fill="#000000" r="4" /><circle cx="222" cy="342" fill="#000000" r="4" /></svg>