<?xml version="1.0" encoding="utf-8" ?>
<svg baseProfile="full" height="288" version="1.1" width="240" xmlns="http://www.w3.org/2000/svg" xmlns:ev="http://www.w3.org/2001/xml-events" xmlns:xlink="http://www.w3.org/1999/xlink"><defs /><rect fill="#000000" height="9" rx="2" ry="2" width="9" x="38" y="2" /><rect fill="#000000" height="9" rx="2" ry="2" width="9" x="50" y="2" /><rect fill="#000000" height="9" rx="2" ry="2" width="9" x="62" y="2" /><rect fill="#000000" height="9" rx="2" ry="2" width="9" x="74" y="2" /><rect fill="#000000" height="9" rx="2" ry="2" width="9" x="86" y="2" /><rect fill="#000000" height="9" rx="2" ry="2" width="9" x="146" y="2" /><rect fill="#000000" height="9" rx="2" ry="2" width="9" x="158" y="2" /><rect fill="#000000" height="9" rx="2" ry="2" width="9" x="170" y="2" /><rect fill="#000000" height="9" rx="2" ry="2" width="9" x="182" y="2" /><rect fill="#000000" height="9" rx="2" ry="2" width="9" x="194" y="2" /><rect fill="#000000" height="9" rx="2" ry="2" width="9" x="26" y="14" /><rect fill="#000000" height="9" rx="2" ry="2" width="9" x="38" y="14" /><rect fill="#000000" height="9" rx="2" ry="2" width="9" x="50" y="14" /><rect fill="#000000" height="9" rx="2" ry="2" width="9" x="62" y="14" /><rect fill="#000000" height="9" rx="2" ry="2" width="9" x="74" y="14" /><rect fill="#000000" height="9" rx="2" ry="2" width="9" x="86" y="14" /><rect fill="#000000" height="9" rx="2" ry="2" width="9" x="98" y="14" /><rect fill="#000000" height="9" rx="2" ry="2" width="9" x="134" y="14" /><rect fill="#000000" height="9" rx="2" ry="2" width="9" x="146" y="14" /><rect fill="#000000" height="9" rx="2" ry="2" width="9" x="158" y="14" /><rect fill="#000000" height="9" rx="2" ry="2" width="9" x="170" y="14" /><rect fill="#000000" height="9" rx="2" ry="2" width="9" x="182" y="14" /><rect fill="#000000" height="9" rx="2" ry="2" width="9" x="194" y="14" /><rect fill="#000000" height="9" rx="2" ry="2" width="9" x="206" y="14" /><rect fill="#000000" height="9" rx="2" ry="2" width="9" x="26" y="26" /><rect fill="#000000" height="9" rx="2" ry="2" width="9" x="38" y="26" /><rect fill="#000000" height="9" rx="2" ry="2" width="9" x="50" y="26" /><rect fill="#000000" height="9" rx="2" ry="2" width="9" x="62" y="26" /><rect fill="#000000" height="9" rx="2" ry="2" width="9" x="74" y="26" /><rect fill="#000000" height="9" rx="2" ry="2" width="9" x="86" y="26" /><rect fill="#000000" height="9" rx="2" ry="2" width="9" x="98" y="26" /><rect fill="#000000" height="9" rx="2" ry="2" width="9" x="134" y="26" /><rect fill="#000000" height="9" rx="2" ry="2" width="9" x="146" y="26" /><rect fill="#000000" height="9" rx="2" ry="2" width="9" x="158" y="26" /><rect fill="#000000" height="9" rx="2" ry="2" width="9" x="170" y="26" /><rect fill="#000000" height="9" rx="2" ry="2" width="9" x="182" y="26" /><rect fill="#000000" height="9" rx="2" ry="2" width="9" x="194" y="26" /><rect fill="#000000" height="9" rx="2" ry="2" width="9" x="206" y="26" /><rect fill="#000000" height="9" rx="2" ry="2" width="9" x="26" y="38" /><rect fill="#000000" height="9" rx="2" ry="2" width="9" x="38" y="38" /><rect fill="#000000" height="9" rx="2" ry="2" width="9" x="50" y="38" /><rect fill="#000000" height="9" rx="2" ry="2" width="9" x="62" y="38" /><rect fill="#000000" height="9" rx="2" ry="2" width="9" x="74" y="38" /><rect fill="#000000" height="9" rx="2" ry="2" width="9" x="86" y="38" /><rect fill="#000000" height="9" rx="2" ry="2" width="9" x="98" y="38" /><rect fill="#000000" height="9" rx="2" ry="2" width="9" x="110" y="38" /><rect fill="#000000" height="9" rx="2" ry="2" width="9" x="122" y="38" /><rect fill="#000000" height="9" rx="2" ry="2" width="9" x="134" y="38" /><rect fill="#000000" height="9" rx="2" ry="2" width="9" x="146" y="38" /><rect fill="#000000" height="9" rx="2" ry="2" width="9" x="158" y="38" /><rect fill="#000000" height="9" rx="2" ry="2" width="9" x="170" y="38" /><rect fill="#000000" height="9" rx="2" ry="2" width="9" x="182" y="38" /><rect fill="#000000" height="9" rx="2" ry="2" width="9" x="194" y="38" /><rect fill="#000000" height="9" rx="2" ry="2" width="9" x="206" y="38" /><rect fill="#000000" height="9" rx="2" ry="2" width="9" x="26" y="50" /><rect fill="#000000" height="9" rx="2" ry="2" width="9" x="38" y="50" /><rect fill="#000000" height="9" rx="2" ry="2" width="9" x="50" y="50" /><rect fill="#000000" height="9" rx="2" ry="2" width="9" x="62" y="50" /><rect fill="#000000" height="9" rx="2" ry="2" width="9" x="74" y="50" /><rect fill="#000000" height="9" rx="2" ry="2" width="9" x="86" y="50" /><rect fill="#000000" height="9" rx="2" ry="2" width="9" x="98" y="50" /><rect fill="#000000" height="9" rx="2" ry="2" width="9" x="110" y="50" /><rect fill="#000000" height="9" rx="2" ry="2" width="9" x="122" y="50" /><rect fill="#000000" height="9" rx="2" ry="2" width="9" x="134" y="50" /><rect fill="#000000" height="9" rx="2" ry="2" width="9" x="146" y="50" /><rect fill="#000000" height="9" rx="2" ry="2" width="9" x="158" y="50" /><rect fill="#000000" height="9" rx="2" ry="2" width="9" x="170" y="50" /><rect fill="#000000" height="9" rx="2" ry="2" width="9" x="182" y="50" /><rect fill="#000000" height="9" rx="2" ry="2" width="9" x="194" y="50" /><rect fill="#000000" height="9" rx="2" ry="2" width="9" x="206" y="50" /><rect fill="#000000" height="9" rx="2" ry="2" width="9" x="14" y="62" /><rect fill="#000000" height="9" rx="2" ry="2" width="9" x="26" y="62" /><rect fill="#000000" height="9" rx="2" ry="2" width="9" x="38" y="62" /><rect fill="#000000" height="9" rx="2" ry="2" width="9" x="50" y="62" /><rect fill="#000000" height="9" rx="2" ry="2" width="9" x="62" y="62" /><rect fill="#000000" height="9" rx="2" ry="2" width="9" x="74" y="62" /><rect fill="#000000" height="9" rx="2" ry="2" width="9" x="86" y="62" /><rect fill="#000000" height="9" rx="2" ry="2" width="9" x="98" y="62" /><rect fill="#000000" height="9" rx="2" ry="2" width="9" x="110" y="62" /><rect fill="#000000" height="9" rx="2" ry="2" width="9" x="122" y="62" /><rect fill="#000000" height="9" rx="2" ry="2" width="9" x="134" y="62" /><rect fill="#000000" height="9" rx="2" ry="2" width="9" x="146" y="62" /><rect fill="#000000" height="9" rx="2" ry="2" width="9" x="158" y="62" /><rect fill="#000000" height="9" rx="2" ry="2" width="9" x="170" y="62" /><rect fill="#000000" height="9" rx="2" ry="2" width="9" x="182" y="62" /><rect fill="#000000" height="9" rx="2" ry="2" width="9" x="194" y="62" /><rect fill="#000000" height="9" rx="2" ry="2" width="9" x="206" y="62" /><rect fill="#000000" height="9" rx="2" ry="2" width="9" x="218" y="62" /><rect fill="#000000" height="9" rx="2" ry="2" width="9" x="14" y="74" /><rect fill="#000000" height="9" rx="2" ry="2" width="9" x="26" y="74" /><rect fill="#000000" height="9" rx="2" ry="2" width="9" x="206" y="74" /><rect fill="#000000" height="9" rx="2" ry="2" width="9" x="218" y="74" /><rect fill="#000000" height="9" rx="2" ry="2" width="9" x="2" y="86" /><rect fill="#000000" height="9" rx="2" ry="2" width="9" x="14" y="86" /><rect fill="#000000" height="9" rx="2" ry="2" width="9" x="218" y="86" /><rect fill="#000000" height="9" rx="2" ry="2" width="9" x="230" y="86" /><rect fill="#000000" height="9" rx="2" ry="2" width="9" x="2" y="98" /><rect fill="#000000" height="9" rx="2" ry="2" width="9" x="50" y="98" /><rect fill="#000000" height="9" rx="2" ry="2" width="9" x="62" y="98" /><rect fill="#000000" height="9" rx="2" ry="2" width="9" x="74" y="98" /><rect fill="#000000" height="9" rx="2" ry="2" width="9" x="158" y="98" /><rect fill="#000000" height="9" rx="2" ry="2" width="9" x="170" y="98" /><rect fill="#000000" height="9" rx="2" ry="2" width="9" x="182" y="98" /><rect fill="#000000" height="9" rx="2" ry="2" width="9" x="230" y="98" /><rect fill="#000000" height="9" rx="2" ry="2" width="9" x="2" y="110" /><rect fill="#000000" height="9" rx="2" ry="2" width="9" x="38" y="110" /><rect fill="#000000" height="9" rx="2" ry="2" width="9" x="62" y="110" /><rect fill="#000000" height="9" rx="2" ry="2" width="9" x="86" y="110" /><rect fill="#000000" height="9" rx="2" ry="2" width="9" x="146" y="110" /><rect fill="#000000" height="9" rx="2" ry="2" width="9" x="170" y="110" /><rect fill="#000000" height="9" rx="2" ry="2" width="9" x="194" y="110" /><rect fill="#000000" height="9" rx="2" ry="2" width="9" x="230" y="110" /><rect fill="#000000" height="9" rx="2" ry="2" width="9" x="2" y="122" /><rect fill="#000000" height="9" rx="2" ry="2" width="9" x="38" y="122" /><rect fill="#000000" height="9" rx="2" ry="2" width="9" x="50" y="122" /><rect fill="#000000" height="9" rx="2" ry="2" width="9" x="62" y="122" /><rect fill="#000000" height="9" rx="2" ry="2" width="9" x="86" y="122" /><rect fill="#000000" height="9" rx="2" ry="2" width="9" x="146" y="122" /><rect fill="#000000" height="9" rx="2" ry="2" width="9" x="158" y="122" /><rect fill="#000000" height="9" rx="2" ry="2" width="9" x="170" y="122" /><rect fill="#000000" height="9" rx="2" ry="2" width="9" x="194" y="122" /><rect fill="#000000" height="9" rx="2" ry="2" width="9" x="230" y="122" /><rect fill="#000000" height="9" rx="2" ry="2" width="9" x="2" y="134" /><rect fill="#000000" height="9" rx="2" ry="2" width="9" x="38" y="134" /><rect fill="#000000" height="9" rx="2" ry="2" width="9" x="50" y="134" /><rect fill="#000000" height="9" rx="2" ry="2" width="9" x="62" y="134" /><rect fill="#000000" height="9" rx="2" ry="2" width="9" x="86" y="134" /><rect fill="#000000" height="9" rx="2" ry="2" width="9" x="146" y="134" /><rect fill="#000000" height="9" rx="2" ry="2" width="9" x="158" y="134" /><rect fill="#000000" height="9" rx="2" ry="2" width="9" x="170" y="134" /><rect fill="#000000" height="9" rx="2" ry="2" width="9" x="194" y="134" /><rect fill="#000000" height="9" rx="2" ry="2" width="9" x="230" y="134" /><rect fill="#000000" height="9" rx="2" ry="2" width="9" x="2" y="146" /><rect fill="#000000" height="9" rx="2" ry="2" width="9" x="26" y="146" /><rect fill="#000000" height="9" rx="2" ry="2" width="9" x="50" y="146" /><rect fill="#000000" height="9" rx="2" ry="2" width="9" x="62" y="146" /><rect fill="#000000" height="9" rx="2" ry="2" width="9" x="74" y="146" /><rect fill="#000000" height="9" rx="2" ry="2" width="9" x="158" y="146" /><rect fill="#000000" height="9" rx="2" ry="2" width="9" x="170" y="146" /><rect fill="#000000" height="9" rx="2" ry="2" width="9" x="182" y="146" /><rect fill="#000000" height="9" rx="2" ry="2" width="9" x="206" y="146" /><rect fill="#000000" height="9" rx="2" ry="2" width="9" x="230" y="146" /><rect fill="#000000" height="9" rx="2" ry="2" width="9" x="14" y="158" /><rect fill="#000000" height="9" rx="2" ry="2" width="9" x="38" y="158" /><rect fill="#000000" height="9" rx="2" ry="2" width="9" x="98" y="158" /><rect fill="#000000" height="9" rx="2" ry="2" width="9" x="134" y="158" /><rect fill="#000000" height="9" rx="2" ry="2" width="9" x="194" y="158" /><rect fill="#000000" height="9" rx="2" ry="2" width="9" x="218" y="158" /><rect fill="#000000" height="9" rx="2" ry="2" width="9" x="26" y="170" /><rect fill="#000000" height="9" rx="2" ry="2" width="9" x="110" y="170" /><rect fill="#000000" height="9" rx="2" ry="2" width="9" x="122" y="170" /><rect fill="#000000" height="9" rx="2" ry="2" width="9" x="206" y="170" /><rect fill="#000000" height="9" rx="2" ry="2" width="9" x="38" y="182" /><rect fill="#000000" height="9" rx="2" ry="2" width="9" x="50" y="182" /><rect fill="#000000" height="9" rx="2" ry="2" width="9" x="62" y="182" /><rect fill="#000000" height="9" rx="2" ry="2" width="9" x="74" y="182" /><rect fill="#000000" height="9" rx="2" ry="2" width="9" x="86" y="182" /><rect fill="#000000" height="9" rx="2" ry="2" width="9" x="98" y="182" /><rect fill="#000000" height="9" rx="2" ry="2" width="9" x="110" y="182" /><rect fill="#000000" height="9" rx="2" ry="2" width="9" x="122" y="182" /><rect fill="#000000" height="9" rx="2" ry="2" width="9" x="134" y="182" /><rect fill="#000000" height="9" rx="2" ry="2" width="9" x="146" y="182" /><rect fill="#000000" height="9" rx="2" ry="2" width="9" x="158" y="182" /><rect fill="#000000" height="9" rx="2" ry="2" width="9" x="170" y="182" /><rect fill="#000000" height="9" rx="2" ry="2" width="9" x="182" y="182" /><rect fill="#000000" height="9" rx="2" ry="2" width="9" x="194" y="182" /><rect fill="#000000" height="9" rx="2" ry="2" width="9" x="50" y="194" /><rect fill="#000000" height="9" rx="2" ry="2" width="9" x="86" y="194" /><rect fill="#000000" height="9" rx="2" ry="2" width="9" x="170" y="194" /><rect fill="#000000" height="9" rx="2" ry="2" width="9" x="50" y="206" /><rect fill="#000000" height="9" rx="2" ry="2" width="9" x="86" y="206" /><rect fill="#000000" height="9" rx="2" ry="2" width="9" x="182" y="206" /><rect fill="#000000" height="9" rx="2" ry="2" width="9" x="62" y="218" /><rect fill="#000000" height="9" rx="2" ry="2" width="9" x="74" y="218" /><rect fill="#000000" height="9" rx="2" ry="2" width="9" x="134" y="218" /><rect fill="#000000" height="9" rx="2" ry="2" width="9" x="146" y="218" /><rect fill="#000000" height="9" rx="2" ry="2" width="9" x="158" y="218" /><rect fill="#000000" height="9" rx="2" ry="2" width="9" x="194" y="218" /><rect fill="#000000" height="9" rx="2" ry="2" width="9" x="74" y="230" /><rect fill="#000000" height="9" rx="2" ry="2" width="9" x="122" y="230" /><rect fill="#000000" height="9" rx="2" ry="2" width="9" x="158" y="230" /><rect fill="#000000" height="9" rx="2" ry="2" width="9" x="170" y="230" /><rect fill="#000000" height="9" rx="2" ry="2" width="9" x="182" y="230" /><rect fill="#000000" height="9" rx="2" ry="2" width="9" x="194" y="230" /><rect fill="#000000" height="9" rx="2" ry="2" width="9" x="74" y="242" /><rect fill="#000000" height="9" rx="2" ry="2" width="9" x="122" y="242" /><rect fill="#000000" height="9" rx="2" ry="2" width="9" x="158" y="242" /><rect fill="#000000" height="9" rx="2" ry="2" width="9" x="86" y="254" /><rect fill="#000000" height="9" rx="2" ry="2" width="9" x="122" y="254" /><rect fill="#000000" height="9" rx="2" ry="2" width="9" x="134" y="254" /><rect fill="#000000" height="9" rx="2" ry="2" width="9" x="146" y="254" /><rect fill="#000000" height="9" rx="2" ry="2" width="9" x="86" y="266" /><rect fill="#000000" height="9" rx="2" ry="2" width="9" x="122" y="266" /><rect fill="#000000" height="9" rx="2" ry="2" width="9" x="98" y="278" /><rect fill="#000000" height="9" rx="2" ry="2" width="9" x="110" y="278" /></svg>