<?xml version="1.0" encoding="utf-8" ?>
<svg baseProfile="full" height="192" version="1.1" width="192" xmlns="http://www.w3.org/2000/svg" xmlns:ev="http://www.w3.org/2001/xml-events" xmlns:xlink="http://www.w3.org/1999/xlink"><defs /><circle cx="66" cy="6" fill="#000000" r="4" /><circle cx="78" cy="6" fill="#000000" r="4" /><circle cx="90" cy="6" fill="#000000" r="4" /><circle cx="102" cy="6" fill="#000000" r="4" /><circle cx="114" cy="6" fill="#000000" r="4" /><circle cx="126" cy="6" fill="#000000" r="4" /><circle cx="30" cy="18" fill="#000000" r="4" /><circle cx="42" cy="18" fill="#000000" r="4" /><circle cx="54" cy="18" fill="#000000" r="4" /><circle cx="66" cy="18" fill="#f8f8f8" r="4" /><circle cx="78" cy="18" fill="#f8f8f8" r="4" /><circle cx="90" cy="18" fill="#f8f8f8" r="4" /><circle cx="102" cy="18" fill="#f8f8f8" r="4" /><circle cx="114" cy="18" fill="#f8f8f8" r="4" /><circle cx="126" cy="18" fill="#f8f8f8" r="4" /><circle cx="138" cy="18" fill="#000000" r="4" /><circle cx="42" cy="30" fill="#000000" r="4" /><circle cx="54" cy="30" fill="#f8f8f8" r="4" /><circle cx="66" cy="30" fill="#000000" r="4" /><circle cx="78" cy="30" fill="#000000" r="4" /><circle cx="90" cy="30" fill="#f8f8f8" r="4" /><circle cx="102" cy="30" fill="#000000" r="4" /><circle cx="114" cy="30" fill="#000000" r="4" /><circle cx="126" cy="30" fill="#000000" r="4" /><circle cx="138" cy="30" fill="#f8f8f8" r="4" /><circle cx="150" cy="30" fill="#000000" r="4" /><circle cx="42" cy="42" fill="#000000" r="4" /><circle cx="54" cy="42" fill="#000000" r="4" /><circle cx="66" cy="42" fill="#f8f8f8" r="4" /><circle cx="78" cy="42" fill="#f8f8f8" r="4" /><circle cx="90" cy="42" fill="#000000" r="4" /><circle cx="102" cy="42" fill="#f8f8f8" r="4" /><circle cx="114" cy="42" fill="#f8f8f8" r="4" /><circle cx="126" cy="42" fill="#f8f8f8" r="4" /><circle cx="138" cy="42" fill="#000000" r="4" /><circle cx="150" cy="42" fill="#000000" r="4" /><circle cx="30" cy="54" fill="#000000" r="4" /><circle cx="42" cy="54" fill="#000000" r="4" /><circle cx="54" cy="54" fill="#f8f8f8" r="4" /><circle cx="66" cy="54" fill="#f8f8f8" r="4" /><circle cx="78" cy="54" fill="#f8f8f8" r="4" /><circle cx="90" cy="54" fill="#f8f8f8" r="4" /><circle cx="102" cy="54" fill="#f8f8f8" r="4" /><circle cx="114" cy="54" fill="#f8f8f8" r="4" /><circle cx="126" cy="54" fill="#f8f8f8" r="4" /><circle cx="138" cy="54" fill="#f8f8f8" r="4" /><circle cx="150" cy="54" fill="#000000" r="4" /><circle cx="162" cy="54" fill="#000000" r="4" /><circle cx="18" cy="66" fill="#000000" r="4" /><circle cx="30" cy="66" fill="#f8f8f8" r="4" /><circle cx="42" cy="66" fill="#000000" r="4" /><circle cx="54" cy="66" fill="#f8f8f8" r="4" /><circle cx="66" cy="66" fill="#a8a8a8" r="4" /><circle cx="78" cy="66" fill="#f8f8f8" r="4" /><circle cx="90" cy="66" fill="#f8f8f8" r="4" /><circle cx="102" cy="66" fill="#f8f8f8" r="4" /><circle cx="114" cy="66" fill="#f8f8f8" r="4" /><circle cx="126" cy="66" fill="#a8a8a8" r="4" /><circle cx="138" cy="66" fill="#f8f8f8" r="4" /><circle cx="150" cy="66" fill="#000000" r="4" /><circle cx="162" cy="66" fill="#f8f8f8" r="4" /><circle cx="174" cy="66" fill="#000000" r="4" /><circle cx="18" cy="78" fill="#000000" r="4" /><circle cx="30" cy="78" fill="#f8f8f8" r="4" /><circle cx="42" cy="78" fill="#f8f8f8" r="4" /><circle cx="54" cy="78" fill="#f8f8f8" r="4" /><circle cx="66" cy="78" fill="#f8f8f8" r="4" /><circle cx="78" cy="78" fill="#000000" r="4" /><circle cx="90" cy="78" fill="#a8a8a8" r="4" /><circle cx="102" cy="78" fill="#a8a8a8" r="4" /><circle cx="114" cy="78" fill="#000000" r="4" /><circle cx="126" cy="78" fill="#f8f8f8" r="4" /><circle cx="138" cy="78" fill="#f8f8f8" r="4" /><circle cx="150" cy="78" fill="#f8f8f8" r="4" /><circle cx="162" cy="78" fill="#f8f8f8" r="4" /><circle cx="174" cy="78" fill="#000000" r="4" /><circle cx="18" cy="90" fill="#000000" r="4" /><circle cx="30" cy="90" fill="#f8f8f8" r="4" /><circle cx="42" cy="90" fill="#a8a8a8" r="4" /><circle cx="54" cy="90" fill="#f8f8f8" r="4" /><circle cx="66" cy="90" fill="#f8f8f8" r="4" /><circle cx="78" cy="90" fill="#000000" r="4" /><circle cx="90" cy="90" fill="#f8f8f8" r="4" /><circle cx="102" cy="90" fill="#f8f8f8" r="4" /><circle cx="114" cy="90" fill="#000000" r="4" /><circle cx="126" cy="90" fill="#f8f8f8" r="4" /><circle cx="138" cy="90" fill="#f8f8f8" r="4" /><circle cx="150" cy="90" fill="#a8a8a8" r="4" /><circle cx="162" cy="90" fill="#f8f8f8" r="4" /><circle cx="174" cy="90" fill="#000000" r="4" /><circle cx="30" cy="102" fill="#000000" r="4" /><circle cx="42" cy="102" fill="#000000" r="4" /><circle cx="54" cy="102" fill="#f8f8f8" r="4" /><circle cx="66" cy="102" fill="#f8f8f8" r="4" /><circle cx="78" cy="102" fill="#f8f8f8" r="4" /><circle cx="90" cy="102" fill="#f8f8f8" r="4" /><circle cx="102" cy="102" fill="#f8f8f8" r="4" /><circle cx="114" cy="102" fill="#f8f8f8" r="4" /><circle cx="126" cy="102" fill="#f8f8f8" r="4" /><circle cx="138" cy="102" fill="#f8f8f8" r="4" /><circle cx="150" cy="102" fill="#000000" r="4" /><circle cx="162" cy="102" fill="#000000" r="4" /><circle cx="18" cy="114" fill="#000000" r="4" /><circle cx="30" cy="114" fill="#000000" r="4" /><circle cx="42" cy="114" fill="#f8f8f8" r="4" /><circle cx="54" cy="114" fill="#000000" r="4" /><circle cx="66" cy="114" fill="#f8f8f8" r="4" /><circle cx="78" cy="114" fill="#f8f8f8" r="4" /><circle cx="90" cy="114" fill="#a8a8a8" r="4" /><circle cx="102" cy="114" fill="#a8a8a8" r="4" /><circle cx="114" cy="114" fill="#f8f8f8" r="4" /><circle cx="126" cy="114" fill="#f8f8f8" r="4" /><circle cx="138" cy="114" fill="#000000" r="4" /><circle cx="150" cy="114" fill="#f8f8f8" r="4" /><circle cx="162" cy="114" fill="#000000" r="4" /><circle cx="174" cy="114" fill="#000000" r="4" /><circle cx="6" cy="126" fill="#000000" r="4" /><circle cx="18" cy="126" fill="#f8f8f8" r="4" /><circle cx="30" cy="126" fill="#f8f8f8" r="4" /><circle cx="42" cy="126" fill="#000000" r="4" /><circle cx="54" cy="126" fill="#f8f8f8" r="4" /><circle cx="66" cy="126" fill="#000000" r="4" /><circle cx="78" cy="126" fill="#000000" r="4" /><circle cx="90" cy="126" fill="#000000" r="4" /><circle cx="102" cy="126" fill="#000000" r="4" /><circle cx="114" cy="126" fill="#000000" r="4" /><circle cx="126" cy="126" fill="#000000" r="4" /><circle cx="138" cy="126" fill="#f8f8f8" r="4" /><circle cx="150" cy="126" fill="#000000" r="4" /><circle cx="162" cy="126" fill="#f8f8f8" r="4" /><circle cx="174" cy="126" fill="#f8f8f8" r="4" /><circle cx="186" cy="126" fill="#000000" r="4" /><circle cx="6" cy="138" fill="#000000" r="4" /><circle cx="18" cy="138" fill="#f8f8f8" r="4" /><circle cx="30" cy="138" fill="#f8f8f8" r="4" /><circle cx="42" cy="138" fill="#000000" r="4" /><circle cx="54" cy="138" fill="#f8f8f8" r="4" /><circle cx="66" cy="138" fill="#f8f8f8" r="4" /><circle cx="78" cy="138" fill="#000000" r="4" /><circle cx="90" cy="138" fill="#000000" r="4" /><circle cx="102" cy="138" fill="#000000" r="4" /><circle cx="114" cy="138" fill="#000000" r="4" /><circle cx="126" cy="138" fill="#f8f8f8" r="4" /><circle cx="138" cy="138" fill="#f8f8f8" r="4" /><circle cx="150" cy="138" fill="#000000" r="4" /><circle cx="162" cy="138" fill="#f8f8f8" r="4" /><circle cx="174" cy="138" fill="#f8f8f8" r="4" /><circle cx="186" cy="138" fill="#000000" r="4" /><circle cx="18" cy="150" fill="#000000" r="4" /><circle cx="30" cy="150" fill="#000000" r="4" /><circle cx="42" cy="150" fill="#000000" r="4" /><circle cx="54" cy="150" fill="#f8f8f8" r="4" /><circle cx="66" cy="150" fill="#f8f8f8" r="4" /><circle cx="78" cy="150" fill="#000000" r="4" /><circle cx="90" cy="150" fill="#a8a8a8" r="4" /><circle cx="102" cy="150" fill="#a8a8a8" r="4" /><circle cx="114" cy="150" fill="#000000" r="4" /><circle cx="126" cy="150" fill="#f8f8f8" r="4" /><circle cx="138" cy="150" fill="#f8f8f8" r="4" /><circle cx="150" cy="150" fill="#000000" r="4" /><circle cx="162" cy="150" fill="#000000" r="4" /><circle cx="174" cy="150" fill="#000000" r="4" /><circle cx="30" cy="162" fill="#000000" r="4" /><circle cx="42" cy="162" fill="#f8f8f8" r="4" /><circle cx="54" cy="162" fill="#f8f8f8" r="4" /><circle cx="66" cy="162" fill="#f8f8f8" r="4" /><circle cx="78" cy="162" fill="#000000" r="4" /><circle cx="90" cy="162" fill="#000000" r="4" /><circle cx="102" cy="162" fill="#000000" r="4" /><circle cx="114" cy="162" fill="#000000" r="4" /><circle cx="126" cy="162" fill="#f8f8f8" r="4" /><circle cx="138" cy="162" fill="#f8f8f8" r="4" /><circle cx="150" cy="162" fill="#f8f8f8" r="4" /><circle cx="162" cy="162" fill="#000000" r="4" /><circle cx="42" cy="174" fill="#000000" r="4" /><circle cx="54" cy="174" fill="#000000" r="4" /><circle cx="66" cy="174" fill="#000000" r="4" /><circle cx="78" cy="174" fill="#000000" r="4" /><circle cx="90" cy="174" fill="#000000" r="4" /><circle cx="102" cy="174" fill="#000000" r="4" /><circle cx="114" cy="174" fill="#000000" r="4" /><circle cx="126" cy="174" fill="#000000" r="4" /><circle cx="138" cy="174" fill="#000000" r="4" /><circle cx="150" cy="174" fill="#000000" r="4" /><circle cx="30" cy="186" fill="#000000" r="4" /><circle cx="42" cy="186" fill="#000000" r="4" /><circle cx="54" cy="186" fill="#000000" r="4" /><circle cx="66" cy="186" fill="#000000" r="4" /><circle cx="78" cy="186" fill="#000000" r="4" /><circle cx="114" cy="186" fill="#000000" r="4" /><circle cx="126" cy="186" fill="#000000" r="4" /><circle cx="138" cy="186" fill="#000000" r="4" /><circle cx="150" cy="186" fill="#000000" r="4" /><circle cx="162" cy="186" fill="#000000" r="4" /></svg>