<?xml version="1.0" encoding="utf-8" ?>
<svg baseProfile="full" height="384" version="1.1" width="192" xmlns="http://www.w3.org/2000/svg" xmlns:ev="http://www.w3.org/2001/xml-events" xmlns:xlink="http://www.w3.org/1999/xlink"><defs /><rect fill="#040204" height="9" rx="2" ry="2" width="9" x="74" y="2" /><rect fill="#040204" height="9" rx="2" ry="2" width="9" x="86" y="2" /><rect fill="#040204" height="9" rx="2" ry="2" width="9" x="98" y="2" /><rect fill="#040204" height="9" rx="2" ry="2" width="9" x="110" y="2" /><rect fill="#040204" height="9" rx="2" ry="2" width="9" x="158" y="2" /><rect fill="#040204" height="9" rx="2" ry="2" width="9" x="170" y="2" /><rect fill="#040204" height="9" rx="2" ry="2" width="9" x="38" y="14" /><rect fill="#040204" height="9" rx="2" ry="2" width="9" x="50" y="14" /><rect fill="#040204" height="9" rx="2" ry="2" width="9" x="62" y="14" /><rect fill="#040204" height="9" rx="2" ry="2" width="9" x="74" y="14" /><rect fill="#040204" height="9" rx="2" ry="2" width="9" x="86" y="14" /><rect fill="#040204" height="9" rx="2" ry="2" width="9" x="98" y="14" /><rect fill="#040204" height="9" rx="2" ry="2" width="9" x="110" y="14" /><rect fill="#040204" height="9" rx="2" ry="2" width="9" x="122" y="14" /><rect fill="#040204" height="9" rx="2" ry="2" width="9" x="134" y="14" /><rect fill="#040204" height="9" rx="2" ry="2" width="9" x="146" y="14" /><rect fill="#fccac4" height="9" rx="2" ry="2" width="9" x="158" y="14" /><rect fill="#fccac4" height="9" rx="2" ry="2" width="9" x="170" y="14" /><rect fill="#040204" height="9" rx="2" ry="2" width="9" x="182" y="14" /><rect fill="#040204" height="9" rx="2" ry="2" width="9" x="26" y="26" /><rect fill="#fc8274" height="9" rx="2" ry="2" width="9" x="38" y="26" /><rect fill="#fccac4" height="9" rx="2" ry="2" width="9" x="50" y="26" /><rect fill="#fccac4" height="9" rx="2" ry="2" width="9" x="62" y="26" /><rect fill="#fccac4" height="9" rx="2" ry="2" width="9" x="74" y="26" /><rect fill="#fccac4" height="9" rx="2" ry="2" width="9" x="86" y="26" /><rect fill="#fc8274" height="9" rx="2" ry="2" width="9" x="98" y="26" /><rect fill="#040204" height="9" rx="2" ry="2" width="9" x="110" y="26" /><rect fill="#040204" height="9" rx="2" ry="2" width="9" x="122" y="26" /><rect fill="#040204" height="9" rx="2" ry="2" width="9" x="134" y="26" /><rect fill="#040204" height="9" rx="2" ry="2" width="9" x="146" y="26" /><rect fill="#fccac4" height="9" rx="2" ry="2" width="9" x="158" y="26" /><rect fill="#fccac4" height="9" rx="2" ry="2" width="9" x="170" y="26" /><rect fill="#040204" height="9" rx="2" ry="2" width="9" x="182" y="26" /><rect fill="#040204" height="9" rx="2" ry="2" width="9" x="14" y="38" /><rect fill="#fc8274" height="9" rx="2" ry="2" width="9" x="26" y="38" /><rect fill="#040204" height="9" rx="2" ry="2" width="9" x="38" y="38" /><rect fill="#040204" height="9" rx="2" ry="2" width="9" x="50" y="38" /><rect fill="#040204" height="9" rx="2" ry="2" width="9" x="62" y="38" /><rect fill="#040204" height="9" rx="2" ry="2" width="9" x="74" y="38" /><rect fill="#040204" height="9" rx="2" ry="2" width="9" x="86" y="38" /><rect fill="#fccac4" height="9" rx="2" ry="2" width="9" x="98" y="38" /><rect fill="#fccac4" height="9" rx="2" ry="2" width="9" x="110" y="38" /><rect fill="#fc8274" height="9" rx="2" ry="2" width="9" x="122" y="38" /><rect fill="#040204" height="9" rx="2" ry="2" width="9" x="134" y="38" /><rect fill="#040204" height="9" rx="2" ry="2" width="9" x="146" y="38" /><rect fill="#040204" height="9" rx="2" ry="2" width="9" x="158" y="38" /><rect fill="#040204" height="9" rx="2" ry="2" width="9" x="170" y="38" /><rect fill="#040204" height="9" rx="2" ry="2" width="9" x="14" y="50" /><rect fill="#040204" height="9" rx="2" ry="2" width="9" x="26" y="50" /><rect fill="#fc8274" height="9" rx="2" ry="2" width="9" x="38" y="50" /><rect fill="#fccac4" height="9" rx="2" ry="2" width="9" x="50" y="50" /><rect fill="#fccac4" height="9" rx="2" ry="2" width="9" x="62" y="50" /><rect fill="#fccac4" height="9" rx="2" ry="2" width="9" x="74" y="50" /><rect fill="#fccac4" height="9" rx="2" ry="2" width="9" x="86" y="50" /><rect fill="#fc8274" height="9" rx="2" ry="2" width="9" x="98" y="50" /><rect fill="#040204" height="9" rx="2" ry="2" width="9" x="110" y="50" /><rect fill="#fc8274" height="9" rx="2" ry="2" width="9" x="122" y="50" /><rect fill="#040204" height="9" rx="2" ry="2" width="9" x="134" y="50" /><rect fill="#040204" height="9" rx="2" ry="2" width="9" x="146" y="50" /><rect fill="#040204" height="9" rx="2" ry="2" width="9" x="14" y="62" /><rect fill="#fccac4" height="9" rx="2" ry="2" width="9" x="26" y="62" /><rect fill="#040204" height="9" rx="2" ry="2" width="9" x="38" y="62" /><rect fill="#fccac4" height="9" rx="2" ry="2" width="9" x="50" y="62" /><rect fill="#040204" height="9" rx="2" ry="2" width="9" x="62" y="62" /><rect fill="#fccac4" height="9" rx="2" ry="2" width="9" x="74" y="62" /><rect fill="#fccac4" height="9" rx="2" ry="2" width="9" x="86" y="62" /><rect fill="#fccac4" height="9" rx="2" ry="2" width="9" x="98" y="62" /><rect fill="#fccac4" height="9" rx="2" ry="2" width="9" x="110" y="62" /><rect fill="#040204" height="9" rx="2" ry="2" width="9" x="122" y="62" /><rect fill="#040204" height="9" rx="2" ry="2" width="9" x="134" y="62" /><rect fill="#040204" height="9" rx="2" ry="2" width="9" x="146" y="62" /><rect fill="#040204" height="9" rx="2" ry="2" width="9" x="14" y="74" /><rect fill="#fccac4" height="9" rx="2" ry="2" width="9" x="26" y="74" /><rect fill="#040204" height="9" rx="2" ry="2" width="9" x="38" y="74" /><rect fill="#fccac4" height="9" rx="2" ry="2" width="9" x="50" y="74" /><rect fill="#040204" height="9" rx="2" ry="2" width="9" x="62" y="74" /><rect fill="#fccac4" height="9" rx="2" ry="2" width="9" x="74" y="74" /><rect fill="#fccac4" height="9" rx="2" ry="2" width="9" x="86" y="74" /><rect fill="#fccac4" height="9" rx="2" ry="2" width="9" x="98" y="74" /><rect fill="#fccac4" height="9" rx="2" ry="2" width="9" x="110" y="74" /><rect fill="#fc8274" height="9" rx="2" ry="2" width="9" x="122" y="74" /><rect fill="#040204" height="9" rx="2" ry="2" width="9" x="134" y="74" /><rect fill="#040204" height="9" rx="2" ry="2" width="9" x="14" y="86" /><rect fill="#fccac4" height="9" rx="2" ry="2" width="9" x="26" y="86" /><rect fill="#fccac4" height="9" rx="2" ry="2" width="9" x="38" y="86" /><rect fill="#fccac4" height="9" rx="2" ry="2" width="9" x="50" y="86" /><rect fill="#fccac4" height="9" rx="2" ry="2" width="9" x="62" y="86" /><rect fill="#fccac4" height="9" rx="2" ry="2" width="9" x="74" y="86" /><rect fill="#fccac4" height="9" rx="2" ry="2" width="9" x="86" y="86" /><rect fill="#fccac4" height="9" rx="2" ry="2" width="9" x="98" y="86" /><rect fill="#fccac4" height="9" rx="2" ry="2" width="9" x="110" y="86" /><rect fill="#fc8274" height="9" rx="2" ry="2" width="9" x="122" y="86" /><rect fill="#040204" height="9" rx="2" ry="2" width="9" x="134" y="86" /><rect fill="#040204" height="9" rx="2" ry="2" width="9" x="14" y="98" /><rect fill="#fccac4" height="9" rx="2" ry="2" width="9" x="26" y="98" /><rect fill="#040204" height="9" rx="2" ry="2" width="9" x="38" y="98" /><rect fill="#040204" height="9" rx="2" ry="2" width="9" x="50" y="98" /><rect fill="#040204" height="9" rx="2" ry="2" width="9" x="62" y="98" /><rect fill="#040204" height="9" rx="2" ry="2" width="9" x="74" y="98" /><rect fill="#040204" height="9" rx="2" ry="2" width="9" x="86" y="98" /><rect fill="#fccac4" height="9" rx="2" ry="2" width="9" x="98" y="98" /><rect fill="#fccac4" height="9" rx="2" ry="2" width="9" x="110" y="98" /><rect fill="#fc8274" height="9" rx="2" ry="2" width="9" x="122" y="98" /><rect fill="#040204" height="9" rx="2" ry="2" width="9" x="134" y="98" /><rect fill="#040204" height="9" rx="2" ry="2" width="9" x="26" y="110" /><rect fill="#fccac4" height="9" rx="2" ry="2" width="9" x="38" y="110" /><rect fill="#040204" height="9" rx="2" ry="2" width="9" x="50" y="110" /><rect fill="#040204" height="9" rx="2" ry="2" width="9" x="62" y="110" /><rect fill="#fccac4" height="9" rx="2" ry="2" width="9" x="74" y="110" /><rect fill="#fccac4" height="9" rx="2" ry="2" width="9" x="86" y="110" /><rect fill="#fccac4" height="9" rx="2" ry="2" width="9" x="98" y="110" /><rect fill="#fc8274" height="9" rx="2" ry="2" width="9" x="110" y="110" /><rect fill="#040204" height="9" rx="2" ry="2" width="9" x="122" y="110" /><rect fill="#040204" height="9" rx="2" ry="2" width="9" x="134" y="110" /><rect fill="#040204" height="9" rx="2" ry="2" width="9" x="14" y="122" /><rect fill="#040204" height="9" rx="2" ry="2" width="9" x="26" y="122" /><rect fill="#040204" height="9" rx="2" ry="2" width="9" x="38" y="122" /><rect fill="#fccac4" height="9" rx="2" ry="2" width="9" x="50" y="122" /><rect fill="#fccac4" height="9" rx="2" ry="2" width="9" x="62" y="122" /><rect fill="#fccac4" height="9" rx="2" ry="2" width="9" x="74" y="122" /><rect fill="#fc8274" height="9" rx="2" ry="2" width="9" x="86" y="122" /><rect fill="#fc8274" height="9" rx="2" ry="2" width="9" x="98" y="122" /><rect fill="#040204" height="9" rx="2" ry="2" width="9" x="110" y="122" /><rect fill="#040204" height="9" rx="2" ry="2" width="9" x="122" y="122" /><rect fill="#040204" height="9" rx="2" ry="2" width="9" x="134" y="122" /><rect fill="#040204" height="9" rx="2" ry="2" width="9" x="146" y="122" /><rect fill="#040204" height="9" rx="2" ry="2" width="9" x="2" y="134" /><rect fill="#fccac4" height="9" rx="2" ry="2" width="9" x="14" y="134" /><rect fill="#040204" height="9" rx="2" ry="2" width="9" x="26" y="134" /><rect fill="#040204" height="9" rx="2" ry="2" width="9" x="38" y="134" /><rect fill="#040204" height="9" rx="2" ry="2" width="9" x="50" y="134" /><rect fill="#040204" height="9" rx="2" ry="2" width="9" x="62" y="134" /><rect fill="#040204" height="9" rx="2" ry="2" width="9" x="74" y="134" /><rect fill="#040204" height="9" rx="2" ry="2" width="9" x="86" y="134" /><rect fill="#040204" height="9" rx="2" ry="2" width="9" x="98" y="134" /><rect fill="#040204" height="9" rx="2" ry="2" width="9" x="110" y="134" /><rect fill="#040204" height="9" rx="2" ry="2" width="9" x="122" y="134" /><rect fill="#040204" height="9" rx="2" ry="2" width="9" x="134" y="134" /><rect fill="#040204" height="9" rx="2" ry="2" width="9" x="146" y="134" /><rect fill="#040204" height="9" rx="2" ry="2" width="9" x="158" y="134" /><rect fill="#040204" height="9" rx="2" ry="2" width="9" x="2" y="146" /><rect fill="#fccac4" height="9" rx="2" ry="2" width="9" x="14" y="146" /><rect fill="#fccac4" height="9" rx="2" ry="2" width="9" x="26" y="146" /><rect fill="#040204" height="9" rx="2" ry="2" width="9" x="38" y="146" /><rect fill="#fc8274" height="9" rx="2" ry="2" width="9" x="50" y="146" /><rect fill="#fccac4" height="9" rx="2" ry="2" width="9" x="62" y="146" /><rect fill="#040204" height="9" rx="2" ry="2" width="9" x="74" y="146" /><rect fill="#040204" height="9" rx="2" ry="2" width="9" x="86" y="146" /><rect fill="#040204" height="9" rx="2" ry="2" width="9" x="98" y="146" /><rect fill="#040204" height="9" rx="2" ry="2" width="9" x="110" y="146" /><rect fill="#040204" height="9" rx="2" ry="2" width="9" x="122" y="146" /><rect fill="#040204" height="9" rx="2" ry="2" width="9" x="134" y="146" /><rect fill="#040204" height="9" rx="2" ry="2" width="9" x="146" y="146" /><rect fill="#fccac4" height="9" rx="2" ry="2" width="9" x="158" y="146" /><rect fill="#040204" height="9" rx="2" ry="2" width="9" x="170" y="146" /><rect fill="#040204" height="9" rx="2" ry="2" width="9" x="14" y="158" /><rect fill="#fccac4" height="9" rx="2" ry="2" width="9" x="26" y="158" /><rect fill="#fccac4" height="9" rx="2" ry="2" width="9" x="38" y="158" /><rect fill="#040204" height="9" rx="2" ry="2" width="9" x="50" y="158" /><rect fill="#040204" height="9" rx="2" ry="2" width="9" x="62" y="158" /><rect fill="#040204" height="9" rx="2" ry="2" width="9" x="74" y="158" /><rect fill="#040204" height="9" rx="2" ry="2" width="9" x="86" y="158" /><rect fill="#040204" height="9" rx="2" ry="2" width="9" x="98" y="158" /><rect fill="#040204" height="9" rx="2" ry="2" width="9" x="110" y="158" /><rect fill="#040204" height="9" rx="2" ry="2" width="9" x="122" y="158" /><rect fill="#040204" height="9" rx="2" ry="2" width="9" x="134" y="158" /><rect fill="#fccac4" height="9" rx="2" ry="2" width="9" x="146" y="158" /><rect fill="#fccac4" height="9" rx="2" ry="2" width="9" x="158" y="158" /><rect fill="#fccac4" height="9" rx="2" ry="2" width="9" x="170" y="158" /><rect fill="#040204" height="9" rx="2" ry="2" width="9" x="182" y="158" /><rect fill="#040204" height="9" rx="2" ry="2" width="9" x="26" y="170" /><rect fill="#040204" height="9" rx="2" ry="2" width="9" x="38" y="170" /><rect fill="#040204" height="9" rx="2" ry="2" width="9" x="50" y="170" /><rect fill="#040204" height="9" rx="2" ry="2" width="9" x="134" y="170" /><rect fill="#040204" height="9" rx="2" ry="2" width="9" x="146" y="170" /><rect fill="#fc8274" height="9" rx="2" ry="2" width="9" x="158" y="170" /><rect fill="#fccac4" height="9" rx="2" ry="2" width="9" x="170" y="170" /><rect fill="#040204" height="9" rx="2" ry="2" width="9" x="182" y="170" /><rect fill="#040204" height="9" rx="2" ry="2" width="9" x="158" y="182" /><rect fill="#040204" height="9" rx="2" ry="2" width="9" x="170" y="182" /><rect fill="#040204" height="9" rx="2" ry="2" width="9" x="182" y="182" /><rect fill="#040204" height="9" rx="2" ry="2" width="9" x="38" y="194" /><rect fill="#040204" height="9" rx="2" ry="2" width="9" x="62" y="194" /><rect fill="#040204" height="9" rx="2" ry="2" width="9" x="86" y="194" /><rect fill="#040204" height="9" rx="2" ry="2" width="9" x="98" y="194" /><rect fill="#040204" height="9" rx="2" ry="2" width="9" x="110" y="194" /><rect fill="#040204" height="9" rx="2" ry="2" width="9" x="122" y="194" /><rect fill="#040204" height="9" rx="2" ry="2" width="9" x="38" y="206" /><rect fill="#040204" height="9" rx="2" ry="2" width="9" x="50" y="206" /><rect fill="#040204" height="9" rx="2" ry="2" width="9" x="62" y="206" /><rect fill="#040204" height="9" rx="2" ry="2" width="9" x="74" y="206" /><rect fill="#040204" height="9" rx="2" ry="2" width="9" x="86" y="206" /><rect fill="#040204" height="9" rx="2" ry="2" width="9" x="98" y="206" /><rect fill="#fc8274" height="9" rx="2" ry="2" width="9" x="110" y="206" /><rect fill="#fc8274" height="9" rx="2" ry="2" width="9" x="122" y="206" /><rect fill="#040204" height="9" rx="2" ry="2" width="9" x="134" y="206" /><rect fill="#040204" height="9" rx="2" ry="2" width="9" x="146" y="206" /><rect fill="#040204" height="9" rx="2" ry="2" width="9" x="26" y="218" /><rect fill="#040204" height="9" rx="2" ry="2" width="9" x="38" y="218" /><rect fill="#040204" height="9" rx="2" ry="2" width="9" x="50" y="218" /><rect fill="#040204" height="9" rx="2" ry="2" width="9" x="62" y="218" /><rect fill="#040204" height="9" rx="2" ry="2" width="9" x="74" y="218" /><rect fill="#fc8274" height="9" rx="2" ry="2" width="9" x="86" y="218" /><rect fill="#fc8274" height="9" rx="2" ry="2" width="9" x="98" y="218" /><rect fill="#fc8274" height="9" rx="2" ry="2" width="9" x="110" y="218" /><rect fill="#fc8274" height="9" rx="2" ry="2" width="9" x="122" y="218" /><rect fill="#fc8274" height="9" rx="2" ry="2" width="9" x="134" y="218" /><rect fill="#fc8274" height="9" rx="2" ry="2" width="9" x="146" y="218" /><rect fill="#040204" height="9" rx="2" ry="2" width="9" x="158" y="218" /><rect fill="#040204" height="9" rx="2" ry="2" width="9" x="26" y="230" /><rect fill="#040204" height="9" rx="2" ry="2" width="9" x="38" y="230" /><rect fill="#fccac4" height="9" rx="2" ry="2" width="9" x="50" y="230" /><rect fill="#040204" height="9" rx="2" ry="2" width="9" x="62" y="230" /><rect fill="#040204" height="9" rx="2" ry="2" width="9" x="74" y="230" /><rect fill="#040204" height="9" rx="2" ry="2" width="9" x="86" y="230" /><rect fill="#fc8274" height="9" rx="2" ry="2" width="9" x="98" y="230" /><rect fill="#fccac4" height="9" rx="2" ry="2" width="9" x="110" y="230" /><rect fill="#fc8274" height="9" rx="2" ry="2" width="9" x="122" y="230" /><rect fill="#fc8274" height="9" rx="2" ry="2" width="9" x="134" y="230" /><rect fill="#fc8274" height="9" rx="2" ry="2" width="9" x="146" y="230" /><rect fill="#fc8274" height="9" rx="2" ry="2" width="9" x="158" y="230" /><rect fill="#040204" height="9" rx="2" ry="2" width="9" x="170" y="230" /><rect fill="#040204" height="9" rx="2" ry="2" width="9" x="2" y="242" /><rect fill="#040204" height="9" rx="2" ry="2" width="9" x="14" y="242" /><rect fill="#040204" height="9" rx="2" ry="2" width="9" x="26" y="242" /><rect fill="#fccac4" height="9" rx="2" ry="2" width="9" x="38" y="242" /><rect fill="#040204" height="9" rx="2" ry="2" width="9" x="50" y="242" /><rect fill="#040204" height="9" rx="2" ry="2" width="9" x="62" y="242" /><rect fill="#fc8274" height="9" rx="2" ry="2" width="9" x="74" y="242" /><rect fill="#fc8274" height="9" rx="2" ry="2" width="9" x="86" y="242" /><rect fill="#fccac4" height="9" rx="2" ry="2" width="9" x="98" y="242" /><rect fill="#040204" height="9" rx="2" ry="2" width="9" x="110" y="242" /><rect fill="#fc8274" height="9" rx="2" ry="2" width="9" x="122" y="242" /><rect fill="#fc8274" height="9" rx="2" ry="2" width="9" x="134" y="242" /><rect fill="#fc8274" height="9" rx="2" ry="2" width="9" x="146" y="242" /><rect fill="#fc8274" height="9" rx="2" ry="2" width="9" x="158" y="242" /><rect fill="#040204" height="9" rx="2" ry="2" width="9" x="170" y="242" /><rect fill="#040204" height="9" rx="2" ry="2" width="9" x="14" y="254" /><rect fill="#040204" height="9" rx="2" ry="2" width="9" x="26" y="254" /><rect fill="#040204" height="9" rx="2" ry="2" width="9" x="38" y="254" /><rect fill="#040204" height="9" rx="2" ry="2" width="9" x="50" y="254" /><rect fill="#fc8274" height="9" rx="2" ry="2" width="9" x="62" y="254" /><rect fill="#fc8274" height="9" rx="2" ry="2" width="9" x="74" y="254" /><rect fill="#fc8274" height="9" rx="2" ry="2" width="9" x="86" y="254" /><rect fill="#040204" height="9" rx="2" ry="2" width="9" x="98" y="254" /><rect fill="#040204" height="9" rx="2" ry="2" width="9" x="110" y="254" /><rect fill="#040204" height="9" rx="2" ry="2" width="9" x="122" y="254" /><rect fill="#fc8274" height="9" rx="2" ry="2" width="9" x="134" y="254" /><rect fill="#fc8274" height="9" rx="2" ry="2" width="9" x="146" y="254" /><rect fill="#fc8274" height="9" rx="2" ry="2" width="9" x="158" y="254" /><rect fill="#fc8274" height="9" rx="2" ry="2" width="9" x="170" y="254" /><rect fill="#040204" height="9" rx="2" ry="2" width="9" x="182" y="254" /><rect fill="#040204" height="9" rx="2" ry="2" width="9" x="2" y="266" /><rect fill="#040204" height="9" rx="2" ry="2" width="9" x="14" y="266" /><rect fill="#040204" height="9" rx="2" ry="2" width="9" x="26" y="266" /><rect fill="#040204" height="9" rx="2" ry="2" width="9" x="38" y="266" /><rect fill="#040204" height="9" rx="2" ry="2" width="9" x="50" y="266" /><rect fill="#fc8274" height="9" rx="2" ry="2" width="9" x="62" y="266" /><rect fill="#fc8274" height="9" rx="2" ry="2" width="9" x="74" y="266" /><rect fill="#fc8274" height="9" rx="2" ry="2" width="9" x="86" y="266" /><rect fill="#040204" height="9" rx="2" ry="2" width="9" x="98" y="266" /><rect fill="#040204" height="9" rx="2" ry="2" width="9" x="110" y="266" /><rect fill="#040204" height="9" rx="2" ry="2" width="9" x="122" y="266" /><rect fill="#040204" height="9" rx="2" ry="2" width="9" x="134" y="266" /><rect fill="#fc8274" height="9" rx="2" ry="2" width="9" x="146" y="266" /><rect fill="#fc8274" height="9" rx="2" ry="2" width="9" x="158" y="266" /><rect fill="#fc8274" height="9" rx="2" ry="2" width="9" x="170" y="266" /><rect fill="#040204" height="9" rx="2" ry="2" width="9" x="182" y="266" /><rect fill="#040204" height="9" rx="2" ry="2" width="9" x="2" y="278" /><rect fill="#040204" height="9" rx="2" ry="2" width="9" x="14" y="278" /><rect fill="#fc8274" height="9" rx="2" ry="2" width="9" x="26" y="278" /><rect fill="#040204" height="9" rx="2" ry="2" width="9" x="38" y="278" /><rect fill="#fc8274" height="9" rx="2" ry="2" width="9" x="50" y="278" /><rect fill="#fc8274" height="9" rx="2" ry="2" width="9" x="62" y="278" /><rect fill="#fc8274" height="9" rx="2" ry="2" width="9" x="74" y="278" /><rect fill="#fccac4" height="9" rx="2" ry="2" width="9" x="86" y="278" /><rect fill="#040204" height="9" rx="2" ry="2" width="9" x="98" y="278" /><rect fill="#fc8274" height="9" rx="2" ry="2" width="9" x="110" y="278" /><rect fill="#040204" height="9" rx="2" ry="2" width="9" x="122" y="278" /><rect fill="#040204" height="9" rx="2" ry="2" width="9" x="134" y="278" /><rect fill="#040204" height="9" rx="2" ry="2" width="9" x="146" y="278" /><rect fill="#fc8274" height="9" rx="2" ry="2" width="9" x="158" y="278" /><rect fill="#fc8274" height="9" rx="2" ry="2" width="9" x="170" y="278" /><rect fill="#040204" height="9" rx="2" ry="2" width="9" x="182" y="278" /><rect fill="#040204" height="9" rx="2" ry="2" width="9" x="2" y="290" /><rect fill="#fc8274" height="9" rx="2" ry="2" width="9" x="14" y="290" /><rect fill="#fc8274" height="9" rx="2" ry="2" width="9" x="26" y="290" /><rect fill="#040204" height="9" rx="2" ry="2" width="9" x="38" y="290" /><rect fill="#fc8274" height="9" rx="2" ry="2" width="9" x="50" y="290" /><rect fill="#040204" height="9" rx="2" ry="2" width="9" x="62" y="290" /><rect fill="#040204" height="9" rx="2" ry="2" width="9" x="74" y="290" /><rect fill="#040204" height="9" rx="2" ry="2" width="9" x="86" y="290" /><rect fill="#040204" height="9" rx="2" ry="2" width="9" x="98" y="290" /><rect fill="#fc8274" height="9" rx="2" ry="2" width="9" x="110" y="290" /><rect fill="#fc8274" height="9" rx="2" ry="2" width="9" x="122" y="290" /><rect fill="#040204" height="9" rx="2" ry="2" width="9" x="134" y="290" /><rect fill="#fc8274" height="9" rx="2" ry="2" width="9" x="146" y="290" /><rect fill="#fc8274" height="9" rx="2" ry="2" width="9" x="158" y="290" /><rect fill="#fc8274" height="9" rx="2" ry="2" width="9" x="170" y="290" /><rect fill="#040204" height="9" rx="2" ry="2" width="9" x="182" y="290" /><rect fill="#040204" height="9" rx="2" ry="2" width="9" x="2" y="302" /><rect fill="#fc8274" height="9" rx="2" ry="2" width="9" x="14" y="302" /><rect fill="#fc8274" height="9" rx="2" ry="2" width="9" x="26" y="302" /><rect fill="#fc8274" height="9" rx="2" ry="2" width="9" x="38" y="302" /><rect fill="#040204" height="9" rx="2" ry="2" width="9" x="50" y="302" /><rect fill="#040204" height="9" rx="2" ry="2" width="9" x="62" y="302" /><rect fill="#040204" height="9" rx="2" ry="2" width="9" x="74" y="302" /><rect fill="#fc8274" height="9" rx="2" ry="2" width="9" x="86" y="302" /><rect fill="#fc8274" height="9" rx="2" ry="2" width="9" x="98" y="302" /><rect fill="#fc8274" height="9" rx="2" ry="2" width="9" x="110" y="302" /><rect fill="#fc8274" height="9" rx="2" ry="2" width="9" x="122" y="302" /><rect fill="#fc8274" height="9" rx="2" ry="2" width="9" x="134" y="302" /><rect fill="#fc8274" height="9" rx="2" ry="2" width="9" x="146" y="302" /><rect fill="#fc8274" height="9" rx="2" ry="2" width="9" x="158" y="302" /><rect fill="#040204" height="9" rx="2" ry="2" width="9" x="170" y="302" /><rect fill="#040204" height="9" rx="2" ry="2" width="9" x="2" y="314" /><rect fill="#fc8274" height="9" rx="2" ry="2" width="9" x="14" y="314" /><rect fill="#fc8274" height="9" rx="2" ry="2" width="9" x="26" y="314" /><rect fill="#fccac4" height="9" rx="2" ry="2" width="9" x="38" y="314" /><rect fill="#fccac4" height="9" rx="2" ry="2" width="9" x="50" y="314" /><rect fill="#040204" height="9" rx="2" ry="2" width="9" x="62" y="314" /><rect fill="#040204" height="9" rx="2" ry="2" width="9" x="74" y="314" /><rect fill="#040204" height="9" rx="2" ry="2" width="9" x="86" y="314" /><rect fill="#fc8274" height="9" rx="2" ry="2" width="9" x="98" y="314" /><rect fill="#fc8274" height="9" rx="2" ry="2" width="9" x="110" y="314" /><rect fill="#fc8274" height="9" rx="2" ry="2" width="9" x="122" y="314" /><rect fill="#fc8274" height="9" rx="2" ry="2" width="9" x="134" y="314" /><rect fill="#fc8274" height="9" rx="2" ry="2" width="9" x="146" y="314" /><rect fill="#fc8274" height="9" rx="2" ry="2" width="9" x="158" y="314" /><rect fill="#040204" height="9" rx="2" ry="2" width="9" x="170" y="314" /><rect fill="#040204" height="9" rx="2" ry="2" width="9" x="14" y="326" /><rect fill="#fc8274" height="9" rx="2" ry="2" width="9" x="26" y="326" /><rect fill="#fc8274" height="9" rx="2" ry="2" width="9" x="38" y="326" /><rect fill="#fc8274" height="9" rx="2" ry="2" width="9" x="50" y="326" /><rect fill="#fc8274" height="9" rx="2" ry="2" width="9" x="62" y="326" /><rect fill="#040204" height="9" rx="2" ry="2" width="9" x="74" y="326" /><rect fill="#040204" height="9" rx="2" ry="2" width="9" x="86" y="326" /><rect fill="#040204" height="9" rx="2" ry="2" width="9" x="98" y="326" /><rect fill="#fc8274" height="9" rx="2" ry="2" width="9" x="110" y="326" /><rect fill="#fc8274" height="9" rx="2" ry="2" width="9" x="122" y="326" /><rect fill="#fc8274" height="9" rx="2" ry="2" width="9" x="134" y="326" /><rect fill="#fc8274" height="9" rx="2" ry="2" width="9" x="146" y="326" /><rect fill="#040204" height="9" rx="2" ry="2" width="9" x="158" y="326" /><rect fill="#040204" height="9" rx="2" ry="2" width="9" x="14" y="338" /><rect fill="#fc8274" height="9" rx="2" ry="2" width="9" x="26" y="338" /><rect fill="#fc8274" height="9" rx="2" ry="2" width="9" x="38" y="338" /><rect fill="#fc8274" height="9" rx="2" ry="2" width="9" x="50" y="338" /><rect fill="#fc8274" height="9" rx="2" ry="2" width="9" x="62" y="338" /><rect fill="#fc8274" height="9" rx="2" ry="2" width="9" x="74" y="338" /><rect fill="#040204" height="9" rx="2" ry="2" width="9" x="86" y="338" /><rect fill="#fc8274" height="9" rx="2" ry="2" width="9" x="98" y="338" /><rect fill="#fc8274" height="9" rx="2" ry="2" width="9" x="110" y="338" /><rect fill="#fc8274" height="9" rx="2" ry="2" width="9" x="122" y="338" /><rect fill="#fc8274" height="9" rx="2" ry="2" width="9" x="134" y="338" /><rect fill="#fc8274" height="9" rx="2" ry="2" width="9" x="146" y="338" /><rect fill="#040204" height="9" rx="2" ry="2" width="9" x="158" y="338" /><rect fill="#040204" height="9" rx="2" ry="2" width="9" x="26" y="350" /><rect fill="#fc8274" height="9" rx="2" ry="2" width="9" x="38" y="350" /><rect fill="#fc8274" height="9" rx="2" ry="2" width="9" x="50" y="350" /><rect fill="#fc8274" height="9" rx="2" ry="2" width="9" x="62" y="350" /><rect fill="#fc8274" height="9" rx="2" ry="2" width="9" x="74" y="350" /><rect fill="#fc8274" height="9" rx="2" ry="2" width="9" x="86" y="350" /><rect fill="#fc8274" height="9" rx="2" ry="2" width="9" x="98" y="350" /><rect fill="#fc8274" height="9" rx="2" ry="2" width="9" x="110" y="350" /><rect fill="#fc8274" height="9" rx="2" ry="2" width="9" x="122" y="350" /><rect fill="#040204" height="9" rx="2" ry="2" width="9" x="134" y="350" /><rect fill="#040204" height="9" rx="2" ry="2" width="9" x="146" y="350" /><rect fill="#040204" height="9" rx="2" ry="2" width="9" x="38" y="362" /><rect fill="#040204" height="9" rx="2" ry="2" width="9" x="50" y="362" /><rect fill="#fc8274" height="9" rx="2" ry="2" width="9" x="62" y="362" /><rect fill="#fc8274" height="9" rx="2" ry="2" width="9" x="74" y="362" /><rect fill="#fc8274" height="9" rx="2" ry="2" width="9" x="86" y="362" /><rect fill="#fc8274" height="9" rx="2" ry="2" width="9" x="98" y="362" /><rect fill="#040204" height="9" rx="2" ry="2" width="9" x="110" y="362" /><rect fill="#040204" height="9" rx="2" ry="2" width="9" x="122" y="362" /><rect fill="#040204" height="9" rx="2" ry="2" width="9" x="62" y="374" /><rect fill="#040204" height="9" rx="2" ry="2" width="9" x="74" y="374" /><rect fill="#040204" height="9" rx="2" ry="2" width="9" x="86" y="374" /><rect fill="#040204" height="9" rx="2" ry="2" width="9" x="98" y="374" /></svg>