<?xml version="1.0" encoding="utf-8" ?>
<svg baseProfile="full" height="324" version="1.1" width="204" xmlns="http://www.w3.org/2000/svg" xmlns:ev="http://www.w3.org/2001/xml-events" xmlns:xlink="http://www.w3.org/1999/xlink"><defs /><rect fill="#000000" height="9" rx="2" ry="2" width="9" x="38" y="2" /><rect fill="#000000" height="9" rx="2" ry="2" width="9" x="50" y="2" /><rect fill="#000000" height="9" rx="2" ry="2" width="9" x="62" y="2" /><rect fill="#000000" height="9" rx="2" ry="2" width="9" x="74" y="2" /><rect fill="#000000" height="9" rx="2" ry="2" width="9" x="86" y="2" /><rect fill="#000000" height="9" rx="2" ry="2" width="9" x="98" y="2" /><rect fill="#000000" height="9" rx="2" ry="2" width="9" x="110" y="2" /><rect fill="#000000" height="9" rx="2" ry="2" width="9" x="158" y="2" /><rect fill="#000000" height="9" rx="2" ry="2" width="9" x="14" y="14" /><rect fill="#000000" height="9" rx="2" ry="2" width="9" x="26" y="14" /><rect fill="#4060f8" height="9" rx="2" ry="2" width="9" x="38" y="14" /><rect fill="#4060f8" height="9" rx="2" ry="2" width="9" x="50" y="14" /><rect fill="#4060f8" height="9" rx="2" ry="2" width="9" x="62" y="14" /><rect fill="#000000" height="9" rx="2" ry="2" width="9" x="74" y="14" /><rect fill="#f8d878" height="9" rx="2" ry="2" width="9" x="86" y="14" /><rect fill="#4060f8" height="9" rx="2" ry="2" width="9" x="98" y="14" /><rect fill="#4060f8" height="9" rx="2" ry="2" width="9" x="110" y="14" /><rect fill="#000000" height="9" rx="2" ry="2" width="9" x="122" y="14" /><rect fill="#000000" height="9" rx="2" ry="2" width="9" x="134" y="14" /><rect fill="#000000" height="9" rx="2" ry="2" width="9" x="146" y="14" /><rect fill="#4060f8" height="9" rx="2" ry="2" width="9" x="158" y="14" /><rect fill="#000000" height="9" rx="2" ry="2" width="9" x="170" y="14" /><rect fill="#000000" height="9" rx="2" ry="2" width="9" x="2" y="26" /><rect fill="#000000" height="9" rx="2" ry="2" width="9" x="14" y="26" /><rect fill="#4060f8" height="9" rx="2" ry="2" width="9" x="26" y="26" /><rect fill="#4060f8" height="9" rx="2" ry="2" width="9" x="38" y="26" /><rect fill="#4060f8" height="9" rx="2" ry="2" width="9" x="50" y="26" /><rect fill="#4060f8" height="9" rx="2" ry="2" width="9" x="62" y="26" /><rect fill="#000000" height="9" rx="2" ry="2" width="9" x="74" y="26" /><rect fill="#f8d878" height="9" rx="2" ry="2" width="9" x="86" y="26" /><rect fill="#f8d878" height="9" rx="2" ry="2" width="9" x="98" y="26" /><rect fill="#4060f8" height="9" rx="2" ry="2" width="9" x="110" y="26" /><rect fill="#4060f8" height="9" rx="2" ry="2" width="9" x="122" y="26" /><rect fill="#4060f8" height="9" rx="2" ry="2" width="9" x="134" y="26" /><rect fill="#000000" height="9" rx="2" ry="2" width="9" x="146" y="26" /><rect fill="#4060f8" height="9" rx="2" ry="2" width="9" x="158" y="26" /><rect fill="#000000" height="9" rx="2" ry="2" width="9" x="170" y="26" /><rect fill="#000000" height="9" rx="2" ry="2" width="9" x="26" y="38" /><rect fill="#000000" height="9" rx="2" ry="2" width="9" x="38" y="38" /><rect fill="#4060f8" height="9" rx="2" ry="2" width="9" x="50" y="38" /><rect fill="#4060f8" height="9" rx="2" ry="2" width="9" x="62" y="38" /><rect fill="#000000" height="9" rx="2" ry="2" width="9" x="74" y="38" /><rect fill="#f8d878" height="9" rx="2" ry="2" width="9" x="86" y="38" /><rect fill="#4060f8" height="9" rx="2" ry="2" width="9" x="98" y="38" /><rect fill="#4060f8" height="9" rx="2" ry="2" width="9" x="110" y="38" /><rect fill="#4060f8" height="9" rx="2" ry="2" width="9" x="122" y="38" /><rect fill="#4060f8" height="9" rx="2" ry="2" width="9" x="134" y="38" /><rect fill="#4060f8" height="9" rx="2" ry="2" width="9" x="146" y="38" /><rect fill="#4060f8" height="9" rx="2" ry="2" width="9" x="158" y="38" /><rect fill="#000000" height="9" rx="2" ry="2" width="9" x="170" y="38" /><rect fill="#000000" height="9" rx="2" ry="2" width="9" x="50" y="50" /><rect fill="#4060f8" height="9" rx="2" ry="2" width="9" x="62" y="50" /><rect fill="#4060f8" height="9" rx="2" ry="2" width="9" x="74" y="50" /><rect fill="#4060f8" height="9" rx="2" ry="2" width="9" x="86" y="50" /><rect fill="#4060f8" height="9" rx="2" ry="2" width="9" x="98" y="50" /><rect fill="#4060f8" height="9" rx="2" ry="2" width="9" x="110" y="50" /><rect fill="#4060f8" height="9" rx="2" ry="2" width="9" x="122" y="50" /><rect fill="#4060f8" height="9" rx="2" ry="2" width="9" x="134" y="50" /><rect fill="#4060f8" height="9" rx="2" ry="2" width="9" x="146" y="50" /><rect fill="#4060f8" height="9" rx="2" ry="2" width="9" x="158" y="50" /><rect fill="#000000" height="9" rx="2" ry="2" width="9" x="170" y="50" /><rect fill="#000000" height="9" rx="2" ry="2" width="9" x="26" y="62" /><rect fill="#000000" height="9" rx="2" ry="2" width="9" x="38" y="62" /><rect fill="#4060f8" height="9" rx="2" ry="2" width="9" x="50" y="62" /><rect fill="#4060f8" height="9" rx="2" ry="2" width="9" x="62" y="62" /><rect fill="#4060f8" height="9" rx="2" ry="2" width="9" x="74" y="62" /><rect fill="#4060f8" height="9" rx="2" ry="2" width="9" x="86" y="62" /><rect fill="#4060f8" height="9" rx="2" ry="2" width="9" x="98" y="62" /><rect fill="#fcfcfc" height="9" rx="2" ry="2" width="9" x="110" y="62" /><rect fill="#fcfcfc" height="9" rx="2" ry="2" width="9" x="122" y="62" /><rect fill="#4060f8" height="9" rx="2" ry="2" width="9" x="134" y="62" /><rect fill="#4060f8" height="9" rx="2" ry="2" width="9" x="146" y="62" /><rect fill="#4060f8" height="9" rx="2" ry="2" width="9" x="158" y="62" /><rect fill="#4060f8" height="9" rx="2" ry="2" width="9" x="170" y="62" /><rect fill="#000000" height="9" rx="2" ry="2" width="9" x="182" y="62" /><rect fill="#000000" height="9" rx="2" ry="2" width="9" x="14" y="74" /><rect fill="#4060f8" height="9" rx="2" ry="2" width="9" x="26" y="74" /><rect fill="#4060f8" height="9" rx="2" ry="2" width="9" x="38" y="74" /><rect fill="#4060f8" height="9" rx="2" ry="2" width="9" x="50" y="74" /><rect fill="#4060f8" height="9" rx="2" ry="2" width="9" x="62" y="74" /><rect fill="#4060f8" height="9" rx="2" ry="2" width="9" x="74" y="74" /><rect fill="#4060f8" height="9" rx="2" ry="2" width="9" x="86" y="74" /><rect fill="#fcfcfc" height="9" rx="2" ry="2" width="9" x="98" y="74" /><rect fill="#fcfcfc" height="9" rx="2" ry="2" width="9" x="110" y="74" /><rect fill="#fcfcfc" height="9" rx="2" ry="2" width="9" x="122" y="74" /><rect fill="#fcfcfc" height="9" rx="2" ry="2" width="9" x="134" y="74" /><rect fill="#4060f8" height="9" rx="2" ry="2" width="9" x="146" y="74" /><rect fill="#4060f8" height="9" rx="2" ry="2" width="9" x="158" y="74" /><rect fill="#fcfcfc" height="9" rx="2" ry="2" width="9" x="170" y="74" /><rect fill="#000000" height="9" rx="2" ry="2" width="9" x="182" y="74" /><rect fill="#000000" height="9" rx="2" ry="2" width="9" x="2" y="86" /><rect fill="#4060f8" height="9" rx="2" ry="2" width="9" x="14" y="86" /><rect fill="#4060f8" height="9" rx="2" ry="2" width="9" x="26" y="86" /><rect fill="#4060f8" height="9" rx="2" ry="2" width="9" x="38" y="86" /><rect fill="#4060f8" height="9" rx="2" ry="2" width="9" x="50" y="86" /><rect fill="#4060f8" height="9" rx="2" ry="2" width="9" x="62" y="86" /><rect fill="#4060f8" height="9" rx="2" ry="2" width="9" x="74" y="86" /><rect fill="#4060f8" height="9" rx="2" ry="2" width="9" x="86" y="86" /><rect fill="#fcfcfc" height="9" rx="2" ry="2" width="9" x="98" y="86" /><rect fill="#fcfcfc" height="9" rx="2" ry="2" width="9" x="110" y="86" /><rect fill="#fcfcfc" height="9" rx="2" ry="2" width="9" x="122" y="86" /><rect fill="#fcfcfc" height="9" rx="2" ry="2" width="9" x="134" y="86" /><rect fill="#4060f8" height="9" rx="2" ry="2" width="9" x="146" y="86" /><rect fill="#fcfcfc" height="9" rx="2" ry="2" width="9" x="158" y="86" /><rect fill="#fcfcfc" height="9" rx="2" ry="2" width="9" x="170" y="86" /><rect fill="#000000" height="9" rx="2" ry="2" width="9" x="182" y="86" /><rect fill="#000000" height="9" rx="2" ry="2" width="9" x="2" y="98" /><rect fill="#000000" height="9" rx="2" ry="2" width="9" x="14" y="98" /><rect fill="#000000" height="9" rx="2" ry="2" width="9" x="26" y="98" /><rect fill="#4060f8" height="9" rx="2" ry="2" width="9" x="38" y="98" /><rect fill="#4060f8" height="9" rx="2" ry="2" width="9" x="50" y="98" /><rect fill="#4060f8" height="9" rx="2" ry="2" width="9" x="62" y="98" /><rect fill="#4060f8" height="9" rx="2" ry="2" width="9" x="74" y="98" /><rect fill="#4060f8" height="9" rx="2" ry="2" width="9" x="86" y="98" /><rect fill="#fcfcfc" height="9" rx="2" ry="2" width="9" x="98" y="98" /><rect fill="#fcfcfc" height="9" rx="2" ry="2" width="9" x="110" y="98" /><rect fill="#fcfcfc" height="9" rx="2" ry="2" width="9" x="122" y="98" /><rect fill="#000000" height="9" rx="2" ry="2" width="9" x="134" y="98" /><rect fill="#4060f8" height="9" rx="2" ry="2" width="9" x="146" y="98" /><rect fill="#000000" height="9" rx="2" ry="2" width="9" x="158" y="98" /><rect fill="#fcfcfc" height="9" rx="2" ry="2" width="9" x="170" y="98" /><rect fill="#000000" height="9" rx="2" ry="2" width="9" x="182" y="98" /><rect fill="#000000" height="9" rx="2" ry="2" width="9" x="38" y="110" /><rect fill="#000000" height="9" rx="2" ry="2" width="9" x="50" y="110" /><rect fill="#4060f8" height="9" rx="2" ry="2" width="9" x="62" y="110" /><rect fill="#4060f8" height="9" rx="2" ry="2" width="9" x="74" y="110" /><rect fill="#4060f8" height="9" rx="2" ry="2" width="9" x="86" y="110" /><rect fill="#4060f8" height="9" rx="2" ry="2" width="9" x="98" y="110" /><rect fill="#fcfcfc" height="9" rx="2" ry="2" width="9" x="110" y="110" /><rect fill="#fcfcfc" height="9" rx="2" ry="2" width="9" x="122" y="110" /><rect fill="#000000" height="9" rx="2" ry="2" width="9" x="134" y="110" /><rect fill="#fcfcfc" height="9" rx="2" ry="2" width="9" x="146" y="110" /><rect fill="#000000" height="9" rx="2" ry="2" width="9" x="158" y="110" /><rect fill="#fcfcfc" height="9" rx="2" ry="2" width="9" x="170" y="110" /><rect fill="#000000" height="9" rx="2" ry="2" width="9" x="182" y="110" /><rect fill="#000000" height="9" rx="2" ry="2" width="9" x="26" y="122" /><rect fill="#4060f8" height="9" rx="2" ry="2" width="9" x="38" y="122" /><rect fill="#4060f8" height="9" rx="2" ry="2" width="9" x="50" y="122" /><rect fill="#4060f8" height="9" rx="2" ry="2" width="9" x="62" y="122" /><rect fill="#4060f8" height="9" rx="2" ry="2" width="9" x="74" y="122" /><rect fill="#f8d878" height="9" rx="2" ry="2" width="9" x="86" y="122" /><rect fill="#4060f8" height="9" rx="2" ry="2" width="9" x="98" y="122" /><rect fill="#fcfcfc" height="9" rx="2" ry="2" width="9" x="110" y="122" /><rect fill="#fcfcfc" height="9" rx="2" ry="2" width="9" x="122" y="122" /><rect fill="#000000" height="9" rx="2" ry="2" width="9" x="134" y="122" /><rect fill="#fcfcfc" height="9" rx="2" ry="2" width="9" x="146" y="122" /><rect fill="#000000" height="9" rx="2" ry="2" width="9" x="158" y="122" /><rect fill="#000000" height="9" rx="2" ry="2" width="9" x="170" y="122" /><rect fill="#000000" height="9" rx="2" ry="2" width="9" x="14" y="134" /><rect fill="#4060f8" height="9" rx="2" ry="2" width="9" x="26" y="134" /><rect fill="#4060f8" height="9" rx="2" ry="2" width="9" x="38" y="134" /><rect fill="#4060f8" height="9" rx="2" ry="2" width="9" x="50" y="134" /><rect fill="#4060f8" height="9" rx="2" ry="2" width="9" x="62" y="134" /><rect fill="#4060f8" height="9" rx="2" ry="2" width="9" x="74" y="134" /><rect fill="#f8d878" height="9" rx="2" ry="2" width="9" x="86" y="134" /><rect fill="#f8d878" height="9" rx="2" ry="2" width="9" x="98" y="134" /><rect fill="#f8d878" height="9" rx="2" ry="2" width="9" x="110" y="134" /><rect fill="#f8d878" height="9" rx="2" ry="2" width="9" x="122" y="134" /><rect fill="#f8d878" height="9" rx="2" ry="2" width="9" x="134" y="134" /><rect fill="#f8d878" height="9" rx="2" ry="2" width="9" x="146" y="134" /><rect fill="#f8d878" height="9" rx="2" ry="2" width="9" x="158" y="134" /><rect fill="#000000" height="9" rx="2" ry="2" width="9" x="170" y="134" /><rect fill="#000000" height="9" rx="2" ry="2" width="9" x="182" y="134" /><rect fill="#000000" height="9" rx="2" ry="2" width="9" x="2" y="146" /><rect fill="#000000" height="9" rx="2" ry="2" width="9" x="14" y="146" /><rect fill="#000000" height="9" rx="2" ry="2" width="9" x="26" y="146" /><rect fill="#000000" height="9" rx="2" ry="2" width="9" x="38" y="146" /><rect fill="#000000" height="9" rx="2" ry="2" width="9" x="50" y="146" /><rect fill="#000000" height="9" rx="2" ry="2" width="9" x="62" y="146" /><rect fill="#000000" height="9" rx="2" ry="2" width="9" x="74" y="146" /><rect fill="#000000" height="9" rx="2" ry="2" width="9" x="86" y="146" /><rect fill="#f8d878" height="9" rx="2" ry="2" width="9" x="98" y="146" /><rect fill="#000000" height="9" rx="2" ry="2" width="9" x="110" y="146" /><rect fill="#f8d878" height="9" rx="2" ry="2" width="9" x="122" y="146" /><rect fill="#f8d878" height="9" rx="2" ry="2" width="9" x="134" y="146" /><rect fill="#000000" height="9" rx="2" ry="2" width="9" x="146" y="146" /><rect fill="#000000" height="9" rx="2" ry="2" width="9" x="158" y="146" /><rect fill="#000000" height="9" rx="2" ry="2" width="9" x="26" y="158" /><rect fill="#000000" height="9" rx="2" ry="2" width="9" x="38" y="158" /><rect fill="#f8d878" height="9" rx="2" ry="2" width="9" x="50" y="158" /><rect fill="#f8d878" height="9" rx="2" ry="2" width="9" x="62" y="158" /><rect fill="#f8d878" height="9" rx="2" ry="2" width="9" x="74" y="158" /><rect fill="#4060f8" height="9" rx="2" ry="2" width="9" x="86" y="158" /><rect fill="#000000" height="9" rx="2" ry="2" width="9" x="98" y="158" /><rect fill="#000000" height="9" rx="2" ry="2" width="9" x="110" y="158" /><rect fill="#000000" height="9" rx="2" ry="2" width="9" x="122" y="158" /><rect fill="#000000" height="9" rx="2" ry="2" width="9" x="134" y="158" /><rect fill="#f8d878" height="9" rx="2" ry="2" width="9" x="146" y="158" /><rect fill="#f8d878" height="9" rx="2" ry="2" width="9" x="158" y="158" /><rect fill="#000000" height="9" rx="2" ry="2" width="9" x="170" y="158" /><rect fill="#000000" height="9" rx="2" ry="2" width="9" x="182" y="158" /><rect fill="#000000" height="9" rx="2" ry="2" width="9" x="14" y="170" /><rect fill="#f8d878" height="9" rx="2" ry="2" width="9" x="26" y="170" /><rect fill="#f8d878" height="9" rx="2" ry="2" width="9" x="38" y="170" /><rect fill="#000000" height="9" rx="2" ry="2" width="9" x="50" y="170" /><rect fill="#000000" height="9" rx="2" ry="2" width="9" x="62" y="170" /><rect fill="#000000" height="9" rx="2" ry="2" width="9" x="74" y="170" /><rect fill="#4060f8" height="9" rx="2" ry="2" width="9" x="86" y="170" /><rect fill="#f8d878" height="9" rx="2" ry="2" width="9" x="98" y="170" /><rect fill="#f8d878" height="9" rx="2" ry="2" width="9" x="110" y="170" /><rect fill="#000000" height="9" rx="2" ry="2" width="9" x="122" y="170" /><rect fill="#fcfcfc" height="9" rx="2" ry="2" width="9" x="134" y="170" /><rect fill="#fcfcfc" height="9" rx="2" ry="2" width="9" x="146" y="170" /><rect fill="#000000" height="9" rx="2" ry="2" width="9" x="158" y="170" /><rect fill="#f8d878" height="9" rx="2" ry="2" width="9" x="170" y="170" /><rect fill="#f8d878" height="9" rx="2" ry="2" width="9" x="182" y="170" /><rect fill="#000000" height="9" rx="2" ry="2" width="9" x="194" y="170" /><rect fill="#000000" height="9" rx="2" ry="2" width="9" x="2" y="182" /><rect fill="#f8d878" height="9" rx="2" ry="2" width="9" x="14" y="182" /><rect fill="#000000" height="9" rx="2" ry="2" width="9" x="26" y="182" /><rect fill="#000000" height="9" rx="2" ry="2" width="9" x="38" y="182" /><rect fill="#fcfcfc" height="9" rx="2" ry="2" width="9" x="50" y="182" /><rect fill="#000000" height="9" rx="2" ry="2" width="9" x="62" y="182" /><rect fill="#4060f8" height="9" rx="2" ry="2" width="9" x="74" y="182" /><rect fill="#f8d878" height="9" rx="2" ry="2" width="9" x="86" y="182" /><rect fill="#f8d878" height="9" rx="2" ry="2" width="9" x="98" y="182" /><rect fill="#000000" height="9" rx="2" ry="2" width="9" x="110" y="182" /><rect fill="#fcfcfc" height="9" rx="2" ry="2" width="9" x="122" y="182" /><rect fill="#fcfcfc" height="9" rx="2" ry="2" width="9" x="134" y="182" /><rect fill="#fcfcfc" height="9" rx="2" ry="2" width="9" x="146" y="182" /><rect fill="#fcfcfc" height="9" rx="2" ry="2" width="9" x="158" y="182" /><rect fill="#000000" height="9" rx="2" ry="2" width="9" x="170" y="182" /><rect fill="#000000" height="9" rx="2" ry="2" width="9" x="182" y="182" /><rect fill="#000000" height="9" rx="2" ry="2" width="9" x="194" y="182" /><rect fill="#000000" height="9" rx="2" ry="2" width="9" x="2" y="194" /><rect fill="#f8d878" height="9" rx="2" ry="2" width="9" x="14" y="194" /><rect fill="#fcfcfc" height="9" rx="2" ry="2" width="9" x="26" y="194" /><rect fill="#fcfcfc" height="9" rx="2" ry="2" width="9" x="38" y="194" /><rect fill="#fcfcfc" height="9" rx="2" ry="2" width="9" x="50" y="194" /><rect fill="#fcfcfc" height="9" rx="2" ry="2" width="9" x="62" y="194" /><rect fill="#000000" height="9" rx="2" ry="2" width="9" x="74" y="194" /><rect fill="#4060f8" height="9" rx="2" ry="2" width="9" x="86" y="194" /><rect fill="#f8d878" height="9" rx="2" ry="2" width="9" x="98" y="194" /><rect fill="#000000" height="9" rx="2" ry="2" width="9" x="110" y="194" /><rect fill="#fcfcfc" height="9" rx="2" ry="2" width="9" x="122" y="194" /><rect fill="#fcfcfc" height="9" rx="2" ry="2" width="9" x="134" y="194" /><rect fill="#fcfcfc" height="9" rx="2" ry="2" width="9" x="146" y="194" /><rect fill="#fcfcfc" height="9" rx="2" ry="2" width="9" x="158" y="194" /><rect fill="#000000" height="9" rx="2" ry="2" width="9" x="170" y="194" /><rect fill="#000000" height="9" rx="2" ry="2" width="9" x="14" y="206" /><rect fill="#fcfcfc" height="9" rx="2" ry="2" width="9" x="26" y="206" /><rect fill="#fcfcfc" height="9" rx="2" ry="2" width="9" x="38" y="206" /><rect fill="#fcfcfc" height="9" rx="2" ry="2" width="9" x="50" y="206" /><rect fill="#fcfcfc" height="9" rx="2" ry="2" width="9" x="62" y="206" /><rect fill="#000000" height="9" rx="2" ry="2" width="9" x="74" y="206" /><rect fill="#4060f8" height="9" rx="2" ry="2" width="9" x="86" y="206" /><rect fill="#4060f8" height="9" rx="2" ry="2" width="9" x="98" y="206" /><rect fill="#000000" height="9" rx="2" ry="2" width="9" x="110" y="206" /><rect fill="#000000" height="9" rx="2" ry="2" width="9" x="122" y="206" /><rect fill="#fcfcfc" height="9" rx="2" ry="2" width="9" x="134" y="206" /><rect fill="#fcfcfc" height="9" rx="2" ry="2" width="9" x="146" y="206" /><rect fill="#000000" height="9" rx="2" ry="2" width="9" x="158" y="206" /><rect fill="#000000" height="9" rx="2" ry="2" width="9" x="26" y="218" /><rect fill="#fcfcfc" height="9" rx="2" ry="2" width="9" x="38" y="218" /><rect fill="#fcfcfc" height="9" rx="2" ry="2" width="9" x="50" y="218" /><rect fill="#000000" height="9" rx="2" ry="2" width="9" x="62" y="218" /><rect fill="#000000" height="9" rx="2" ry="2" width="9" x="74" y="218" /><rect fill="#4060f8" height="9" rx="2" ry="2" width="9" x="86" y="218" /><rect fill="#000000" height="9" rx="2" ry="2" width="9" x="98" y="218" /><rect fill="#000000" height="9" rx="2" ry="2" width="9" x="110" y="218" /><rect fill="#000000" height="9" rx="2" ry="2" width="9" x="134" y="218" /><rect fill="#000000" height="9" rx="2" ry="2" width="9" x="146" y="218" /><rect fill="#000000" height="9" rx="2" ry="2" width="9" x="38" y="230" /><rect fill="#000000" height="9" rx="2" ry="2" width="9" x="50" y="230" /><rect fill="#000000" height="9" rx="2" ry="2" width="9" x="74" y="230" /><rect fill="#4060f8" height="9" rx="2" ry="2" width="9" x="86" y="230" /><rect fill="#000000" height="9" rx="2" ry="2" width="9" x="98" y="230" /><rect fill="#000000" height="9" rx="2" ry="2" width="9" x="110" y="230" /><rect fill="#000000" height="9" rx="2" ry="2" width="9" x="74" y="242" /><rect fill="#4060f8" height="9" rx="2" ry="2" width="9" x="86" y="242" /><rect fill="#000000" height="9" rx="2" ry="2" width="9" x="98" y="242" /><rect fill="#4060f8" height="9" rx="2" ry="2" width="9" x="110" y="242" /><rect fill="#000000" height="9" rx="2" ry="2" width="9" x="122" y="242" /><rect fill="#000000" height="9" rx="2" ry="2" width="9" x="74" y="254" /><rect fill="#4060f8" height="9" rx="2" ry="2" width="9" x="86" y="254" /><rect fill="#000000" height="9" rx="2" ry="2" width="9" x="98" y="254" /><rect fill="#4060f8" height="9" rx="2" ry="2" width="9" x="110" y="254" /><rect fill="#000000" height="9" rx="2" ry="2" width="9" x="122" y="254" /><rect fill="#000000" height="9" rx="2" ry="2" width="9" x="134" y="254" /><rect fill="#000000" height="9" rx="2" ry="2" width="9" x="62" y="266" /><rect fill="#fcfcfc" height="9" rx="2" ry="2" width="9" x="74" y="266" /><rect fill="#fcfcfc" height="9" rx="2" ry="2" width="9" x="86" y="266" /><rect fill="#fcfcfc" height="9" rx="2" ry="2" width="9" x="98" y="266" /><rect fill="#000000" height="9" rx="2" ry="2" width="9" x="110" y="266" /><rect fill="#fcfcfc" height="9" rx="2" ry="2" width="9" x="122" y="266" /><rect fill="#fcfcfc" height="9" rx="2" ry="2" width="9" x="134" y="266" /><rect fill="#000000" height="9" rx="2" ry="2" width="9" x="146" y="266" /><rect fill="#000000" height="9" rx="2" ry="2" width="9" x="62" y="278" /><rect fill="#ff0000" height="9" rx="2" ry="2" width="9" x="74" y="278" /><rect fill="#ff0000" height="9" rx="2" ry="2" width="9" x="86" y="278" /><rect fill="#ff0000" height="9" rx="2" ry="2" width="9" x="98" y="278" /><rect fill="#000000" height="9" rx="2" ry="2" width="9" x="110" y="278" /><rect fill="#ff0000" height="9" rx="2" ry="2" width="9" x="122" y="278" /><rect fill="#ff0000" height="9" rx="2" ry="2" width="9" x="134" y="278" /><rect fill="#000000" height="9" rx="2" ry="2" width="9" x="146" y="278" /><rect fill="#000000" height="9" rx="2" ry="2" width="9" x="158" y="278" /><rect fill="#000000" height="9" rx="2" ry="2" width="9" x="170" y="278" /><rect fill="#000000" height="9" rx="2" ry="2" width="9" x="50" y="290" /><rect fill="#fcfcfc" height="9" rx="2" ry="2" width="9" x="62" y="290" /><rect fill="#fcfcfc" height="9" rx="2" ry="2" width="9" x="74" y="290" /><rect fill="#fcfcfc" height="9" rx="2" ry="2" width="9" x="86" y="290" /><rect fill="#fcfcfc" height="9" rx="2" ry="2" width="9" x="98" y="290" /><rect fill="#ff0000" height="9" rx="2" ry="2" width="9" x="110" y="290" /><rect fill="#000000" height="9" rx="2" ry="2" width="9" x="122" y="290" /><rect fill="#fcfcfc" height="9" rx="2" ry="2" width="9" x="134" y="290" /><rect fill="#fcfcfc" height="9" rx="2" ry="2" width="9" x="146" y="290" /><rect fill="#ff0000" height="9" rx="2" ry="2" width="9" x="158" y="290" /><rect fill="#ff0000" height="9" rx="2" ry="2" width="9" x="170" y="290" /><rect fill="#000000" height="9" rx="2" ry="2" width="9" x="182" y="290" /><rect fill="#000000" height="9" rx="2" ry="2" width="9" x="38" y="302" /><rect fill="#ff0000" height="9" rx="2" ry="2" width="9" x="50" y="302" /><rect fill="#ff0000" height="9" rx="2" ry="2" width="9" x="62" y="302" /><rect fill="#ff0000" height="9" rx="2" ry="2" width="9" x="74" y="302" /><rect fill="#ff0000" height="9" rx="2" ry="2" width="9" x="86" y="302" /><rect fill="#ff0000" height="9" rx="2" ry="2" width="9" x="98" y="302" /><rect fill="#fcfcfc" height="9" rx="2" ry="2" width="9" x="110" y="302" /><rect fill="#000000" height="9" rx="2" ry="2" width="9" x="122" y="302" /><rect fill="#fcfcfc" height="9" rx="2" ry="2" width="9" x="134" y="302" /><rect fill="#ff0000" height="9" rx="2" ry="2" width="9" x="146" y="302" /><rect fill="#ff0000" height="9" rx="2" ry="2" width="9" x="158" y="302" /><rect fill="#ff0000" height="9" rx="2" ry="2" width="9" x="170" y="302" /><rect fill="#ff0000" height="9" rx="2" ry="2" width="9" x="182" y="302" /><rect fill="#000000" height="9" rx="2" ry="2" width="9" x="194" y="302" /><rect fill="#000000" height="9" rx="2" ry="2" width="9" x="38" y="314" /><rect fill="#000000" height="9" rx="2" ry="2" width="9" x="50" y="314" /><rect fill="#000000" height="9" rx="2" ry="2" width="9" x="62" y="314" /><rect fill="#000000" height="9" rx="2" ry="2" width="9" x="74" y="314" /><rect fill="#000000" height="9" rx="2" ry="2" width="9" x="86" y="314" /><rect fill="#000000" height="9" rx="2" ry="2" width="9" x="98" y="314" /><rect fill="#000000" height="9" rx="2" ry="2" width="9" x="110" y="314" /><rect fill="#000000" height="9" rx="2" ry="2" width="9" x="122" y="314" /><rect fill="#000000" height="9" rx="2" ry="2" width="9" x="134" y="314" /><rect fill="#000000" height="9" rx="2" ry="2" width="9" x="146" y="314" /><rect fill="#000000" height="9" rx="2" ry="2" width="9" x="158" y="314" /><rect fill="#000000" height="9" rx="2" ry="2" width="9" x="170" y="314" /><rect fill="#000000" height="9" rx="2" ry="2" width="9" x="182" y="314" /><rect fill="#000000" height="9" rx="2" ry="2" width="9" x="194" y="314" /></svg>