<?xml version="1.0" encoding="utf-8" ?>
<svg baseProfile="full" height="576" version="1.1" width="252" xmlns="http://www.w3.org/2000/svg" xmlns:ev="http://www.w3.org/2001/xml-events" xmlns:xlink="http://www.w3.org/1999/xlink"><defs /><rect fill="#000000" height="9" rx="2" ry="2" width="9" x="158" y="2" /><rect fill="#000000" height="9" rx="2" ry="2" width="9" x="146" y="14" /><rect fill="#000000" height="9" rx="2" ry="2" width="9" x="158" y="14" /><rect fill="#000000" height="9" rx="2" ry="2" width="9" x="170" y="14" /><rect fill="#000000" height="9" rx="2" ry="2" width="9" x="50" y="26" /><rect fill="#000000" height="9" rx="2" ry="2" width="9" x="158" y="26" /><rect fill="#000000" height="9" rx="2" ry="2" width="9" x="38" y="38" /><rect fill="#000000" height="9" rx="2" ry="2" width="9" x="50" y="38" /><rect fill="#000000" height="9" rx="2" ry="2" width="9" x="62" y="38" /><rect fill="#000000" height="9" rx="2" ry="2" width="9" x="50" y="50" /><rect fill="#000000" height="9" rx="2" ry="2" width="9" x="182" y="50" /><rect fill="#000000" height="9" rx="2" ry="2" width="9" x="194" y="50" /><rect fill="#000000" height="9" rx="2" ry="2" width="9" x="206" y="50" /><rect fill="#000000" height="9" rx="2" ry="2" width="9" x="218" y="50" /><rect fill="#000000" height="9" rx="2" ry="2" width="9" x="170" y="62" /><rect fill="#888888" height="9" rx="2" ry="2" width="9" x="182" y="62" /><rect fill="#eeeeee" height="9" rx="2" ry="2" width="9" x="194" y="62" /><rect fill="#eeeeee" height="9" rx="2" ry="2" width="9" x="206" y="62" /><rect fill="#888888" height="9" rx="2" ry="2" width="9" x="218" y="62" /><rect fill="#000000" height="9" rx="2" ry="2" width="9" x="230" y="62" /><rect fill="#000000" height="9" rx="2" ry="2" width="9" x="38" y="74" /><rect fill="#000000" height="9" rx="2" ry="2" width="9" x="50" y="74" /><rect fill="#000000" height="9" rx="2" ry="2" width="9" x="62" y="74" /><rect fill="#000000" height="9" rx="2" ry="2" width="9" x="74" y="74" /><rect fill="#000000" height="9" rx="2" ry="2" width="9" x="86" y="74" /><rect fill="#000000" height="9" rx="2" ry="2" width="9" x="146" y="74" /><rect fill="#000000" height="9" rx="2" ry="2" width="9" x="158" y="74" /><rect fill="#eeeeee" height="9" rx="2" ry="2" width="9" x="170" y="74" /><rect fill="#eeeeee" height="9" rx="2" ry="2" width="9" x="182" y="74" /><rect fill="#eeeeee" height="9" rx="2" ry="2" width="9" x="194" y="74" /><rect fill="#eeeeee" height="9" rx="2" ry="2" width="9" x="206" y="74" /><rect fill="#eeeeee" height="9" rx="2" ry="2" width="9" x="218" y="74" /><rect fill="#eeeeee" height="9" rx="2" ry="2" width="9" x="230" y="74" /><rect fill="#000000" height="9" rx="2" ry="2" width="9" x="242" y="74" /><rect fill="#000000" height="9" rx="2" ry="2" width="9" x="38" y="86" /><rect fill="#eecc00" height="9" rx="2" ry="2" width="9" x="50" y="86" /><rect fill="#eecc00" height="9" rx="2" ry="2" width="9" x="62" y="86" /><rect fill="#eecc00" height="9" rx="2" ry="2" width="9" x="74" y="86" /><rect fill="#aa5544" height="9" rx="2" ry="2" width="9" x="86" y="86" /><rect fill="#000000" height="9" rx="2" ry="2" width="9" x="98" y="86" /><rect fill="#000000" height="9" rx="2" ry="2" width="9" x="134" y="86" /><rect fill="#eecc00" height="9" rx="2" ry="2" width="9" x="146" y="86" /><rect fill="#000000" height="9" rx="2" ry="2" width="9" x="158" y="86" /><rect fill="#eeeeee" height="9" rx="2" ry="2" width="9" x="170" y="86" /><rect fill="#888888" height="9" rx="2" ry="2" width="9" x="182" y="86" /><rect fill="#888888" height="9" rx="2" ry="2" width="9" x="194" y="86" /><rect fill="#888888" height="9" rx="2" ry="2" width="9" x="206" y="86" /><rect fill="#888888" height="9" rx="2" ry="2" width="9" x="218" y="86" /><rect fill="#eeeeee" height="9" rx="2" ry="2" width="9" x="230" y="86" /><rect fill="#000000" height="9" rx="2" ry="2" width="9" x="242" y="86" /><rect fill="#000000" height="9" rx="2" ry="2" width="9" x="50" y="98" /><rect fill="#aa5544" height="9" rx="2" ry="2" width="9" x="62" y="98" /><rect fill="#eecc00" height="9" rx="2" ry="2" width="9" x="74" y="98" /><rect fill="#eecc00" height="9" rx="2" ry="2" width="9" x="86" y="98" /><rect fill="#aa5544" height="9" rx="2" ry="2" width="9" x="98" y="98" /><rect fill="#000000" height="9" rx="2" ry="2" width="9" x="110" y="98" /><rect fill="#000000" height="9" rx="2" ry="2" width="9" x="122" y="98" /><rect fill="#eecc00" height="9" rx="2" ry="2" width="9" x="134" y="98" /><rect fill="#eecc00" height="9" rx="2" ry="2" width="9" x="146" y="98" /><rect fill="#000000" height="9" rx="2" ry="2" width="9" x="158" y="98" /><rect fill="#000000" height="9" rx="2" ry="2" width="9" x="170" y="98" /><rect fill="#444444" height="9" rx="2" ry="2" width="9" x="182" y="98" /><rect fill="#444444" height="9" rx="2" ry="2" width="9" x="194" y="98" /><rect fill="#888888" height="9" rx="2" ry="2" width="9" x="206" y="98" /><rect fill="#888888" height="9" rx="2" ry="2" width="9" x="218" y="98" /><rect fill="#888888" height="9" rx="2" ry="2" width="9" x="230" y="98" /><rect fill="#000000" height="9" rx="2" ry="2" width="9" x="242" y="98" /><rect fill="#000000" height="9" rx="2" ry="2" width="9" x="14" y="110" /><rect fill="#000000" height="9" rx="2" ry="2" width="9" x="26" y="110" /><rect fill="#000000" height="9" rx="2" ry="2" width="9" x="38" y="110" /><rect fill="#000000" height="9" rx="2" ry="2" width="9" x="50" y="110" /><rect fill="#aa5544" height="9" rx="2" ry="2" width="9" x="62" y="110" /><rect fill="#aa5544" height="9" rx="2" ry="2" width="9" x="74" y="110" /><rect fill="#eecc00" height="9" rx="2" ry="2" width="9" x="86" y="110" /><rect fill="#eecc00" height="9" rx="2" ry="2" width="9" x="98" y="110" /><rect fill="#aa5544" height="9" rx="2" ry="2" width="9" x="110" y="110" /><rect fill="#eecc00" height="9" rx="2" ry="2" width="9" x="122" y="110" /><rect fill="#eecc00" height="9" rx="2" ry="2" width="9" x="134" y="110" /><rect fill="#aa5544" height="9" rx="2" ry="2" width="9" x="146" y="110" /><rect fill="#000000" height="9" rx="2" ry="2" width="9" x="158" y="110" /><rect fill="#eeeeee" height="9" rx="2" ry="2" width="9" x="170" y="110" /><rect fill="#eeeeee" height="9" rx="2" ry="2" width="9" x="182" y="110" /><rect fill="#eeeeee" height="9" rx="2" ry="2" width="9" x="194" y="110" /><rect fill="#444444" height="9" rx="2" ry="2" width="9" x="206" y="110" /><rect fill="#888888" height="9" rx="2" ry="2" width="9" x="218" y="110" /><rect fill="#888888" height="9" rx="2" ry="2" width="9" x="230" y="110" /><rect fill="#000000" height="9" rx="2" ry="2" width="9" x="242" y="110" /><rect fill="#000000" height="9" rx="2" ry="2" width="9" x="14" y="122" /><rect fill="#eecc00" height="9" rx="2" ry="2" width="9" x="26" y="122" /><rect fill="#eecc00" height="9" rx="2" ry="2" width="9" x="38" y="122" /><rect fill="#eecc00" height="9" rx="2" ry="2" width="9" x="50" y="122" /><rect fill="#eecc00" height="9" rx="2" ry="2" width="9" x="62" y="122" /><rect fill="#aa5544" height="9" rx="2" ry="2" width="9" x="74" y="122" /><rect fill="#eecc00" height="9" rx="2" ry="2" width="9" x="86" y="122" /><rect fill="#eecc00" height="9" rx="2" ry="2" width="9" x="98" y="122" /><rect fill="#eecc00" height="9" rx="2" ry="2" width="9" x="110" y="122" /><rect fill="#eecc00" height="9" rx="2" ry="2" width="9" x="122" y="122" /><rect fill="#aa5544" height="9" rx="2" ry="2" width="9" x="134" y="122" /><rect fill="#aa5544" height="9" rx="2" ry="2" width="9" x="146" y="122" /><rect fill="#000000" height="9" rx="2" ry="2" width="9" x="158" y="122" /><rect fill="#888888" height="9" rx="2" ry="2" width="9" x="170" y="122" /><rect fill="#eeeeee" height="9" rx="2" ry="2" width="9" x="182" y="122" /><rect fill="#888888" height="9" rx="2" ry="2" width="9" x="194" y="122" /><rect fill="#444444" height="9" rx="2" ry="2" width="9" x="206" y="122" /><rect fill="#888888" height="9" rx="2" ry="2" width="9" x="218" y="122" /><rect fill="#888888" height="9" rx="2" ry="2" width="9" x="230" y="122" /><rect fill="#000000" height="9" rx="2" ry="2" width="9" x="242" y="122" /><rect fill="#000000" height="9" rx="2" ry="2" width="9" x="26" y="134" /><rect fill="#aa5544" height="9" rx="2" ry="2" width="9" x="38" y="134" /><rect fill="#aa5544" height="9" rx="2" ry="2" width="9" x="50" y="134" /><rect fill="#eecc00" height="9" rx="2" ry="2" width="9" x="62" y="134" /><rect fill="#eecc00" height="9" rx="2" ry="2" width="9" x="74" y="134" /><rect fill="#eecc00" height="9" rx="2" ry="2" width="9" x="86" y="134" /><rect fill="#eecc00" height="9" rx="2" ry="2" width="9" x="98" y="134" /><rect fill="#eecc00" height="9" rx="2" ry="2" width="9" x="110" y="134" /><rect fill="#aa5544" height="9" rx="2" ry="2" width="9" x="122" y="134" /><rect fill="#aa5544" height="9" rx="2" ry="2" width="9" x="134" y="134" /><rect fill="#aa5544" height="9" rx="2" ry="2" width="9" x="146" y="134" /><rect fill="#000000" height="9" rx="2" ry="2" width="9" x="158" y="134" /><rect fill="#000000" height="9" rx="2" ry="2" width="9" x="170" y="134" /><rect fill="#444444" height="9" rx="2" ry="2" width="9" x="182" y="134" /><rect fill="#444444" height="9" rx="2" ry="2" width="9" x="194" y="134" /><rect fill="#888888" height="9" rx="2" ry="2" width="9" x="206" y="134" /><rect fill="#888888" height="9" rx="2" ry="2" width="9" x="218" y="134" /><rect fill="#888888" height="9" rx="2" ry="2" width="9" x="230" y="134" /><rect fill="#000000" height="9" rx="2" ry="2" width="9" x="242" y="134" /><rect fill="#000000" height="9" rx="2" ry="2" width="9" x="14" y="146" /><rect fill="#000000" height="9" rx="2" ry="2" width="9" x="26" y="146" /><rect fill="#000000" height="9" rx="2" ry="2" width="9" x="38" y="146" /><rect fill="#aa5544" height="9" rx="2" ry="2" width="9" x="50" y="146" /><rect fill="#aa5544" height="9" rx="2" ry="2" width="9" x="62" y="146" /><rect fill="#aa5544" height="9" rx="2" ry="2" width="9" x="74" y="146" /><rect fill="#aa5544" height="9" rx="2" ry="2" width="9" x="86" y="146" /><rect fill="#000000" height="9" rx="2" ry="2" width="9" x="98" y="146" /><rect fill="#000000" height="9" rx="2" ry="2" width="9" x="110" y="146" /><rect fill="#000000" height="9" rx="2" ry="2" width="9" x="122" y="146" /><rect fill="#000000" height="9" rx="2" ry="2" width="9" x="134" y="146" /><rect fill="#22cc00" height="9" rx="2" ry="2" width="9" x="146" y="146" /><rect fill="#000000" height="9" rx="2" ry="2" width="9" x="158" y="146" /><rect fill="#eeeeee" height="9" rx="2" ry="2" width="9" x="170" y="146" /><rect fill="#000000" height="9" rx="2" ry="2" width="9" x="182" y="146" /><rect fill="#000000" height="9" rx="2" ry="2" width="9" x="194" y="146" /><rect fill="#888888" height="9" rx="2" ry="2" width="9" x="206" y="146" /><rect fill="#888888" height="9" rx="2" ry="2" width="9" x="218" y="146" /><rect fill="#000000" height="9" rx="2" ry="2" width="9" x="230" y="146" /><rect fill="#000000" height="9" rx="2" ry="2" width="9" x="14" y="158" /><rect fill="#eecc00" height="9" rx="2" ry="2" width="9" x="26" y="158" /><rect fill="#eecc00" height="9" rx="2" ry="2" width="9" x="38" y="158" /><rect fill="#eecc00" height="9" rx="2" ry="2" width="9" x="50" y="158" /><rect fill="#aa5544" height="9" rx="2" ry="2" width="9" x="62" y="158" /><rect fill="#aa5544" height="9" rx="2" ry="2" width="9" x="74" y="158" /><rect fill="#000000" height="9" rx="2" ry="2" width="9" x="86" y="158" /><rect fill="#eeeeee" height="9" rx="2" ry="2" width="9" x="98" y="158" /><rect fill="#888888" height="9" rx="2" ry="2" width="9" x="110" y="158" /><rect fill="#000000" height="9" rx="2" ry="2" width="9" x="122" y="158" /><rect fill="#000000" height="9" rx="2" ry="2" width="9" x="134" y="158" /><rect fill="#000000" height="9" rx="2" ry="2" width="9" x="146" y="158" /><rect fill="#22cc00" height="9" rx="2" ry="2" width="9" x="158" y="158" /><rect fill="#000000" height="9" rx="2" ry="2" width="9" x="170" y="158" /><rect fill="#000000" height="9" rx="2" ry="2" width="9" x="182" y="158" /><rect fill="#000000" height="9" rx="2" ry="2" width="9" x="194" y="158" /><rect fill="#000000" height="9" rx="2" ry="2" width="9" x="206" y="158" /><rect fill="#888888" height="9" rx="2" ry="2" width="9" x="218" y="158" /><rect fill="#000000" height="9" rx="2" ry="2" width="9" x="230" y="158" /><rect fill="#000000" height="9" rx="2" ry="2" width="9" x="14" y="170" /><rect fill="#000000" height="9" rx="2" ry="2" width="9" x="26" y="170" /><rect fill="#aa5544" height="9" rx="2" ry="2" width="9" x="38" y="170" /><rect fill="#aa5544" height="9" rx="2" ry="2" width="9" x="50" y="170" /><rect fill="#aa5544" height="9" rx="2" ry="2" width="9" x="62" y="170" /><rect fill="#22cc00" height="9" rx="2" ry="2" width="9" x="74" y="170" /><rect fill="#000000" height="9" rx="2" ry="2" width="9" x="86" y="170" /><rect fill="#888888" height="9" rx="2" ry="2" width="9" x="98" y="170" /><rect fill="#eeeeee" height="9" rx="2" ry="2" width="9" x="110" y="170" /><rect fill="#000000" height="9" rx="2" ry="2" width="9" x="122" y="170" /><rect fill="#000000" height="9" rx="2" ry="2" width="9" x="134" y="170" /><rect fill="#0066ee" height="9" rx="2" ry="2" width="9" x="146" y="170" /><rect fill="#000000" height="9" rx="2" ry="2" width="9" x="158" y="170" /><rect fill="#22cc00" height="9" rx="2" ry="2" width="9" x="170" y="170" /><rect fill="#000000" height="9" rx="2" ry="2" width="9" x="182" y="170" /><rect fill="#0066ee" height="9" rx="2" ry="2" width="9" x="194" y="170" /><rect fill="#0066ee" height="9" rx="2" ry="2" width="9" x="206" y="170" /><rect fill="#000000" height="9" rx="2" ry="2" width="9" x="218" y="170" /><rect fill="#000000" height="9" rx="2" ry="2" width="9" x="2" y="182" /><rect fill="#880022" height="9" rx="2" ry="2" width="9" x="14" y="182" /><rect fill="#ee44aa" height="9" rx="2" ry="2" width="9" x="26" y="182" /><rect fill="#000000" height="9" rx="2" ry="2" width="9" x="38" y="182" /><rect fill="#005500" height="9" rx="2" ry="2" width="9" x="50" y="182" /><rect fill="#22cc00" height="9" rx="2" ry="2" width="9" x="62" y="182" /><rect fill="#22cc00" height="9" rx="2" ry="2" width="9" x="74" y="182" /><rect fill="#000000" height="9" rx="2" ry="2" width="9" x="86" y="182" /><rect fill="#000000" height="9" rx="2" ry="2" width="9" x="98" y="182" /><rect fill="#000000" height="9" rx="2" ry="2" width="9" x="110" y="182" /><rect fill="#000000" height="9" rx="2" ry="2" width="9" x="122" y="182" /><rect fill="#000000" height="9" rx="2" ry="2" width="9" x="134" y="182" /><rect fill="#0066ee" height="9" rx="2" ry="2" width="9" x="146" y="182" /><rect fill="#0066ee" height="9" rx="2" ry="2" width="9" x="158" y="182" /><rect fill="#000000" height="9" rx="2" ry="2" width="9" x="170" y="182" /><rect fill="#eeaa88" height="9" rx="2" ry="2" width="9" x="182" y="182" /><rect fill="#000000" height="9" rx="2" ry="2" width="9" x="194" y="182" /><rect fill="#0066ee" height="9" rx="2" ry="2" width="9" x="206" y="182" /><rect fill="#000000" height="9" rx="2" ry="2" width="9" x="218" y="182" /><rect fill="#000000" height="9" rx="2" ry="2" width="9" x="2" y="194" /><rect fill="#ee44aa" height="9" rx="2" ry="2" width="9" x="14" y="194" /><rect fill="#000000" height="9" rx="2" ry="2" width="9" x="26" y="194" /><rect fill="#000000" height="9" rx="2" ry="2" width="9" x="38" y="194" /><rect fill="#000000" height="9" rx="2" ry="2" width="9" x="50" y="194" /><rect fill="#000000" height="9" rx="2" ry="2" width="9" x="62" y="194" /><rect fill="#22cc00" height="9" rx="2" ry="2" width="9" x="74" y="194" /><rect fill="#005500" height="9" rx="2" ry="2" width="9" x="86" y="194" /><rect fill="#000000" height="9" rx="2" ry="2" width="9" x="98" y="194" /><rect fill="#000000" height="9" rx="2" ry="2" width="9" x="110" y="194" /><rect fill="#0066ee" height="9" rx="2" ry="2" width="9" x="122" y="194" /><rect fill="#0066ee" height="9" rx="2" ry="2" width="9" x="134" y="194" /><rect fill="#0066ee" height="9" rx="2" ry="2" width="9" x="146" y="194" /><rect fill="#0066ee" height="9" rx="2" ry="2" width="9" x="158" y="194" /><rect fill="#000000" height="9" rx="2" ry="2" width="9" x="170" y="194" /><rect fill="#eeaa88" height="9" rx="2" ry="2" width="9" x="182" y="194" /><rect fill="#eeaa88" height="9" rx="2" ry="2" width="9" x="194" y="194" /><rect fill="#000000" height="9" rx="2" ry="2" width="9" x="206" y="194" /><rect fill="#000000" height="9" rx="2" ry="2" width="9" x="218" y="194" /><rect fill="#000000" height="9" rx="2" ry="2" width="9" x="230" y="194" /><rect fill="#000000" height="9" rx="2" ry="2" width="9" x="2" y="206" /><rect fill="#880022" height="9" rx="2" ry="2" width="9" x="14" y="206" /><rect fill="#880022" height="9" rx="2" ry="2" width="9" x="26" y="206" /><rect fill="#eeaa88" height="9" rx="2" ry="2" width="9" x="38" y="206" /><rect fill="#eeeeee" height="9" rx="2" ry="2" width="9" x="50" y="206" /><rect fill="#eeeeee" height="9" rx="2" ry="2" width="9" x="62" y="206" /><rect fill="#000000" height="9" rx="2" ry="2" width="9" x="74" y="206" /><rect fill="#22cc00" height="9" rx="2" ry="2" width="9" x="86" y="206" /><rect fill="#000000" height="9" rx="2" ry="2" width="9" x="98" y="206" /><rect fill="#0066ee" height="9" rx="2" ry="2" width="9" x="110" y="206" /><rect fill="#0066ee" height="9" rx="2" ry="2" width="9" x="122" y="206" /><rect fill="#0066ee" height="9" rx="2" ry="2" width="9" x="134" y="206" /><rect fill="#0066ee" height="9" rx="2" ry="2" width="9" x="146" y="206" /><rect fill="#0066ee" height="9" rx="2" ry="2" width="9" x="158" y="206" /><rect fill="#000000" height="9" rx="2" ry="2" width="9" x="170" y="206" /><rect fill="#eeaa88" height="9" rx="2" ry="2" width="9" x="182" y="206" /><rect fill="#eeaa88" height="9" rx="2" ry="2" width="9" x="194" y="206" /><rect fill="#eeaa88" height="9" rx="2" ry="2" width="9" x="206" y="206" /><rect fill="#eeaa88" height="9" rx="2" ry="2" width="9" x="218" y="206" /><rect fill="#000000" height="9" rx="2" ry="2" width="9" x="230" y="206" /><rect fill="#000000" height="9" rx="2" ry="2" width="9" x="14" y="218" /><rect fill="#aa5544" height="9" rx="2" ry="2" width="9" x="26" y="218" /><rect fill="#000000" height="9" rx="2" ry="2" width="9" x="38" y="218" /><rect fill="#880022" height="9" rx="2" ry="2" width="9" x="50" y="218" /><rect fill="#eeaa88" height="9" rx="2" ry="2" width="9" x="62" y="218" /><rect fill="#ee44aa" height="9" rx="2" ry="2" width="9" x="74" y="218" /><rect fill="#000000" height="9" rx="2" ry="2" width="9" x="86" y="218" /><rect fill="#aa5544" height="9" rx="2" ry="2" width="9" x="98" y="218" /><rect fill="#000000" height="9" rx="2" ry="2" width="9" x="110" y="218" /><rect fill="#000000" height="9" rx="2" ry="2" width="9" x="122" y="218" /><rect fill="#000000" height="9" rx="2" ry="2" width="9" x="134" y="218" /><rect fill="#000000" height="9" rx="2" ry="2" width="9" x="146" y="218" /><rect fill="#000000" height="9" rx="2" ry="2" width="9" x="158" y="218" /><rect fill="#eeaa88" height="9" rx="2" ry="2" width="9" x="170" y="218" /><rect fill="#eeaa88" height="9" rx="2" ry="2" width="9" x="182" y="218" /><rect fill="#eeaa88" height="9" rx="2" ry="2" width="9" x="194" y="218" /><rect fill="#eeaa88" height="9" rx="2" ry="2" width="9" x="206" y="218" /><rect fill="#eeaa88" height="9" rx="2" ry="2" width="9" x="218" y="218" /><rect fill="#000000" height="9" rx="2" ry="2" width="9" x="230" y="218" /><rect fill="#000000" height="9" rx="2" ry="2" width="9" x="14" y="230" /><rect fill="#eecc00" height="9" rx="2" ry="2" width="9" x="26" y="230" /><rect fill="#eecc00" height="9" rx="2" ry="2" width="9" x="38" y="230" /><rect fill="#000000" height="9" rx="2" ry="2" width="9" x="50" y="230" /><rect fill="#ee44aa" height="9" rx="2" ry="2" width="9" x="62" y="230" /><rect fill="#ee44aa" height="9" rx="2" ry="2" width="9" x="74" y="230" /><rect fill="#000000" height="9" rx="2" ry="2" width="9" x="86" y="230" /><rect fill="#eeaa88" height="9" rx="2" ry="2" width="9" x="98" y="230" /><rect fill="#eeaa88" height="9" rx="2" ry="2" width="9" x="110" y="230" /><rect fill="#eeaa88" height="9" rx="2" ry="2" width="9" x="122" y="230" /><rect fill="#eeaa88" height="9" rx="2" ry="2" width="9" x="134" y="230" /><rect fill="#eeaa88" height="9" rx="2" ry="2" width="9" x="146" y="230" /><rect fill="#eeaa88" height="9" rx="2" ry="2" width="9" x="158" y="230" /><rect fill="#eeaa88" height="9" rx="2" ry="2" width="9" x="170" y="230" /><rect fill="#eeaa88" height="9" rx="2" ry="2" width="9" x="182" y="230" /><rect fill="#eeaa88" height="9" rx="2" ry="2" width="9" x="194" y="230" /><rect fill="#eeaa88" height="9" rx="2" ry="2" width="9" x="206" y="230" /><rect fill="#eeaa88" height="9" rx="2" ry="2" width="9" x="218" y="230" /><rect fill="#000000" height="9" rx="2" ry="2" width="9" x="230" y="230" /><rect fill="#000000" height="9" rx="2" ry="2" width="9" x="14" y="242" /><rect fill="#eecc00" height="9" rx="2" ry="2" width="9" x="26" y="242" /><rect fill="#eecc00" height="9" rx="2" ry="2" width="9" x="38" y="242" /><rect fill="#000000" height="9" rx="2" ry="2" width="9" x="50" y="242" /><rect fill="#880022" height="9" rx="2" ry="2" width="9" x="62" y="242" /><rect fill="#880022" height="9" rx="2" ry="2" width="9" x="74" y="242" /><rect fill="#000000" height="9" rx="2" ry="2" width="9" x="86" y="242" /><rect fill="#eeaa88" height="9" rx="2" ry="2" width="9" x="98" y="242" /><rect fill="#000000" height="9" rx="2" ry="2" width="9" x="110" y="242" /><rect fill="#000000" height="9" rx="2" ry="2" width="9" x="122" y="242" /><rect fill="#000000" height="9" rx="2" ry="2" width="9" x="134" y="242" /><rect fill="#000000" height="9" rx="2" ry="2" width="9" x="146" y="242" /><rect fill="#000000" height="9" rx="2" ry="2" width="9" x="158" y="242" /><rect fill="#000000" height="9" rx="2" ry="2" width="9" x="170" y="242" /><rect fill="#000000" height="9" rx="2" ry="2" width="9" x="182" y="242" /><rect fill="#eeaa88" height="9" rx="2" ry="2" width="9" x="194" y="242" /><rect fill="#eeaa88" height="9" rx="2" ry="2" width="9" x="206" y="242" /><rect fill="#aa5544" height="9" rx="2" ry="2" width="9" x="218" y="242" /><rect fill="#000000" height="9" rx="2" ry="2" width="9" x="230" y="242" /><rect fill="#000000" height="9" rx="2" ry="2" width="9" x="14" y="254" /><rect fill="#aa5544" height="9" rx="2" ry="2" width="9" x="26" y="254" /><rect fill="#aa5544" height="9" rx="2" ry="2" width="9" x="38" y="254" /><rect fill="#000000" height="9" rx="2" ry="2" width="9" x="50" y="254" /><rect fill="#880022" height="9" rx="2" ry="2" width="9" x="62" y="254" /><rect fill="#880022" height="9" rx="2" ry="2" width="9" x="74" y="254" /><rect fill="#000000" height="9" rx="2" ry="2" width="9" x="86" y="254" /><rect fill="#eeaa88" height="9" rx="2" ry="2" width="9" x="98" y="254" /><rect fill="#880022" height="9" rx="2" ry="2" width="9" x="110" y="254" /><rect fill="#ee44aa" height="9" rx="2" ry="2" width="9" x="122" y="254" /><rect fill="#ee44aa" height="9" rx="2" ry="2" width="9" x="134" y="254" /><rect fill="#ee44aa" height="9" rx="2" ry="2" width="9" x="146" y="254" /><rect fill="#000000" height="9" rx="2" ry="2" width="9" x="158" y="254" /><rect fill="#000000" height="9" rx="2" ry="2" width="9" x="170" y="254" /><rect fill="#000000" height="9" rx="2" ry="2" width="9" x="182" y="254" /><rect fill="#eeaa88" height="9" rx="2" ry="2" width="9" x="194" y="254" /><rect fill="#eeaa88" height="9" rx="2" ry="2" width="9" x="206" y="254" /><rect fill="#000000" height="9" rx="2" ry="2" width="9" x="218" y="254" /><rect fill="#000000" height="9" rx="2" ry="2" width="9" x="14" y="266" /><rect fill="#aa5544" height="9" rx="2" ry="2" width="9" x="26" y="266" /><rect fill="#aa5544" height="9" rx="2" ry="2" width="9" x="38" y="266" /><rect fill="#000000" height="9" rx="2" ry="2" width="9" x="50" y="266" /><rect fill="#880022" height="9" rx="2" ry="2" width="9" x="62" y="266" /><rect fill="#880022" height="9" rx="2" ry="2" width="9" x="74" y="266" /><rect fill="#000000" height="9" rx="2" ry="2" width="9" x="86" y="266" /><rect fill="#eeaa88" height="9" rx="2" ry="2" width="9" x="98" y="266" /><rect fill="#880022" height="9" rx="2" ry="2" width="9" x="110" y="266" /><rect fill="#ee44aa" height="9" rx="2" ry="2" width="9" x="122" y="266" /><rect fill="#ee44aa" height="9" rx="2" ry="2" width="9" x="134" y="266" /><rect fill="#ee44aa" height="9" rx="2" ry="2" width="9" x="146" y="266" /><rect fill="#ee44aa" height="9" rx="2" ry="2" width="9" x="158" y="266" /><rect fill="#000000" height="9" rx="2" ry="2" width="9" x="170" y="266" /><rect fill="#aa5544" height="9" rx="2" ry="2" width="9" x="182" y="266" /><rect fill="#eeaa88" height="9" rx="2" ry="2" width="9" x="194" y="266" /><rect fill="#aa5544" height="9" rx="2" ry="2" width="9" x="206" y="266" /><rect fill="#000000" height="9" rx="2" ry="2" width="9" x="218" y="266" /><rect fill="#000000" height="9" rx="2" ry="2" width="9" x="26" y="278" /><rect fill="#aa5544" height="9" rx="2" ry="2" width="9" x="38" y="278" /><rect fill="#000000" height="9" rx="2" ry="2" width="9" x="50" y="278" /><rect fill="#880022" height="9" rx="2" ry="2" width="9" x="62" y="278" /><rect fill="#880022" height="9" rx="2" ry="2" width="9" x="74" y="278" /><rect fill="#000000" height="9" rx="2" ry="2" width="9" x="86" y="278" /><rect fill="#eeaa88" height="9" rx="2" ry="2" width="9" x="98" y="278" /><rect fill="#aa5544" height="9" rx="2" ry="2" width="9" x="110" y="278" /><rect fill="#880022" height="9" rx="2" ry="2" width="9" x="122" y="278" /><rect fill="#ee44aa" height="9" rx="2" ry="2" width="9" x="134" y="278" /><rect fill="#ee44aa" height="9" rx="2" ry="2" width="9" x="146" y="278" /><rect fill="#880022" height="9" rx="2" ry="2" width="9" x="158" y="278" /><rect fill="#aa5544" height="9" rx="2" ry="2" width="9" x="170" y="278" /><rect fill="#eeaa88" height="9" rx="2" ry="2" width="9" x="182" y="278" /><rect fill="#aa5544" height="9" rx="2" ry="2" width="9" x="194" y="278" /><rect fill="#000000" height="9" rx="2" ry="2" width="9" x="206" y="278" /><rect fill="#000000" height="9" rx="2" ry="2" width="9" x="38" y="290" /><rect fill="#880022" height="9" rx="2" ry="2" width="9" x="50" y="290" /><rect fill="#880022" height="9" rx="2" ry="2" width="9" x="62" y="290" /><rect fill="#000000" height="9" rx="2" ry="2" width="9" x="74" y="290" /><rect fill="#aa5544" height="9" rx="2" ry="2" width="9" x="86" y="290" /><rect fill="#eeaa88" height="9" rx="2" ry="2" width="9" x="98" y="290" /><rect fill="#eeaa88" height="9" rx="2" ry="2" width="9" x="110" y="290" /><rect fill="#aa5544" height="9" rx="2" ry="2" width="9" x="122" y="290" /><rect fill="#880022" height="9" rx="2" ry="2" width="9" x="134" y="290" /><rect fill="#880022" height="9" rx="2" ry="2" width="9" x="146" y="290" /><rect fill="#eeaa88" height="9" rx="2" ry="2" width="9" x="158" y="290" /><rect fill="#eeaa88" height="9" rx="2" ry="2" width="9" x="170" y="290" /><rect fill="#aa5544" height="9" rx="2" ry="2" width="9" x="182" y="290" /><rect fill="#000000" height="9" rx="2" ry="2" width="9" x="194" y="290" /><rect fill="#000000" height="9" rx="2" ry="2" width="9" x="50" y="302" /><rect fill="#000000" height="9" rx="2" ry="2" width="9" x="62" y="302" /><rect fill="#000000" height="9" rx="2" ry="2" width="9" x="74" y="302" /><rect fill="#000000" height="9" rx="2" ry="2" width="9" x="86" y="302" /><rect fill="#aa5544" height="9" rx="2" ry="2" width="9" x="98" y="302" /><rect fill="#eeaa88" height="9" rx="2" ry="2" width="9" x="110" y="302" /><rect fill="#eeaa88" height="9" rx="2" ry="2" width="9" x="122" y="302" /><rect fill="#eeaa88" height="9" rx="2" ry="2" width="9" x="134" y="302" /><rect fill="#eeaa88" height="9" rx="2" ry="2" width="9" x="146" y="302" /><rect fill="#aa5544" height="9" rx="2" ry="2" width="9" x="158" y="302" /><rect fill="#000000" height="9" rx="2" ry="2" width="9" x="170" y="302" /><rect fill="#000000" height="9" rx="2" ry="2" width="9" x="182" y="302" /><rect fill="#000000" height="9" rx="2" ry="2" width="9" x="74" y="314" /><rect fill="#000000" height="9" rx="2" ry="2" width="9" x="86" y="314" /><rect fill="#000000" height="9" rx="2" ry="2" width="9" x="98" y="314" /><rect fill="#000000" height="9" rx="2" ry="2" width="9" x="110" y="314" /><rect fill="#000000" height="9" rx="2" ry="2" width="9" x="122" y="314" /><rect fill="#000000" height="9" rx="2" ry="2" width="9" x="134" y="314" /><rect fill="#000000" height="9" rx="2" ry="2" width="9" x="146" y="314" /><rect fill="#000000" height="9" rx="2" ry="2" width="9" x="158" y="314" /><rect fill="#000000" height="9" rx="2" ry="2" width="9" x="74" y="326" /><rect fill="#005500" height="9" rx="2" ry="2" width="9" x="86" y="326" /><rect fill="#22cc00" height="9" rx="2" ry="2" width="9" x="98" y="326" /><rect fill="#005500" height="9" rx="2" ry="2" width="9" x="110" y="326" /><rect fill="#000000" height="9" rx="2" ry="2" width="9" x="122" y="326" /><rect fill="#005500" height="9" rx="2" ry="2" width="9" x="134" y="326" /><rect fill="#005500" height="9" rx="2" ry="2" width="9" x="146" y="326" /><rect fill="#005500" height="9" rx="2" ry="2" width="9" x="158" y="326" /><rect fill="#000000" height="9" rx="2" ry="2" width="9" x="170" y="326" /><rect fill="#000000" height="9" rx="2" ry="2" width="9" x="74" y="338" /><rect fill="#22cc00" height="9" rx="2" ry="2" width="9" x="86" y="338" /><rect fill="#22cc00" height="9" rx="2" ry="2" width="9" x="98" y="338" /><rect fill="#22cc00" height="9" rx="2" ry="2" width="9" x="110" y="338" /><rect fill="#000000" height="9" rx="2" ry="2" width="9" x="122" y="338" /><rect fill="#005500" height="9" rx="2" ry="2" width="9" x="134" y="338" /><rect fill="#22cc00" height="9" rx="2" ry="2" width="9" x="146" y="338" /><rect fill="#22cc00" height="9" rx="2" ry="2" width="9" x="158" y="338" /><rect fill="#005500" height="9" rx="2" ry="2" width="9" x="170" y="338" /><rect fill="#000000" height="9" rx="2" ry="2" width="9" x="182" y="338" /><rect fill="#000000" height="9" rx="2" ry="2" width="9" x="74" y="350" /><rect fill="#005500" height="9" rx="2" ry="2" width="9" x="86" y="350" /><rect fill="#22cc00" height="9" rx="2" ry="2" width="9" x="98" y="350" /><rect fill="#22cc00" height="9" rx="2" ry="2" width="9" x="110" y="350" /><rect fill="#000000" height="9" rx="2" ry="2" width="9" x="122" y="350" /><rect fill="#005500" height="9" rx="2" ry="2" width="9" x="134" y="350" /><rect fill="#22cc00" height="9" rx="2" ry="2" width="9" x="146" y="350" /><rect fill="#22cc00" height="9" rx="2" ry="2" width="9" x="158" y="350" /><rect fill="#22cc00" height="9" rx="2" ry="2" width="9" x="170" y="350" /><rect fill="#000000" height="9" rx="2" ry="2" width="9" x="182" y="350" /><rect fill="#000000" height="9" rx="2" ry="2" width="9" x="62" y="362" /><rect fill="#000000" height="9" rx="2" ry="2" width="9" x="74" y="362" /><rect fill="#005500" height="9" rx="2" ry="2" width="9" x="86" y="362" /><rect fill="#005500" height="9" rx="2" ry="2" width="9" x="98" y="362" /><rect fill="#000000" height="9" rx="2" ry="2" width="9" x="110" y="362" /><rect fill="#000000" height="9" rx="2" ry="2" width="9" x="122" y="362" /><rect fill="#005500" height="9" rx="2" ry="2" width="9" x="134" y="362" /><rect fill="#005500" height="9" rx="2" ry="2" width="9" x="146" y="362" /><rect fill="#005500" height="9" rx="2" ry="2" width="9" x="158" y="362" /><rect fill="#005500" height="9" rx="2" ry="2" width="9" x="170" y="362" /><rect fill="#000000" height="9" rx="2" ry="2" width="9" x="182" y="362" /><rect fill="#000000" height="9" rx="2" ry="2" width="9" x="50" y="374" /><rect fill="#444444" height="9" rx="2" ry="2" width="9" x="62" y="374" /><rect fill="#eeeeee" height="9" rx="2" ry="2" width="9" x="74" y="374" /><rect fill="#888888" height="9" rx="2" ry="2" width="9" x="86" y="374" /><rect fill="#eeeeee" height="9" rx="2" ry="2" width="9" x="98" y="374" /><rect fill="#eeeeee" height="9" rx="2" ry="2" width="9" x="110" y="374" /><rect fill="#000000" height="9" rx="2" ry="2" width="9" x="122" y="374" /><rect fill="#005500" height="9" rx="2" ry="2" width="9" x="134" y="374" /><rect fill="#005500" height="9" rx="2" ry="2" width="9" x="146" y="374" /><rect fill="#005500" height="9" rx="2" ry="2" width="9" x="158" y="374" /><rect fill="#000000" height="9" rx="2" ry="2" width="9" x="170" y="374" /><rect fill="#000000" height="9" rx="2" ry="2" width="9" x="50" y="386" /><rect fill="#eeeeee" height="9" rx="2" ry="2" width="9" x="62" y="386" /><rect fill="#eeeeee" height="9" rx="2" ry="2" width="9" x="74" y="386" /><rect fill="#888888" height="9" rx="2" ry="2" width="9" x="86" y="386" /><rect fill="#eeeeee" height="9" rx="2" ry="2" width="9" x="98" y="386" /><rect fill="#eeeeee" height="9" rx="2" ry="2" width="9" x="110" y="386" /><rect fill="#000000" height="9" rx="2" ry="2" width="9" x="122" y="386" /><rect fill="#005500" height="9" rx="2" ry="2" width="9" x="134" y="386" /><rect fill="#000000" height="9" rx="2" ry="2" width="9" x="146" y="386" /><rect fill="#000000" height="9" rx="2" ry="2" width="9" x="158" y="386" /><rect fill="#000000" height="9" rx="2" ry="2" width="9" x="38" y="398" /><rect fill="#888888" height="9" rx="2" ry="2" width="9" x="50" y="398" /><rect fill="#888888" height="9" rx="2" ry="2" width="9" x="62" y="398" /><rect fill="#888888" height="9" rx="2" ry="2" width="9" x="74" y="398" /><rect fill="#eeeeee" height="9" rx="2" ry="2" width="9" x="86" y="398" /><rect fill="#eeeeee" height="9" rx="2" ry="2" width="9" x="98" y="398" /><rect fill="#888888" height="9" rx="2" ry="2" width="9" x="110" y="398" /><rect fill="#000000" height="9" rx="2" ry="2" width="9" x="122" y="398" /><rect fill="#000000" height="9" rx="2" ry="2" width="9" x="134" y="398" /><rect fill="#005500" height="9" rx="2" ry="2" width="9" x="146" y="398" /><rect fill="#000000" height="9" rx="2" ry="2" width="9" x="158" y="398" /><rect fill="#000000" height="9" rx="2" ry="2" width="9" x="38" y="410" /><rect fill="#eeeeee" height="9" rx="2" ry="2" width="9" x="50" y="410" /><rect fill="#eeeeee" height="9" rx="2" ry="2" width="9" x="62" y="410" /><rect fill="#888888" height="9" rx="2" ry="2" width="9" x="74" y="410" /><rect fill="#eeeeee" height="9" rx="2" ry="2" width="9" x="86" y="410" /><rect fill="#eeeeee" height="9" rx="2" ry="2" width="9" x="98" y="410" /><rect fill="#000000" height="9" rx="2" ry="2" width="9" x="110" y="410" /><rect fill="#000000" height="9" rx="2" ry="2" width="9" x="122" y="410" /><rect fill="#000000" height="9" rx="2" ry="2" width="9" x="134" y="410" /><rect fill="#000000" height="9" rx="2" ry="2" width="9" x="146" y="410" /><rect fill="#000000" height="9" rx="2" ry="2" width="9" x="38" y="422" /><rect fill="#888888" height="9" rx="2" ry="2" width="9" x="50" y="422" /><rect fill="#eeeeee" height="9" rx="2" ry="2" width="9" x="62" y="422" /><rect fill="#888888" height="9" rx="2" ry="2" width="9" x="74" y="422" /><rect fill="#eeeeee" height="9" rx="2" ry="2" width="9" x="86" y="422" /><rect fill="#888888" height="9" rx="2" ry="2" width="9" x="98" y="422" /><rect fill="#000000" height="9" rx="2" ry="2" width="9" x="110" y="422" /><rect fill="#000000" height="9" rx="2" ry="2" width="9" x="122" y="422" /><rect fill="#005500" height="9" rx="2" ry="2" width="9" x="134" y="422" /><rect fill="#000000" height="9" rx="2" ry="2" width="9" x="146" y="422" /><rect fill="#000000" height="9" rx="2" ry="2" width="9" x="50" y="434" /><rect fill="#000000" height="9" rx="2" ry="2" width="9" x="62" y="434" /><rect fill="#000000" height="9" rx="2" ry="2" width="9" x="74" y="434" /><rect fill="#000000" height="9" rx="2" ry="2" width="9" x="86" y="434" /><rect fill="#000000" height="9" rx="2" ry="2" width="9" x="98" y="434" /><rect fill="#eeeeee" height="9" rx="2" ry="2" width="9" x="110" y="434" /><rect fill="#000000" height="9" rx="2" ry="2" width="9" x="122" y="434" /><rect fill="#005500" height="9" rx="2" ry="2" width="9" x="134" y="434" /><rect fill="#000000" height="9" rx="2" ry="2" width="9" x="146" y="434" /><rect fill="#000000" height="9" rx="2" ry="2" width="9" x="38" y="446" /><rect fill="#22cc00" height="9" rx="2" ry="2" width="9" x="50" y="446" /><rect fill="#000000" height="9" rx="2" ry="2" width="9" x="62" y="446" /><rect fill="#000000" height="9" rx="2" ry="2" width="9" x="74" y="446" /><rect fill="#000000" height="9" rx="2" ry="2" width="9" x="86" y="446" /><rect fill="#888888" height="9" rx="2" ry="2" width="9" x="98" y="446" /><rect fill="#eeeeee" height="9" rx="2" ry="2" width="9" x="110" y="446" /><rect fill="#000000" height="9" rx="2" ry="2" width="9" x="122" y="446" /><rect fill="#005500" height="9" rx="2" ry="2" width="9" x="134" y="446" /><rect fill="#000000" height="9" rx="2" ry="2" width="9" x="146" y="446" /><rect fill="#000000" height="9" rx="2" ry="2" width="9" x="38" y="458" /><rect fill="#22cc00" height="9" rx="2" ry="2" width="9" x="50" y="458" /><rect fill="#000000" height="9" rx="2" ry="2" width="9" x="62" y="458" /><rect fill="#444444" height="9" rx="2" ry="2" width="9" x="74" y="458" /><rect fill="#eeeeee" height="9" rx="2" ry="2" width="9" x="86" y="458" /><rect fill="#888888" height="9" rx="2" ry="2" width="9" x="98" y="458" /><rect fill="#eeeeee" height="9" rx="2" ry="2" width="9" x="110" y="458" /><rect fill="#000000" height="9" rx="2" ry="2" width="9" x="122" y="458" /><rect fill="#444444" height="9" rx="2" ry="2" width="9" x="134" y="458" /><rect fill="#888888" height="9" rx="2" ry="2" width="9" x="146" y="458" /><rect fill="#000000" height="9" rx="2" ry="2" width="9" x="158" y="458" /><rect fill="#000000" height="9" rx="2" ry="2" width="9" x="38" y="470" /><rect fill="#005500" height="9" rx="2" ry="2" width="9" x="50" y="470" /><rect fill="#000000" height="9" rx="2" ry="2" width="9" x="62" y="470" /><rect fill="#eeeeee" height="9" rx="2" ry="2" width="9" x="74" y="470" /><rect fill="#eeeeee" height="9" rx="2" ry="2" width="9" x="86" y="470" /><rect fill="#888888" height="9" rx="2" ry="2" width="9" x="98" y="470" /><rect fill="#888888" height="9" rx="2" ry="2" width="9" x="110" y="470" /><rect fill="#888888" height="9" rx="2" ry="2" width="9" x="122" y="470" /><rect fill="#000000" height="9" rx="2" ry="2" width="9" x="134" y="470" /><rect fill="#444444" height="9" rx="2" ry="2" width="9" x="146" y="470" /><rect fill="#888888" height="9" rx="2" ry="2" width="9" x="158" y="470" /><rect fill="#000000" height="9" rx="2" ry="2" width="9" x="170" y="470" /><rect fill="#000000" height="9" rx="2" ry="2" width="9" x="38" y="482" /><rect fill="#000000" height="9" rx="2" ry="2" width="9" x="50" y="482" /><rect fill="#eeeeee" height="9" rx="2" ry="2" width="9" x="62" y="482" /><rect fill="#eeeeee" height="9" rx="2" ry="2" width="9" x="74" y="482" /><rect fill="#eeeeee" height="9" rx="2" ry="2" width="9" x="86" y="482" /><rect fill="#eeeeee" height="9" rx="2" ry="2" width="9" x="98" y="482" /><rect fill="#eeeeee" height="9" rx="2" ry="2" width="9" x="110" y="482" /><rect fill="#eeeeee" height="9" rx="2" ry="2" width="9" x="122" y="482" /><rect fill="#000000" height="9" rx="2" ry="2" width="9" x="134" y="482" /><rect fill="#444444" height="9" rx="2" ry="2" width="9" x="146" y="482" /><rect fill="#888888" height="9" rx="2" ry="2" width="9" x="158" y="482" /><rect fill="#000000" height="9" rx="2" ry="2" width="9" x="170" y="482" /><rect fill="#000000" height="9" rx="2" ry="2" width="9" x="50" y="494" /><rect fill="#eeeeee" height="9" rx="2" ry="2" width="9" x="62" y="494" /><rect fill="#eeeeee" height="9" rx="2" ry="2" width="9" x="74" y="494" /><rect fill="#eeeeee" height="9" rx="2" ry="2" width="9" x="86" y="494" /><rect fill="#eeeeee" height="9" rx="2" ry="2" width="9" x="98" y="494" /><rect fill="#eeeeee" height="9" rx="2" ry="2" width="9" x="110" y="494" /><rect fill="#eeeeee" height="9" rx="2" ry="2" width="9" x="122" y="494" /><rect fill="#eeeeee" height="9" rx="2" ry="2" width="9" x="134" y="494" /><rect fill="#000000" height="9" rx="2" ry="2" width="9" x="146" y="494" /><rect fill="#888888" height="9" rx="2" ry="2" width="9" x="158" y="494" /><rect fill="#000000" height="9" rx="2" ry="2" width="9" x="170" y="494" /><rect fill="#000000" height="9" rx="2" ry="2" width="9" x="50" y="506" /><rect fill="#888888" height="9" rx="2" ry="2" width="9" x="62" y="506" /><rect fill="#eeeeee" height="9" rx="2" ry="2" width="9" x="74" y="506" /><rect fill="#eeeeee" height="9" rx="2" ry="2" width="9" x="86" y="506" /><rect fill="#eeeeee" height="9" rx="2" ry="2" width="9" x="98" y="506" /><rect fill="#eeeeee" height="9" rx="2" ry="2" width="9" x="110" y="506" /><rect fill="#eeeeee" height="9" rx="2" ry="2" width="9" x="122" y="506" /><rect fill="#eeeeee" height="9" rx="2" ry="2" width="9" x="134" y="506" /><rect fill="#888888" height="9" rx="2" ry="2" width="9" x="146" y="506" /><rect fill="#000000" height="9" rx="2" ry="2" width="9" x="158" y="506" /><rect fill="#888888" height="9" rx="2" ry="2" width="9" x="170" y="506" /><rect fill="#000000" height="9" rx="2" ry="2" width="9" x="182" y="506" /><rect fill="#000000" height="9" rx="2" ry="2" width="9" x="62" y="518" /><rect fill="#eeeeee" height="9" rx="2" ry="2" width="9" x="74" y="518" /><rect fill="#eeeeee" height="9" rx="2" ry="2" width="9" x="86" y="518" /><rect fill="#eeeeee" height="9" rx="2" ry="2" width="9" x="98" y="518" /><rect fill="#eeeeee" height="9" rx="2" ry="2" width="9" x="110" y="518" /><rect fill="#eeeeee" height="9" rx="2" ry="2" width="9" x="122" y="518" /><rect fill="#eeeeee" height="9" rx="2" ry="2" width="9" x="134" y="518" /><rect fill="#eeeeee" height="9" rx="2" ry="2" width="9" x="146" y="518" /><rect fill="#000000" height="9" rx="2" ry="2" width="9" x="158" y="518" /><rect fill="#888888" height="9" rx="2" ry="2" width="9" x="170" y="518" /><rect fill="#000000" height="9" rx="2" ry="2" width="9" x="182" y="518" /><rect fill="#000000" height="9" rx="2" ry="2" width="9" x="62" y="530" /><rect fill="#888888" height="9" rx="2" ry="2" width="9" x="74" y="530" /><rect fill="#eeeeee" height="9" rx="2" ry="2" width="9" x="86" y="530" /><rect fill="#eeeeee" height="9" rx="2" ry="2" width="9" x="98" y="530" /><rect fill="#eeeeee" height="9" rx="2" ry="2" width="9" x="110" y="530" /><rect fill="#eeeeee" height="9" rx="2" ry="2" width="9" x="122" y="530" /><rect fill="#eeeeee" height="9" rx="2" ry="2" width="9" x="134" y="530" /><rect fill="#eeeeee" height="9" rx="2" ry="2" width="9" x="146" y="530" /><rect fill="#000000" height="9" rx="2" ry="2" width="9" x="158" y="530" /><rect fill="#888888" height="9" rx="2" ry="2" width="9" x="170" y="530" /><rect fill="#000000" height="9" rx="2" ry="2" width="9" x="182" y="530" /><rect fill="#000000" height="9" rx="2" ry="2" width="9" x="74" y="542" /><rect fill="#888888" height="9" rx="2" ry="2" width="9" x="86" y="542" /><rect fill="#eeeeee" height="9" rx="2" ry="2" width="9" x="98" y="542" /><rect fill="#eeeeee" height="9" rx="2" ry="2" width="9" x="110" y="542" /><rect fill="#eeeeee" height="9" rx="2" ry="2" width="9" x="122" y="542" /><rect fill="#eeeeee" height="9" rx="2" ry="2" width="9" x="134" y="542" /><rect fill="#eeeeee" height="9" rx="2" ry="2" width="9" x="146" y="542" /><rect fill="#000000" height="9" rx="2" ry="2" width="9" x="158" y="542" /><rect fill="#444444" height="9" rx="2" ry="2" width="9" x="170" y="542" /><rect fill="#000000" height="9" rx="2" ry="2" width="9" x="182" y="542" /><rect fill="#000000" height="9" rx="2" ry="2" width="9" x="86" y="554" /><rect fill="#888888" height="9" rx="2" ry="2" width="9" x="98" y="554" /><rect fill="#eeeeee" height="9" rx="2" ry="2" width="9" x="110" y="554" /><rect fill="#eeeeee" height="9" rx="2" ry="2" width="9" x="122" y="554" /><rect fill="#eeeeee" height="9" rx="2" ry="2" width="9" x="134" y="554" /><rect fill="#444444" height="9" rx="2" ry="2" width="9" x="146" y="554" /><rect fill="#000000" height="9" rx="2" ry="2" width="9" x="158" y="554" /><rect fill="#000000" height="9" rx="2" ry="2" width="9" x="170" y="554" /><rect fill="#000000" height="9" rx="2" ry="2" width="9" x="98" y="566" /><rect fill="#000000" height="9" rx="2" ry="2" width="9" x="110" y="566" /><rect fill="#000000" height="9" rx="2" ry="2" width="9" x="122" y="566" /><rect fill="#000000" height="9" rx="2" ry="2" width="9" x="134" y="566" /><rect fill="#000000" height="9" rx="2" ry="2" width="9" x="146" y="566" /></svg>