<?xml version="1.0" encoding="utf-8" ?>
<svg baseProfile="full" height="420" version="1.1" width="336" xmlns="http://www.w3.org/2000/svg" xmlns:ev="http://www.w3.org/2001/xml-events" xmlns:xlink="http://www.w3.org/1999/xlink"><defs /><rect fill="#000000" height="9" rx="2" ry="2" width="9" x="218" y="2" /><rect fill="#000000" height="9" rx="2" ry="2" width="9" x="230" y="2" /><rect fill="#000000" height="9" rx="2" ry="2" width="9" x="242" y="2" /><rect fill="#000000" height="9" rx="2" ry="2" width="9" x="254" y="2" /><rect fill="#000000" height="9" rx="2" ry="2" width="9" x="194" y="14" /><rect fill="#000000" height="9" rx="2" ry="2" width="9" x="206" y="14" /><rect fill="#e09800" height="9" rx="2" ry="2" width="9" x="218" y="14" /><rect fill="#f8f880" height="9" rx="2" ry="2" width="9" x="230" y="14" /><rect fill="#f8f880" height="9" rx="2" ry="2" width="9" x="242" y="14" /><rect fill="#e09800" height="9" rx="2" ry="2" width="9" x="254" y="14" /><rect fill="#000000" height="9" rx="2" ry="2" width="9" x="266" y="14" /><rect fill="#000000" height="9" rx="2" ry="2" width="9" x="170" y="26" /><rect fill="#000000" height="9" rx="2" ry="2" width="9" x="182" y="26" /><rect fill="#e09800" height="9" rx="2" ry="2" width="9" x="194" y="26" /><rect fill="#f8f880" height="9" rx="2" ry="2" width="9" x="206" y="26" /><rect fill="#f8f880" height="9" rx="2" ry="2" width="9" x="218" y="26" /><rect fill="#20c8f0" height="9" rx="2" ry="2" width="9" x="230" y="26" /><rect fill="#20c8f0" height="9" rx="2" ry="2" width="9" x="242" y="26" /><rect fill="#2068a0" height="9" rx="2" ry="2" width="9" x="254" y="26" /><rect fill="#000000" height="9" rx="2" ry="2" width="9" x="266" y="26" /><rect fill="#000000" height="9" rx="2" ry="2" width="9" x="146" y="38" /><rect fill="#000000" height="9" rx="2" ry="2" width="9" x="158" y="38" /><rect fill="#d06828" height="9" rx="2" ry="2" width="9" x="170" y="38" /><rect fill="#e09800" height="9" rx="2" ry="2" width="9" x="182" y="38" /><rect fill="#f8f880" height="9" rx="2" ry="2" width="9" x="194" y="38" /><rect fill="#f8f880" height="9" rx="2" ry="2" width="9" x="206" y="38" /><rect fill="#000000" height="9" rx="2" ry="2" width="9" x="218" y="38" /><rect fill="#000000" height="9" rx="2" ry="2" width="9" x="230" y="38" /><rect fill="#f8f8f8" height="9" rx="2" ry="2" width="9" x="242" y="38" /><rect fill="#e09800" height="9" rx="2" ry="2" width="9" x="254" y="38" /><rect fill="#000000" height="9" rx="2" ry="2" width="9" x="266" y="38" /><rect fill="#000000" height="9" rx="2" ry="2" width="9" x="134" y="50" /><rect fill="#000000" height="9" rx="2" ry="2" width="9" x="146" y="50" /><rect fill="#d06828" height="9" rx="2" ry="2" width="9" x="158" y="50" /><rect fill="#e09800" height="9" rx="2" ry="2" width="9" x="170" y="50" /><rect fill="#f8f880" height="9" rx="2" ry="2" width="9" x="182" y="50" /><rect fill="#f8f880" height="9" rx="2" ry="2" width="9" x="194" y="50" /><rect fill="#20c8f0" height="9" rx="2" ry="2" width="9" x="206" y="50" /><rect fill="#000000" height="9" rx="2" ry="2" width="9" x="218" y="50" /><rect fill="#000000" height="9" rx="2" ry="2" width="9" x="230" y="50" /><rect fill="#f8f8f8" height="9" rx="2" ry="2" width="9" x="242" y="50" /><rect fill="#000000" height="9" rx="2" ry="2" width="9" x="254" y="50" /><rect fill="#000000" height="9" rx="2" ry="2" width="9" x="98" y="62" /><rect fill="#000000" height="9" rx="2" ry="2" width="9" x="110" y="62" /><rect fill="#000000" height="9" rx="2" ry="2" width="9" x="122" y="62" /><rect fill="#d06828" height="9" rx="2" ry="2" width="9" x="134" y="62" /><rect fill="#d06828" height="9" rx="2" ry="2" width="9" x="146" y="62" /><rect fill="#e09800" height="9" rx="2" ry="2" width="9" x="158" y="62" /><rect fill="#f8f880" height="9" rx="2" ry="2" width="9" x="170" y="62" /><rect fill="#f8f880" height="9" rx="2" ry="2" width="9" x="182" y="62" /><rect fill="#f8f880" height="9" rx="2" ry="2" width="9" x="194" y="62" /><rect fill="#20c8f0" height="9" rx="2" ry="2" width="9" x="206" y="62" /><rect fill="#f8f8f8" height="9" rx="2" ry="2" width="9" x="218" y="62" /><rect fill="#000000" height="9" rx="2" ry="2" width="9" x="230" y="62" /><rect fill="#000000" height="9" rx="2" ry="2" width="9" x="242" y="62" /><rect fill="#000000" height="9" rx="2" ry="2" width="9" x="254" y="62" /><rect fill="#000000" height="9" rx="2" ry="2" width="9" x="266" y="62" /><rect fill="#000000" height="9" rx="2" ry="2" width="9" x="278" y="62" /><rect fill="#000000" height="9" rx="2" ry="2" width="9" x="86" y="74" /><rect fill="#e09800" height="9" rx="2" ry="2" width="9" x="98" y="74" /><rect fill="#f8f880" height="9" rx="2" ry="2" width="9" x="110" y="74" /><rect fill="#f8f880" height="9" rx="2" ry="2" width="9" x="122" y="74" /><rect fill="#f8f880" height="9" rx="2" ry="2" width="9" x="134" y="74" /><rect fill="#f8f880" height="9" rx="2" ry="2" width="9" x="146" y="74" /><rect fill="#f8f880" height="9" rx="2" ry="2" width="9" x="158" y="74" /><rect fill="#f8f880" height="9" rx="2" ry="2" width="9" x="170" y="74" /><rect fill="#e09800" height="9" rx="2" ry="2" width="9" x="182" y="74" /><rect fill="#d06828" height="9" rx="2" ry="2" width="9" x="194" y="74" /><rect fill="#000000" height="9" rx="2" ry="2" width="9" x="206" y="74" /><rect fill="#000000" height="9" rx="2" ry="2" width="9" x="218" y="74" /><rect fill="#000000" height="9" rx="2" ry="2" width="9" x="230" y="74" /><rect fill="#506068" height="9" rx="2" ry="2" width="9" x="242" y="74" /><rect fill="#f8f880" height="9" rx="2" ry="2" width="9" x="254" y="74" /><rect fill="#f8f880" height="9" rx="2" ry="2" width="9" x="266" y="74" /><rect fill="#000000" height="9" rx="2" ry="2" width="9" x="278" y="74" /><rect fill="#000000" height="9" rx="2" ry="2" width="9" x="86" y="86" /><rect fill="#e09800" height="9" rx="2" ry="2" width="9" x="98" y="86" /><rect fill="#f8f880" height="9" rx="2" ry="2" width="9" x="110" y="86" /><rect fill="#f8f880" height="9" rx="2" ry="2" width="9" x="122" y="86" /><rect fill="#f8f880" height="9" rx="2" ry="2" width="9" x="134" y="86" /><rect fill="#f8f880" height="9" rx="2" ry="2" width="9" x="146" y="86" /><rect fill="#d06828" height="9" rx="2" ry="2" width="9" x="158" y="86" /><rect fill="#d06828" height="9" rx="2" ry="2" width="9" x="170" y="86" /><rect fill="#000000" height="9" rx="2" ry="2" width="9" x="182" y="86" /><rect fill="#000000" height="9" rx="2" ry="2" width="9" x="194" y="86" /><rect fill="#000000" height="9" rx="2" ry="2" width="9" x="206" y="86" /><rect fill="#000000" height="9" rx="2" ry="2" width="9" x="218" y="86" /><rect fill="#000000" height="9" rx="2" ry="2" width="9" x="230" y="86" /><rect fill="#000000" height="9" rx="2" ry="2" width="9" x="242" y="86" /><rect fill="#000000" height="9" rx="2" ry="2" width="9" x="254" y="86" /><rect fill="#000000" height="9" rx="2" ry="2" width="9" x="266" y="86" /><rect fill="#000000" height="9" rx="2" ry="2" width="9" x="278" y="86" /><rect fill="#000000" height="9" rx="2" ry="2" width="9" x="74" y="98" /><rect fill="#000000" height="9" rx="2" ry="2" width="9" x="86" y="98" /><rect fill="#000000" height="9" rx="2" ry="2" width="9" x="98" y="98" /><rect fill="#000000" height="9" rx="2" ry="2" width="9" x="110" y="98" /><rect fill="#d06828" height="9" rx="2" ry="2" width="9" x="122" y="98" /><rect fill="#e09800" height="9" rx="2" ry="2" width="9" x="134" y="98" /><rect fill="#000000" height="9" rx="2" ry="2" width="9" x="146" y="98" /><rect fill="#000000" height="9" rx="2" ry="2" width="9" x="158" y="98" /><rect fill="#000000" height="9" rx="2" ry="2" width="9" x="170" y="98" /><rect fill="#000000" height="9" rx="2" ry="2" width="9" x="182" y="98" /><rect fill="#d06828" height="9" rx="2" ry="2" width="9" x="194" y="98" /><rect fill="#000000" height="9" rx="2" ry="2" width="9" x="206" y="98" /><rect fill="#20c8f0" height="9" rx="2" ry="2" width="9" x="218" y="98" /><rect fill="#000000" height="9" rx="2" ry="2" width="9" x="230" y="98" /><rect fill="#000000" height="9" rx="2" ry="2" width="9" x="242" y="98" /><rect fill="#000000" height="9" rx="2" ry="2" width="9" x="254" y="98" /><rect fill="#f89048" height="9" rx="2" ry="2" width="9" x="266" y="98" /><rect fill="#000000" height="9" rx="2" ry="2" width="9" x="278" y="98" /><rect fill="#000000" height="9" rx="2" ry="2" width="9" x="290" y="98" /><rect fill="#000000" height="9" rx="2" ry="2" width="9" x="302" y="98" /><rect fill="#000000" height="9" rx="2" ry="2" width="9" x="74" y="110" /><rect fill="#f8e880" height="9" rx="2" ry="2" width="9" x="86" y="110" /><rect fill="#f89048" height="9" rx="2" ry="2" width="9" x="98" y="110" /><rect fill="#000000" height="9" rx="2" ry="2" width="9" x="110" y="110" /><rect fill="#000000" height="9" rx="2" ry="2" width="9" x="122" y="110" /><rect fill="#000000" height="9" rx="2" ry="2" width="9" x="134" y="110" /><rect fill="#000000" height="9" rx="2" ry="2" width="9" x="146" y="110" /><rect fill="#000000" height="9" rx="2" ry="2" width="9" x="158" y="110" /><rect fill="#000000" height="9" rx="2" ry="2" width="9" x="170" y="110" /><rect fill="#f89048" height="9" rx="2" ry="2" width="9" x="182" y="110" /><rect fill="#d06828" height="9" rx="2" ry="2" width="9" x="194" y="110" /><rect fill="#20c8f0" height="9" rx="2" ry="2" width="9" x="206" y="110" /><rect fill="#f8f8f8" height="9" rx="2" ry="2" width="9" x="218" y="110" /><rect fill="#f8f8f8" height="9" rx="2" ry="2" width="9" x="230" y="110" /><rect fill="#000000" height="9" rx="2" ry="2" width="9" x="242" y="110" /><rect fill="#506068" height="9" rx="2" ry="2" width="9" x="254" y="110" /><rect fill="#000000" height="9" rx="2" ry="2" width="9" x="266" y="110" /><rect fill="#b02828" height="9" rx="2" ry="2" width="9" x="278" y="110" /><rect fill="#f83868" height="9" rx="2" ry="2" width="9" x="290" y="110" /><rect fill="#f83868" height="9" rx="2" ry="2" width="9" x="302" y="110" /><rect fill="#000000" height="9" rx="2" ry="2" width="9" x="314" y="110" /><rect fill="#000000" height="9" rx="2" ry="2" width="9" x="74" y="122" /><rect fill="#f89048" height="9" rx="2" ry="2" width="9" x="86" y="122" /><rect fill="#b02828" height="9" rx="2" ry="2" width="9" x="98" y="122" /><rect fill="#f89048" height="9" rx="2" ry="2" width="9" x="110" y="122" /><rect fill="#f8e880" height="9" rx="2" ry="2" width="9" x="122" y="122" /><rect fill="#000000" height="9" rx="2" ry="2" width="9" x="134" y="122" /><rect fill="#000000" height="9" rx="2" ry="2" width="9" x="146" y="122" /><rect fill="#000000" height="9" rx="2" ry="2" width="9" x="158" y="122" /><rect fill="#000000" height="9" rx="2" ry="2" width="9" x="170" y="122" /><rect fill="#000000" height="9" rx="2" ry="2" width="9" x="182" y="122" /><rect fill="#d06828" height="9" rx="2" ry="2" width="9" x="194" y="122" /><rect fill="#20c8f0" height="9" rx="2" ry="2" width="9" x="206" y="122" /><rect fill="#f8f8f8" height="9" rx="2" ry="2" width="9" x="218" y="122" /><rect fill="#f8f8f8" height="9" rx="2" ry="2" width="9" x="230" y="122" /><rect fill="#f8f8f8" height="9" rx="2" ry="2" width="9" x="242" y="122" /><rect fill="#2068a0" height="9" rx="2" ry="2" width="9" x="254" y="122" /><rect fill="#d06828" height="9" rx="2" ry="2" width="9" x="266" y="122" /><rect fill="#b02828" height="9" rx="2" ry="2" width="9" x="278" y="122" /><rect fill="#f89048" height="9" rx="2" ry="2" width="9" x="290" y="122" /><rect fill="#f89048" height="9" rx="2" ry="2" width="9" x="302" y="122" /><rect fill="#f83868" height="9" rx="2" ry="2" width="9" x="314" y="122" /><rect fill="#000000" height="9" rx="2" ry="2" width="9" x="326" y="122" /><rect fill="#000000" height="9" rx="2" ry="2" width="9" x="74" y="134" /><rect fill="#000000" height="9" rx="2" ry="2" width="9" x="86" y="134" /><rect fill="#d06828" height="9" rx="2" ry="2" width="9" x="98" y="134" /><rect fill="#b02828" height="9" rx="2" ry="2" width="9" x="110" y="134" /><rect fill="#f89048" height="9" rx="2" ry="2" width="9" x="122" y="134" /><rect fill="#f8e880" height="9" rx="2" ry="2" width="9" x="134" y="134" /><rect fill="#000000" height="9" rx="2" ry="2" width="9" x="146" y="134" /><rect fill="#000000" height="9" rx="2" ry="2" width="9" x="158" y="134" /><rect fill="#b02828" height="9" rx="2" ry="2" width="9" x="170" y="134" /><rect fill="#f89048" height="9" rx="2" ry="2" width="9" x="182" y="134" /><rect fill="#f89048" height="9" rx="2" ry="2" width="9" x="194" y="134" /><rect fill="#f89048" height="9" rx="2" ry="2" width="9" x="206" y="134" /><rect fill="#20c8f0" height="9" rx="2" ry="2" width="9" x="218" y="134" /><rect fill="#2068a0" height="9" rx="2" ry="2" width="9" x="230" y="134" /><rect fill="#2068a0" height="9" rx="2" ry="2" width="9" x="242" y="134" /><rect fill="#d06828" height="9" rx="2" ry="2" width="9" x="254" y="134" /><rect fill="#b02828" height="9" rx="2" ry="2" width="9" x="266" y="134" /><rect fill="#f83868" height="9" rx="2" ry="2" width="9" x="278" y="134" /><rect fill="#f8f880" height="9" rx="2" ry="2" width="9" x="290" y="134" /><rect fill="#f83868" height="9" rx="2" ry="2" width="9" x="302" y="134" /><rect fill="#f83868" height="9" rx="2" ry="2" width="9" x="314" y="134" /><rect fill="#000000" height="9" rx="2" ry="2" width="9" x="326" y="134" /><rect fill="#000000" height="9" rx="2" ry="2" width="9" x="74" y="146" /><rect fill="#000000" height="9" rx="2" ry="2" width="9" x="86" y="146" /><rect fill="#f89048" height="9" rx="2" ry="2" width="9" x="98" y="146" /><rect fill="#d06828" height="9" rx="2" ry="2" width="9" x="110" y="146" /><rect fill="#b02828" height="9" rx="2" ry="2" width="9" x="122" y="146" /><rect fill="#f89048" height="9" rx="2" ry="2" width="9" x="134" y="146" /><rect fill="#f89048" height="9" rx="2" ry="2" width="9" x="146" y="146" /><rect fill="#d06828" height="9" rx="2" ry="2" width="9" x="158" y="146" /><rect fill="#f89048" height="9" rx="2" ry="2" width="9" x="170" y="146" /><rect fill="#000000" height="9" rx="2" ry="2" width="9" x="182" y="146" /><rect fill="#f89048" height="9" rx="2" ry="2" width="9" x="194" y="146" /><rect fill="#f8e880" height="9" rx="2" ry="2" width="9" x="206" y="146" /><rect fill="#b02828" height="9" rx="2" ry="2" width="9" x="218" y="146" /><rect fill="#b02828" height="9" rx="2" ry="2" width="9" x="230" y="146" /><rect fill="#f89048" height="9" rx="2" ry="2" width="9" x="242" y="146" /><rect fill="#000000" height="9" rx="2" ry="2" width="9" x="254" y="146" /><rect fill="#b02828" height="9" rx="2" ry="2" width="9" x="266" y="146" /><rect fill="#d06828" height="9" rx="2" ry="2" width="9" x="278" y="146" /><rect fill="#f83868" height="9" rx="2" ry="2" width="9" x="290" y="146" /><rect fill="#d06828" height="9" rx="2" ry="2" width="9" x="302" y="146" /><rect fill="#b02828" height="9" rx="2" ry="2" width="9" x="314" y="146" /><rect fill="#000000" height="9" rx="2" ry="2" width="9" x="326" y="146" /><rect fill="#000000" height="9" rx="2" ry="2" width="9" x="86" y="158" /><rect fill="#000000" height="9" rx="2" ry="2" width="9" x="98" y="158" /><rect fill="#f89048" height="9" rx="2" ry="2" width="9" x="110" y="158" /><rect fill="#d06828" height="9" rx="2" ry="2" width="9" x="122" y="158" /><rect fill="#d06828" height="9" rx="2" ry="2" width="9" x="134" y="158" /><rect fill="#b02828" height="9" rx="2" ry="2" width="9" x="146" y="158" /><rect fill="#f89048" height="9" rx="2" ry="2" width="9" x="158" y="158" /><rect fill="#f89048" height="9" rx="2" ry="2" width="9" x="170" y="158" /><rect fill="#000000" height="9" rx="2" ry="2" width="9" x="182" y="158" /><rect fill="#000000" height="9" rx="2" ry="2" width="9" x="194" y="158" /><rect fill="#f89048" height="9" rx="2" ry="2" width="9" x="206" y="158" /><rect fill="#f89048" height="9" rx="2" ry="2" width="9" x="218" y="158" /><rect fill="#000000" height="9" rx="2" ry="2" width="9" x="230" y="158" /><rect fill="#000000" height="9" rx="2" ry="2" width="9" x="242" y="158" /><rect fill="#000000" height="9" rx="2" ry="2" width="9" x="254" y="158" /><rect fill="#b02828" height="9" rx="2" ry="2" width="9" x="266" y="158" /><rect fill="#000000" height="9" rx="2" ry="2" width="9" x="278" y="158" /><rect fill="#b02828" height="9" rx="2" ry="2" width="9" x="290" y="158" /><rect fill="#000000" height="9" rx="2" ry="2" width="9" x="302" y="158" /><rect fill="#000000" height="9" rx="2" ry="2" width="9" x="314" y="158" /><rect fill="#000000" height="9" rx="2" ry="2" width="9" x="86" y="170" /><rect fill="#000000" height="9" rx="2" ry="2" width="9" x="98" y="170" /><rect fill="#f89048" height="9" rx="2" ry="2" width="9" x="110" y="170" /><rect fill="#f89048" height="9" rx="2" ry="2" width="9" x="122" y="170" /><rect fill="#b02828" height="9" rx="2" ry="2" width="9" x="134" y="170" /><rect fill="#b02828" height="9" rx="2" ry="2" width="9" x="146" y="170" /><rect fill="#f89048" height="9" rx="2" ry="2" width="9" x="158" y="170" /><rect fill="#f89048" height="9" rx="2" ry="2" width="9" x="170" y="170" /><rect fill="#000000" height="9" rx="2" ry="2" width="9" x="182" y="170" /><rect fill="#000000" height="9" rx="2" ry="2" width="9" x="194" y="170" /><rect fill="#000000" height="9" rx="2" ry="2" width="9" x="206" y="170" /><rect fill="#000000" height="9" rx="2" ry="2" width="9" x="218" y="170" /><rect fill="#000000" height="9" rx="2" ry="2" width="9" x="230" y="170" /><rect fill="#000000" height="9" rx="2" ry="2" width="9" x="242" y="170" /><rect fill="#000000" height="9" rx="2" ry="2" width="9" x="254" y="170" /><rect fill="#000000" height="9" rx="2" ry="2" width="9" x="266" y="170" /><rect fill="#000000" height="9" rx="2" ry="2" width="9" x="278" y="170" /><rect fill="#000000" height="9" rx="2" ry="2" width="9" x="290" y="170" /><rect fill="#380098" height="9" rx="2" ry="2" width="9" x="74" y="182" /><rect fill="#000000" height="9" rx="2" ry="2" width="9" x="86" y="182" /><rect fill="#000000" height="9" rx="2" ry="2" width="9" x="98" y="182" /><rect fill="#f89048" height="9" rx="2" ry="2" width="9" x="110" y="182" /><rect fill="#f89048" height="9" rx="2" ry="2" width="9" x="122" y="182" /><rect fill="#d06828" height="9" rx="2" ry="2" width="9" x="134" y="182" /><rect fill="#d06828" height="9" rx="2" ry="2" width="9" x="146" y="182" /><rect fill="#f89048" height="9" rx="2" ry="2" width="9" x="158" y="182" /><rect fill="#f8e880" height="9" rx="2" ry="2" width="9" x="170" y="182" /><rect fill="#b02828" height="9" rx="2" ry="2" width="9" x="182" y="182" /><rect fill="#f8f8f8" height="9" rx="2" ry="2" width="9" x="194" y="182" /><rect fill="#000000" height="9" rx="2" ry="2" width="9" x="206" y="182" /><rect fill="#000000" height="9" rx="2" ry="2" width="9" x="218" y="182" /><rect fill="#f8f8f8" height="9" rx="2" ry="2" width="9" x="230" y="182" /><rect fill="#000000" height="9" rx="2" ry="2" width="9" x="242" y="182" /><rect fill="#000000" height="9" rx="2" ry="2" width="9" x="254" y="182" /><rect fill="#000000" height="9" rx="2" ry="2" width="9" x="266" y="182" /><rect fill="#f8f8f8" height="9" rx="2" ry="2" width="9" x="278" y="182" /><rect fill="#000000" height="9" rx="2" ry="2" width="9" x="290" y="182" /><rect fill="#000000" height="9" rx="2" ry="2" width="9" x="302" y="182" /><rect fill="#000000" height="9" rx="2" ry="2" width="9" x="50" y="194" /><rect fill="#000000" height="9" rx="2" ry="2" width="9" x="62" y="194" /><rect fill="#b02828" height="9" rx="2" ry="2" width="9" x="74" y="194" /><rect fill="#f8f880" height="9" rx="2" ry="2" width="9" x="86" y="194" /><rect fill="#000000" height="9" rx="2" ry="2" width="9" x="98" y="194" /><rect fill="#000000" height="9" rx="2" ry="2" width="9" x="110" y="194" /><rect fill="#f89048" height="9" rx="2" ry="2" width="9" x="122" y="194" /><rect fill="#f89048" height="9" rx="2" ry="2" width="9" x="134" y="194" /><rect fill="#b02828" height="9" rx="2" ry="2" width="9" x="146" y="194" /><rect fill="#f89048" height="9" rx="2" ry="2" width="9" x="158" y="194" /><rect fill="#f8e880" height="9" rx="2" ry="2" width="9" x="170" y="194" /><rect fill="#b02828" height="9" rx="2" ry="2" width="9" x="182" y="194" /><rect fill="#f8f8f8" height="9" rx="2" ry="2" width="9" x="194" y="194" /><rect fill="#000000" height="9" rx="2" ry="2" width="9" x="206" y="194" /><rect fill="#506068" height="9" rx="2" ry="2" width="9" x="218" y="194" /><rect fill="#000000" height="9" rx="2" ry="2" width="9" x="230" y="194" /><rect fill="#f8f8f8" height="9" rx="2" ry="2" width="9" x="242" y="194" /><rect fill="#506068" height="9" rx="2" ry="2" width="9" x="254" y="194" /><rect fill="#506068" height="9" rx="2" ry="2" width="9" x="266" y="194" /><rect fill="#2068a0" height="9" rx="2" ry="2" width="9" x="278" y="194" /><rect fill="#000000" height="9" rx="2" ry="2" width="9" x="290" y="194" /><rect fill="#f89048" height="9" rx="2" ry="2" width="9" x="302" y="194" /><rect fill="#000000" height="9" rx="2" ry="2" width="9" x="314" y="194" /><rect fill="#000000" height="9" rx="2" ry="2" width="9" x="26" y="206" /><rect fill="#000000" height="9" rx="2" ry="2" width="9" x="38" y="206" /><rect fill="#f89048" height="9" rx="2" ry="2" width="9" x="50" y="206" /><rect fill="#f8e880" height="9" rx="2" ry="2" width="9" x="62" y="206" /><rect fill="#f8e880" height="9" rx="2" ry="2" width="9" x="74" y="206" /><rect fill="#f89048" height="9" rx="2" ry="2" width="9" x="86" y="206" /><rect fill="#f8f880" height="9" rx="2" ry="2" width="9" x="98" y="206" /><rect fill="#f8f880" height="9" rx="2" ry="2" width="9" x="110" y="206" /><rect fill="#000000" height="9" rx="2" ry="2" width="9" x="122" y="206" /><rect fill="#000000" height="9" rx="2" ry="2" width="9" x="134" y="206" /><rect fill="#b02828" height="9" rx="2" ry="2" width="9" x="146" y="206" /><rect fill="#f89048" height="9" rx="2" ry="2" width="9" x="158" y="206" /><rect fill="#f8e880" height="9" rx="2" ry="2" width="9" x="170" y="206" /><rect fill="#000000" height="9" rx="2" ry="2" width="9" x="182" y="206" /><rect fill="#b02828" height="9" rx="2" ry="2" width="9" x="194" y="206" /><rect fill="#000000" height="9" rx="2" ry="2" width="9" x="206" y="206" /><rect fill="#f8f8f8" height="9" rx="2" ry="2" width="9" x="218" y="206" /><rect fill="#000000" height="9" rx="2" ry="2" width="9" x="230" y="206" /><rect fill="#f8f8f8" height="9" rx="2" ry="2" width="9" x="242" y="206" /><rect fill="#506068" height="9" rx="2" ry="2" width="9" x="254" y="206" /><rect fill="#f8f8f8" height="9" rx="2" ry="2" width="9" x="266" y="206" /><rect fill="#2068a0" height="9" rx="2" ry="2" width="9" x="278" y="206" /><rect fill="#b02828" height="9" rx="2" ry="2" width="9" x="290" y="206" /><rect fill="#d06828" height="9" rx="2" ry="2" width="9" x="302" y="206" /><rect fill="#000000" height="9" rx="2" ry="2" width="9" x="314" y="206" /><rect fill="#000000" height="9" rx="2" ry="2" width="9" x="26" y="218" /><rect fill="#f89048" height="9" rx="2" ry="2" width="9" x="38" y="218" /><rect fill="#f89048" height="9" rx="2" ry="2" width="9" x="50" y="218" /><rect fill="#f8e880" height="9" rx="2" ry="2" width="9" x="62" y="218" /><rect fill="#f89048" height="9" rx="2" ry="2" width="9" x="74" y="218" /><rect fill="#000000" height="9" rx="2" ry="2" width="9" x="86" y="218" /><rect fill="#380098" height="9" rx="2" ry="2" width="9" x="98" y="218" /><rect fill="#380098" height="9" rx="2" ry="2" width="9" x="110" y="218" /><rect fill="#f8f880" height="9" rx="2" ry="2" width="9" x="122" y="218" /><rect fill="#f8f880" height="9" rx="2" ry="2" width="9" x="134" y="218" /><rect fill="#000000" height="9" rx="2" ry="2" width="9" x="146" y="218" /><rect fill="#f89048" height="9" rx="2" ry="2" width="9" x="158" y="218" /><rect fill="#f8e880" height="9" rx="2" ry="2" width="9" x="170" y="218" /><rect fill="#f8e880" height="9" rx="2" ry="2" width="9" x="182" y="218" /><rect fill="#f8e880" height="9" rx="2" ry="2" width="9" x="194" y="218" /><rect fill="#f89048" height="9" rx="2" ry="2" width="9" x="206" y="218" /><rect fill="#f89048" height="9" rx="2" ry="2" width="9" x="218" y="218" /><rect fill="#d06828" height="9" rx="2" ry="2" width="9" x="230" y="218" /><rect fill="#d06828" height="9" rx="2" ry="2" width="9" x="242" y="218" /><rect fill="#b02828" height="9" rx="2" ry="2" width="9" x="254" y="218" /><rect fill="#b02828" height="9" rx="2" ry="2" width="9" x="266" y="218" /><rect fill="#d06828" height="9" rx="2" ry="2" width="9" x="278" y="218" /><rect fill="#f8e880" height="9" rx="2" ry="2" width="9" x="290" y="218" /><rect fill="#000000" height="9" rx="2" ry="2" width="9" x="302" y="218" /><rect fill="#000000" height="9" rx="2" ry="2" width="9" x="314" y="218" /><rect fill="#000000" height="9" rx="2" ry="2" width="9" x="14" y="230" /><rect fill="#b02828" height="9" rx="2" ry="2" width="9" x="26" y="230" /><rect fill="#f8e880" height="9" rx="2" ry="2" width="9" x="38" y="230" /><rect fill="#f8e880" height="9" rx="2" ry="2" width="9" x="50" y="230" /><rect fill="#2068a0" height="9" rx="2" ry="2" width="9" x="62" y="230" /><rect fill="#20c8f0" height="9" rx="2" ry="2" width="9" x="74" y="230" /><rect fill="#f8f8f8" height="9" rx="2" ry="2" width="9" x="86" y="230" /><rect fill="#f8f8f8" height="9" rx="2" ry="2" width="9" x="98" y="230" /><rect fill="#20c8f0" height="9" rx="2" ry="2" width="9" x="110" y="230" /><rect fill="#380098" height="9" rx="2" ry="2" width="9" x="122" y="230" /><rect fill="#f8f880" height="9" rx="2" ry="2" width="9" x="134" y="230" /><rect fill="#f8f880" height="9" rx="2" ry="2" width="9" x="146" y="230" /><rect fill="#000000" height="9" rx="2" ry="2" width="9" x="158" y="230" /><rect fill="#000000" height="9" rx="2" ry="2" width="9" x="170" y="230" /><rect fill="#000000" height="9" rx="2" ry="2" width="9" x="182" y="230" /><rect fill="#000000" height="9" rx="2" ry="2" width="9" x="194" y="230" /><rect fill="#000000" height="9" rx="2" ry="2" width="9" x="206" y="230" /><rect fill="#d06828" height="9" rx="2" ry="2" width="9" x="218" y="230" /><rect fill="#f89048" height="9" rx="2" ry="2" width="9" x="230" y="230" /><rect fill="#f89048" height="9" rx="2" ry="2" width="9" x="242" y="230" /><rect fill="#f8e880" height="9" rx="2" ry="2" width="9" x="254" y="230" /><rect fill="#f8e880" height="9" rx="2" ry="2" width="9" x="266" y="230" /><rect fill="#f8e880" height="9" rx="2" ry="2" width="9" x="278" y="230" /><rect fill="#f89048" height="9" rx="2" ry="2" width="9" x="290" y="230" /><rect fill="#000000" height="9" rx="2" ry="2" width="9" x="302" y="230" /><rect fill="#000000" height="9" rx="2" ry="2" width="9" x="14" y="242" /><rect fill="#f89048" height="9" rx="2" ry="2" width="9" x="26" y="242" /><rect fill="#f8e880" height="9" rx="2" ry="2" width="9" x="38" y="242" /><rect fill="#2068a0" height="9" rx="2" ry="2" width="9" x="50" y="242" /><rect fill="#f8f8f8" height="9" rx="2" ry="2" width="9" x="62" y="242" /><rect fill="#f8f8f8" height="9" rx="2" ry="2" width="9" x="74" y="242" /><rect fill="#2068a0" height="9" rx="2" ry="2" width="9" x="86" y="242" /><rect fill="#f8f8f8" height="9" rx="2" ry="2" width="9" x="98" y="242" /><rect fill="#f8f8f8" height="9" rx="2" ry="2" width="9" x="110" y="242" /><rect fill="#380098" height="9" rx="2" ry="2" width="9" x="122" y="242" /><rect fill="#f8f880" height="9" rx="2" ry="2" width="9" x="134" y="242" /><rect fill="#f8f880" height="9" rx="2" ry="2" width="9" x="146" y="242" /><rect fill="#f8f880" height="9" rx="2" ry="2" width="9" x="158" y="242" /><rect fill="#7800e0" height="9" rx="2" ry="2" width="9" x="170" y="242" /><rect fill="#d820f8" height="9" rx="2" ry="2" width="9" x="182" y="242" /><rect fill="#000000" height="9" rx="2" ry="2" width="9" x="194" y="242" /><rect fill="#e09800" height="9" rx="2" ry="2" width="9" x="206" y="242" /><rect fill="#000000" height="9" rx="2" ry="2" width="9" x="218" y="242" /><rect fill="#000000" height="9" rx="2" ry="2" width="9" x="230" y="242" /><rect fill="#000000" height="9" rx="2" ry="2" width="9" x="242" y="242" /><rect fill="#000000" height="9" rx="2" ry="2" width="9" x="254" y="242" /><rect fill="#000000" height="9" rx="2" ry="2" width="9" x="266" y="242" /><rect fill="#000000" height="9" rx="2" ry="2" width="9" x="278" y="242" /><rect fill="#000000" height="9" rx="2" ry="2" width="9" x="290" y="242" /><rect fill="#000000" height="9" rx="2" ry="2" width="9" x="302" y="242" /><rect fill="#000000" height="9" rx="2" ry="2" width="9" x="14" y="254" /><rect fill="#f89048" height="9" rx="2" ry="2" width="9" x="26" y="254" /><rect fill="#2068a0" height="9" rx="2" ry="2" width="9" x="38" y="254" /><rect fill="#20c8f0" height="9" rx="2" ry="2" width="9" x="50" y="254" /><rect fill="#f8f8f8" height="9" rx="2" ry="2" width="9" x="62" y="254" /><rect fill="#f8f8f8" height="9" rx="2" ry="2" width="9" x="74" y="254" /><rect fill="#2068a0" height="9" rx="2" ry="2" width="9" x="86" y="254" /><rect fill="#f8f8f8" height="9" rx="2" ry="2" width="9" x="98" y="254" /><rect fill="#f8f8f8" height="9" rx="2" ry="2" width="9" x="110" y="254" /><rect fill="#20c8f0" height="9" rx="2" ry="2" width="9" x="122" y="254" /><rect fill="#380098" height="9" rx="2" ry="2" width="9" x="134" y="254" /><rect fill="#f8f880" height="9" rx="2" ry="2" width="9" x="146" y="254" /><rect fill="#f8f880" height="9" rx="2" ry="2" width="9" x="158" y="254" /><rect fill="#7800e0" height="9" rx="2" ry="2" width="9" x="170" y="254" /><rect fill="#d820f8" height="9" rx="2" ry="2" width="9" x="182" y="254" /><rect fill="#000000" height="9" rx="2" ry="2" width="9" x="194" y="254" /><rect fill="#e09800" height="9" rx="2" ry="2" width="9" x="206" y="254" /><rect fill="#e09800" height="9" rx="2" ry="2" width="9" x="218" y="254" /><rect fill="#f8f880" height="9" rx="2" ry="2" width="9" x="230" y="254" /><rect fill="#f8f880" height="9" rx="2" ry="2" width="9" x="242" y="254" /><rect fill="#000000" height="9" rx="2" ry="2" width="9" x="254" y="254" /><rect fill="#000000" height="9" rx="2" ry="2" width="9" x="266" y="254" /><rect fill="#000000" height="9" rx="2" ry="2" width="9" x="14" y="266" /><rect fill="#b02828" height="9" rx="2" ry="2" width="9" x="26" y="266" /><rect fill="#380098" height="9" rx="2" ry="2" width="9" x="38" y="266" /><rect fill="#f8f8f8" height="9" rx="2" ry="2" width="9" x="50" y="266" /><rect fill="#f8f8f8" height="9" rx="2" ry="2" width="9" x="62" y="266" /><rect fill="#2068a0" height="9" rx="2" ry="2" width="9" x="74" y="266" /><rect fill="#2068a0" height="9" rx="2" ry="2" width="9" x="86" y="266" /><rect fill="#f8f8f8" height="9" rx="2" ry="2" width="9" x="98" y="266" /><rect fill="#380098" height="9" rx="2" ry="2" width="9" x="110" y="266" /><rect fill="#20c8f0" height="9" rx="2" ry="2" width="9" x="122" y="266" /><rect fill="#380098" height="9" rx="2" ry="2" width="9" x="134" y="266" /><rect fill="#e09800" height="9" rx="2" ry="2" width="9" x="146" y="266" /><rect fill="#7800e0" height="9" rx="2" ry="2" width="9" x="158" y="266" /><rect fill="#7800e0" height="9" rx="2" ry="2" width="9" x="170" y="266" /><rect fill="#380098" height="9" rx="2" ry="2" width="9" x="182" y="266" /><rect fill="#f8f880" height="9" rx="2" ry="2" width="9" x="194" y="266" /><rect fill="#f8f880" height="9" rx="2" ry="2" width="9" x="206" y="266" /><rect fill="#380098" height="9" rx="2" ry="2" width="9" x="218" y="266" /><rect fill="#e09800" height="9" rx="2" ry="2" width="9" x="230" y="266" /><rect fill="#f8f880" height="9" rx="2" ry="2" width="9" x="242" y="266" /><rect fill="#d820f8" height="9" rx="2" ry="2" width="9" x="254" y="266" /><rect fill="#000000" height="9" rx="2" ry="2" width="9" x="266" y="266" /><rect fill="#000000" height="9" rx="2" ry="2" width="9" x="278" y="266" /><rect fill="#000000" height="9" rx="2" ry="2" width="9" x="14" y="278" /><rect fill="#b02828" height="9" rx="2" ry="2" width="9" x="26" y="278" /><rect fill="#380098" height="9" rx="2" ry="2" width="9" x="38" y="278" /><rect fill="#f8f8f8" height="9" rx="2" ry="2" width="9" x="50" y="278" /><rect fill="#f8f8f8" height="9" rx="2" ry="2" width="9" x="62" y="278" /><rect fill="#2068a0" height="9" rx="2" ry="2" width="9" x="74" y="278" /><rect fill="#f8f8f8" height="9" rx="2" ry="2" width="9" x="86" y="278" /><rect fill="#f8f8f8" height="9" rx="2" ry="2" width="9" x="98" y="278" /><rect fill="#f8f8f8" height="9" rx="2" ry="2" width="9" x="110" y="278" /><rect fill="#380098" height="9" rx="2" ry="2" width="9" x="122" y="278" /><rect fill="#380098" height="9" rx="2" ry="2" width="9" x="134" y="278" /><rect fill="#e09800" height="9" rx="2" ry="2" width="9" x="146" y="278" /><rect fill="#7800e0" height="9" rx="2" ry="2" width="9" x="158" y="278" /><rect fill="#d820f8" height="9" rx="2" ry="2" width="9" x="170" y="278" /><rect fill="#380098" height="9" rx="2" ry="2" width="9" x="182" y="278" /><rect fill="#e09800" height="9" rx="2" ry="2" width="9" x="194" y="278" /><rect fill="#e09800" height="9" rx="2" ry="2" width="9" x="206" y="278" /><rect fill="#380098" height="9" rx="2" ry="2" width="9" x="218" y="278" /><rect fill="#e09800" height="9" rx="2" ry="2" width="9" x="230" y="278" /><rect fill="#f8f880" height="9" rx="2" ry="2" width="9" x="242" y="278" /><rect fill="#f8f880" height="9" rx="2" ry="2" width="9" x="254" y="278" /><rect fill="#d820f8" height="9" rx="2" ry="2" width="9" x="266" y="278" /><rect fill="#000000" height="9" rx="2" ry="2" width="9" x="278" y="278" /><rect fill="#000000" height="9" rx="2" ry="2" width="9" x="26" y="290" /><rect fill="#000000" height="9" rx="2" ry="2" width="9" x="38" y="290" /><rect fill="#380098" height="9" rx="2" ry="2" width="9" x="50" y="290" /><rect fill="#2068a0" height="9" rx="2" ry="2" width="9" x="62" y="290" /><rect fill="#f8f8f8" height="9" rx="2" ry="2" width="9" x="74" y="290" /><rect fill="#f8f8f8" height="9" rx="2" ry="2" width="9" x="86" y="290" /><rect fill="#f8f8f8" height="9" rx="2" ry="2" width="9" x="98" y="290" /><rect fill="#f8f8f8" height="9" rx="2" ry="2" width="9" x="110" y="290" /><rect fill="#380098" height="9" rx="2" ry="2" width="9" x="122" y="290" /><rect fill="#e09800" height="9" rx="2" ry="2" width="9" x="134" y="290" /><rect fill="#7800e0" height="9" rx="2" ry="2" width="9" x="146" y="290" /><rect fill="#d820f8" height="9" rx="2" ry="2" width="9" x="158" y="290" /><rect fill="#d820f8" height="9" rx="2" ry="2" width="9" x="170" y="290" /><rect fill="#d820f8" height="9" rx="2" ry="2" width="9" x="182" y="290" /><rect fill="#380098" height="9" rx="2" ry="2" width="9" x="194" y="290" /><rect fill="#380098" height="9" rx="2" ry="2" width="9" x="206" y="290" /><rect fill="#380098" height="9" rx="2" ry="2" width="9" x="218" y="290" /><rect fill="#d820f8" height="9" rx="2" ry="2" width="9" x="230" y="290" /><rect fill="#e09800" height="9" rx="2" ry="2" width="9" x="242" y="290" /><rect fill="#e09800" height="9" rx="2" ry="2" width="9" x="254" y="290" /><rect fill="#d820f8" height="9" rx="2" ry="2" width="9" x="266" y="290" /><rect fill="#000000" height="9" rx="2" ry="2" width="9" x="278" y="290" /><rect fill="#000000" height="9" rx="2" ry="2" width="9" x="26" y="302" /><rect fill="#000000" height="9" rx="2" ry="2" width="9" x="38" y="302" /><rect fill="#000000" height="9" rx="2" ry="2" width="9" x="50" y="302" /><rect fill="#f8f8f8" height="9" rx="2" ry="2" width="9" x="62" y="302" /><rect fill="#f8f8f8" height="9" rx="2" ry="2" width="9" x="74" y="302" /><rect fill="#f8f8f8" height="9" rx="2" ry="2" width="9" x="86" y="302" /><rect fill="#380098" height="9" rx="2" ry="2" width="9" x="98" y="302" /><rect fill="#380098" height="9" rx="2" ry="2" width="9" x="110" y="302" /><rect fill="#380098" height="9" rx="2" ry="2" width="9" x="122" y="302" /><rect fill="#7800e0" height="9" rx="2" ry="2" width="9" x="134" y="302" /><rect fill="#d820f8" height="9" rx="2" ry="2" width="9" x="146" y="302" /><rect fill="#d820f8" height="9" rx="2" ry="2" width="9" x="158" y="302" /><rect fill="#d820f8" height="9" rx="2" ry="2" width="9" x="170" y="302" /><rect fill="#d820f8" height="9" rx="2" ry="2" width="9" x="182" y="302" /><rect fill="#d820f8" height="9" rx="2" ry="2" width="9" x="194" y="302" /><rect fill="#d820f8" height="9" rx="2" ry="2" width="9" x="206" y="302" /><rect fill="#000000" height="9" rx="2" ry="2" width="9" x="218" y="302" /><rect fill="#000000" height="9" rx="2" ry="2" width="9" x="230" y="302" /><rect fill="#d820f8" height="9" rx="2" ry="2" width="9" x="242" y="302" /><rect fill="#d820f8" height="9" rx="2" ry="2" width="9" x="254" y="302" /><rect fill="#000000" height="9" rx="2" ry="2" width="9" x="266" y="302" /><rect fill="#000000" height="9" rx="2" ry="2" width="9" x="14" y="314" /><rect fill="#000000" height="9" rx="2" ry="2" width="9" x="26" y="314" /><rect fill="#7800e0" height="9" rx="2" ry="2" width="9" x="38" y="314" /><rect fill="#000000" height="9" rx="2" ry="2" width="9" x="50" y="314" /><rect fill="#20c8f0" height="9" rx="2" ry="2" width="9" x="62" y="314" /><rect fill="#f8f8f8" height="9" rx="2" ry="2" width="9" x="74" y="314" /><rect fill="#f8f8f8" height="9" rx="2" ry="2" width="9" x="86" y="314" /><rect fill="#20c8f0" height="9" rx="2" ry="2" width="9" x="98" y="314" /><rect fill="#380098" height="9" rx="2" ry="2" width="9" x="110" y="314" /><rect fill="#d820f8" height="9" rx="2" ry="2" width="9" x="122" y="314" /><rect fill="#d820f8" height="9" rx="2" ry="2" width="9" x="134" y="314" /><rect fill="#d820f8" height="9" rx="2" ry="2" width="9" x="146" y="314" /><rect fill="#d820f8" height="9" rx="2" ry="2" width="9" x="158" y="314" /><rect fill="#d820f8" height="9" rx="2" ry="2" width="9" x="170" y="314" /><rect fill="#d820f8" height="9" rx="2" ry="2" width="9" x="182" y="314" /><rect fill="#d820f8" height="9" rx="2" ry="2" width="9" x="194" y="314" /><rect fill="#d820f8" height="9" rx="2" ry="2" width="9" x="206" y="314" /><rect fill="#d820f8" height="9" rx="2" ry="2" width="9" x="218" y="314" /><rect fill="#d820f8" height="9" rx="2" ry="2" width="9" x="230" y="314" /><rect fill="#000000" height="9" rx="2" ry="2" width="9" x="242" y="314" /><rect fill="#7800e0" height="9" rx="2" ry="2" width="9" x="254" y="314" /><rect fill="#000000" height="9" rx="2" ry="2" width="9" x="266" y="314" /><rect fill="#000000" height="9" rx="2" ry="2" width="9" x="14" y="326" /><rect fill="#380098" height="9" rx="2" ry="2" width="9" x="26" y="326" /><rect fill="#7800e0" height="9" rx="2" ry="2" width="9" x="38" y="326" /><rect fill="#380098" height="9" rx="2" ry="2" width="9" x="50" y="326" /><rect fill="#000000" height="9" rx="2" ry="2" width="9" x="62" y="326" /><rect fill="#000000" height="9" rx="2" ry="2" width="9" x="74" y="326" /><rect fill="#000000" height="9" rx="2" ry="2" width="9" x="86" y="326" /><rect fill="#000000" height="9" rx="2" ry="2" width="9" x="98" y="326" /><rect fill="#d820f8" height="9" rx="2" ry="2" width="9" x="110" y="326" /><rect fill="#d820f8" height="9" rx="2" ry="2" width="9" x="122" y="326" /><rect fill="#d820f8" height="9" rx="2" ry="2" width="9" x="134" y="326" /><rect fill="#d820f8" height="9" rx="2" ry="2" width="9" x="146" y="326" /><rect fill="#d820f8" height="9" rx="2" ry="2" width="9" x="158" y="326" /><rect fill="#d820f8" height="9" rx="2" ry="2" width="9" x="170" y="326" /><rect fill="#d820f8" height="9" rx="2" ry="2" width="9" x="182" y="326" /><rect fill="#d820f8" height="9" rx="2" ry="2" width="9" x="194" y="326" /><rect fill="#d820f8" height="9" rx="2" ry="2" width="9" x="206" y="326" /><rect fill="#d820f8" height="9" rx="2" ry="2" width="9" x="218" y="326" /><rect fill="#d820f8" height="9" rx="2" ry="2" width="9" x="230" y="326" /><rect fill="#d820f8" height="9" rx="2" ry="2" width="9" x="242" y="326" /><rect fill="#000000" height="9" rx="2" ry="2" width="9" x="254" y="326" /><rect fill="#000000" height="9" rx="2" ry="2" width="9" x="266" y="326" /><rect fill="#000000" height="9" rx="2" ry="2" width="9" x="278" y="326" /><rect fill="#000000" height="9" rx="2" ry="2" width="9" x="290" y="326" /><rect fill="#000000" height="9" rx="2" ry="2" width="9" x="2" y="338" /><rect fill="#380098" height="9" rx="2" ry="2" width="9" x="14" y="338" /><rect fill="#d820f8" height="9" rx="2" ry="2" width="9" x="26" y="338" /><rect fill="#7800e0" height="9" rx="2" ry="2" width="9" x="38" y="338" /><rect fill="#7800e0" height="9" rx="2" ry="2" width="9" x="50" y="338" /><rect fill="#380098" height="9" rx="2" ry="2" width="9" x="62" y="338" /><rect fill="#7800e0" height="9" rx="2" ry="2" width="9" x="74" y="338" /><rect fill="#7800e0" height="9" rx="2" ry="2" width="9" x="86" y="338" /><rect fill="#d820f8" height="9" rx="2" ry="2" width="9" x="98" y="338" /><rect fill="#d820f8" height="9" rx="2" ry="2" width="9" x="110" y="338" /><rect fill="#d820f8" height="9" rx="2" ry="2" width="9" x="122" y="338" /><rect fill="#d820f8" height="9" rx="2" ry="2" width="9" x="134" y="338" /><rect fill="#d820f8" height="9" rx="2" ry="2" width="9" x="146" y="338" /><rect fill="#d820f8" height="9" rx="2" ry="2" width="9" x="158" y="338" /><rect fill="#d820f8" height="9" rx="2" ry="2" width="9" x="170" y="338" /><rect fill="#d820f8" height="9" rx="2" ry="2" width="9" x="182" y="338" /><rect fill="#d820f8" height="9" rx="2" ry="2" width="9" x="194" y="338" /><rect fill="#d820f8" height="9" rx="2" ry="2" width="9" x="206" y="338" /><rect fill="#d820f8" height="9" rx="2" ry="2" width="9" x="218" y="338" /><rect fill="#d820f8" height="9" rx="2" ry="2" width="9" x="230" y="338" /><rect fill="#d820f8" height="9" rx="2" ry="2" width="9" x="242" y="338" /><rect fill="#d820f8" height="9" rx="2" ry="2" width="9" x="254" y="338" /><rect fill="#000000" height="9" rx="2" ry="2" width="9" x="266" y="338" /><rect fill="#d820f8" height="9" rx="2" ry="2" width="9" x="278" y="338" /><rect fill="#000000" height="9" rx="2" ry="2" width="9" x="290" y="338" /><rect fill="#000000" height="9" rx="2" ry="2" width="9" x="2" y="350" /><rect fill="#380098" height="9" rx="2" ry="2" width="9" x="14" y="350" /><rect fill="#000000" height="9" rx="2" ry="2" width="9" x="26" y="350" /><rect fill="#d820f8" height="9" rx="2" ry="2" width="9" x="38" y="350" /><rect fill="#7800e0" height="9" rx="2" ry="2" width="9" x="50" y="350" /><rect fill="#7800e0" height="9" rx="2" ry="2" width="9" x="62" y="350" /><rect fill="#7800e0" height="9" rx="2" ry="2" width="9" x="74" y="350" /><rect fill="#7800e0" height="9" rx="2" ry="2" width="9" x="86" y="350" /><rect fill="#d820f8" height="9" rx="2" ry="2" width="9" x="98" y="350" /><rect fill="#d820f8" height="9" rx="2" ry="2" width="9" x="110" y="350" /><rect fill="#d820f8" height="9" rx="2" ry="2" width="9" x="122" y="350" /><rect fill="#d820f8" height="9" rx="2" ry="2" width="9" x="134" y="350" /><rect fill="#d820f8" height="9" rx="2" ry="2" width="9" x="146" y="350" /><rect fill="#7800e0" height="9" rx="2" ry="2" width="9" x="158" y="350" /><rect fill="#d820f8" height="9" rx="2" ry="2" width="9" x="170" y="350" /><rect fill="#d820f8" height="9" rx="2" ry="2" width="9" x="182" y="350" /><rect fill="#d820f8" height="9" rx="2" ry="2" width="9" x="194" y="350" /><rect fill="#d820f8" height="9" rx="2" ry="2" width="9" x="206" y="350" /><rect fill="#d820f8" height="9" rx="2" ry="2" width="9" x="218" y="350" /><rect fill="#d820f8" height="9" rx="2" ry="2" width="9" x="230" y="350" /><rect fill="#d820f8" height="9" rx="2" ry="2" width="9" x="242" y="350" /><rect fill="#7800e0" height="9" rx="2" ry="2" width="9" x="254" y="350" /><rect fill="#380098" height="9" rx="2" ry="2" width="9" x="266" y="350" /><rect fill="#d820f8" height="9" rx="2" ry="2" width="9" x="278" y="350" /><rect fill="#000000" height="9" rx="2" ry="2" width="9" x="290" y="350" /><rect fill="#000000" height="9" rx="2" ry="2" width="9" x="2" y="362" /><rect fill="#380098" height="9" rx="2" ry="2" width="9" x="14" y="362" /><rect fill="#d820f8" height="9" rx="2" ry="2" width="9" x="38" y="362" /><rect fill="#d820f8" height="9" rx="2" ry="2" width="9" x="50" y="362" /><rect fill="#d820f8" height="9" rx="2" ry="2" width="9" x="62" y="362" /><rect fill="#d820f8" height="9" rx="2" ry="2" width="9" x="74" y="362" /><rect fill="#380098" height="9" rx="2" ry="2" width="9" x="86" y="362" /><rect fill="#380098" height="9" rx="2" ry="2" width="9" x="98" y="362" /><rect fill="#7800e0" height="9" rx="2" ry="2" width="9" x="110" y="362" /><rect fill="#7800e0" height="9" rx="2" ry="2" width="9" x="122" y="362" /><rect fill="#7800e0" height="9" rx="2" ry="2" width="9" x="134" y="362" /><rect fill="#7800e0" height="9" rx="2" ry="2" width="9" x="146" y="362" /><rect fill="#7800e0" height="9" rx="2" ry="2" width="9" x="158" y="362" /><rect fill="#7800e0" height="9" rx="2" ry="2" width="9" x="170" y="362" /><rect fill="#7800e0" height="9" rx="2" ry="2" width="9" x="182" y="362" /><rect fill="#7800e0" height="9" rx="2" ry="2" width="9" x="194" y="362" /><rect fill="#d820f8" height="9" rx="2" ry="2" width="9" x="206" y="362" /><rect fill="#d820f8" height="9" rx="2" ry="2" width="9" x="218" y="362" /><rect fill="#d820f8" height="9" rx="2" ry="2" width="9" x="230" y="362" /><rect fill="#d820f8" height="9" rx="2" ry="2" width="9" x="242" y="362" /><rect fill="#380098" height="9" rx="2" ry="2" width="9" x="254" y="362" /><rect fill="#d820f8" height="9" rx="2" ry="2" width="9" x="266" y="362" /><rect fill="#d820f8" height="9" rx="2" ry="2" width="9" x="278" y="362" /><rect fill="#000000" height="9" rx="2" ry="2" width="9" x="290" y="362" /><rect fill="#380098" height="9" rx="2" ry="2" width="9" x="14" y="374" /><rect fill="#000000" height="9" rx="2" ry="2" width="9" x="38" y="374" /><rect fill="#000000" height="9" rx="2" ry="2" width="9" x="50" y="374" /><rect fill="#d820f8" height="9" rx="2" ry="2" width="9" x="62" y="374" /><rect fill="#d820f8" height="9" rx="2" ry="2" width="9" x="74" y="374" /><rect fill="#d820f8" height="9" rx="2" ry="2" width="9" x="86" y="374" /><rect fill="#d820f8" height="9" rx="2" ry="2" width="9" x="98" y="374" /><rect fill="#000000" height="9" rx="2" ry="2" width="9" x="110" y="374" /><rect fill="#000000" height="9" rx="2" ry="2" width="9" x="122" y="374" /><rect fill="#000000" height="9" rx="2" ry="2" width="9" x="134" y="374" /><rect fill="#000000" height="9" rx="2" ry="2" width="9" x="146" y="374" /><rect fill="#000000" height="9" rx="2" ry="2" width="9" x="158" y="374" /><rect fill="#000000" height="9" rx="2" ry="2" width="9" x="170" y="374" /><rect fill="#7800e0" height="9" rx="2" ry="2" width="9" x="182" y="374" /><rect fill="#7800e0" height="9" rx="2" ry="2" width="9" x="194" y="374" /><rect fill="#d820f8" height="9" rx="2" ry="2" width="9" x="206" y="374" /><rect fill="#d820f8" height="9" rx="2" ry="2" width="9" x="218" y="374" /><rect fill="#380098" height="9" rx="2" ry="2" width="9" x="230" y="374" /><rect fill="#7800e0" height="9" rx="2" ry="2" width="9" x="242" y="374" /><rect fill="#d820f8" height="9" rx="2" ry="2" width="9" x="254" y="374" /><rect fill="#d820f8" height="9" rx="2" ry="2" width="9" x="266" y="374" /><rect fill="#000000" height="9" rx="2" ry="2" width="9" x="278" y="374" /><rect fill="#000000" height="9" rx="2" ry="2" width="9" x="62" y="386" /><rect fill="#000000" height="9" rx="2" ry="2" width="9" x="74" y="386" /><rect fill="#000000" height="9" rx="2" ry="2" width="9" x="86" y="386" /><rect fill="#000000" height="9" rx="2" ry="2" width="9" x="98" y="386" /><rect fill="#000000" height="9" rx="2" ry="2" width="9" x="182" y="386" /><rect fill="#000000" height="9" rx="2" ry="2" width="9" x="194" y="386" /><rect fill="#000000" height="9" rx="2" ry="2" width="9" x="206" y="386" /><rect fill="#380098" height="9" rx="2" ry="2" width="9" x="218" y="386" /><rect fill="#380098" height="9" rx="2" ry="2" width="9" x="230" y="386" /><rect fill="#7800e0" height="9" rx="2" ry="2" width="9" x="242" y="386" /><rect fill="#d820f8" height="9" rx="2" ry="2" width="9" x="254" y="386" /><rect fill="#000000" height="9" rx="2" ry="2" width="9" x="266" y="386" /><rect fill="#000000" height="9" rx="2" ry="2" width="9" x="278" y="386" /><rect fill="#000000" height="9" rx="2" ry="2" width="9" x="218" y="398" /><rect fill="#7800e0" height="9" rx="2" ry="2" width="9" x="230" y="398" /><rect fill="#d820f8" height="9" rx="2" ry="2" width="9" x="242" y="398" /><rect fill="#000000" height="9" rx="2" ry="2" width="9" x="254" y="398" /><rect fill="#000000" height="9" rx="2" ry="2" width="9" x="218" y="410" /><rect fill="#000000" height="9" rx="2" ry="2" width="9" x="230" y="410" /><rect fill="#000000" height="9" rx="2" ry="2" width="9" x="242" y="410" /></svg>