<?xml version="1.0" encoding="utf-8" ?>
<svg baseProfile="full" height="408" version="1.1" width="384" xmlns="http://www.w3.org/2000/svg" xmlns:ev="http://www.w3.org/2001/xml-events" xmlns:xlink="http://www.w3.org/1999/xlink"><defs /><circle cx="174" cy="6" fill="#000000" r="4" /><circle cx="186" cy="6" fill="#000000" r="4" /><circle cx="198" cy="6" fill="#000000" r="4" /><circle cx="162" cy="18" fill="#000000" r="4" /><circle cx="174" cy="18" fill="#e09800" r="4" /><circle cx="186" cy="18" fill="#f8f880" r="4" /><circle cx="198" cy="18" fill="#f8f880" r="4" /><circle cx="210" cy="18" fill="#000000" r="4" /><circle cx="222" cy="18" fill="#000000" r="4" /><circle cx="150" cy="30" fill="#000000" r="4" /><circle cx="162" cy="30" fill="#e09800" r="4" /><circle cx="174" cy="30" fill="#f8f880" r="4" /><circle cx="186" cy="30" fill="#f8f880" r="4" /><circle cx="198" cy="30" fill="#20c8f0" r="4" /><circle cx="210" cy="30" fill="#f8f8f8" r="4" /><circle cx="222" cy="30" fill="#000000" r="4" /><circle cx="138" cy="42" fill="#000000" r="4" /><circle cx="150" cy="42" fill="#e09800" r="4" /><circle cx="162" cy="42" fill="#f8f880" r="4" /><circle cx="174" cy="42" fill="#f8f880" r="4" /><circle cx="186" cy="42" fill="#000000" r="4" /><circle cx="198" cy="42" fill="#000000" r="4" /><circle cx="210" cy="42" fill="#f8f8f8" r="4" /><circle cx="222" cy="42" fill="#000000" r="4" /><circle cx="234" cy="42" fill="#000000" r="4" /><circle cx="246" cy="42" fill="#000000" r="4" /><circle cx="126" cy="54" fill="#000000" r="4" /><circle cx="138" cy="54" fill="#e09800" r="4" /><circle cx="150" cy="54" fill="#e09800" r="4" /><circle cx="162" cy="54" fill="#f8f880" r="4" /><circle cx="174" cy="54" fill="#f8f880" r="4" /><circle cx="186" cy="54" fill="#000000" r="4" /><circle cx="198" cy="54" fill="#000000" r="4" /><circle cx="210" cy="54" fill="#000000" r="4" /><circle cx="222" cy="54" fill="#f8f880" r="4" /><circle cx="234" cy="54" fill="#f8f880" r="4" /><circle cx="246" cy="54" fill="#000000" r="4" /><circle cx="126" cy="66" fill="#000000" r="4" /><circle cx="138" cy="66" fill="#e09800" r="4" /><circle cx="150" cy="66" fill="#f8f880" r="4" /><circle cx="162" cy="66" fill="#f8f880" r="4" /><circle cx="174" cy="66" fill="#f8f880" r="4" /><circle cx="186" cy="66" fill="#f8f880" r="4" /><circle cx="198" cy="66" fill="#000000" r="4" /><circle cx="210" cy="66" fill="#000000" r="4" /><circle cx="222" cy="66" fill="#000000" r="4" /><circle cx="234" cy="66" fill="#000000" r="4" /><circle cx="102" cy="78" fill="#000000" r="4" /><circle cx="114" cy="78" fill="#000000" r="4" /><circle cx="126" cy="78" fill="#e09800" r="4" /><circle cx="138" cy="78" fill="#e09800" r="4" /><circle cx="150" cy="78" fill="#f8f880" r="4" /><circle cx="162" cy="78" fill="#f8f880" r="4" /><circle cx="174" cy="78" fill="#b02828" r="4" /><circle cx="186" cy="78" fill="#000000" r="4" /><circle cx="198" cy="78" fill="#f8f8f8" r="4" /><circle cx="210" cy="78" fill="#000000" r="4" /><circle cx="222" cy="78" fill="#f8f8f8" r="4" /><circle cx="234" cy="78" fill="#000000" r="4" /><circle cx="246" cy="78" fill="#000000" r="4" /><circle cx="366" cy="78" fill="#380098" r="4" /><circle cx="378" cy="78" fill="#380098" r="4" /><circle cx="90" cy="90" fill="#000000" r="4" /><circle cx="102" cy="90" fill="#d06828" r="4" /><circle cx="114" cy="90" fill="#e09800" r="4" /><circle cx="126" cy="90" fill="#e09800" r="4" /><circle cx="138" cy="90" fill="#f8f880" r="4" /><circle cx="150" cy="90" fill="#b02828" r="4" /><circle cx="162" cy="90" fill="#b02828" r="4" /><circle cx="174" cy="90" fill="#000000" r="4" /><circle cx="186" cy="90" fill="#20c8f0" r="4" /><circle cx="198" cy="90" fill="#f8f8f8" r="4" /><circle cx="210" cy="90" fill="#f8f8f8" r="4" /><circle cx="222" cy="90" fill="#f8f8f8" r="4" /><circle cx="234" cy="90" fill="#20c8f0" r="4" /><circle cx="246" cy="90" fill="#f83868" r="4" /><circle cx="258" cy="90" fill="#f83868" r="4" /><circle cx="270" cy="90" fill="#000000" r="4" /><circle cx="354" cy="90" fill="#380098" r="4" /><circle cx="366" cy="90" fill="#f8f8f8" r="4" /><circle cx="378" cy="90" fill="#380098" r="4" /><circle cx="66" cy="102" fill="#000000" r="4" /><circle cx="78" cy="102" fill="#000000" r="4" /><circle cx="90" cy="102" fill="#d06828" r="4" /><circle cx="102" cy="102" fill="#e09800" r="4" /><circle cx="114" cy="102" fill="#e09800" r="4" /><circle cx="126" cy="102" fill="#d06828" r="4" /><circle cx="138" cy="102" fill="#f8f880" r="4" /><circle cx="150" cy="102" fill="#f8e880" r="4" /><circle cx="162" cy="102" fill="#f8e880" r="4" /><circle cx="174" cy="102" fill="#b02828" r="4" /><circle cx="186" cy="102" fill="#f89048" r="4" /><circle cx="198" cy="102" fill="#20c8f0" r="4" /><circle cx="210" cy="102" fill="#20c8f0" r="4" /><circle cx="222" cy="102" fill="#20c8f0" r="4" /><circle cx="234" cy="102" fill="#f83868" r="4" /><circle cx="246" cy="102" fill="#f83868" r="4" /><circle cx="258" cy="102" fill="#f83868" r="4" /><circle cx="270" cy="102" fill="#f83868" r="4" /><circle cx="282" cy="102" fill="#000000" r="4" /><circle cx="330" cy="102" fill="#380098" r="4" /><circle cx="342" cy="102" fill="#380098" r="4" /><circle cx="354" cy="102" fill="#f8f8f8" r="4" /><circle cx="366" cy="102" fill="#f8f8f8" r="4" /><circle cx="378" cy="102" fill="#380098" r="4" /><circle cx="66" cy="114" fill="#000000" r="4" /><circle cx="78" cy="114" fill="#d06828" r="4" /><circle cx="90" cy="114" fill="#e09800" r="4" /><circle cx="102" cy="114" fill="#e09800" r="4" /><circle cx="114" cy="114" fill="#d06828" r="4" /><circle cx="126" cy="114" fill="#d06828" r="4" /><circle cx="138" cy="114" fill="#000000" r="4" /><circle cx="150" cy="114" fill="#f8e880" r="4" /><circle cx="162" cy="114" fill="#f8e880" r="4" /><circle cx="174" cy="114" fill="#f8e880" r="4" /><circle cx="186" cy="114" fill="#b02828" r="4" /><circle cx="198" cy="114" fill="#f8e880" r="4" /><circle cx="210" cy="114" fill="#f8e880" r="4" /><circle cx="222" cy="114" fill="#b02828" r="4" /><circle cx="234" cy="114" fill="#000000" r="4" /><circle cx="246" cy="114" fill="#f83868" r="4" /><circle cx="258" cy="114" fill="#f83868" r="4" /><circle cx="270" cy="114" fill="#f83868" r="4" /><circle cx="282" cy="114" fill="#000000" r="4" /><circle cx="318" cy="114" fill="#380098" r="4" /><circle cx="330" cy="114" fill="#2068a0" r="4" /><circle cx="342" cy="114" fill="#f8f8f8" r="4" /><circle cx="354" cy="114" fill="#f8f8f8" r="4" /><circle cx="366" cy="114" fill="#20c8f0" r="4" /><circle cx="378" cy="114" fill="#380098" r="4" /><circle cx="54" cy="126" fill="#000000" r="4" /><circle cx="66" cy="126" fill="#d06828" r="4" /><circle cx="78" cy="126" fill="#d06828" r="4" /><circle cx="90" cy="126" fill="#d06828" r="4" /><circle cx="102" cy="126" fill="#d06828" r="4" /><circle cx="114" cy="126" fill="#d06828" r="4" /><circle cx="126" cy="126" fill="#e09800" r="4" /><circle cx="138" cy="126" fill="#000000" r="4" /><circle cx="150" cy="126" fill="#f8e880" r="4" /><circle cx="162" cy="126" fill="#f8e880" r="4" /><circle cx="174" cy="126" fill="#f8e880" r="4" /><circle cx="186" cy="126" fill="#000000" r="4" /><circle cx="198" cy="126" fill="#000000" r="4" /><circle cx="210" cy="126" fill="#f8e880" r="4" /><circle cx="222" cy="126" fill="#000000" r="4" /><circle cx="234" cy="126" fill="#000000" r="4" /><circle cx="246" cy="126" fill="#b02828" r="4" /><circle cx="258" cy="126" fill="#b02828" r="4" /><circle cx="270" cy="126" fill="#b02828" r="4" /><circle cx="294" cy="126" fill="#380098" r="4" /><circle cx="306" cy="126" fill="#380098" r="4" /><circle cx="318" cy="126" fill="#20c8f0" r="4" /><circle cx="330" cy="126" fill="#f8f8f8" r="4" /><circle cx="342" cy="126" fill="#f8f8f8" r="4" /><circle cx="354" cy="126" fill="#f8f8f8" r="4" /><circle cx="366" cy="126" fill="#380098" r="4" /><circle cx="54" cy="138" fill="#000000" r="4" /><circle cx="66" cy="138" fill="#d06828" r="4" /><circle cx="78" cy="138" fill="#d06828" r="4" /><circle cx="90" cy="138" fill="#d06828" r="4" /><circle cx="102" cy="138" fill="#d06828" r="4" /><circle cx="114" cy="138" fill="#000000" r="4" /><circle cx="126" cy="138" fill="#000000" r="4" /><circle cx="138" cy="138" fill="#000000" r="4" /><circle cx="150" cy="138" fill="#f89048" r="4" /><circle cx="162" cy="138" fill="#f89048" r="4" /><circle cx="174" cy="138" fill="#f89048" r="4" /><circle cx="186" cy="138" fill="#000000" r="4" /><circle cx="198" cy="138" fill="#b02828" r="4" /><circle cx="210" cy="138" fill="#000000" r="4" /><circle cx="222" cy="138" fill="#000000" r="4" /><circle cx="234" cy="138" fill="#f8f8f8" r="4" /><circle cx="246" cy="138" fill="#f8f8f8" r="4" /><circle cx="258" cy="138" fill="#000000" r="4" /><circle cx="282" cy="138" fill="#380098" r="4" /><circle cx="294" cy="138" fill="#b02828" r="4" /><circle cx="306" cy="138" fill="#f89048" r="4" /><circle cx="318" cy="138" fill="#f8e880" r="4" /><circle cx="330" cy="138" fill="#20c8f0" r="4" /><circle cx="342" cy="138" fill="#f8f8f8" r="4" /><circle cx="354" cy="138" fill="#20c8f0" r="4" /><circle cx="366" cy="138" fill="#2068a0" r="4" /><circle cx="378" cy="138" fill="#380098" r="4" /><circle cx="66" cy="150" fill="#000000" r="4" /><circle cx="78" cy="150" fill="#d06828" r="4" /><circle cx="90" cy="150" fill="#000000" r="4" /><circle cx="102" cy="150" fill="#000000" r="4" /><circle cx="114" cy="150" fill="#000000" r="4" /><circle cx="126" cy="150" fill="#000000" r="4" /><circle cx="138" cy="150" fill="#000000" r="4" /><circle cx="150" cy="150" fill="#000000" r="4" /><circle cx="162" cy="150" fill="#f89048" r="4" /><circle cx="174" cy="150" fill="#f89048" r="4" /><circle cx="186" cy="150" fill="#f89048" r="4" /><circle cx="198" cy="150" fill="#f8f8f8" r="4" /><circle cx="210" cy="150" fill="#f8f8f8" r="4" /><circle cx="222" cy="150" fill="#f8f8f8" r="4" /><circle cx="234" cy="150" fill="#000000" r="4" /><circle cx="246" cy="150" fill="#f8f8f8" r="4" /><circle cx="258" cy="150" fill="#380098" r="4" /><circle cx="270" cy="150" fill="#b02828" r="4" /><circle cx="282" cy="150" fill="#f89048" r="4" /><circle cx="294" cy="150" fill="#f8e880" r="4" /><circle cx="306" cy="150" fill="#f8e880" r="4" /><circle cx="318" cy="150" fill="#f89048" r="4" /><circle cx="330" cy="150" fill="#d06828" r="4" /><circle cx="342" cy="150" fill="#f8f8f8" r="4" /><circle cx="354" cy="150" fill="#20c8f0" r="4" /><circle cx="366" cy="150" fill="#2068a0" r="4" /><circle cx="378" cy="150" fill="#380098" r="4" /><circle cx="78" cy="162" fill="#000000" r="4" /><circle cx="90" cy="162" fill="#000000" r="4" /><circle cx="102" cy="162" fill="#000000" r="4" /><circle cx="114" cy="162" fill="#000000" r="4" /><circle cx="126" cy="162" fill="#000000" r="4" /><circle cx="138" cy="162" fill="#000000" r="4" /><circle cx="150" cy="162" fill="#000000" r="4" /><circle cx="162" cy="162" fill="#f89048" r="4" /><circle cx="174" cy="162" fill="#f89048" r="4" /><circle cx="186" cy="162" fill="#f89048" r="4" /><circle cx="198" cy="162" fill="#b02828" r="4" /><circle cx="210" cy="162" fill="#f8f8f8" r="4" /><circle cx="222" cy="162" fill="#f8f8f8" r="4" /><circle cx="234" cy="162" fill="#f8f8f8" r="4" /><circle cx="246" cy="162" fill="#000000" r="4" /><circle cx="258" cy="162" fill="#f89048" r="4" /><circle cx="270" cy="162" fill="#f89048" r="4" /><circle cx="282" cy="162" fill="#f8e880" r="4" /><circle cx="294" cy="162" fill="#f8f880" r="4" /><circle cx="306" cy="162" fill="#f8e880" r="4" /><circle cx="318" cy="162" fill="#f89048" r="4" /><circle cx="330" cy="162" fill="#f8e880" r="4" /><circle cx="342" cy="162" fill="#20c8f0" r="4" /><circle cx="354" cy="162" fill="#380098" r="4" /><circle cx="366" cy="162" fill="#380098" r="4" /><circle cx="90" cy="174" fill="#000000" r="4" /><circle cx="102" cy="174" fill="#000000" r="4" /><circle cx="114" cy="174" fill="#000000" r="4" /><circle cx="126" cy="174" fill="#000000" r="4" /><circle cx="138" cy="174" fill="#000000" r="4" /><circle cx="150" cy="174" fill="#000000" r="4" /><circle cx="162" cy="174" fill="#f89048" r="4" /><circle cx="174" cy="174" fill="#b02828" r="4" /><circle cx="186" cy="174" fill="#b02828" r="4" /><circle cx="198" cy="174" fill="#f89048" r="4" /><circle cx="210" cy="174" fill="#b02828" r="4" /><circle cx="222" cy="174" fill="#000000" r="4" /><circle cx="234" cy="174" fill="#f89048" r="4" /><circle cx="246" cy="174" fill="#e09800" r="4" /><circle cx="258" cy="174" fill="#f8f880" r="4" /><circle cx="270" cy="174" fill="#f8e880" r="4" /><circle cx="282" cy="174" fill="#f8e880" r="4" /><circle cx="294" cy="174" fill="#f8e880" r="4" /><circle cx="306" cy="174" fill="#f89048" r="4" /><circle cx="318" cy="174" fill="#f8e880" r="4" /><circle cx="330" cy="174" fill="#f89048" r="4" /><circle cx="342" cy="174" fill="#b02828" r="4" /><circle cx="354" cy="174" fill="#380098" r="4" /><circle cx="42" cy="186" fill="#380098" r="4" /><circle cx="54" cy="186" fill="#380098" r="4" /><circle cx="66" cy="186" fill="#380098" r="4" /><circle cx="78" cy="186" fill="#380098" r="4" /><circle cx="90" cy="186" fill="#000000" r="4" /><circle cx="102" cy="186" fill="#000000" r="4" /><circle cx="114" cy="186" fill="#000000" r="4" /><circle cx="126" cy="186" fill="#000000" r="4" /><circle cx="138" cy="186" fill="#000000" r="4" /><circle cx="150" cy="186" fill="#000000" r="4" /><circle cx="162" cy="186" fill="#b02828" r="4" /><circle cx="174" cy="186" fill="#b02828" r="4" /><circle cx="186" cy="186" fill="#b02828" r="4" /><circle cx="198" cy="186" fill="#b02828" r="4" /><circle cx="210" cy="186" fill="#b02828" r="4" /><circle cx="222" cy="186" fill="#f89048" r="4" /><circle cx="234" cy="186" fill="#f8f880" r="4" /><circle cx="246" cy="186" fill="#f8f880" r="4" /><circle cx="258" cy="186" fill="#f8f8f8" r="4" /><circle cx="270" cy="186" fill="#f8f880" r="4" /><circle cx="282" cy="186" fill="#f8e880" r="4" /><circle cx="294" cy="186" fill="#f8e880" r="4" /><circle cx="306" cy="186" fill="#f89048" r="4" /><circle cx="318" cy="186" fill="#f89048" r="4" /><circle cx="330" cy="186" fill="#f89048" r="4" /><circle cx="342" cy="186" fill="#380098" r="4" /><circle cx="18" cy="198" fill="#380098" r="4" /><circle cx="30" cy="198" fill="#380098" r="4" /><circle cx="42" cy="198" fill="#380098" r="4" /><circle cx="54" cy="198" fill="#20c8f0" r="4" /><circle cx="66" cy="198" fill="#f8f8f8" r="4" /><circle cx="78" cy="198" fill="#380098" r="4" /><circle cx="90" cy="198" fill="#000000" r="4" /><circle cx="102" cy="198" fill="#000000" r="4" /><circle cx="114" cy="198" fill="#000000" r="4" /><circle cx="126" cy="198" fill="#000000" r="4" /><circle cx="138" cy="198" fill="#000000" r="4" /><circle cx="150" cy="198" fill="#000000" r="4" /><circle cx="162" cy="198" fill="#f8f880" r="4" /><circle cx="174" cy="198" fill="#7800e0" r="4" /><circle cx="186" cy="198" fill="#d820f8" r="4" /><circle cx="198" cy="198" fill="#d820f8" r="4" /><circle cx="210" cy="198" fill="#d820f8" r="4" /><circle cx="222" cy="198" fill="#f8f880" r="4" /><circle cx="234" cy="198" fill="#f8f880" r="4" /><circle cx="246" cy="198" fill="#f8f880" r="4" /><circle cx="258" cy="198" fill="#f8f8f8" r="4" /><circle cx="270" cy="198" fill="#f8f8f8" r="4" /><circle cx="282" cy="198" fill="#f8f880" r="4" /><circle cx="294" cy="198" fill="#f89048" r="4" /><circle cx="306" cy="198" fill="#f89048" r="4" /><circle cx="318" cy="198" fill="#d06828" r="4" /><circle cx="330" cy="198" fill="#380098" r="4" /><circle cx="18" cy="210" fill="#380098" r="4" /><circle cx="30" cy="210" fill="#20c8f0" r="4" /><circle cx="42" cy="210" fill="#f8f8f8" r="4" /><circle cx="54" cy="210" fill="#f8f8f8" r="4" /><circle cx="66" cy="210" fill="#f8f8f8" r="4" /><circle cx="78" cy="210" fill="#f8f8f8" r="4" /><circle cx="102" cy="210" fill="#000000" r="4" /><circle cx="114" cy="210" fill="#000000" r="4" /><circle cx="126" cy="210" fill="#d820f8" r="4" /><circle cx="138" cy="210" fill="#f8f880" r="4" /><circle cx="150" cy="210" fill="#f8f880" r="4" /><circle cx="162" cy="210" fill="#f8f880" r="4" /><circle cx="174" cy="210" fill="#d820f8" r="4" /><circle cx="186" cy="210" fill="#d820f8" r="4" /><circle cx="198" cy="210" fill="#7800e0" r="4" /><circle cx="210" cy="210" fill="#e09800" r="4" /><circle cx="222" cy="210" fill="#f8f880" r="4" /><circle cx="234" cy="210" fill="#f8f880" r="4" /><circle cx="246" cy="210" fill="#f8f880" r="4" /><circle cx="258" cy="210" fill="#f8f880" r="4" /><circle cx="270" cy="210" fill="#f8f880" r="4" /><circle cx="282" cy="210" fill="#f8f880" r="4" /><circle cx="294" cy="210" fill="#f89048" r="4" /><circle cx="306" cy="210" fill="#f89048" r="4" /><circle cx="318" cy="210" fill="#b02828" r="4" /><circle cx="330" cy="210" fill="#380098" r="4" /><circle cx="6" cy="222" fill="#380098" r="4" /><circle cx="18" cy="222" fill="#20c8f0" r="4" /><circle cx="30" cy="222" fill="#f8f8f8" r="4" /><circle cx="42" cy="222" fill="#f8f8f8" r="4" /><circle cx="54" cy="222" fill="#f8f8f8" r="4" /><circle cx="66" cy="222" fill="#20c8f0" r="4" /><circle cx="78" cy="222" fill="#f8f8f8" r="4" /><circle cx="90" cy="222" fill="#b02828" r="4" /><circle cx="102" cy="222" fill="#f8f880" r="4" /><circle cx="114" cy="222" fill="#d820f8" r="4" /><circle cx="126" cy="222" fill="#d820f8" r="4" /><circle cx="138" cy="222" fill="#f8f880" r="4" /><circle cx="150" cy="222" fill="#e09800" r="4" /><circle cx="162" cy="222" fill="#e09800" r="4" /><circle cx="174" cy="222" fill="#7800e0" r="4" /><circle cx="186" cy="222" fill="#7800e0" r="4" /><circle cx="198" cy="222" fill="#e09800" r="4" /><circle cx="210" cy="222" fill="#e09800" r="4" /><circle cx="222" cy="222" fill="#f8f880" r="4" /><circle cx="234" cy="222" fill="#f8f880" r="4" /><circle cx="246" cy="222" fill="#f8f880" r="4" /><circle cx="258" cy="222" fill="#f8f880" r="4" /><circle cx="270" cy="222" fill="#f8f880" r="4" /><circle cx="282" cy="222" fill="#f8f880" r="4" /><circle cx="294" cy="222" fill="#f89048" r="4" /><circle cx="306" cy="222" fill="#d06828" r="4" /><circle cx="318" cy="222" fill="#380098" r="4" /><circle cx="6" cy="234" fill="#380098" r="4" /><circle cx="18" cy="234" fill="#20c8f0" r="4" /><circle cx="30" cy="234" fill="#f8f8f8" r="4" /><circle cx="42" cy="234" fill="#f8f8f8" r="4" /><circle cx="54" cy="234" fill="#20c8f0" r="4" /><circle cx="66" cy="234" fill="#f8f8f8" r="4" /><circle cx="78" cy="234" fill="#f8f8f8" r="4" /><circle cx="90" cy="234" fill="#f8f880" r="4" /><circle cx="102" cy="234" fill="#e09800" r="4" /><circle cx="114" cy="234" fill="#380098" r="4" /><circle cx="126" cy="234" fill="#7800e0" r="4" /><circle cx="138" cy="234" fill="#7800e0" r="4" /><circle cx="150" cy="234" fill="#7800e0" r="4" /><circle cx="162" cy="234" fill="#e09800" r="4" /><circle cx="174" cy="234" fill="#7800e0" r="4" /><circle cx="186" cy="234" fill="#e09800" r="4" /><circle cx="198" cy="234" fill="#e09800" r="4" /><circle cx="210" cy="234" fill="#e09800" r="4" /><circle cx="222" cy="234" fill="#e09800" r="4" /><circle cx="234" cy="234" fill="#e09800" r="4" /><circle cx="246" cy="234" fill="#f8f880" r="4" /><circle cx="258" cy="234" fill="#f8f880" r="4" /><circle cx="270" cy="234" fill="#f8f880" r="4" /><circle cx="282" cy="234" fill="#e09800" r="4" /><circle cx="294" cy="234" fill="#d06828" r="4" /><circle cx="306" cy="234" fill="#380098" r="4" /><circle cx="6" cy="246" fill="#380098" r="4" /><circle cx="18" cy="246" fill="#f8f8f8" r="4" /><circle cx="30" cy="246" fill="#f8f8f8" r="4" /><circle cx="42" cy="246" fill="#f8f8f8" r="4" /><circle cx="54" cy="246" fill="#20c8f0" r="4" /><circle cx="66" cy="246" fill="#20c8f0" r="4" /><circle cx="78" cy="246" fill="#b02828" r="4" /><circle cx="90" cy="246" fill="#e09800" r="4" /><circle cx="102" cy="246" fill="#e09800" r="4" /><circle cx="114" cy="246" fill="#e09800" r="4" /><circle cx="126" cy="246" fill="#380098" r="4" /><circle cx="138" cy="246" fill="#380098" r="4" /><circle cx="150" cy="246" fill="#380098" r="4" /><circle cx="162" cy="246" fill="#7800e0" r="4" /><circle cx="174" cy="246" fill="#7800e0" r="4" /><circle cx="186" cy="246" fill="#e09800" r="4" /><circle cx="198" cy="246" fill="#e09800" r="4" /><circle cx="210" cy="246" fill="#e09800" r="4" /><circle cx="222" cy="246" fill="#e09800" r="4" /><circle cx="234" cy="246" fill="#e09800" r="4" /><circle cx="246" cy="246" fill="#e09800" r="4" /><circle cx="258" cy="246" fill="#f8f880" r="4" /><circle cx="270" cy="246" fill="#f8f880" r="4" /><circle cx="282" cy="246" fill="#e09800" r="4" /><circle cx="294" cy="246" fill="#380098" r="4" /><circle cx="6" cy="258" fill="#380098" r="4" /><circle cx="18" cy="258" fill="#f89048" r="4" /><circle cx="30" cy="258" fill="#f8e880" r="4" /><circle cx="42" cy="258" fill="#f8e880" r="4" /><circle cx="54" cy="258" fill="#f89048" r="4" /><circle cx="66" cy="258" fill="#b02828" r="4" /><circle cx="78" cy="258" fill="#f8f880" r="4" /><circle cx="90" cy="258" fill="#e09800" r="4" /><circle cx="102" cy="258" fill="#e09800" r="4" /><circle cx="114" cy="258" fill="#e09800" r="4" /><circle cx="126" cy="258" fill="#e09800" r="4" /><circle cx="138" cy="258" fill="#e09800" r="4" /><circle cx="150" cy="258" fill="#7800e0" r="4" /><circle cx="162" cy="258" fill="#7800e0" r="4" /><circle cx="174" cy="258" fill="#7800e0" r="4" /><circle cx="186" cy="258" fill="#7800e0" r="4" /><circle cx="198" cy="258" fill="#e09800" r="4" /><circle cx="210" cy="258" fill="#e09800" r="4" /><circle cx="222" cy="258" fill="#e09800" r="4" /><circle cx="234" cy="258" fill="#f8f880" r="4" /><circle cx="246" cy="258" fill="#f8f880" r="4" /><circle cx="258" cy="258" fill="#f8f880" r="4" /><circle cx="270" cy="258" fill="#e09800" r="4" /><circle cx="282" cy="258" fill="#380098" r="4" /><circle cx="294" cy="258" fill="#000000" r="4" /><circle cx="6" cy="270" fill="#b02828" r="4" /><circle cx="18" cy="270" fill="#f89048" r="4" /><circle cx="30" cy="270" fill="#f8e880" r="4" /><circle cx="42" cy="270" fill="#f89048" r="4" /><circle cx="54" cy="270" fill="#b02828" r="4" /><circle cx="66" cy="270" fill="#b02828" r="4" /><circle cx="78" cy="270" fill="#e09800" r="4" /><circle cx="90" cy="270" fill="#e09800" r="4" /><circle cx="102" cy="270" fill="#e09800" r="4" /><circle cx="114" cy="270" fill="#e09800" r="4" /><circle cx="126" cy="270" fill="#e09800" r="4" /><circle cx="138" cy="270" fill="#380098" r="4" /><circle cx="150" cy="270" fill="#7800e0" r="4" /><circle cx="162" cy="270" fill="#e09800" r="4" /><circle cx="174" cy="270" fill="#380098" r="4" /><circle cx="186" cy="270" fill="#7800e0" r="4" /><circle cx="198" cy="270" fill="#e09800" r="4" /><circle cx="210" cy="270" fill="#e09800" r="4" /><circle cx="222" cy="270" fill="#e09800" r="4" /><circle cx="234" cy="270" fill="#e09800" r="4" /><circle cx="246" cy="270" fill="#f8f880" r="4" /><circle cx="258" cy="270" fill="#f8f880" r="4" /><circle cx="270" cy="270" fill="#f8f880" r="4" /><circle cx="282" cy="270" fill="#000000" r="4" /><circle cx="6" cy="282" fill="#b02828" r="4" /><circle cx="18" cy="282" fill="#f89048" r="4" /><circle cx="30" cy="282" fill="#f8e880" r="4" /><circle cx="42" cy="282" fill="#b02828" r="4" /><circle cx="54" cy="282" fill="#f8e880" r="4" /><circle cx="66" cy="282" fill="#b02828" r="4" /><circle cx="78" cy="282" fill="#b02828" r="4" /><circle cx="90" cy="282" fill="#e09800" r="4" /><circle cx="102" cy="282" fill="#b02828" r="4" /><circle cx="114" cy="282" fill="#e09800" r="4" /><circle cx="126" cy="282" fill="#380098" r="4" /><circle cx="138" cy="282" fill="#7800e0" r="4" /><circle cx="150" cy="282" fill="#e09800" r="4" /><circle cx="162" cy="282" fill="#e09800" r="4" /><circle cx="174" cy="282" fill="#e09800" r="4" /><circle cx="186" cy="282" fill="#380098" r="4" /><circle cx="198" cy="282" fill="#7800e0" r="4" /><circle cx="210" cy="282" fill="#e09800" r="4" /><circle cx="222" cy="282" fill="#e09800" r="4" /><circle cx="234" cy="282" fill="#e09800" r="4" /><circle cx="246" cy="282" fill="#e09800" r="4" /><circle cx="258" cy="282" fill="#f8f880" r="4" /><circle cx="270" cy="282" fill="#f8f880" r="4" /><circle cx="282" cy="282" fill="#7800e0" r="4" /><circle cx="18" cy="294" fill="#b02828" r="4" /><circle cx="30" cy="294" fill="#f8e880" r="4" /><circle cx="42" cy="294" fill="#f8e880" r="4" /><circle cx="54" cy="294" fill="#f89048" r="4" /><circle cx="66" cy="294" fill="#f89048" r="4" /><circle cx="78" cy="294" fill="#b02828" r="4" /><circle cx="90" cy="294" fill="#b02828" r="4" /><circle cx="102" cy="294" fill="#e09800" r="4" /><circle cx="114" cy="294" fill="#e09800" r="4" /><circle cx="126" cy="294" fill="#380098" r="4" /><circle cx="138" cy="294" fill="#7800e0" r="4" /><circle cx="150" cy="294" fill="#e09800" r="4" /><circle cx="162" cy="294" fill="#e09800" r="4" /><circle cx="174" cy="294" fill="#e09800" r="4" /><circle cx="186" cy="294" fill="#380098" r="4" /><circle cx="198" cy="294" fill="#7800e0" r="4" /><circle cx="210" cy="294" fill="#7800e0" r="4" /><circle cx="222" cy="294" fill="#e09800" r="4" /><circle cx="234" cy="294" fill="#e09800" r="4" /><circle cx="246" cy="294" fill="#e09800" r="4" /><circle cx="258" cy="294" fill="#f8f880" r="4" /><circle cx="270" cy="294" fill="#e09800" r="4" /><circle cx="282" cy="294" fill="#000000" r="4" /><circle cx="18" cy="306" fill="#b02828" r="4" /><circle cx="30" cy="306" fill="#f8e880" r="4" /><circle cx="42" cy="306" fill="#f89048" r="4" /><circle cx="54" cy="306" fill="#f89048" r="4" /><circle cx="66" cy="306" fill="#f89048" r="4" /><circle cx="78" cy="306" fill="#f89048" r="4" /><circle cx="90" cy="306" fill="#f89048" r="4" /><circle cx="102" cy="306" fill="#b02828" r="4" /><circle cx="114" cy="306" fill="#7800e0" r="4" /><circle cx="126" cy="306" fill="#7800e0" r="4" /><circle cx="138" cy="306" fill="#7800e0" r="4" /><circle cx="150" cy="306" fill="#7800e0" r="4" /><circle cx="162" cy="306" fill="#7800e0" r="4" /><circle cx="174" cy="306" fill="#7800e0" r="4" /><circle cx="186" cy="306" fill="#7800e0" r="4" /><circle cx="198" cy="306" fill="#d820f8" r="4" /><circle cx="210" cy="306" fill="#d820f8" r="4" /><circle cx="222" cy="306" fill="#d820f8" r="4" /><circle cx="234" cy="306" fill="#d820f8" r="4" /><circle cx="246" cy="306" fill="#d820f8" r="4" /><circle cx="258" cy="306" fill="#d820f8" r="4" /><circle cx="270" cy="306" fill="#d820f8" r="4" /><circle cx="282" cy="306" fill="#380098" r="4" /><circle cx="30" cy="318" fill="#000000" r="4" /><circle cx="42" cy="318" fill="#f89048" r="4" /><circle cx="54" cy="318" fill="#f89048" r="4" /><circle cx="66" cy="318" fill="#f89048" r="4" /><circle cx="78" cy="318" fill="#b02828" r="4" /><circle cx="90" cy="318" fill="#380098" r="4" /><circle cx="102" cy="318" fill="#7800e0" r="4" /><circle cx="114" cy="318" fill="#7800e0" r="4" /><circle cx="126" cy="318" fill="#7800e0" r="4" /><circle cx="138" cy="318" fill="#7800e0" r="4" /><circle cx="150" cy="318" fill="#7800e0" r="4" /><circle cx="162" cy="318" fill="#d820f8" r="4" /><circle cx="174" cy="318" fill="#d820f8" r="4" /><circle cx="186" cy="318" fill="#d820f8" r="4" /><circle cx="198" cy="318" fill="#d820f8" r="4" /><circle cx="210" cy="318" fill="#d820f8" r="4" /><circle cx="222" cy="318" fill="#d820f8" r="4" /><circle cx="234" cy="318" fill="#d820f8" r="4" /><circle cx="246" cy="318" fill="#d820f8" r="4" /><circle cx="258" cy="318" fill="#d820f8" r="4" /><circle cx="270" cy="318" fill="#d820f8" r="4" /><circle cx="282" cy="318" fill="#380098" r="4" /><circle cx="42" cy="330" fill="#000000" r="4" /><circle cx="54" cy="330" fill="#000000" r="4" /><circle cx="66" cy="330" fill="#000000" r="4" /><circle cx="78" cy="330" fill="#000000" r="4" /><circle cx="90" cy="330" fill="#380098" r="4" /><circle cx="102" cy="330" fill="#7800e0" r="4" /><circle cx="114" cy="330" fill="#7800e0" r="4" /><circle cx="126" cy="330" fill="#7800e0" r="4" /><circle cx="138" cy="330" fill="#7800e0" r="4" /><circle cx="150" cy="330" fill="#7800e0" r="4" /><circle cx="162" cy="330" fill="#7800e0" r="4" /><circle cx="174" cy="330" fill="#d820f8" r="4" /><circle cx="186" cy="330" fill="#d820f8" r="4" /><circle cx="198" cy="330" fill="#d820f8" r="4" /><circle cx="210" cy="330" fill="#d820f8" r="4" /><circle cx="222" cy="330" fill="#d820f8" r="4" /><circle cx="234" cy="330" fill="#d820f8" r="4" /><circle cx="246" cy="330" fill="#d820f8" r="4" /><circle cx="258" cy="330" fill="#d820f8" r="4" /><circle cx="270" cy="330" fill="#d820f8" r="4" /><circle cx="282" cy="330" fill="#380098" r="4" /><circle cx="90" cy="342" fill="#380098" r="4" /><circle cx="102" cy="342" fill="#380098" r="4" /><circle cx="114" cy="342" fill="#380098" r="4" /><circle cx="126" cy="342" fill="#7800e0" r="4" /><circle cx="138" cy="342" fill="#7800e0" r="4" /><circle cx="150" cy="342" fill="#7800e0" r="4" /><circle cx="162" cy="342" fill="#7800e0" r="4" /><circle cx="174" cy="342" fill="#7800e0" r="4" /><circle cx="186" cy="342" fill="#7800e0" r="4" /><circle cx="198" cy="342" fill="#7800e0" r="4" /><circle cx="210" cy="342" fill="#d820f8" r="4" /><circle cx="222" cy="342" fill="#d820f8" r="4" /><circle cx="234" cy="342" fill="#7800e0" r="4" /><circle cx="246" cy="342" fill="#380098" r="4" /><circle cx="258" cy="342" fill="#7800e0" r="4" /><circle cx="270" cy="342" fill="#d820f8" r="4" /><circle cx="282" cy="342" fill="#7800e0" r="4" /><circle cx="294" cy="342" fill="#000000" r="4" /><circle cx="78" cy="354" fill="#380098" r="4" /><circle cx="90" cy="354" fill="#380098" r="4" /><circle cx="102" cy="354" fill="#7800e0" r="4" /><circle cx="114" cy="354" fill="#380098" r="4" /><circle cx="126" cy="354" fill="#380098" r="4" /><circle cx="138" cy="354" fill="#380098" r="4" /><circle cx="150" cy="354" fill="#380098" r="4" /><circle cx="162" cy="354" fill="#380098" r="4" /><circle cx="174" cy="354" fill="#380098" r="4" /><circle cx="186" cy="354" fill="#380098" r="4" /><circle cx="198" cy="354" fill="#380098" r="4" /><circle cx="210" cy="354" fill="#380098" r="4" /><circle cx="222" cy="354" fill="#380098" r="4" /><circle cx="234" cy="354" fill="#380098" r="4" /><circle cx="246" cy="354" fill="#380098" r="4" /><circle cx="258" cy="354" fill="#7800e0" r="4" /><circle cx="270" cy="354" fill="#7800e0" r="4" /><circle cx="282" cy="354" fill="#d820f8" r="4" /><circle cx="294" cy="354" fill="#000000" r="4" /><circle cx="78" cy="366" fill="#380098" r="4" /><circle cx="90" cy="366" fill="#7800e0" r="4" /><circle cx="102" cy="366" fill="#7800e0" r="4" /><circle cx="114" cy="366" fill="#d820f8" r="4" /><circle cx="126" cy="366" fill="#d820f8" r="4" /><circle cx="138" cy="366" fill="#380098" r="4" /><circle cx="150" cy="366" fill="#380098" r="4" /><circle cx="234" cy="366" fill="#380098" r="4" /><circle cx="246" cy="366" fill="#7800e0" r="4" /><circle cx="258" cy="366" fill="#d820f8" r="4" /><circle cx="270" cy="366" fill="#d820f8" r="4" /><circle cx="282" cy="366" fill="#d820f8" r="4" /><circle cx="294" cy="366" fill="#d820f8" r="4" /><circle cx="306" cy="366" fill="#000000" r="4" /><circle cx="66" cy="378" fill="#380098" r="4" /><circle cx="78" cy="378" fill="#380098" r="4" /><circle cx="90" cy="378" fill="#380098" r="4" /><circle cx="102" cy="378" fill="#380098" r="4" /><circle cx="114" cy="378" fill="#7800e0" r="4" /><circle cx="126" cy="378" fill="#d820f8" r="4" /><circle cx="138" cy="378" fill="#380098" r="4" /><circle cx="234" cy="378" fill="#380098" r="4" /><circle cx="246" cy="378" fill="#7800e0" r="4" /><circle cx="258" cy="378" fill="#7800e0" r="4" /><circle cx="270" cy="378" fill="#d820f8" r="4" /><circle cx="282" cy="378" fill="#d820f8" r="4" /><circle cx="294" cy="378" fill="#d820f8" r="4" /><circle cx="306" cy="378" fill="#000000" r="4" /><circle cx="66" cy="390" fill="#380098" r="4" /><circle cx="78" cy="390" fill="#d820f8" r="4" /><circle cx="90" cy="390" fill="#d820f8" r="4" /><circle cx="102" cy="390" fill="#7800e0" r="4" /><circle cx="114" cy="390" fill="#000000" r="4" /><circle cx="126" cy="390" fill="#380098" r="4" /><circle cx="138" cy="390" fill="#380098" r="4" /><circle cx="246" cy="390" fill="#000000" r="4" /><circle cx="258" cy="390" fill="#7800e0" r="4" /><circle cx="270" cy="390" fill="#d820f8" r="4" /><circle cx="282" cy="390" fill="#7800e0" r="4" /><circle cx="294" cy="390" fill="#000000" r="4" /><circle cx="306" cy="390" fill="#d820f8" r="4" /><circle cx="318" cy="390" fill="#000000" r="4" /><circle cx="66" cy="402" fill="#380098" r="4" /><circle cx="78" cy="402" fill="#7800e0" r="4" /><circle cx="90" cy="402" fill="#d820f8" r="4" /><circle cx="102" cy="402" fill="#d820f8" r="4" /><circle cx="114" cy="402" fill="#d820f8" r="4" /><circle cx="126" cy="402" fill="#000000" r="4" /><circle cx="234" cy="402" fill="#000000" r="4" /><circle cx="246" cy="402" fill="#7800e0" r="4" /><circle cx="258" cy="402" fill="#d820f8" r="4" /><circle cx="270" cy="402" fill="#d820f8" r="4" /><circle cx="282" cy="402" fill="#d820f8" r="4" /><circle cx="294" cy="402" fill="#7800e0" r="4" /><circle cx="306" cy="402" fill="#d820f8" r="4" /><circle cx="318" cy="402" fill="#000000" r="4" /></svg>