<?xml version="1.0" encoding="utf-8" ?>
<svg baseProfile="full" height="135" version="1.1" width="855" xmlns="http://www.w3.org/2000/svg" xmlns:ev="http://www.w3.org/2001/xml-events" xmlns:xlink="http://www.w3.org/1999/xlink"><defs /><rect fill="#000000" height="5" rx="1" ry="1" width="5" x="20" y="5" /><rect fill="#000000" height="5" rx="1" ry="1" width="5" x="35" y="5" /><rect fill="#000000" height="5" rx="1" ry="1" width="5" x="50" y="5" /><rect fill="#000000" height="5" rx="1" ry="1" width="5" x="245" y="5" /><rect fill="#000000" height="5" rx="1" ry="1" width="5" x="545" y="5" /><rect fill="#000000" height="5" rx="1" ry="1" width="5" x="605" y="5" /><rect fill="#000000" height="5" rx="1" ry="1" width="5" x="845" y="5" /><rect fill="#000000" height="5" rx="1" ry="1" width="5" x="5" y="20" /><rect fill="#000000" height="5" rx="1" ry="1" width="5" x="65" y="20" /><rect fill="#000000" height="5" rx="1" ry="1" width="5" x="245" y="20" /><rect fill="#000000" height="5" rx="1" ry="1" width="5" x="545" y="20" /><rect fill="#000000" height="5" rx="1" ry="1" width="5" x="560" y="20" /><rect fill="#000000" height="5" rx="1" ry="1" width="5" x="605" y="20" /><rect fill="#000000" height="5" rx="1" ry="1" width="5" x="845" y="20" /><rect fill="#000000" height="5" rx="1" ry="1" width="5" x="5" y="35" /><rect fill="#000000" height="5" rx="1" ry="1" width="5" x="65" y="35" /><rect fill="#000000" height="5" rx="1" ry="1" width="5" x="245" y="35" /><rect fill="#000000" height="5" rx="1" ry="1" width="5" x="545" y="35" /><rect fill="#000000" height="5" rx="1" ry="1" width="5" x="560" y="35" /><rect fill="#000000" height="5" rx="1" ry="1" width="5" x="605" y="35" /><rect fill="#000000" height="5" rx="1" ry="1" width="5" x="845" y="35" /><rect fill="#000000" height="5" rx="1" ry="1" width="5" x="5" y="50" /><rect fill="#000000" height="5" rx="1" ry="1" width="5" x="65" y="50" /><rect fill="#000000" height="5" rx="1" ry="1" width="5" x="95" y="50" /><rect fill="#000000" height="5" rx="1" ry="1" width="5" x="125" y="50" /><rect fill="#000000" height="5" rx="1" ry="1" width="5" x="140" y="50" /><rect fill="#000000" height="5" rx="1" ry="1" width="5" x="200" y="50" /><rect fill="#000000" height="5" rx="1" ry="1" width="5" x="215" y="50" /><rect fill="#000000" height="5" rx="1" ry="1" width="5" x="230" y="50" /><rect fill="#000000" height="5" rx="1" ry="1" width="5" x="245" y="50" /><rect fill="#000000" height="5" rx="1" ry="1" width="5" x="290" y="50" /><rect fill="#000000" height="5" rx="1" ry="1" width="5" x="305" y="50" /><rect fill="#000000" height="5" rx="1" ry="1" width="5" x="320" y="50" /><rect fill="#000000" height="5" rx="1" ry="1" width="5" x="365" y="50" /><rect fill="#000000" height="5" rx="1" ry="1" width="5" x="395" y="50" /><rect fill="#000000" height="5" rx="1" ry="1" width="5" x="410" y="50" /><rect fill="#000000" height="5" rx="1" ry="1" width="5" x="545" y="50" /><rect fill="#000000" height="5" rx="1" ry="1" width="5" x="575" y="50" /><rect fill="#000000" height="5" rx="1" ry="1" width="5" x="605" y="50" /><rect fill="#000000" height="5" rx="1" ry="1" width="5" x="650" y="50" /><rect fill="#000000" height="5" rx="1" ry="1" width="5" x="665" y="50" /><rect fill="#000000" height="5" rx="1" ry="1" width="5" x="680" y="50" /><rect fill="#000000" height="5" rx="1" ry="1" width="5" x="725" y="50" /><rect fill="#000000" height="5" rx="1" ry="1" width="5" x="785" y="50" /><rect fill="#000000" height="5" rx="1" ry="1" width="5" x="845" y="50" /><rect fill="#000000" height="5" rx="1" ry="1" width="5" x="5" y="65" /><rect fill="#000000" height="5" rx="1" ry="1" width="5" x="65" y="65" /><rect fill="#000000" height="5" rx="1" ry="1" width="5" x="95" y="65" /><rect fill="#000000" height="5" rx="1" ry="1" width="5" x="110" y="65" /><rect fill="#000000" height="5" rx="1" ry="1" width="5" x="155" y="65" /><rect fill="#000000" height="5" rx="1" ry="1" width="5" x="185" y="65" /><rect fill="#000000" height="5" rx="1" ry="1" width="5" x="245" y="65" /><rect fill="#000000" height="5" rx="1" ry="1" width="5" x="275" y="65" /><rect fill="#000000" height="5" rx="1" ry="1" width="5" x="335" y="65" /><rect fill="#000000" height="5" rx="1" ry="1" width="5" x="365" y="65" /><rect fill="#000000" height="5" rx="1" ry="1" width="5" x="380" y="65" /><rect fill="#000000" height="5" rx="1" ry="1" width="5" x="425" y="65" /><rect fill="#000000" height="5" rx="1" ry="1" width="5" x="545" y="65" /><rect fill="#000000" height="5" rx="1" ry="1" width="5" x="575" y="65" /><rect fill="#000000" height="5" rx="1" ry="1" width="5" x="605" y="65" /><rect fill="#000000" height="5" rx="1" ry="1" width="5" x="635" y="65" /><rect fill="#000000" height="5" rx="1" ry="1" width="5" x="695" y="65" /><rect fill="#000000" height="5" rx="1" ry="1" width="5" x="725" y="65" /><rect fill="#000000" height="5" rx="1" ry="1" width="5" x="785" y="65" /><rect fill="#000000" height="5" rx="1" ry="1" width="5" x="845" y="65" /><rect fill="#000000" height="5" rx="1" ry="1" width="5" x="5" y="80" /><rect fill="#000000" height="5" rx="1" ry="1" width="5" x="65" y="80" /><rect fill="#000000" height="5" rx="1" ry="1" width="5" x="95" y="80" /><rect fill="#000000" height="5" rx="1" ry="1" width="5" x="185" y="80" /><rect fill="#000000" height="5" rx="1" ry="1" width="5" x="245" y="80" /><rect fill="#000000" height="5" rx="1" ry="1" width="5" x="275" y="80" /><rect fill="#000000" height="5" rx="1" ry="1" width="5" x="290" y="80" /><rect fill="#000000" height="5" rx="1" ry="1" width="5" x="305" y="80" /><rect fill="#000000" height="5" rx="1" ry="1" width="5" x="320" y="80" /><rect fill="#000000" height="5" rx="1" ry="1" width="5" x="335" y="80" /><rect fill="#000000" height="5" rx="1" ry="1" width="5" x="365" y="80" /><rect fill="#000000" height="5" rx="1" ry="1" width="5" x="545" y="80" /><rect fill="#000000" height="5" rx="1" ry="1" width="5" x="590" y="80" /><rect fill="#000000" height="5" rx="1" ry="1" width="5" x="605" y="80" /><rect fill="#000000" height="5" rx="1" ry="1" width="5" x="635" y="80" /><rect fill="#000000" height="5" rx="1" ry="1" width="5" x="695" y="80" /><rect fill="#000000" height="5" rx="1" ry="1" width="5" x="725" y="80" /><rect fill="#000000" height="5" rx="1" ry="1" width="5" x="755" y="80" /><rect fill="#000000" height="5" rx="1" ry="1" width="5" x="785" y="80" /><rect fill="#000000" height="5" rx="1" ry="1" width="5" x="845" y="80" /><rect fill="#000000" height="5" rx="1" ry="1" width="5" x="5" y="95" /><rect fill="#000000" height="5" rx="1" ry="1" width="5" x="65" y="95" /><rect fill="#000000" height="5" rx="1" ry="1" width="5" x="95" y="95" /><rect fill="#000000" height="5" rx="1" ry="1" width="5" x="185" y="95" /><rect fill="#000000" height="5" rx="1" ry="1" width="5" x="245" y="95" /><rect fill="#000000" height="5" rx="1" ry="1" width="5" x="275" y="95" /><rect fill="#000000" height="5" rx="1" ry="1" width="5" x="365" y="95" /><rect fill="#000000" height="5" rx="1" ry="1" width="5" x="545" y="95" /><rect fill="#000000" height="5" rx="1" ry="1" width="5" x="590" y="95" /><rect fill="#000000" height="5" rx="1" ry="1" width="5" x="605" y="95" /><rect fill="#000000" height="5" rx="1" ry="1" width="5" x="635" y="95" /><rect fill="#000000" height="5" rx="1" ry="1" width="5" x="695" y="95" /><rect fill="#000000" height="5" rx="1" ry="1" width="5" x="725" y="95" /><rect fill="#000000" height="5" rx="1" ry="1" width="5" x="755" y="95" /><rect fill="#000000" height="5" rx="1" ry="1" width="5" x="785" y="95" /><rect fill="#000000" height="5" rx="1" ry="1" width="5" x="845" y="95" /><rect fill="#000000" height="5" rx="1" ry="1" width="5" x="5" y="110" /><rect fill="#000000" height="5" rx="1" ry="1" width="5" x="65" y="110" /><rect fill="#000000" height="5" rx="1" ry="1" width="5" x="95" y="110" /><rect fill="#000000" height="5" rx="1" ry="1" width="5" x="185" y="110" /><rect fill="#000000" height="5" rx="1" ry="1" width="5" x="245" y="110" /><rect fill="#000000" height="5" rx="1" ry="1" width="5" x="275" y="110" /><rect fill="#000000" height="5" rx="1" ry="1" width="5" x="335" y="110" /><rect fill="#000000" height="5" rx="1" ry="1" width="5" x="365" y="110" /><rect fill="#000000" height="5" rx="1" ry="1" width="5" x="545" y="110" /><rect fill="#000000" height="5" rx="1" ry="1" width="5" x="605" y="110" /><rect fill="#000000" height="5" rx="1" ry="1" width="5" x="635" y="110" /><rect fill="#000000" height="5" rx="1" ry="1" width="5" x="695" y="110" /><rect fill="#000000" height="5" rx="1" ry="1" width="5" x="725" y="110" /><rect fill="#000000" height="5" rx="1" ry="1" width="5" x="755" y="110" /><rect fill="#000000" height="5" rx="1" ry="1" width="5" x="785" y="110" /><rect fill="#000000" height="5" rx="1" ry="1" width="5" x="20" y="125" /><rect fill="#000000" height="5" rx="1" ry="1" width="5" x="35" y="125" /><rect fill="#000000" height="5" rx="1" ry="1" width="5" x="50" y="125" /><rect fill="#000000" height="5" rx="1" ry="1" width="5" x="95" y="125" /><rect fill="#000000" height="5" rx="1" ry="1" width="5" x="200" y="125" /><rect fill="#000000" height="5" rx="1" ry="1" width="5" x="215" y="125" /><rect fill="#000000" height="5" rx="1" ry="1" width="5" x="230" y="125" /><rect fill="#000000" height="5" rx="1" ry="1" width="5" x="245" y="125" /><rect fill="#000000" height="5" rx="1" ry="1" width="5" x="290" y="125" /><rect fill="#000000" height="5" rx="1" ry="1" width="5" x="305" y="125" /><rect fill="#000000" height="5" rx="1" ry="1" width="5" x="320" y="125" /><rect fill="#000000" height="5" rx="1" ry="1" width="5" x="365" y="125" /><rect fill="#000000" height="5" rx="1" ry="1" width="5" x="545" y="125" /><rect fill="#000000" height="5" rx="1" ry="1" width="5" x="605" y="125" /><rect fill="#000000" height="5" rx="1" ry="1" width="5" x="650" y="125" /><rect fill="#000000" height="5" rx="1" ry="1" width="5" x="665" y="125" /><rect fill="#000000" height="5" rx="1" ry="1" width="5" x="680" y="125" /><rect fill="#000000" height="5" rx="1" ry="1" width="5" x="740" y="125" /><rect fill="#000000" height="5" rx="1" ry="1" width="5" x="770" y="125" /><rect fill="#000000" height="5" rx="1" ry="1" width="5" x="845" y="125" /></svg>