<?xml version="1.0" encoding="utf-8" ?>
<svg baseProfile="full" height="108" version="1.1" width="420" xmlns="http://www.w3.org/2000/svg" xmlns:ev="http://www.w3.org/2001/xml-events" xmlns:xlink="http://www.w3.org/1999/xlink"><defs /><circle cx="6" cy="6" fill="#000000" r="4" /><circle cx="18" cy="6" fill="#000000" r="4" /><circle cx="30" cy="6" fill="#000000" r="4" /><circle cx="42" cy="6" fill="#000000" r="4" /><circle cx="150" cy="6" fill="#000000" r="4" /><circle cx="198" cy="6" fill="#000000" r="4" /><circle cx="6" cy="18" fill="#000000" r="4" /><circle cx="54" cy="18" fill="#000000" r="4" /><circle cx="150" cy="18" fill="#000000" r="4" /><circle cx="198" cy="18" fill="#000000" r="4" /><circle cx="6" cy="30" fill="#000000" r="4" /><circle cx="54" cy="30" fill="#000000" r="4" /><circle cx="150" cy="30" fill="#000000" r="4" /><circle cx="198" cy="30" fill="#000000" r="4" /><circle cx="6" cy="42" fill="#000000" r="4" /><circle cx="54" cy="42" fill="#000000" r="4" /><circle cx="78" cy="42" fill="#000000" r="4" /><circle cx="126" cy="42" fill="#000000" r="4" /><circle cx="150" cy="42" fill="#000000" r="4" /><circle cx="198" cy="42" fill="#000000" r="4" /><circle cx="234" cy="42" fill="#000000" r="4" /><circle cx="246" cy="42" fill="#000000" r="4" /><circle cx="258" cy="42" fill="#000000" r="4" /><circle cx="306" cy="42" fill="#000000" r="4" /><circle cx="318" cy="42" fill="#000000" r="4" /><circle cx="330" cy="42" fill="#000000" r="4" /><circle cx="366" cy="42" fill="#000000" r="4" /><circle cx="390" cy="42" fill="#000000" r="4" /><circle cx="402" cy="42" fill="#000000" r="4" /><circle cx="6" cy="54" fill="#000000" r="4" /><circle cx="18" cy="54" fill="#000000" r="4" /><circle cx="30" cy="54" fill="#000000" r="4" /><circle cx="42" cy="54" fill="#000000" r="4" /><circle cx="90" cy="54" fill="#000000" r="4" /><circle cx="114" cy="54" fill="#000000" r="4" /><circle cx="150" cy="54" fill="#000000" r="4" /><circle cx="174" cy="54" fill="#000000" r="4" /><circle cx="198" cy="54" fill="#000000" r="4" /><circle cx="222" cy="54" fill="#000000" r="4" /><circle cx="270" cy="54" fill="#000000" r="4" /><circle cx="342" cy="54" fill="#000000" r="4" /><circle cx="366" cy="54" fill="#000000" r="4" /><circle cx="378" cy="54" fill="#000000" r="4" /><circle cx="414" cy="54" fill="#000000" r="4" /><circle cx="6" cy="66" fill="#000000" r="4" /><circle cx="102" cy="66" fill="#000000" r="4" /><circle cx="150" cy="66" fill="#000000" r="4" /><circle cx="174" cy="66" fill="#000000" r="4" /><circle cx="198" cy="66" fill="#000000" r="4" /><circle cx="222" cy="66" fill="#000000" r="4" /><circle cx="234" cy="66" fill="#000000" r="4" /><circle cx="246" cy="66" fill="#000000" r="4" /><circle cx="258" cy="66" fill="#000000" r="4" /><circle cx="270" cy="66" fill="#000000" r="4" /><circle cx="306" cy="66" fill="#000000" r="4" /><circle cx="318" cy="66" fill="#000000" r="4" /><circle cx="330" cy="66" fill="#000000" r="4" /><circle cx="342" cy="66" fill="#000000" r="4" /><circle cx="366" cy="66" fill="#000000" r="4" /><circle cx="6" cy="78" fill="#000000" r="4" /><circle cx="102" cy="78" fill="#000000" r="4" /><circle cx="150" cy="78" fill="#000000" r="4" /><circle cx="174" cy="78" fill="#000000" r="4" /><circle cx="198" cy="78" fill="#000000" r="4" /><circle cx="222" cy="78" fill="#000000" r="4" /><circle cx="294" cy="78" fill="#000000" r="4" /><circle cx="342" cy="78" fill="#000000" r="4" /><circle cx="366" cy="78" fill="#000000" r="4" /><circle cx="6" cy="90" fill="#000000" r="4" /><circle cx="90" cy="90" fill="#000000" r="4" /><circle cx="114" cy="90" fill="#000000" r="4" /><circle cx="150" cy="90" fill="#000000" r="4" /><circle cx="174" cy="90" fill="#000000" r="4" /><circle cx="198" cy="90" fill="#000000" r="4" /><circle cx="222" cy="90" fill="#000000" r="4" /><circle cx="270" cy="90" fill="#000000" r="4" /><circle cx="294" cy="90" fill="#000000" r="4" /><circle cx="330" cy="90" fill="#000000" r="4" /><circle cx="342" cy="90" fill="#000000" r="4" /><circle cx="366" cy="90" fill="#000000" r="4" /><circle cx="6" cy="102" fill="#000000" r="4" /><circle cx="78" cy="102" fill="#000000" r="4" /><circle cx="126" cy="102" fill="#000000" r="4" /><circle cx="162" cy="102" fill="#000000" r="4" /><circle cx="186" cy="102" fill="#000000" r="4" /><circle cx="234" cy="102" fill="#000000" r="4" /><circle cx="246" cy="102" fill="#000000" r="4" /><circle cx="258" cy="102" fill="#000000" r="4" /><circle cx="306" cy="102" fill="#000000" r="4" /><circle cx="318" cy="102" fill="#000000" r="4" /><circle cx="342" cy="102" fill="#000000" r="4" /><circle cx="366" cy="102" fill="#000000" r="4" /></svg>