<?xml version="1.0" encoding="utf-8" ?>
<svg baseProfile="full" height="108" version="1.1" width="420" xmlns="http://www.w3.org/2000/svg" xmlns:ev="http://www.w3.org/2001/xml-events" xmlns:xlink="http://www.w3.org/1999/xlink"><defs /><rect fill="#000000" height="9" rx="2" ry="2" width="9" x="2" y="2" /><rect fill="#000000" height="9" rx="2" ry="2" width="9" x="14" y="2" /><rect fill="#000000" height="9" rx="2" ry="2" width="9" x="26" y="2" /><rect fill="#000000" height="9" rx="2" ry="2" width="9" x="38" y="2" /><rect fill="#000000" height="9" rx="2" ry="2" width="9" x="146" y="2" /><rect fill="#000000" height="9" rx="2" ry="2" width="9" x="194" y="2" /><rect fill="#000000" height="9" rx="2" ry="2" width="9" x="2" y="14" /><rect fill="#000000" height="9" rx="2" ry="2" width="9" x="50" y="14" /><rect fill="#000000" height="9" rx="2" ry="2" width="9" x="146" y="14" /><rect fill="#000000" height="9" rx="2" ry="2" width="9" x="194" y="14" /><rect fill="#000000" height="9" rx="2" ry="2" width="9" x="2" y="26" /><rect fill="#000000" height="9" rx="2" ry="2" width="9" x="50" y="26" /><rect fill="#000000" height="9" rx="2" ry="2" width="9" x="146" y="26" /><rect fill="#000000" height="9" rx="2" ry="2" width="9" x="194" y="26" /><rect fill="#000000" height="9" rx="2" ry="2" width="9" x="2" y="38" /><rect fill="#000000" height="9" rx="2" ry="2" width="9" x="50" y="38" /><rect fill="#000000" height="9" rx="2" ry="2" width="9" x="74" y="38" /><rect fill="#000000" height="9" rx="2" ry="2" width="9" x="122" y="38" /><rect fill="#000000" height="9" rx="2" ry="2" width="9" x="146" y="38" /><rect fill="#000000" height="9" rx="2" ry="2" width="9" x="194" y="38" /><rect fill="#000000" height="9" rx="2" ry="2" width="9" x="230" y="38" /><rect fill="#000000" height="9" rx="2" ry="2" width="9" x="242" y="38" /><rect fill="#000000" height="9" rx="2" ry="2" width="9" x="254" y="38" /><rect fill="#000000" height="9" rx="2" ry="2" width="9" x="302" y="38" /><rect fill="#000000" height="9" rx="2" ry="2" width="9" x="314" y="38" /><rect fill="#000000" height="9" rx="2" ry="2" width="9" x="326" y="38" /><rect fill="#000000" height="9" rx="2" ry="2" width="9" x="362" y="38" /><rect fill="#000000" height="9" rx="2" ry="2" width="9" x="386" y="38" /><rect fill="#000000" height="9" rx="2" ry="2" width="9" x="398" y="38" /><rect fill="#000000" height="9" rx="2" ry="2" width="9" x="2" y="50" /><rect fill="#000000" height="9" rx="2" ry="2" width="9" x="14" y="50" /><rect fill="#000000" height="9" rx="2" ry="2" width="9" x="26" y="50" /><rect fill="#000000" height="9" rx="2" ry="2" width="9" x="38" y="50" /><rect fill="#000000" height="9" rx="2" ry="2" width="9" x="86" y="50" /><rect fill="#000000" height="9" rx="2" ry="2" width="9" x="110" y="50" /><rect fill="#000000" height="9" rx="2" ry="2" width="9" x="146" y="50" /><rect fill="#000000" height="9" rx="2" ry="2" width="9" x="170" y="50" /><rect fill="#000000" height="9" rx="2" ry="2" width="9" x="194" y="50" /><rect fill="#000000" height="9" rx="2" ry="2" width="9" x="218" y="50" /><rect fill="#000000" height="9" rx="2" ry="2" width="9" x="266" y="50" /><rect fill="#000000" height="9" rx="2" ry="2" width="9" x="338" y="50" /><rect fill="#000000" height="9" rx="2" ry="2" width="9" x="362" y="50" /><rect fill="#000000" height="9" rx="2" ry="2" width="9" x="374" y="50" /><rect fill="#000000" height="9" rx="2" ry="2" width="9" x="410" y="50" /><rect fill="#000000" height="9" rx="2" ry="2" width="9" x="2" y="62" /><rect fill="#000000" height="9" rx="2" ry="2" width="9" x="98" y="62" /><rect fill="#000000" height="9" rx="2" ry="2" width="9" x="146" y="62" /><rect fill="#000000" height="9" rx="2" ry="2" width="9" x="170" y="62" /><rect fill="#000000" height="9" rx="2" ry="2" width="9" x="194" y="62" /><rect fill="#000000" height="9" rx="2" ry="2" width="9" x="218" y="62" /><rect fill="#000000" height="9" rx="2" ry="2" width="9" x="230" y="62" /><rect fill="#000000" height="9" rx="2" ry="2" width="9" x="242" y="62" /><rect fill="#000000" height="9" rx="2" ry="2" width="9" x="254" y="62" /><rect fill="#000000" height="9" rx="2" ry="2" width="9" x="266" y="62" /><rect fill="#000000" height="9" rx="2" ry="2" width="9" x="302" y="62" /><rect fill="#000000" height="9" rx="2" ry="2" width="9" x="314" y="62" /><rect fill="#000000" height="9" rx="2" ry="2" width="9" x="326" y="62" /><rect fill="#000000" height="9" rx="2" ry="2" width="9" x="338" y="62" /><rect fill="#000000" height="9" rx="2" ry="2" width="9" x="362" y="62" /><rect fill="#000000" height="9" rx="2" ry="2" width="9" x="2" y="74" /><rect fill="#000000" height="9" rx="2" ry="2" width="9" x="98" y="74" /><rect fill="#000000" height="9" rx="2" ry="2" width="9" x="146" y="74" /><rect fill="#000000" height="9" rx="2" ry="2" width="9" x="170" y="74" /><rect fill="#000000" height="9" rx="2" ry="2" width="9" x="194" y="74" /><rect fill="#000000" height="9" rx="2" ry="2" width="9" x="218" y="74" /><rect fill="#000000" height="9" rx="2" ry="2" width="9" x="290" y="74" /><rect fill="#000000" height="9" rx="2" ry="2" width="9" x="338" y="74" /><rect fill="#000000" height="9" rx="2" ry="2" width="9" x="362" y="74" /><rect fill="#000000" height="9" rx="2" ry="2" width="9" x="2" y="86" /><rect fill="#000000" height="9" rx="2" ry="2" width="9" x="86" y="86" /><rect fill="#000000" height="9" rx="2" ry="2" width="9" x="110" y="86" /><rect fill="#000000" height="9" rx="2" ry="2" width="9" x="146" y="86" /><rect fill="#000000" height="9" rx="2" ry="2" width="9" x="170" y="86" /><rect fill="#000000" height="9" rx="2" ry="2" width="9" x="194" y="86" /><rect fill="#000000" height="9" rx="2" ry="2" width="9" x="218" y="86" /><rect fill="#000000" height="9" rx="2" ry="2" width="9" x="266" y="86" /><rect fill="#000000" height="9" rx="2" ry="2" width="9" x="290" y="86" /><rect fill="#000000" height="9" rx="2" ry="2" width="9" x="326" y="86" /><rect fill="#000000" height="9" rx="2" ry="2" width="9" x="338" y="86" /><rect fill="#000000" height="9" rx="2" ry="2" width="9" x="362" y="86" /><rect fill="#000000" height="9" rx="2" ry="2" width="9" x="2" y="98" /><rect fill="#000000" height="9" rx="2" ry="2" width="9" x="74" y="98" /><rect fill="#000000" height="9" rx="2" ry="2" width="9" x="122" y="98" /><rect fill="#000000" height="9" rx="2" ry="2" width="9" x="158" y="98" /><rect fill="#000000" height="9" rx="2" ry="2" width="9" x="182" y="98" /><rect fill="#000000" height="9" rx="2" ry="2" width="9" x="230" y="98" /><rect fill="#000000" height="9" rx="2" ry="2" width="9" x="242" y="98" /><rect fill="#000000" height="9" rx="2" ry="2" width="9" x="254" y="98" /><rect fill="#000000" height="9" rx="2" ry="2" width="9" x="302" y="98" /><rect fill="#000000" height="9" rx="2" ry="2" width="9" x="314" y="98" /><rect fill="#000000" height="9" rx="2" ry="2" width="9" x="338" y="98" /><rect fill="#000000" height="9" rx="2" ry="2" width="9" x="362" y="98" /></svg>