<?xml version="1.0" encoding="utf-8" ?>
<svg baseProfile="full" height="540" version="1.1" width="555" xmlns="http://www.w3.org/2000/svg" xmlns:ev="http://www.w3.org/2001/xml-events" xmlns:xlink="http://www.w3.org/1999/xlink"><defs /><circle cx="217" cy="7" fill="#6f3f07" r="2" /><circle cx="232" cy="7" fill="#000000" r="2" /><circle cx="247" cy="7" fill="#000000" r="2" /><circle cx="262" cy="7" fill="#000000" r="2" /><circle cx="277" cy="7" fill="#6f3f07" r="2" /><circle cx="187" cy="22" fill="#6f3f07" r="2" /><circle cx="202" cy="22" fill="#000000" r="2" /><circle cx="217" cy="22" fill="#ffffff" r="2" /><circle cx="232" cy="22" fill="#ffffff" r="2" /><circle cx="247" cy="22" fill="#ffffff" r="2" /><circle cx="262" cy="22" fill="#ff6fcf" r="2" /><circle cx="277" cy="22" fill="#ff6fcf" r="2" /><circle cx="292" cy="22" fill="#000000" r="2" /><circle cx="307" cy="22" fill="#6f3f07" r="2" /><circle cx="172" cy="37" fill="#000000" r="2" /><circle cx="187" cy="37" fill="#ffffff" r="2" /><circle cx="202" cy="37" fill="#ffffff" r="2" /><circle cx="217" cy="37" fill="#ffffff" r="2" /><circle cx="232" cy="37" fill="#ffffff" r="2" /><circle cx="247" cy="37" fill="#ffffff" r="2" /><circle cx="262" cy="37" fill="#ff6fcf" r="2" /><circle cx="277" cy="37" fill="#ff6fcf" r="2" /><circle cx="292" cy="37" fill="#ff6fcf" r="2" /><circle cx="307" cy="37" fill="#ff6fcf" r="2" /><circle cx="322" cy="37" fill="#000000" r="2" /><circle cx="67" cy="52" fill="#6f3f07" r="2" /><circle cx="82" cy="52" fill="#000000" r="2" /><circle cx="97" cy="52" fill="#000000" r="2" /><circle cx="112" cy="52" fill="#000000" r="2" /><circle cx="127" cy="52" fill="#000000" r="2" /><circle cx="157" cy="52" fill="#6f3f07" r="2" /><circle cx="172" cy="52" fill="#ffffff" r="2" /><circle cx="187" cy="52" fill="#ffffff" r="2" /><circle cx="202" cy="52" fill="#ffffff" r="2" /><circle cx="217" cy="52" fill="#ffffff" r="2" /><circle cx="232" cy="52" fill="#ffffff" r="2" /><circle cx="247" cy="52" fill="#ff6fcf" r="2" /><circle cx="262" cy="52" fill="#ff6fcf" r="2" /><circle cx="277" cy="52" fill="#ff6fcf" r="2" /><circle cx="292" cy="52" fill="#ff6fcf" r="2" /><circle cx="307" cy="52" fill="#ff6fcf" r="2" /><circle cx="322" cy="52" fill="#ff6fcf" r="2" /><circle cx="337" cy="52" fill="#6f3f07" r="2" /><circle cx="397" cy="52" fill="#6f3f07" r="2" /><circle cx="412" cy="52" fill="#000000" r="2" /><circle cx="427" cy="52" fill="#000000" r="2" /><circle cx="442" cy="52" fill="#000000" r="2" /><circle cx="457" cy="52" fill="#000000" r="2" /><circle cx="472" cy="52" fill="#000000" r="2" /><circle cx="487" cy="52" fill="#000000" r="2" /><circle cx="52" cy="67" fill="#6f3f07" r="2" /><circle cx="67" cy="67" fill="#6f3f07" r="2" /><circle cx="82" cy="67" fill="#6f3f07" r="2" /><circle cx="97" cy="67" fill="#6f3f07" r="2" /><circle cx="112" cy="67" fill="#6f3f07" r="2" /><circle cx="127" cy="67" fill="#6f3f07" r="2" /><circle cx="142" cy="67" fill="#000000" r="2" /><circle cx="157" cy="67" fill="#000000" r="2" /><circle cx="172" cy="67" fill="#ffffff" r="2" /><circle cx="187" cy="67" fill="#ffffff" r="2" /><circle cx="202" cy="67" fill="#ffffff" r="2" /><circle cx="217" cy="67" fill="#ff6fcf" r="2" /><circle cx="232" cy="67" fill="#ff6fcf" r="2" /><circle cx="247" cy="67" fill="#ff6fcf" r="2" /><circle cx="262" cy="67" fill="#ff6fcf" r="2" /><circle cx="277" cy="67" fill="#ff6fcf" r="2" /><circle cx="292" cy="67" fill="#ff6fcf" r="2" /><circle cx="307" cy="67" fill="#ff6fcf" r="2" /><circle cx="322" cy="67" fill="#ff6fcf" r="2" /><circle cx="337" cy="67" fill="#000000" r="2" /><circle cx="352" cy="67" fill="#000000" r="2" /><circle cx="367" cy="67" fill="#000000" r="2" /><circle cx="382" cy="67" fill="#000000" r="2" /><circle cx="397" cy="67" fill="#ffffff" r="2" /><circle cx="412" cy="67" fill="#ffffff" r="2" /><circle cx="427" cy="67" fill="#ff6fcf" r="2" /><circle cx="442" cy="67" fill="#6f3f07" r="2" /><circle cx="457" cy="67" fill="#6f3f07" r="2" /><circle cx="472" cy="67" fill="#6f3f07" r="2" /><circle cx="487" cy="67" fill="#6f3f07" r="2" /><circle cx="502" cy="67" fill="#000000" r="2" /><circle cx="52" cy="82" fill="#000000" r="2" /><circle cx="67" cy="82" fill="#6f3f07" r="2" /><circle cx="82" cy="82" fill="#6f3f07" r="2" /><circle cx="97" cy="82" fill="#6f3f07" r="2" /><circle cx="112" cy="82" fill="#6f3f07" r="2" /><circle cx="127" cy="82" fill="#6f3f07" r="2" /><circle cx="142" cy="82" fill="#000000" r="2" /><circle cx="157" cy="82" fill="#ff6fcf" r="2" /><circle cx="172" cy="82" fill="#ff6fcf" r="2" /><circle cx="187" cy="82" fill="#ffffff" r="2" /><circle cx="202" cy="82" fill="#ff6fcf" r="2" /><circle cx="217" cy="82" fill="#ff6fcf" r="2" /><circle cx="232" cy="82" fill="#000000" r="2" /><circle cx="247" cy="82" fill="#6f3f07" r="2" /><circle cx="262" cy="82" fill="#ff6fcf" r="2" /><circle cx="277" cy="82" fill="#ff6fcf" r="2" /><circle cx="292" cy="82" fill="#ff6fcf" r="2" /><circle cx="307" cy="82" fill="#ff6fcf" r="2" /><circle cx="322" cy="82" fill="#6f3f07" r="2" /><circle cx="337" cy="82" fill="#ff6fcf" r="2" /><circle cx="352" cy="82" fill="#ffffff" r="2" /><circle cx="367" cy="82" fill="#ffffff" r="2" /><circle cx="382" cy="82" fill="#ffffff" r="2" /><circle cx="397" cy="82" fill="#ffffff" r="2" /><circle cx="412" cy="82" fill="#ff6fcf" r="2" /><circle cx="427" cy="82" fill="#6f3f07" r="2" /><circle cx="442" cy="82" fill="#6f3f07" r="2" /><circle cx="457" cy="82" fill="#6f3f07" r="2" /><circle cx="472" cy="82" fill="#6f3f07" r="2" /><circle cx="487" cy="82" fill="#000000" r="2" /><circle cx="502" cy="82" fill="#000000" r="2" /><circle cx="52" cy="97" fill="#000000" r="2" /><circle cx="67" cy="97" fill="#6f3f07" r="2" /><circle cx="82" cy="97" fill="#6f3f07" r="2" /><circle cx="97" cy="97" fill="#6f3f07" r="2" /><circle cx="112" cy="97" fill="#6f3f07" r="2" /><circle cx="127" cy="97" fill="#ff6fcf" r="2" /><circle cx="142" cy="97" fill="#000000" r="2" /><circle cx="157" cy="97" fill="#ff6fcf" r="2" /><circle cx="172" cy="97" fill="#ff6fcf" r="2" /><circle cx="187" cy="97" fill="#ff6fcf" r="2" /><circle cx="202" cy="97" fill="#ff6fcf" r="2" /><circle cx="217" cy="97" fill="#ff6fcf" r="2" /><circle cx="232" cy="97" fill="#ff6fcf" r="2" /><circle cx="247" cy="97" fill="#ff6fcf" r="2" /><circle cx="262" cy="97" fill="#6f3f07" r="2" /><circle cx="277" cy="97" fill="#ff6fcf" r="2" /><circle cx="292" cy="97" fill="#ff6fcf" r="2" /><circle cx="307" cy="97" fill="#ff6fcf" r="2" /><circle cx="322" cy="97" fill="#ff6fcf" r="2" /><circle cx="337" cy="97" fill="#ff6fcf" r="2" /><circle cx="352" cy="97" fill="#ffffff" r="2" /><circle cx="367" cy="97" fill="#ffffff" r="2" /><circle cx="382" cy="97" fill="#ff6fcf" r="2" /><circle cx="397" cy="97" fill="#ff6fcf" r="2" /><circle cx="412" cy="97" fill="#6f3f07" r="2" /><circle cx="427" cy="97" fill="#6f3f07" r="2" /><circle cx="442" cy="97" fill="#6f3f07" r="2" /><circle cx="457" cy="97" fill="#6f3f07" r="2" /><circle cx="472" cy="97" fill="#000000" r="2" /><circle cx="487" cy="97" fill="#000000" r="2" /><circle cx="502" cy="97" fill="#000000" r="2" /><circle cx="67" cy="112" fill="#000000" r="2" /><circle cx="82" cy="112" fill="#6f3f07" r="2" /><circle cx="97" cy="112" fill="#6f3f07" r="2" /><circle cx="112" cy="112" fill="#ff6fcf" r="2" /><circle cx="127" cy="112" fill="#ff6fcf" r="2" /><circle cx="142" cy="112" fill="#000000" r="2" /><circle cx="157" cy="112" fill="#ff6fcf" r="2" /><circle cx="172" cy="112" fill="#ff6fcf" r="2" /><circle cx="187" cy="112" fill="#ff6fcf" r="2" /><circle cx="202" cy="112" fill="#ff6fcf" r="2" /><circle cx="217" cy="112" fill="#ff6fcf" r="2" /><circle cx="232" cy="112" fill="#ff6fcf" r="2" /><circle cx="247" cy="112" fill="#ff6fcf" r="2" /><circle cx="262" cy="112" fill="#000000" r="2" /><circle cx="277" cy="112" fill="#ff6fcf" r="2" /><circle cx="292" cy="112" fill="#ff6fcf" r="2" /><circle cx="307" cy="112" fill="#ff6fcf" r="2" /><circle cx="322" cy="112" fill="#ff6fcf" r="2" /><circle cx="337" cy="112" fill="#ff6fcf" r="2" /><circle cx="352" cy="112" fill="#ff6fcf" r="2" /><circle cx="367" cy="112" fill="#ff6fcf" r="2" /><circle cx="382" cy="112" fill="#ff6fcf" r="2" /><circle cx="397" cy="112" fill="#ff6fcf" r="2" /><circle cx="412" cy="112" fill="#6f3f07" r="2" /><circle cx="427" cy="112" fill="#6f3f07" r="2" /><circle cx="442" cy="112" fill="#6f3f07" r="2" /><circle cx="457" cy="112" fill="#000000" r="2" /><circle cx="472" cy="112" fill="#000000" r="2" /><circle cx="487" cy="112" fill="#000000" r="2" /><circle cx="502" cy="112" fill="#000000" r="2" /><circle cx="67" cy="127" fill="#000000" r="2" /><circle cx="82" cy="127" fill="#6f3f07" r="2" /><circle cx="97" cy="127" fill="#ff6fcf" r="2" /><circle cx="112" cy="127" fill="#ff6fcf" r="2" /><circle cx="127" cy="127" fill="#ff6fcf" r="2" /><circle cx="142" cy="127" fill="#6f3f07" r="2" /><circle cx="157" cy="127" fill="#000000" r="2" /><circle cx="172" cy="127" fill="#ff6fcf" r="2" /><circle cx="187" cy="127" fill="#ff6fcf" r="2" /><circle cx="202" cy="127" fill="#ff6fcf" r="2" /><circle cx="217" cy="127" fill="#ff6fcf" r="2" /><circle cx="232" cy="127" fill="#ff6fcf" r="2" /><circle cx="247" cy="127" fill="#ff6fcf" r="2" /><circle cx="262" cy="127" fill="#000000" r="2" /><circle cx="277" cy="127" fill="#ff6fcf" r="2" /><circle cx="292" cy="127" fill="#ff6fcf" r="2" /><circle cx="307" cy="127" fill="#ff6fcf" r="2" /><circle cx="322" cy="127" fill="#ff6fcf" r="2" /><circle cx="337" cy="127" fill="#ff6fcf" r="2" /><circle cx="352" cy="127" fill="#ff6fcf" r="2" /><circle cx="367" cy="127" fill="#ff6fcf" r="2" /><circle cx="382" cy="127" fill="#ff6fcf" r="2" /><circle cx="397" cy="127" fill="#6f3f07" r="2" /><circle cx="412" cy="127" fill="#6f3f07" r="2" /><circle cx="427" cy="127" fill="#6f3f07" r="2" /><circle cx="442" cy="127" fill="#000000" r="2" /><circle cx="457" cy="127" fill="#000000" r="2" /><circle cx="472" cy="127" fill="#000000" r="2" /><circle cx="487" cy="127" fill="#000000" r="2" /><circle cx="67" cy="142" fill="#6f3f07" r="2" /><circle cx="82" cy="142" fill="#6f3f07" r="2" /><circle cx="97" cy="142" fill="#ff6fcf" r="2" /><circle cx="112" cy="142" fill="#ff6fcf" r="2" /><circle cx="127" cy="142" fill="#6f3f07" r="2" /><circle cx="142" cy="142" fill="#ffffff" r="2" /><circle cx="157" cy="142" fill="#ffffff" r="2" /><circle cx="172" cy="142" fill="#000000" r="2" /><circle cx="187" cy="142" fill="#ff6fcf" r="2" /><circle cx="202" cy="142" fill="#ff6fcf" r="2" /><circle cx="217" cy="142" fill="#ff6fcf" r="2" /><circle cx="232" cy="142" fill="#ff6fcf" r="2" /><circle cx="247" cy="142" fill="#000000" r="2" /><circle cx="262" cy="142" fill="#ff6fcf" r="2" /><circle cx="277" cy="142" fill="#ff6fcf" r="2" /><circle cx="292" cy="142" fill="#ff6fcf" r="2" /><circle cx="307" cy="142" fill="#ff6fcf" r="2" /><circle cx="322" cy="142" fill="#ff6fcf" r="2" /><circle cx="337" cy="142" fill="#ff6fcf" r="2" /><circle cx="352" cy="142" fill="#ff6fcf" r="2" /><circle cx="367" cy="142" fill="#ff6fcf" r="2" /><circle cx="382" cy="142" fill="#ff6fcf" r="2" /><circle cx="397" cy="142" fill="#6f3f07" r="2" /><circle cx="412" cy="142" fill="#6f3f07" r="2" /><circle cx="427" cy="142" fill="#000000" r="2" /><circle cx="442" cy="142" fill="#000000" r="2" /><circle cx="457" cy="142" fill="#000000" r="2" /><circle cx="472" cy="142" fill="#000000" r="2" /><circle cx="487" cy="142" fill="#000000" r="2" /><circle cx="82" cy="157" fill="#000000" r="2" /><circle cx="97" cy="157" fill="#ff6fcf" r="2" /><circle cx="112" cy="157" fill="#6f3f07" r="2" /><circle cx="127" cy="157" fill="#ffffff" r="2" /><circle cx="142" cy="157" fill="#ffffff" r="2" /><circle cx="157" cy="157" fill="#ffffff" r="2" /><circle cx="172" cy="157" fill="#ffffff" r="2" /><circle cx="187" cy="157" fill="#000000" r="2" /><circle cx="202" cy="157" fill="#000000" r="2" /><circle cx="217" cy="157" fill="#000000" r="2" /><circle cx="232" cy="157" fill="#000000" r="2" /><circle cx="247" cy="157" fill="#ff6fcf" r="2" /><circle cx="262" cy="157" fill="#ff6fcf" r="2" /><circle cx="277" cy="157" fill="#ff6fcf" r="2" /><circle cx="292" cy="157" fill="#ff6fcf" r="2" /><circle cx="307" cy="157" fill="#ff6fcf" r="2" /><circle cx="322" cy="157" fill="#ff6fcf" r="2" /><circle cx="337" cy="157" fill="#ff6fcf" r="2" /><circle cx="352" cy="157" fill="#ff6fcf" r="2" /><circle cx="367" cy="157" fill="#ff6fcf" r="2" /><circle cx="382" cy="157" fill="#ff6fcf" r="2" /><circle cx="397" cy="157" fill="#6f3f07" r="2" /><circle cx="412" cy="157" fill="#000000" r="2" /><circle cx="427" cy="157" fill="#000000" r="2" /><circle cx="442" cy="157" fill="#000000" r="2" /><circle cx="457" cy="157" fill="#000000" r="2" /><circle cx="472" cy="157" fill="#000000" r="2" /><circle cx="37" cy="172" fill="#6f3f07" r="2" /><circle cx="82" cy="172" fill="#6f3f07" r="2" /><circle cx="97" cy="172" fill="#ff6fcf" r="2" /><circle cx="112" cy="172" fill="#6f3f07" r="2" /><circle cx="127" cy="172" fill="#ffffff" r="2" /><circle cx="142" cy="172" fill="#ffffff" r="2" /><circle cx="157" cy="172" fill="#ffffff" r="2" /><circle cx="172" cy="172" fill="#ffffff" r="2" /><circle cx="187" cy="172" fill="#ff6fcf" r="2" /><circle cx="202" cy="172" fill="#ff6fcf" r="2" /><circle cx="217" cy="172" fill="#ff6fcf" r="2" /><circle cx="232" cy="172" fill="#ff6fcf" r="2" /><circle cx="247" cy="172" fill="#ff6fcf" r="2" /><circle cx="262" cy="172" fill="#ff6fcf" r="2" /><circle cx="277" cy="172" fill="#ff6fcf" r="2" /><circle cx="292" cy="172" fill="#ff6fcf" r="2" /><circle cx="307" cy="172" fill="#ff6fcf" r="2" /><circle cx="322" cy="172" fill="#ff6fcf" r="2" /><circle cx="337" cy="172" fill="#ff6fcf" r="2" /><circle cx="352" cy="172" fill="#ff6fcf" r="2" /><circle cx="367" cy="172" fill="#ff6fcf" r="2" /><circle cx="382" cy="172" fill="#6f3f07" r="2" /><circle cx="397" cy="172" fill="#000000" r="2" /><circle cx="412" cy="172" fill="#000000" r="2" /><circle cx="427" cy="172" fill="#000000" r="2" /><circle cx="442" cy="172" fill="#000000" r="2" /><circle cx="457" cy="172" fill="#000000" r="2" /><circle cx="472" cy="172" fill="#000000" r="2" /><circle cx="22" cy="187" fill="#6f3f07" r="2" /><circle cx="37" cy="187" fill="#ffffff" r="2" /><circle cx="52" cy="187" fill="#6f3f07" r="2" /><circle cx="97" cy="187" fill="#6f3f07" r="2" /><circle cx="112" cy="187" fill="#ffffff" r="2" /><circle cx="127" cy="187" fill="#ffffff" r="2" /><circle cx="142" cy="187" fill="#ffffff" r="2" /><circle cx="157" cy="187" fill="#ffffff" r="2" /><circle cx="172" cy="187" fill="#000000" r="2" /><circle cx="187" cy="187" fill="#ff6fcf" r="2" /><circle cx="202" cy="187" fill="#ff6fcf" r="2" /><circle cx="217" cy="187" fill="#ff6fcf" r="2" /><circle cx="232" cy="187" fill="#000000" r="2" /><circle cx="247" cy="187" fill="#ff6fcf" r="2" /><circle cx="262" cy="187" fill="#ff6fcf" r="2" /><circle cx="277" cy="187" fill="#ff6fcf" r="2" /><circle cx="292" cy="187" fill="#ff6fcf" r="2" /><circle cx="307" cy="187" fill="#ff6fcf" r="2" /><circle cx="322" cy="187" fill="#ff6fcf" r="2" /><circle cx="337" cy="187" fill="#ff6fcf" r="2" /><circle cx="352" cy="187" fill="#ff6fcf" r="2" /><circle cx="367" cy="187" fill="#ff6fcf" r="2" /><circle cx="382" cy="187" fill="#000000" r="2" /><circle cx="397" cy="187" fill="#ff6fcf" r="2" /><circle cx="412" cy="187" fill="#ff6fcf" r="2" /><circle cx="427" cy="187" fill="#000000" r="2" /><circle cx="442" cy="187" fill="#000000" r="2" /><circle cx="457" cy="187" fill="#000000" r="2" /><circle cx="502" cy="187" fill="#000000" r="2" /><circle cx="517" cy="187" fill="#000000" r="2" /><circle cx="532" cy="187" fill="#6f3f07" r="2" /><circle cx="22" cy="202" fill="#000000" r="2" /><circle cx="37" cy="202" fill="#ff6fcf" r="2" /><circle cx="52" cy="202" fill="#000000" r="2" /><circle cx="97" cy="202" fill="#000000" r="2" /><circle cx="112" cy="202" fill="#ffffff" r="2" /><circle cx="127" cy="202" fill="#ffffff" r="2" /><circle cx="142" cy="202" fill="#6f3f07" r="2" /><circle cx="157" cy="202" fill="#ffffff" r="2" /><circle cx="172" cy="202" fill="#000000" r="2" /><circle cx="187" cy="202" fill="#ff6fcf" r="2" /><circle cx="202" cy="202" fill="#ff6fcf" r="2" /><circle cx="217" cy="202" fill="#ff6fcf" r="2" /><circle cx="232" cy="202" fill="#000000" r="2" /><circle cx="247" cy="202" fill="#ff6fcf" r="2" /><circle cx="262" cy="202" fill="#6f3f07" r="2" /><circle cx="277" cy="202" fill="#ff6fcf" r="2" /><circle cx="292" cy="202" fill="#ff6fcf" r="2" /><circle cx="307" cy="202" fill="#ff6fcf" r="2" /><circle cx="322" cy="202" fill="#ff6fcf" r="2" /><circle cx="337" cy="202" fill="#ff6fcf" r="2" /><circle cx="352" cy="202" fill="#ff6fcf" r="2" /><circle cx="367" cy="202" fill="#ff6fcf" r="2" /><circle cx="382" cy="202" fill="#ff6fcf" r="2" /><circle cx="397" cy="202" fill="#ff6fcf" r="2" /><circle cx="412" cy="202" fill="#ff6fcf" r="2" /><circle cx="427" cy="202" fill="#ff6fcf" r="2" /><circle cx="442" cy="202" fill="#000000" r="2" /><circle cx="457" cy="202" fill="#000000" r="2" /><circle cx="472" cy="202" fill="#000000" r="2" /><circle cx="487" cy="202" fill="#000000" r="2" /><circle cx="502" cy="202" fill="#ffffff" r="2" /><circle cx="517" cy="202" fill="#ffffff" r="2" /><circle cx="532" cy="202" fill="#ffffff" r="2" /><circle cx="547" cy="202" fill="#000000" r="2" /><circle cx="22" cy="217" fill="#000000" r="2" /><circle cx="37" cy="217" fill="#6f3f07" r="2" /><circle cx="52" cy="217" fill="#ffffff" r="2" /><circle cx="67" cy="217" fill="#000000" r="2" /><circle cx="82" cy="217" fill="#000000" r="2" /><circle cx="97" cy="217" fill="#ff6fcf" r="2" /><circle cx="112" cy="217" fill="#ff6fcf" r="2" /><circle cx="127" cy="217" fill="#ffffff" r="2" /><circle cx="142" cy="217" fill="#6f3f07" r="2" /><circle cx="157" cy="217" fill="#ff6fcf" r="2" /><circle cx="172" cy="217" fill="#000000" r="2" /><circle cx="187" cy="217" fill="#ff6fcf" r="2" /><circle cx="202" cy="217" fill="#ff6fcf" r="2" /><circle cx="217" cy="217" fill="#ff6fcf" r="2" /><circle cx="232" cy="217" fill="#000000" r="2" /><circle cx="247" cy="217" fill="#ff6fcf" r="2" /><circle cx="262" cy="217" fill="#6f3f07" r="2" /><circle cx="277" cy="217" fill="#ff6fcf" r="2" /><circle cx="292" cy="217" fill="#ff6fcf" r="2" /><circle cx="307" cy="217" fill="#ff6fcf" r="2" /><circle cx="322" cy="217" fill="#ff6fcf" r="2" /><circle cx="337" cy="217" fill="#ff6fcf" r="2" /><circle cx="352" cy="217" fill="#ff6fcf" r="2" /><circle cx="367" cy="217" fill="#ff6fcf" r="2" /><circle cx="382" cy="217" fill="#ff6fcf" r="2" /><circle cx="397" cy="217" fill="#ff6fcf" r="2" /><circle cx="412" cy="217" fill="#ff6fcf" r="2" /><circle cx="427" cy="217" fill="#ff6fcf" r="2" /><circle cx="442" cy="217" fill="#000000" r="2" /><circle cx="457" cy="217" fill="#ff6fcf" r="2" /><circle cx="472" cy="217" fill="#ff6fcf" r="2" /><circle cx="487" cy="217" fill="#ffffff" r="2" /><circle cx="502" cy="217" fill="#ff6fcf" r="2" /><circle cx="517" cy="217" fill="#ffffff" r="2" /><circle cx="532" cy="217" fill="#ff6fcf" r="2" /><circle cx="547" cy="217" fill="#000000" r="2" /><circle cx="7" cy="232" fill="#6f3f07" r="2" /><circle cx="22" cy="232" fill="#ff6fcf" r="2" /><circle cx="37" cy="232" fill="#ffffff" r="2" /><circle cx="52" cy="232" fill="#6f3f07" r="2" /><circle cx="67" cy="232" fill="#ff6fcf" r="2" /><circle cx="82" cy="232" fill="#000000" r="2" /><circle cx="97" cy="232" fill="#6f3f07" r="2" /><circle cx="112" cy="232" fill="#ff6fcf" r="2" /><circle cx="127" cy="232" fill="#ff6fcf" r="2" /><circle cx="142" cy="232" fill="#ff6fcf" r="2" /><circle cx="157" cy="232" fill="#6f3f07" r="2" /><circle cx="172" cy="232" fill="#ff6fcf" r="2" /><circle cx="187" cy="232" fill="#ff6fcf" r="2" /><circle cx="202" cy="232" fill="#ff6fcf" r="2" /><circle cx="217" cy="232" fill="#ff6fcf" r="2" /><circle cx="232" cy="232" fill="#ff6fcf" r="2" /><circle cx="247" cy="232" fill="#6f3f07" r="2" /><circle cx="262" cy="232" fill="#ff6fcf" r="2" /><circle cx="277" cy="232" fill="#ff6fcf" r="2" /><circle cx="292" cy="232" fill="#ff6fcf" r="2" /><circle cx="307" cy="232" fill="#ff6fcf" r="2" /><circle cx="322" cy="232" fill="#ff6fcf" r="2" /><circle cx="337" cy="232" fill="#ff6fcf" r="2" /><circle cx="352" cy="232" fill="#ff6fcf" r="2" /><circle cx="367" cy="232" fill="#ff6fcf" r="2" /><circle cx="382" cy="232" fill="#ff6fcf" r="2" /><circle cx="397" cy="232" fill="#ff6fcf" r="2" /><circle cx="412" cy="232" fill="#ff6fcf" r="2" /><circle cx="427" cy="232" fill="#ff6fcf" r="2" /><circle cx="442" cy="232" fill="#ff6fcf" r="2" /><circle cx="457" cy="232" fill="#6f3f07" r="2" /><circle cx="472" cy="232" fill="#ff6fcf" r="2" /><circle cx="487" cy="232" fill="#ff6fcf" r="2" /><circle cx="502" cy="232" fill="#ff6fcf" r="2" /><circle cx="517" cy="232" fill="#000000" r="2" /><circle cx="532" cy="232" fill="#000000" r="2" /><circle cx="7" cy="247" fill="#000000" r="2" /><circle cx="22" cy="247" fill="#ff6fcf" r="2" /><circle cx="37" cy="247" fill="#ffffff" r="2" /><circle cx="52" cy="247" fill="#6f3f07" r="2" /><circle cx="67" cy="247" fill="#ff6fcf" r="2" /><circle cx="82" cy="247" fill="#ff6fcf" r="2" /><circle cx="97" cy="247" fill="#ff6fcf" r="2" /><circle cx="112" cy="247" fill="#ff6fcf" r="2" /><circle cx="127" cy="247" fill="#ff6fcf" r="2" /><circle cx="142" cy="247" fill="#ff6fcf" r="2" /><circle cx="157" cy="247" fill="#ff6fcf" r="2" /><circle cx="172" cy="247" fill="#ff6fcf" r="2" /><circle cx="187" cy="247" fill="#000000" r="2" /><circle cx="202" cy="247" fill="#000000" r="2" /><circle cx="217" cy="247" fill="#000000" r="2" /><circle cx="232" cy="247" fill="#ff6fcf" r="2" /><circle cx="247" cy="247" fill="#ff6fcf" r="2" /><circle cx="262" cy="247" fill="#ff6fcf" r="2" /><circle cx="277" cy="247" fill="#ff6fcf" r="2" /><circle cx="292" cy="247" fill="#ff6fcf" r="2" /><circle cx="307" cy="247" fill="#ff6fcf" r="2" /><circle cx="322" cy="247" fill="#ff6fcf" r="2" /><circle cx="337" cy="247" fill="#ff6fcf" r="2" /><circle cx="352" cy="247" fill="#ff6fcf" r="2" /><circle cx="367" cy="247" fill="#ff6fcf" r="2" /><circle cx="382" cy="247" fill="#ffffff" r="2" /><circle cx="397" cy="247" fill="#ff6fcf" r="2" /><circle cx="412" cy="247" fill="#6f3f07" r="2" /><circle cx="427" cy="247" fill="#000000" r="2" /><circle cx="442" cy="247" fill="#ff6fcf" r="2" /><circle cx="457" cy="247" fill="#000000" r="2" /><circle cx="472" cy="247" fill="#ff6fcf" r="2" /><circle cx="487" cy="247" fill="#ff6fcf" r="2" /><circle cx="502" cy="247" fill="#6f3f07" r="2" /><circle cx="7" cy="262" fill="#6f3f07" r="2" /><circle cx="22" cy="262" fill="#000000" r="2" /><circle cx="37" cy="262" fill="#6f3f07" r="2" /><circle cx="52" cy="262" fill="#ff6fcf" r="2" /><circle cx="67" cy="262" fill="#ff6fcf" r="2" /><circle cx="82" cy="262" fill="#ff6fcf" r="2" /><circle cx="97" cy="262" fill="#ff6fcf" r="2" /><circle cx="112" cy="262" fill="#ff6fcf" r="2" /><circle cx="127" cy="262" fill="#ff6fcf" r="2" /><circle cx="142" cy="262" fill="#6f3f07" r="2" /><circle cx="157" cy="262" fill="#6f3f07" r="2" /><circle cx="172" cy="262" fill="#ff6fcf" r="2" /><circle cx="187" cy="262" fill="#6f3f07" r="2" /><circle cx="202" cy="262" fill="#6f3f07" r="2" /><circle cx="217" cy="262" fill="#000000" r="2" /><circle cx="232" cy="262" fill="#ff6fcf" r="2" /><circle cx="247" cy="262" fill="#6f3f07" r="2" /><circle cx="262" cy="262" fill="#6f3f07" r="2" /><circle cx="277" cy="262" fill="#ff6fcf" r="2" /><circle cx="292" cy="262" fill="#ff6fcf" r="2" /><circle cx="307" cy="262" fill="#ff6fcf" r="2" /><circle cx="322" cy="262" fill="#ff6fcf" r="2" /><circle cx="337" cy="262" fill="#ff6fcf" r="2" /><circle cx="352" cy="262" fill="#ff6fcf" r="2" /><circle cx="367" cy="262" fill="#ffffff" r="2" /><circle cx="382" cy="262" fill="#ff6fcf" r="2" /><circle cx="397" cy="262" fill="#ffffff" r="2" /><circle cx="412" cy="262" fill="#ff6fcf" r="2" /><circle cx="427" cy="262" fill="#ffffff" r="2" /><circle cx="442" cy="262" fill="#000000" r="2" /><circle cx="457" cy="262" fill="#000000" r="2" /><circle cx="472" cy="262" fill="#ff6fcf" r="2" /><circle cx="487" cy="262" fill="#ff6fcf" r="2" /><circle cx="502" cy="262" fill="#ff6fcf" r="2" /><circle cx="517" cy="262" fill="#000000" r="2" /><circle cx="22" cy="277" fill="#000000" r="2" /><circle cx="37" cy="277" fill="#ff6fcf" r="2" /><circle cx="52" cy="277" fill="#ff6fcf" r="2" /><circle cx="67" cy="277" fill="#ff6fcf" r="2" /><circle cx="82" cy="277" fill="#ff6fcf" r="2" /><circle cx="97" cy="277" fill="#ff6fcf" r="2" /><circle cx="112" cy="277" fill="#ff6fcf" r="2" /><circle cx="127" cy="277" fill="#ff6fcf" r="2" /><circle cx="142" cy="277" fill="#ff6fcf" r="2" /><circle cx="157" cy="277" fill="#ff6fcf" r="2" /><circle cx="172" cy="277" fill="#ff6fcf" r="2" /><circle cx="187" cy="277" fill="#ff6fcf" r="2" /><circle cx="202" cy="277" fill="#000000" r="2" /><circle cx="217" cy="277" fill="#000000" r="2" /><circle cx="232" cy="277" fill="#ff6fcf" r="2" /><circle cx="247" cy="277" fill="#ff6fcf" r="2" /><circle cx="262" cy="277" fill="#ff6fcf" r="2" /><circle cx="277" cy="277" fill="#ff6fcf" r="2" /><circle cx="292" cy="277" fill="#ff6fcf" r="2" /><circle cx="307" cy="277" fill="#ff6fcf" r="2" /><circle cx="322" cy="277" fill="#ff6fcf" r="2" /><circle cx="337" cy="277" fill="#ff6fcf" r="2" /><circle cx="352" cy="277" fill="#ff6fcf" r="2" /><circle cx="367" cy="277" fill="#ff6fcf" r="2" /><circle cx="382" cy="277" fill="#ffffff" r="2" /><circle cx="397" cy="277" fill="#ff6fcf" r="2" /><circle cx="412" cy="277" fill="#ffffff" r="2" /><circle cx="427" cy="277" fill="#ff6fcf" r="2" /><circle cx="442" cy="277" fill="#ff6fcf" r="2" /><circle cx="457" cy="277" fill="#ff6fcf" r="2" /><circle cx="472" cy="277" fill="#000000" r="2" /><circle cx="487" cy="277" fill="#ff6fcf" r="2" /><circle cx="502" cy="277" fill="#ff6fcf" r="2" /><circle cx="517" cy="277" fill="#000000" r="2" /><circle cx="37" cy="292" fill="#000000" r="2" /><circle cx="52" cy="292" fill="#ff6fcf" r="2" /><circle cx="67" cy="292" fill="#ff6fcf" r="2" /><circle cx="82" cy="292" fill="#ff6fcf" r="2" /><circle cx="97" cy="292" fill="#ff6fcf" r="2" /><circle cx="112" cy="292" fill="#ff6fcf" r="2" /><circle cx="127" cy="292" fill="#ff6fcf" r="2" /><circle cx="142" cy="292" fill="#ff6fcf" r="2" /><circle cx="157" cy="292" fill="#ff6fcf" r="2" /><circle cx="172" cy="292" fill="#ff6fcf" r="2" /><circle cx="187" cy="292" fill="#ff6fcf" r="2" /><circle cx="202" cy="292" fill="#ff6fcf" r="2" /><circle cx="217" cy="292" fill="#ff6fcf" r="2" /><circle cx="232" cy="292" fill="#ff6fcf" r="2" /><circle cx="247" cy="292" fill="#ff6fcf" r="2" /><circle cx="262" cy="292" fill="#ff6fcf" r="2" /><circle cx="277" cy="292" fill="#ff6fcf" r="2" /><circle cx="292" cy="292" fill="#ff6fcf" r="2" /><circle cx="307" cy="292" fill="#ff6fcf" r="2" /><circle cx="322" cy="292" fill="#ff6fcf" r="2" /><circle cx="337" cy="292" fill="#ff6fcf" r="2" /><circle cx="352" cy="292" fill="#ff6fcf" r="2" /><circle cx="367" cy="292" fill="#ff6fcf" r="2" /><circle cx="382" cy="292" fill="#ff6fcf" r="2" /><circle cx="397" cy="292" fill="#ff6fcf" r="2" /><circle cx="412" cy="292" fill="#ff6fcf" r="2" /><circle cx="427" cy="292" fill="#ff6fcf" r="2" /><circle cx="442" cy="292" fill="#ff6fcf" r="2" /><circle cx="457" cy="292" fill="#ff6fcf" r="2" /><circle cx="472" cy="292" fill="#6f3f07" r="2" /><circle cx="487" cy="292" fill="#000000" r="2" /><circle cx="502" cy="292" fill="#000000" r="2" /><circle cx="517" cy="292" fill="#6f3f07" r="2" /><circle cx="52" cy="307" fill="#000000" r="2" /><circle cx="67" cy="307" fill="#ff6fcf" r="2" /><circle cx="82" cy="307" fill="#6f3f07" r="2" /><circle cx="97" cy="307" fill="#ff6fcf" r="2" /><circle cx="112" cy="307" fill="#ff6fcf" r="2" /><circle cx="127" cy="307" fill="#ff6fcf" r="2" /><circle cx="142" cy="307" fill="#ff6fcf" r="2" /><circle cx="157" cy="307" fill="#ff6fcf" r="2" /><circle cx="172" cy="307" fill="#ff6fcf" r="2" /><circle cx="187" cy="307" fill="#ff6fcf" r="2" /><circle cx="202" cy="307" fill="#ff6fcf" r="2" /><circle cx="217" cy="307" fill="#ff6fcf" r="2" /><circle cx="232" cy="307" fill="#ff6fcf" r="2" /><circle cx="247" cy="307" fill="#ff6fcf" r="2" /><circle cx="262" cy="307" fill="#ff6fcf" r="2" /><circle cx="277" cy="307" fill="#ff6fcf" r="2" /><circle cx="292" cy="307" fill="#ff6fcf" r="2" /><circle cx="307" cy="307" fill="#ff6fcf" r="2" /><circle cx="322" cy="307" fill="#ff6fcf" r="2" /><circle cx="337" cy="307" fill="#ff6fcf" r="2" /><circle cx="352" cy="307" fill="#ff6fcf" r="2" /><circle cx="367" cy="307" fill="#ff6fcf" r="2" /><circle cx="382" cy="307" fill="#ff6fcf" r="2" /><circle cx="397" cy="307" fill="#ff6fcf" r="2" /><circle cx="412" cy="307" fill="#ff6fcf" r="2" /><circle cx="427" cy="307" fill="#ff6fcf" r="2" /><circle cx="442" cy="307" fill="#ff6fcf" r="2" /><circle cx="457" cy="307" fill="#6f3f07" r="2" /><circle cx="472" cy="307" fill="#ffffff" r="2" /><circle cx="487" cy="307" fill="#ffffff" r="2" /><circle cx="502" cy="307" fill="#000000" r="2" /><circle cx="517" cy="307" fill="#000000" r="2" /><circle cx="67" cy="322" fill="#000000" r="2" /><circle cx="82" cy="322" fill="#6f3f07" r="2" /><circle cx="97" cy="322" fill="#ff6fcf" r="2" /><circle cx="112" cy="322" fill="#ff6fcf" r="2" /><circle cx="127" cy="322" fill="#ff6fcf" r="2" /><circle cx="142" cy="322" fill="#ff6fcf" r="2" /><circle cx="157" cy="322" fill="#ff6fcf" r="2" /><circle cx="172" cy="322" fill="#ff6fcf" r="2" /><circle cx="187" cy="322" fill="#ff6fcf" r="2" /><circle cx="202" cy="322" fill="#ff6fcf" r="2" /><circle cx="217" cy="322" fill="#ff6fcf" r="2" /><circle cx="232" cy="322" fill="#ff6fcf" r="2" /><circle cx="247" cy="322" fill="#ff6fcf" r="2" /><circle cx="262" cy="322" fill="#ff6fcf" r="2" /><circle cx="277" cy="322" fill="#ff6fcf" r="2" /><circle cx="292" cy="322" fill="#ff6fcf" r="2" /><circle cx="307" cy="322" fill="#ff6fcf" r="2" /><circle cx="322" cy="322" fill="#ff6fcf" r="2" /><circle cx="337" cy="322" fill="#ff6fcf" r="2" /><circle cx="352" cy="322" fill="#ff6fcf" r="2" /><circle cx="367" cy="322" fill="#ff6fcf" r="2" /><circle cx="382" cy="322" fill="#ff6fcf" r="2" /><circle cx="397" cy="322" fill="#ff6fcf" r="2" /><circle cx="412" cy="322" fill="#ff6fcf" r="2" /><circle cx="427" cy="322" fill="#ff6fcf" r="2" /><circle cx="442" cy="322" fill="#ff6fcf" r="2" /><circle cx="457" cy="322" fill="#ff6fcf" r="2" /><circle cx="472" cy="322" fill="#6f3f07" r="2" /><circle cx="487" cy="322" fill="#000000" r="2" /><circle cx="502" cy="322" fill="#ff6fcf" r="2" /><circle cx="517" cy="322" fill="#000000" r="2" /><circle cx="82" cy="337" fill="#000000" r="2" /><circle cx="97" cy="337" fill="#ff6fcf" r="2" /><circle cx="112" cy="337" fill="#ff6fcf" r="2" /><circle cx="127" cy="337" fill="#ff6fcf" r="2" /><circle cx="142" cy="337" fill="#ff6fcf" r="2" /><circle cx="157" cy="337" fill="#ff6fcf" r="2" /><circle cx="172" cy="337" fill="#ff6fcf" r="2" /><circle cx="187" cy="337" fill="#ff6fcf" r="2" /><circle cx="202" cy="337" fill="#ff6fcf" r="2" /><circle cx="217" cy="337" fill="#ff6fcf" r="2" /><circle cx="232" cy="337" fill="#ff6fcf" r="2" /><circle cx="247" cy="337" fill="#ff6fcf" r="2" /><circle cx="262" cy="337" fill="#ff6fcf" r="2" /><circle cx="277" cy="337" fill="#ff6fcf" r="2" /><circle cx="292" cy="337" fill="#ff6fcf" r="2" /><circle cx="307" cy="337" fill="#ff6fcf" r="2" /><circle cx="322" cy="337" fill="#ff6fcf" r="2" /><circle cx="337" cy="337" fill="#ff6fcf" r="2" /><circle cx="352" cy="337" fill="#ff6fcf" r="2" /><circle cx="367" cy="337" fill="#6f3f07" r="2" /><circle cx="382" cy="337" fill="#6f3f07" r="2" /><circle cx="397" cy="337" fill="#000000" r="2" /><circle cx="412" cy="337" fill="#ff6fcf" r="2" /><circle cx="427" cy="337" fill="#ff6fcf" r="2" /><circle cx="442" cy="337" fill="#ff6fcf" r="2" /><circle cx="457" cy="337" fill="#6f3f07" r="2" /><circle cx="472" cy="337" fill="#000000" r="2" /><circle cx="487" cy="337" fill="#ff6fcf" r="2" /><circle cx="502" cy="337" fill="#ff6fcf" r="2" /><circle cx="517" cy="337" fill="#ff6fcf" r="2" /><circle cx="532" cy="337" fill="#6f3f07" r="2" /><circle cx="97" cy="352" fill="#6f3f07" r="2" /><circle cx="112" cy="352" fill="#ff6fcf" r="2" /><circle cx="127" cy="352" fill="#ff6fcf" r="2" /><circle cx="142" cy="352" fill="#ff6fcf" r="2" /><circle cx="157" cy="352" fill="#ff6fcf" r="2" /><circle cx="172" cy="352" fill="#ff6fcf" r="2" /><circle cx="187" cy="352" fill="#ff6fcf" r="2" /><circle cx="202" cy="352" fill="#ff6fcf" r="2" /><circle cx="217" cy="352" fill="#ff6fcf" r="2" /><circle cx="232" cy="352" fill="#ff6fcf" r="2" /><circle cx="247" cy="352" fill="#ff6fcf" r="2" /><circle cx="262" cy="352" fill="#ff6fcf" r="2" /><circle cx="277" cy="352" fill="#ff6fcf" r="2" /><circle cx="292" cy="352" fill="#ff6fcf" r="2" /><circle cx="307" cy="352" fill="#ff6fcf" r="2" /><circle cx="322" cy="352" fill="#ff6fcf" r="2" /><circle cx="337" cy="352" fill="#ff6fcf" r="2" /><circle cx="352" cy="352" fill="#ff6fcf" r="2" /><circle cx="367" cy="352" fill="#ff6fcf" r="2" /><circle cx="382" cy="352" fill="#ff6fcf" r="2" /><circle cx="397" cy="352" fill="#ff6fcf" r="2" /><circle cx="412" cy="352" fill="#000000" r="2" /><circle cx="427" cy="352" fill="#000000" r="2" /><circle cx="442" cy="352" fill="#000000" r="2" /><circle cx="457" cy="352" fill="#ffffff" r="2" /><circle cx="472" cy="352" fill="#000000" r="2" /><circle cx="487" cy="352" fill="#ff6fcf" r="2" /><circle cx="502" cy="352" fill="#ff6fcf" r="2" /><circle cx="517" cy="352" fill="#ff6fcf" r="2" /><circle cx="532" cy="352" fill="#000000" r="2" /><circle cx="97" cy="367" fill="#000000" r="2" /><circle cx="112" cy="367" fill="#ff6fcf" r="2" /><circle cx="127" cy="367" fill="#ff6fcf" r="2" /><circle cx="142" cy="367" fill="#ff6fcf" r="2" /><circle cx="157" cy="367" fill="#ff6fcf" r="2" /><circle cx="172" cy="367" fill="#ff6fcf" r="2" /><circle cx="187" cy="367" fill="#ff6fcf" r="2" /><circle cx="202" cy="367" fill="#ff6fcf" r="2" /><circle cx="217" cy="367" fill="#ff6fcf" r="2" /><circle cx="232" cy="367" fill="#ff6fcf" r="2" /><circle cx="247" cy="367" fill="#ff6fcf" r="2" /><circle cx="262" cy="367" fill="#ff6fcf" r="2" /><circle cx="277" cy="367" fill="#ff6fcf" r="2" /><circle cx="292" cy="367" fill="#ff6fcf" r="2" /><circle cx="307" cy="367" fill="#ff6fcf" r="2" /><circle cx="322" cy="367" fill="#ff6fcf" r="2" /><circle cx="337" cy="367" fill="#ff6fcf" r="2" /><circle cx="352" cy="367" fill="#ff6fcf" r="2" /><circle cx="367" cy="367" fill="#ff6fcf" r="2" /><circle cx="382" cy="367" fill="#ff6fcf" r="2" /><circle cx="397" cy="367" fill="#ff6fcf" r="2" /><circle cx="412" cy="367" fill="#6f3f07" r="2" /><circle cx="427" cy="367" fill="#000000" r="2" /><circle cx="442" cy="367" fill="#ff6fcf" r="2" /><circle cx="457" cy="367" fill="#000000" r="2" /><circle cx="472" cy="367" fill="#ff6fcf" r="2" /><circle cx="487" cy="367" fill="#ff6fcf" r="2" /><circle cx="502" cy="367" fill="#ff6fcf" r="2" /><circle cx="517" cy="367" fill="#ff6fcf" r="2" /><circle cx="532" cy="367" fill="#000000" r="2" /><circle cx="97" cy="382" fill="#000000" r="2" /><circle cx="112" cy="382" fill="#000000" r="2" /><circle cx="127" cy="382" fill="#ff6fcf" r="2" /><circle cx="142" cy="382" fill="#ff6fcf" r="2" /><circle cx="157" cy="382" fill="#ff6fcf" r="2" /><circle cx="172" cy="382" fill="#ff6fcf" r="2" /><circle cx="187" cy="382" fill="#ff6fcf" r="2" /><circle cx="202" cy="382" fill="#ff6fcf" r="2" /><circle cx="217" cy="382" fill="#ff6fcf" r="2" /><circle cx="232" cy="382" fill="#ff6fcf" r="2" /><circle cx="247" cy="382" fill="#ff6fcf" r="2" /><circle cx="262" cy="382" fill="#ff6fcf" r="2" /><circle cx="277" cy="382" fill="#ff6fcf" r="2" /><circle cx="292" cy="382" fill="#ff6fcf" r="2" /><circle cx="307" cy="382" fill="#ff6fcf" r="2" /><circle cx="322" cy="382" fill="#ff6fcf" r="2" /><circle cx="337" cy="382" fill="#ff6fcf" r="2" /><circle cx="352" cy="382" fill="#ff6fcf" r="2" /><circle cx="367" cy="382" fill="#ff6fcf" r="2" /><circle cx="382" cy="382" fill="#ff6fcf" r="2" /><circle cx="397" cy="382" fill="#ff6fcf" r="2" /><circle cx="412" cy="382" fill="#6f3f07" r="2" /><circle cx="427" cy="382" fill="#000000" r="2" /><circle cx="442" cy="382" fill="#ff6fcf" r="2" /><circle cx="457" cy="382" fill="#ff6fcf" r="2" /><circle cx="472" cy="382" fill="#ff6fcf" r="2" /><circle cx="487" cy="382" fill="#ff6fcf" r="2" /><circle cx="502" cy="382" fill="#ff6fcf" r="2" /><circle cx="517" cy="382" fill="#ff6fcf" r="2" /><circle cx="532" cy="382" fill="#6f3f07" r="2" /><circle cx="82" cy="397" fill="#6f3f07" r="2" /><circle cx="97" cy="397" fill="#ffffff" r="2" /><circle cx="112" cy="397" fill="#ffffff" r="2" /><circle cx="127" cy="397" fill="#000000" r="2" /><circle cx="142" cy="397" fill="#000000" r="2" /><circle cx="157" cy="397" fill="#ff6fcf" r="2" /><circle cx="172" cy="397" fill="#ff6fcf" r="2" /><circle cx="187" cy="397" fill="#ff6fcf" r="2" /><circle cx="202" cy="397" fill="#ff6fcf" r="2" /><circle cx="217" cy="397" fill="#ff6fcf" r="2" /><circle cx="232" cy="397" fill="#ff6fcf" r="2" /><circle cx="247" cy="397" fill="#ff6fcf" r="2" /><circle cx="262" cy="397" fill="#ff6fcf" r="2" /><circle cx="277" cy="397" fill="#ff6fcf" r="2" /><circle cx="292" cy="397" fill="#ff6fcf" r="2" /><circle cx="307" cy="397" fill="#ff6fcf" r="2" /><circle cx="322" cy="397" fill="#ff6fcf" r="2" /><circle cx="337" cy="397" fill="#ff6fcf" r="2" /><circle cx="352" cy="397" fill="#ff6fcf" r="2" /><circle cx="367" cy="397" fill="#ff6fcf" r="2" /><circle cx="382" cy="397" fill="#ff6fcf" r="2" /><circle cx="397" cy="397" fill="#6f3f07" r="2" /><circle cx="412" cy="397" fill="#000000" r="2" /><circle cx="427" cy="397" fill="#ff6fcf" r="2" /><circle cx="442" cy="397" fill="#ff6fcf" r="2" /><circle cx="457" cy="397" fill="#6f3f07" r="2" /><circle cx="472" cy="397" fill="#ff6fcf" r="2" /><circle cx="487" cy="397" fill="#ff6fcf" r="2" /><circle cx="502" cy="397" fill="#ff6fcf" r="2" /><circle cx="517" cy="397" fill="#000000" r="2" /><circle cx="67" cy="412" fill="#6f3f07" r="2" /><circle cx="82" cy="412" fill="#ffffff" r="2" /><circle cx="97" cy="412" fill="#ffffff" r="2" /><circle cx="112" cy="412" fill="#6f3f07" r="2" /><circle cx="127" cy="412" fill="#ff6fcf" r="2" /><circle cx="142" cy="412" fill="#ff6fcf" r="2" /><circle cx="157" cy="412" fill="#000000" r="2" /><circle cx="172" cy="412" fill="#ff6fcf" r="2" /><circle cx="187" cy="412" fill="#ff6fcf" r="2" /><circle cx="202" cy="412" fill="#ff6fcf" r="2" /><circle cx="217" cy="412" fill="#ff6fcf" r="2" /><circle cx="232" cy="412" fill="#ff6fcf" r="2" /><circle cx="247" cy="412" fill="#ff6fcf" r="2" /><circle cx="262" cy="412" fill="#ff6fcf" r="2" /><circle cx="277" cy="412" fill="#ff6fcf" r="2" /><circle cx="292" cy="412" fill="#ff6fcf" r="2" /><circle cx="307" cy="412" fill="#ff6fcf" r="2" /><circle cx="322" cy="412" fill="#ff6fcf" r="2" /><circle cx="337" cy="412" fill="#ff6fcf" r="2" /><circle cx="352" cy="412" fill="#ff6fcf" r="2" /><circle cx="367" cy="412" fill="#ff6fcf" r="2" /><circle cx="382" cy="412" fill="#6f3f07" r="2" /><circle cx="397" cy="412" fill="#ff6fcf" r="2" /><circle cx="412" cy="412" fill="#000000" r="2" /><circle cx="427" cy="412" fill="#6f3f07" r="2" /><circle cx="442" cy="412" fill="#6f3f07" r="2" /><circle cx="457" cy="412" fill="#ff6fcf" r="2" /><circle cx="472" cy="412" fill="#ff6fcf" r="2" /><circle cx="487" cy="412" fill="#ff6fcf" r="2" /><circle cx="502" cy="412" fill="#ff6fcf" r="2" /><circle cx="517" cy="412" fill="#6f3f07" r="2" /><circle cx="67" cy="427" fill="#000000" r="2" /><circle cx="82" cy="427" fill="#6f3f07" r="2" /><circle cx="97" cy="427" fill="#ff6fcf" r="2" /><circle cx="112" cy="427" fill="#ff6fcf" r="2" /><circle cx="127" cy="427" fill="#6f3f07" r="2" /><circle cx="142" cy="427" fill="#ff6fcf" r="2" /><circle cx="157" cy="427" fill="#ff6fcf" r="2" /><circle cx="172" cy="427" fill="#000000" r="2" /><circle cx="187" cy="427" fill="#ff6fcf" r="2" /><circle cx="202" cy="427" fill="#ff6fcf" r="2" /><circle cx="217" cy="427" fill="#ff6fcf" r="2" /><circle cx="232" cy="427" fill="#ff6fcf" r="2" /><circle cx="247" cy="427" fill="#ff6fcf" r="2" /><circle cx="262" cy="427" fill="#ff6fcf" r="2" /><circle cx="277" cy="427" fill="#ff6fcf" r="2" /><circle cx="292" cy="427" fill="#ff6fcf" r="2" /><circle cx="307" cy="427" fill="#ff6fcf" r="2" /><circle cx="322" cy="427" fill="#ff6fcf" r="2" /><circle cx="337" cy="427" fill="#ff6fcf" r="2" /><circle cx="352" cy="427" fill="#ff6fcf" r="2" /><circle cx="367" cy="427" fill="#ff6fcf" r="2" /><circle cx="382" cy="427" fill="#ff6fcf" r="2" /><circle cx="397" cy="427" fill="#ff6fcf" r="2" /><circle cx="412" cy="427" fill="#000000" r="2" /><circle cx="427" cy="427" fill="#ff6fcf" r="2" /><circle cx="442" cy="427" fill="#ff6fcf" r="2" /><circle cx="457" cy="427" fill="#ff6fcf" r="2" /><circle cx="472" cy="427" fill="#ff6fcf" r="2" /><circle cx="487" cy="427" fill="#ff6fcf" r="2" /><circle cx="502" cy="427" fill="#000000" r="2" /><circle cx="67" cy="442" fill="#000000" r="2" /><circle cx="82" cy="442" fill="#ff6fcf" r="2" /><circle cx="97" cy="442" fill="#ff6fcf" r="2" /><circle cx="112" cy="442" fill="#6f3f07" r="2" /><circle cx="127" cy="442" fill="#6f3f07" r="2" /><circle cx="142" cy="442" fill="#6f3f07" r="2" /><circle cx="157" cy="442" fill="#ff6fcf" r="2" /><circle cx="172" cy="442" fill="#6f3f07" r="2" /><circle cx="187" cy="442" fill="#ff6fcf" r="2" /><circle cx="202" cy="442" fill="#ff6fcf" r="2" /><circle cx="217" cy="442" fill="#ff6fcf" r="2" /><circle cx="232" cy="442" fill="#ff6fcf" r="2" /><circle cx="247" cy="442" fill="#ff6fcf" r="2" /><circle cx="262" cy="442" fill="#ff6fcf" r="2" /><circle cx="277" cy="442" fill="#ff6fcf" r="2" /><circle cx="292" cy="442" fill="#ff6fcf" r="2" /><circle cx="307" cy="442" fill="#ff6fcf" r="2" /><circle cx="322" cy="442" fill="#ff6fcf" r="2" /><circle cx="337" cy="442" fill="#ff6fcf" r="2" /><circle cx="352" cy="442" fill="#6f3f07" r="2" /><circle cx="367" cy="442" fill="#ff6fcf" r="2" /><circle cx="382" cy="442" fill="#ff6fcf" r="2" /><circle cx="397" cy="442" fill="#000000" r="2" /><circle cx="412" cy="442" fill="#ff6fcf" r="2" /><circle cx="427" cy="442" fill="#ff6fcf" r="2" /><circle cx="442" cy="442" fill="#ff6fcf" r="2" /><circle cx="457" cy="442" fill="#ff6fcf" r="2" /><circle cx="472" cy="442" fill="#ff6fcf" r="2" /><circle cx="487" cy="442" fill="#000000" r="2" /><circle cx="82" cy="457" fill="#000000" r="2" /><circle cx="97" cy="457" fill="#ff6fcf" r="2" /><circle cx="112" cy="457" fill="#ff6fcf" r="2" /><circle cx="127" cy="457" fill="#6f3f07" r="2" /><circle cx="142" cy="457" fill="#6f3f07" r="2" /><circle cx="157" cy="457" fill="#ff6fcf" r="2" /><circle cx="172" cy="457" fill="#ff6fcf" r="2" /><circle cx="187" cy="457" fill="#000000" r="2" /><circle cx="202" cy="457" fill="#6f3f07" r="2" /><circle cx="217" cy="457" fill="#000000" r="2" /><circle cx="232" cy="457" fill="#ff6fcf" r="2" /><circle cx="247" cy="457" fill="#ff6fcf" r="2" /><circle cx="262" cy="457" fill="#ff6fcf" r="2" /><circle cx="277" cy="457" fill="#ff6fcf" r="2" /><circle cx="292" cy="457" fill="#ff6fcf" r="2" /><circle cx="307" cy="457" fill="#6f3f07" r="2" /><circle cx="322" cy="457" fill="#6f3f07" r="2" /><circle cx="337" cy="457" fill="#ff6fcf" r="2" /><circle cx="352" cy="457" fill="#ff6fcf" r="2" /><circle cx="367" cy="457" fill="#ff6fcf" r="2" /><circle cx="382" cy="457" fill="#ff6fcf" r="2" /><circle cx="397" cy="457" fill="#000000" r="2" /><circle cx="412" cy="457" fill="#ff6fcf" r="2" /><circle cx="427" cy="457" fill="#ff6fcf" r="2" /><circle cx="442" cy="457" fill="#ff6fcf" r="2" /><circle cx="457" cy="457" fill="#000000" r="2" /><circle cx="472" cy="457" fill="#6f3f07" r="2" /><circle cx="97" cy="472" fill="#000000" r="2" /><circle cx="112" cy="472" fill="#000000" r="2" /><circle cx="127" cy="472" fill="#ff6fcf" r="2" /><circle cx="142" cy="472" fill="#ff6fcf" r="2" /><circle cx="157" cy="472" fill="#ff6fcf" r="2" /><circle cx="172" cy="472" fill="#000000" r="2" /><circle cx="232" cy="472" fill="#6f3f07" r="2" /><circle cx="247" cy="472" fill="#000000" r="2" /><circle cx="262" cy="472" fill="#000000" r="2" /><circle cx="277" cy="472" fill="#000000" r="2" /><circle cx="292" cy="472" fill="#6f3f07" r="2" /><circle cx="307" cy="472" fill="#ff6fcf" r="2" /><circle cx="322" cy="472" fill="#ff6fcf" r="2" /><circle cx="337" cy="472" fill="#ff6fcf" r="2" /><circle cx="352" cy="472" fill="#ff6fcf" r="2" /><circle cx="367" cy="472" fill="#ff6fcf" r="2" /><circle cx="382" cy="472" fill="#000000" r="2" /><circle cx="412" cy="472" fill="#000000" r="2" /><circle cx="427" cy="472" fill="#000000" r="2" /><circle cx="442" cy="472" fill="#6f3f07" r="2" /><circle cx="127" cy="487" fill="#000000" r="2" /><circle cx="142" cy="487" fill="#000000" r="2" /><circle cx="157" cy="487" fill="#000000" r="2" /><circle cx="262" cy="487" fill="#000000" r="2" /><circle cx="277" cy="487" fill="#ff6fcf" r="2" /><circle cx="292" cy="487" fill="#ff6fcf" r="2" /><circle cx="307" cy="487" fill="#ff6fcf" r="2" /><circle cx="322" cy="487" fill="#ff6fcf" r="2" /><circle cx="337" cy="487" fill="#ff6fcf" r="2" /><circle cx="352" cy="487" fill="#ff6fcf" r="2" /><circle cx="367" cy="487" fill="#000000" r="2" /><circle cx="262" cy="502" fill="#000000" r="2" /><circle cx="277" cy="502" fill="#ff6fcf" r="2" /><circle cx="292" cy="502" fill="#6f3f07" r="2" /><circle cx="307" cy="502" fill="#6f3f07" r="2" /><circle cx="322" cy="502" fill="#ff6fcf" r="2" /><circle cx="337" cy="502" fill="#ff6fcf" r="2" /><circle cx="352" cy="502" fill="#000000" r="2" /><circle cx="277" cy="517" fill="#000000" r="2" /><circle cx="292" cy="517" fill="#ffffff" r="2" /><circle cx="307" cy="517" fill="#ffffff" r="2" /><circle cx="322" cy="517" fill="#6f3f07" r="2" /><circle cx="337" cy="517" fill="#000000" r="2" /><circle cx="292" cy="532" fill="#000000" r="2" /><circle cx="307" cy="532" fill="#000000" r="2" /></svg>