<?xml version="1.0" encoding="utf-8" ?>
<svg baseProfile="full" height="360" version="1.1" width="552" xmlns="http://www.w3.org/2000/svg" xmlns:ev="http://www.w3.org/2001/xml-events" xmlns:xlink="http://www.w3.org/1999/xlink"><defs /><circle cx="246" cy="6" fill="#f87090" r="4" /><circle cx="258" cy="6" fill="#000000" r="4" /><circle cx="270" cy="6" fill="#000000" r="4" /><circle cx="282" cy="6" fill="#000000" r="4" /><circle cx="294" cy="6" fill="#000000" r="4" /><circle cx="306" cy="6" fill="#f87090" r="4" /><circle cx="234" cy="18" fill="#000000" r="4" /><circle cx="246" cy="18" fill="#a04020" r="4" /><circle cx="258" cy="18" fill="#f8f8f8" r="4" /><circle cx="270" cy="18" fill="#f8f8f8" r="4" /><circle cx="282" cy="18" fill="#f8f8f8" r="4" /><circle cx="294" cy="18" fill="#f8f8f8" r="4" /><circle cx="306" cy="18" fill="#a04020" r="4" /><circle cx="318" cy="18" fill="#000000" r="4" /><circle cx="222" cy="30" fill="#000000" r="4" /><circle cx="234" cy="30" fill="#f8f8f8" r="4" /><circle cx="246" cy="30" fill="#f8f8f8" r="4" /><circle cx="258" cy="30" fill="#f8f8f8" r="4" /><circle cx="270" cy="30" fill="#f8f8f8" r="4" /><circle cx="282" cy="30" fill="#f87090" r="4" /><circle cx="294" cy="30" fill="#f87090" r="4" /><circle cx="306" cy="30" fill="#f87090" r="4" /><circle cx="318" cy="30" fill="#f87090" r="4" /><circle cx="330" cy="30" fill="#000000" r="4" /><circle cx="210" cy="42" fill="#f87090" r="4" /><circle cx="222" cy="42" fill="#a04020" r="4" /><circle cx="234" cy="42" fill="#f8f8f8" r="4" /><circle cx="246" cy="42" fill="#f8f8f8" r="4" /><circle cx="258" cy="42" fill="#f8f8f8" r="4" /><circle cx="270" cy="42" fill="#a04020" r="4" /><circle cx="282" cy="42" fill="#000000" r="4" /><circle cx="294" cy="42" fill="#000000" r="4" /><circle cx="306" cy="42" fill="#f87090" r="4" /><circle cx="318" cy="42" fill="#f87090" r="4" /><circle cx="330" cy="42" fill="#f87090" r="4" /><circle cx="342" cy="42" fill="#000000" r="4" /><circle cx="210" cy="54" fill="#000000" r="4" /><circle cx="222" cy="54" fill="#f8f8f8" r="4" /><circle cx="234" cy="54" fill="#f8f8f8" r="4" /><circle cx="246" cy="54" fill="#f8f8f8" r="4" /><circle cx="258" cy="54" fill="#f8f8f8" r="4" /><circle cx="270" cy="54" fill="#f8f8f8" r="4" /><circle cx="282" cy="54" fill="#f8f8f8" r="4" /><circle cx="294" cy="54" fill="#f8f8f8" r="4" /><circle cx="306" cy="54" fill="#000000" r="4" /><circle cx="318" cy="54" fill="#f87090" r="4" /><circle cx="330" cy="54" fill="#f87090" r="4" /><circle cx="342" cy="54" fill="#f87090" r="4" /><circle cx="354" cy="54" fill="#000000" r="4" /><circle cx="90" cy="66" fill="#000000" r="4" /><circle cx="102" cy="66" fill="#000000" r="4" /><circle cx="114" cy="66" fill="#000000" r="4" /><circle cx="126" cy="66" fill="#000000" r="4" /><circle cx="138" cy="66" fill="#000000" r="4" /><circle cx="150" cy="66" fill="#000000" r="4" /><circle cx="162" cy="66" fill="#f87090" r="4" /><circle cx="210" cy="66" fill="#000000" r="4" /><circle cx="222" cy="66" fill="#f8f8f8" r="4" /><circle cx="234" cy="66" fill="#f8f8f8" r="4" /><circle cx="246" cy="66" fill="#f8f8f8" r="4" /><circle cx="258" cy="66" fill="#f8f8f8" r="4" /><circle cx="270" cy="66" fill="#f8f8f8" r="4" /><circle cx="282" cy="66" fill="#f8f8f8" r="4" /><circle cx="294" cy="66" fill="#f8f8f8" r="4" /><circle cx="306" cy="66" fill="#f8f8f8" r="4" /><circle cx="318" cy="66" fill="#000000" r="4" /><circle cx="330" cy="66" fill="#f87090" r="4" /><circle cx="342" cy="66" fill="#f87090" r="4" /><circle cx="354" cy="66" fill="#f87090" r="4" /><circle cx="366" cy="66" fill="#000000" r="4" /><circle cx="390" cy="66" fill="#f87090" r="4" /><circle cx="402" cy="66" fill="#000000" r="4" /><circle cx="414" cy="66" fill="#000000" r="4" /><circle cx="426" cy="66" fill="#000000" r="4" /><circle cx="438" cy="66" fill="#000000" r="4" /><circle cx="450" cy="66" fill="#000000" r="4" /><circle cx="462" cy="66" fill="#000000" r="4" /><circle cx="78" cy="78" fill="#000000" r="4" /><circle cx="90" cy="78" fill="#000000" r="4" /><circle cx="102" cy="78" fill="#a04020" r="4" /><circle cx="114" cy="78" fill="#a04020" r="4" /><circle cx="126" cy="78" fill="#a04020" r="4" /><circle cx="138" cy="78" fill="#f87090" r="4" /><circle cx="150" cy="78" fill="#f87090" r="4" /><circle cx="162" cy="78" fill="#a04020" r="4" /><circle cx="174" cy="78" fill="#000000" r="4" /><circle cx="186" cy="78" fill="#000000" r="4" /><circle cx="198" cy="78" fill="#000000" r="4" /><circle cx="210" cy="78" fill="#000000" r="4" /><circle cx="222" cy="78" fill="#f8f8f8" r="4" /><circle cx="234" cy="78" fill="#f8f8f8" r="4" /><circle cx="246" cy="78" fill="#f8f8f8" r="4" /><circle cx="258" cy="78" fill="#f8f8f8" r="4" /><circle cx="270" cy="78" fill="#f8f8f8" r="4" /><circle cx="282" cy="78" fill="#f8f8f8" r="4" /><circle cx="294" cy="78" fill="#f8f8f8" r="4" /><circle cx="306" cy="78" fill="#f87090" r="4" /><circle cx="318" cy="78" fill="#f87090" r="4" /><circle cx="330" cy="78" fill="#000000" r="4" /><circle cx="342" cy="78" fill="#f87090" r="4" /><circle cx="354" cy="78" fill="#000000" r="4" /><circle cx="366" cy="78" fill="#000000" r="4" /><circle cx="378" cy="78" fill="#000000" r="4" /><circle cx="390" cy="78" fill="#a04020" r="4" /><circle cx="402" cy="78" fill="#f87090" r="4" /><circle cx="414" cy="78" fill="#f87090" r="4" /><circle cx="426" cy="78" fill="#a04020" r="4" /><circle cx="438" cy="78" fill="#a04020" r="4" /><circle cx="450" cy="78" fill="#a04020" r="4" /><circle cx="462" cy="78" fill="#000000" r="4" /><circle cx="474" cy="78" fill="#000000" r="4" /><circle cx="78" cy="90" fill="#000000" r="4" /><circle cx="90" cy="90" fill="#000000" r="4" /><circle cx="102" cy="90" fill="#000000" r="4" /><circle cx="114" cy="90" fill="#a04020" r="4" /><circle cx="126" cy="90" fill="#a04020" r="4" /><circle cx="138" cy="90" fill="#f8f8f8" r="4" /><circle cx="150" cy="90" fill="#f8f8f8" r="4" /><circle cx="162" cy="90" fill="#f8f8f8" r="4" /><circle cx="174" cy="90" fill="#f8f8f8" r="4" /><circle cx="186" cy="90" fill="#f8f8f8" r="4" /><circle cx="198" cy="90" fill="#f8f8f8" r="4" /><circle cx="210" cy="90" fill="#f87090" r="4" /><circle cx="222" cy="90" fill="#a04020" r="4" /><circle cx="234" cy="90" fill="#f8f8f8" r="4" /><circle cx="246" cy="90" fill="#f8f8f8" r="4" /><circle cx="258" cy="90" fill="#f8f8f8" r="4" /><circle cx="270" cy="90" fill="#f87090" r="4" /><circle cx="282" cy="90" fill="#f87090" r="4" /><circle cx="294" cy="90" fill="#f87090" r="4" /><circle cx="306" cy="90" fill="#f87090" r="4" /><circle cx="318" cy="90" fill="#f87090" r="4" /><circle cx="330" cy="90" fill="#000000" r="4" /><circle cx="342" cy="90" fill="#f87090" r="4" /><circle cx="354" cy="90" fill="#f87090" r="4" /><circle cx="366" cy="90" fill="#f87090" r="4" /><circle cx="378" cy="90" fill="#f8f8f8" r="4" /><circle cx="390" cy="90" fill="#f8f8f8" r="4" /><circle cx="402" cy="90" fill="#f8f8f8" r="4" /><circle cx="414" cy="90" fill="#f8f8f8" r="4" /><circle cx="426" cy="90" fill="#a04020" r="4" /><circle cx="438" cy="90" fill="#a04020" r="4" /><circle cx="450" cy="90" fill="#000000" r="4" /><circle cx="462" cy="90" fill="#000000" r="4" /><circle cx="474" cy="90" fill="#000000" r="4" /><circle cx="78" cy="102" fill="#a04020" r="4" /><circle cx="90" cy="102" fill="#000000" r="4" /><circle cx="102" cy="102" fill="#000000" r="4" /><circle cx="114" cy="102" fill="#000000" r="4" /><circle cx="126" cy="102" fill="#a04020" r="4" /><circle cx="138" cy="102" fill="#f8f8f8" r="4" /><circle cx="150" cy="102" fill="#f8f8f8" r="4" /><circle cx="162" cy="102" fill="#f8f8f8" r="4" /><circle cx="174" cy="102" fill="#f8f8f8" r="4" /><circle cx="186" cy="102" fill="#f8f8f8" r="4" /><circle cx="198" cy="102" fill="#f8f8f8" r="4" /><circle cx="210" cy="102" fill="#f8f8f8" r="4" /><circle cx="222" cy="102" fill="#000000" r="4" /><circle cx="234" cy="102" fill="#f8f8f8" r="4" /><circle cx="246" cy="102" fill="#f8f8f8" r="4" /><circle cx="258" cy="102" fill="#f87090" r="4" /><circle cx="270" cy="102" fill="#f87090" r="4" /><circle cx="282" cy="102" fill="#f87090" r="4" /><circle cx="294" cy="102" fill="#f87090" r="4" /><circle cx="306" cy="102" fill="#f87090" r="4" /><circle cx="318" cy="102" fill="#f87090" r="4" /><circle cx="330" cy="102" fill="#000000" r="4" /><circle cx="342" cy="102" fill="#f87090" r="4" /><circle cx="354" cy="102" fill="#f87090" r="4" /><circle cx="366" cy="102" fill="#f87090" r="4" /><circle cx="378" cy="102" fill="#f87090" r="4" /><circle cx="390" cy="102" fill="#f8f8f8" r="4" /><circle cx="402" cy="102" fill="#f8f8f8" r="4" /><circle cx="414" cy="102" fill="#f8f8f8" r="4" /><circle cx="426" cy="102" fill="#a04020" r="4" /><circle cx="438" cy="102" fill="#000000" r="4" /><circle cx="450" cy="102" fill="#000000" r="4" /><circle cx="462" cy="102" fill="#000000" r="4" /><circle cx="474" cy="102" fill="#a04020" r="4" /><circle cx="90" cy="114" fill="#000000" r="4" /><circle cx="102" cy="114" fill="#000000" r="4" /><circle cx="114" cy="114" fill="#000000" r="4" /><circle cx="126" cy="114" fill="#000000" r="4" /><circle cx="138" cy="114" fill="#f87090" r="4" /><circle cx="150" cy="114" fill="#f8f8f8" r="4" /><circle cx="162" cy="114" fill="#f8f8f8" r="4" /><circle cx="174" cy="114" fill="#f8f8f8" r="4" /><circle cx="186" cy="114" fill="#f8f8f8" r="4" /><circle cx="198" cy="114" fill="#f8f8f8" r="4" /><circle cx="210" cy="114" fill="#f8f8f8" r="4" /><circle cx="222" cy="114" fill="#f8f8f8" r="4" /><circle cx="234" cy="114" fill="#000000" r="4" /><circle cx="246" cy="114" fill="#f8f8f8" r="4" /><circle cx="258" cy="114" fill="#f87090" r="4" /><circle cx="270" cy="114" fill="#f87090" r="4" /><circle cx="282" cy="114" fill="#f87090" r="4" /><circle cx="294" cy="114" fill="#f87090" r="4" /><circle cx="306" cy="114" fill="#f87090" r="4" /><circle cx="318" cy="114" fill="#000000" r="4" /><circle cx="330" cy="114" fill="#f87090" r="4" /><circle cx="342" cy="114" fill="#f87090" r="4" /><circle cx="354" cy="114" fill="#f87090" r="4" /><circle cx="366" cy="114" fill="#f87090" r="4" /><circle cx="378" cy="114" fill="#f87090" r="4" /><circle cx="390" cy="114" fill="#f87090" r="4" /><circle cx="402" cy="114" fill="#f8f8f8" r="4" /><circle cx="414" cy="114" fill="#f87090" r="4" /><circle cx="426" cy="114" fill="#000000" r="4" /><circle cx="438" cy="114" fill="#000000" r="4" /><circle cx="450" cy="114" fill="#000000" r="4" /><circle cx="462" cy="114" fill="#000000" r="4" /><circle cx="90" cy="126" fill="#a04020" r="4" /><circle cx="102" cy="126" fill="#000000" r="4" /><circle cx="114" cy="126" fill="#000000" r="4" /><circle cx="126" cy="126" fill="#000000" r="4" /><circle cx="138" cy="126" fill="#000000" r="4" /><circle cx="150" cy="126" fill="#f87090" r="4" /><circle cx="162" cy="126" fill="#f8f8f8" r="4" /><circle cx="174" cy="126" fill="#f8f8f8" r="4" /><circle cx="186" cy="126" fill="#f8f8f8" r="4" /><circle cx="198" cy="126" fill="#f8f8f8" r="4" /><circle cx="210" cy="126" fill="#f8f8f8" r="4" /><circle cx="222" cy="126" fill="#f8f8f8" r="4" /><circle cx="234" cy="126" fill="#f87090" r="4" /><circle cx="246" cy="126" fill="#000000" r="4" /><circle cx="258" cy="126" fill="#000000" r="4" /><circle cx="270" cy="126" fill="#f87090" r="4" /><circle cx="282" cy="126" fill="#f87090" r="4" /><circle cx="294" cy="126" fill="#f87090" r="4" /><circle cx="306" cy="126" fill="#000000" r="4" /><circle cx="318" cy="126" fill="#f87090" r="4" /><circle cx="330" cy="126" fill="#f87090" r="4" /><circle cx="342" cy="126" fill="#f87090" r="4" /><circle cx="354" cy="126" fill="#f87090" r="4" /><circle cx="366" cy="126" fill="#f87090" r="4" /><circle cx="378" cy="126" fill="#f87090" r="4" /><circle cx="390" cy="126" fill="#f87090" r="4" /><circle cx="402" cy="126" fill="#f87090" r="4" /><circle cx="414" cy="126" fill="#000000" r="4" /><circle cx="426" cy="126" fill="#000000" r="4" /><circle cx="438" cy="126" fill="#000000" r="4" /><circle cx="450" cy="126" fill="#000000" r="4" /><circle cx="462" cy="126" fill="#a04020" r="4" /><circle cx="102" cy="138" fill="#000000" r="4" /><circle cx="114" cy="138" fill="#000000" r="4" /><circle cx="126" cy="138" fill="#000000" r="4" /><circle cx="138" cy="138" fill="#000000" r="4" /><circle cx="150" cy="138" fill="#000000" r="4" /><circle cx="162" cy="138" fill="#f8f8f8" r="4" /><circle cx="174" cy="138" fill="#f8f8f8" r="4" /><circle cx="186" cy="138" fill="#f8f8f8" r="4" /><circle cx="198" cy="138" fill="#f8f8f8" r="4" /><circle cx="210" cy="138" fill="#f8f8f8" r="4" /><circle cx="222" cy="138" fill="#f8f8f8" r="4" /><circle cx="234" cy="138" fill="#f8f8f8" r="4" /><circle cx="246" cy="138" fill="#f87090" r="4" /><circle cx="258" cy="138" fill="#f87090" r="4" /><circle cx="270" cy="138" fill="#000000" r="4" /><circle cx="282" cy="138" fill="#000000" r="4" /><circle cx="294" cy="138" fill="#000000" r="4" /><circle cx="306" cy="138" fill="#f87090" r="4" /><circle cx="318" cy="138" fill="#f87090" r="4" /><circle cx="330" cy="138" fill="#f87090" r="4" /><circle cx="342" cy="138" fill="#f87090" r="4" /><circle cx="354" cy="138" fill="#f87090" r="4" /><circle cx="366" cy="138" fill="#f87090" r="4" /><circle cx="378" cy="138" fill="#f87090" r="4" /><circle cx="390" cy="138" fill="#f87090" r="4" /><circle cx="402" cy="138" fill="#000000" r="4" /><circle cx="414" cy="138" fill="#000000" r="4" /><circle cx="426" cy="138" fill="#000000" r="4" /><circle cx="438" cy="138" fill="#000000" r="4" /><circle cx="450" cy="138" fill="#000000" r="4" /><circle cx="102" cy="150" fill="#a04020" r="4" /><circle cx="114" cy="150" fill="#000000" r="4" /><circle cx="126" cy="150" fill="#000000" r="4" /><circle cx="138" cy="150" fill="#000000" r="4" /><circle cx="150" cy="150" fill="#f8f8f8" r="4" /><circle cx="162" cy="150" fill="#f8f8f8" r="4" /><circle cx="174" cy="150" fill="#f8f8f8" r="4" /><circle cx="186" cy="150" fill="#f8f8f8" r="4" /><circle cx="198" cy="150" fill="#f8f8f8" r="4" /><circle cx="210" cy="150" fill="#f8f8f8" r="4" /><circle cx="222" cy="150" fill="#f8f8f8" r="4" /><circle cx="234" cy="150" fill="#000000" r="4" /><circle cx="246" cy="150" fill="#f8f8f8" r="4" /><circle cx="258" cy="150" fill="#f87090" r="4" /><circle cx="270" cy="150" fill="#f87090" r="4" /><circle cx="282" cy="150" fill="#f87090" r="4" /><circle cx="294" cy="150" fill="#f87090" r="4" /><circle cx="306" cy="150" fill="#f87090" r="4" /><circle cx="318" cy="150" fill="#f8f8f8" r="4" /><circle cx="330" cy="150" fill="#000000" r="4" /><circle cx="342" cy="150" fill="#f8f8f8" r="4" /><circle cx="354" cy="150" fill="#f8f8f8" r="4" /><circle cx="366" cy="150" fill="#f87090" r="4" /><circle cx="378" cy="150" fill="#f87090" r="4" /><circle cx="390" cy="150" fill="#f87090" r="4" /><circle cx="402" cy="150" fill="#f87090" r="4" /><circle cx="414" cy="150" fill="#000000" r="4" /><circle cx="426" cy="150" fill="#000000" r="4" /><circle cx="438" cy="150" fill="#000000" r="4" /><circle cx="450" cy="150" fill="#a04020" r="4" /><circle cx="114" cy="162" fill="#000000" r="4" /><circle cx="126" cy="162" fill="#000000" r="4" /><circle cx="138" cy="162" fill="#f8f8f8" r="4" /><circle cx="150" cy="162" fill="#f8f8f8" r="4" /><circle cx="162" cy="162" fill="#f8f8f8" r="4" /><circle cx="174" cy="162" fill="#f8f8f8" r="4" /><circle cx="186" cy="162" fill="#f8f8f8" r="4" /><circle cx="198" cy="162" fill="#f8f8f8" r="4" /><circle cx="210" cy="162" fill="#f8f8f8" r="4" /><circle cx="222" cy="162" fill="#000000" r="4" /><circle cx="234" cy="162" fill="#000000" r="4" /><circle cx="246" cy="162" fill="#f8f8f8" r="4" /><circle cx="258" cy="162" fill="#f8f8f8" r="4" /><circle cx="270" cy="162" fill="#f8f8f8" r="4" /><circle cx="282" cy="162" fill="#f8f8f8" r="4" /><circle cx="294" cy="162" fill="#f8f8f8" r="4" /><circle cx="306" cy="162" fill="#f8f8f8" r="4" /><circle cx="318" cy="162" fill="#000000" r="4" /><circle cx="330" cy="162" fill="#000000" r="4" /><circle cx="342" cy="162" fill="#f8f8f8" r="4" /><circle cx="354" cy="162" fill="#f8f8f8" r="4" /><circle cx="366" cy="162" fill="#f8f8f8" r="4" /><circle cx="378" cy="162" fill="#f87090" r="4" /><circle cx="390" cy="162" fill="#f87090" r="4" /><circle cx="402" cy="162" fill="#f87090" r="4" /><circle cx="414" cy="162" fill="#f87090" r="4" /><circle cx="426" cy="162" fill="#000000" r="4" /><circle cx="438" cy="162" fill="#000000" r="4" /><circle cx="114" cy="174" fill="#000000" r="4" /><circle cx="126" cy="174" fill="#f8f8f8" r="4" /><circle cx="138" cy="174" fill="#f8f8f8" r="4" /><circle cx="150" cy="174" fill="#f8f8f8" r="4" /><circle cx="162" cy="174" fill="#f8f8f8" r="4" /><circle cx="174" cy="174" fill="#f8f8f8" r="4" /><circle cx="186" cy="174" fill="#f8f8f8" r="4" /><circle cx="198" cy="174" fill="#a04020" r="4" /><circle cx="210" cy="174" fill="#f8f8f8" r="4" /><circle cx="222" cy="174" fill="#000000" r="4" /><circle cx="234" cy="174" fill="#000000" r="4" /><circle cx="246" cy="174" fill="#f8f8f8" r="4" /><circle cx="258" cy="174" fill="#f8f8f8" r="4" /><circle cx="270" cy="174" fill="#f8f8f8" r="4" /><circle cx="282" cy="174" fill="#f8f8f8" r="4" /><circle cx="294" cy="174" fill="#f8f8f8" r="4" /><circle cx="306" cy="174" fill="#f8f8f8" r="4" /><circle cx="318" cy="174" fill="#000000" r="4" /><circle cx="330" cy="174" fill="#000000" r="4" /><circle cx="342" cy="174" fill="#f8f8f8" r="4" /><circle cx="354" cy="174" fill="#a04020" r="4" /><circle cx="366" cy="174" fill="#f8f8f8" r="4" /><circle cx="378" cy="174" fill="#f87090" r="4" /><circle cx="390" cy="174" fill="#f87090" r="4" /><circle cx="402" cy="174" fill="#f87090" r="4" /><circle cx="414" cy="174" fill="#f87090" r="4" /><circle cx="426" cy="174" fill="#f87090" r="4" /><circle cx="438" cy="174" fill="#000000" r="4" /><circle cx="102" cy="186" fill="#f87090" r="4" /><circle cx="114" cy="186" fill="#a04020" r="4" /><circle cx="126" cy="186" fill="#f8f8f8" r="4" /><circle cx="138" cy="186" fill="#f8f8f8" r="4" /><circle cx="150" cy="186" fill="#f8f8f8" r="4" /><circle cx="162" cy="186" fill="#f8f8f8" r="4" /><circle cx="174" cy="186" fill="#f8f8f8" r="4" /><circle cx="186" cy="186" fill="#f8f8f8" r="4" /><circle cx="198" cy="186" fill="#000000" r="4" /><circle cx="210" cy="186" fill="#f8f8f8" r="4" /><circle cx="222" cy="186" fill="#f8f8f8" r="4" /><circle cx="234" cy="186" fill="#f8f8f8" r="4" /><circle cx="246" cy="186" fill="#f8f8f8" r="4" /><circle cx="258" cy="186" fill="#f8f8f8" r="4" /><circle cx="270" cy="186" fill="#f8f8f8" r="4" /><circle cx="282" cy="186" fill="#f8f8f8" r="4" /><circle cx="294" cy="186" fill="#f8f8f8" r="4" /><circle cx="306" cy="186" fill="#f8f8f8" r="4" /><circle cx="318" cy="186" fill="#f8f8f8" r="4" /><circle cx="330" cy="186" fill="#f8f8f8" r="4" /><circle cx="342" cy="186" fill="#f8f8f8" r="4" /><circle cx="354" cy="186" fill="#000000" r="4" /><circle cx="366" cy="186" fill="#f87090" r="4" /><circle cx="378" cy="186" fill="#f87090" r="4" /><circle cx="390" cy="186" fill="#f87090" r="4" /><circle cx="402" cy="186" fill="#f87090" r="4" /><circle cx="414" cy="186" fill="#f87090" r="4" /><circle cx="426" cy="186" fill="#f87090" r="4" /><circle cx="438" cy="186" fill="#000000" r="4" /><circle cx="102" cy="198" fill="#a04020" r="4" /><circle cx="114" cy="198" fill="#f87090" r="4" /><circle cx="126" cy="198" fill="#f8f8f8" r="4" /><circle cx="138" cy="198" fill="#f8f8f8" r="4" /><circle cx="150" cy="198" fill="#f8f8f8" r="4" /><circle cx="162" cy="198" fill="#f8f8f8" r="4" /><circle cx="174" cy="198" fill="#f8f8f8" r="4" /><circle cx="186" cy="198" fill="#f8f8f8" r="4" /><circle cx="198" cy="198" fill="#f87090" r="4" /><circle cx="210" cy="198" fill="#a04020" r="4" /><circle cx="222" cy="198" fill="#f8f8f8" r="4" /><circle cx="234" cy="198" fill="#f8f8f8" r="4" /><circle cx="246" cy="198" fill="#f8f8f8" r="4" /><circle cx="258" cy="198" fill="#000000" r="4" /><circle cx="270" cy="198" fill="#000000" r="4" /><circle cx="282" cy="198" fill="#000000" r="4" /><circle cx="294" cy="198" fill="#000000" r="4" /><circle cx="306" cy="198" fill="#f8f8f8" r="4" /><circle cx="318" cy="198" fill="#f8f8f8" r="4" /><circle cx="330" cy="198" fill="#f8f8f8" r="4" /><circle cx="342" cy="198" fill="#a04020" r="4" /><circle cx="354" cy="198" fill="#f87090" r="4" /><circle cx="366" cy="198" fill="#f87090" r="4" /><circle cx="378" cy="198" fill="#f87090" r="4" /><circle cx="390" cy="198" fill="#f87090" r="4" /><circle cx="402" cy="198" fill="#f87090" r="4" /><circle cx="414" cy="198" fill="#f87090" r="4" /><circle cx="426" cy="198" fill="#f87090" r="4" /><circle cx="438" cy="198" fill="#f87090" r="4" /><circle cx="450" cy="198" fill="#000000" r="4" /><circle cx="102" cy="210" fill="#000000" r="4" /><circle cx="114" cy="210" fill="#f8f8f8" r="4" /><circle cx="126" cy="210" fill="#f8f8f8" r="4" /><circle cx="138" cy="210" fill="#f8f8f8" r="4" /><circle cx="150" cy="210" fill="#f8f8f8" r="4" /><circle cx="162" cy="210" fill="#a04020" r="4" /><circle cx="174" cy="210" fill="#a04020" r="4" /><circle cx="186" cy="210" fill="#a04020" r="4" /><circle cx="198" cy="210" fill="#f8f8f8" r="4" /><circle cx="210" cy="210" fill="#f8f8f8" r="4" /><circle cx="222" cy="210" fill="#f8f8f8" r="4" /><circle cx="234" cy="210" fill="#f8f8f8" r="4" /><circle cx="246" cy="210" fill="#f8f8f8" r="4" /><circle cx="258" cy="210" fill="#000000" r="4" /><circle cx="270" cy="210" fill="#f87090" r="4" /><circle cx="282" cy="210" fill="#f87090" r="4" /><circle cx="294" cy="210" fill="#000000" r="4" /><circle cx="306" cy="210" fill="#f8f8f8" r="4" /><circle cx="318" cy="210" fill="#f8f8f8" r="4" /><circle cx="330" cy="210" fill="#f8f8f8" r="4" /><circle cx="342" cy="210" fill="#f8f8f8" r="4" /><circle cx="354" cy="210" fill="#f8f8f8" r="4" /><circle cx="366" cy="210" fill="#000000" r="4" /><circle cx="378" cy="210" fill="#000000" r="4" /><circle cx="390" cy="210" fill="#000000" r="4" /><circle cx="402" cy="210" fill="#f87090" r="4" /><circle cx="414" cy="210" fill="#f87090" r="4" /><circle cx="426" cy="210" fill="#f87090" r="4" /><circle cx="438" cy="210" fill="#f87090" r="4" /><circle cx="450" cy="210" fill="#000000" r="4" /><circle cx="102" cy="222" fill="#000000" r="4" /><circle cx="114" cy="222" fill="#f8f8f8" r="4" /><circle cx="126" cy="222" fill="#f8f8f8" r="4" /><circle cx="138" cy="222" fill="#f8f8f8" r="4" /><circle cx="150" cy="222" fill="#f8f8f8" r="4" /><circle cx="162" cy="222" fill="#f8f8f8" r="4" /><circle cx="174" cy="222" fill="#f8f8f8" r="4" /><circle cx="186" cy="222" fill="#f8f8f8" r="4" /><circle cx="198" cy="222" fill="#f8f8f8" r="4" /><circle cx="210" cy="222" fill="#f8f8f8" r="4" /><circle cx="222" cy="222" fill="#f8f8f8" r="4" /><circle cx="234" cy="222" fill="#f8f8f8" r="4" /><circle cx="246" cy="222" fill="#f8f8f8" r="4" /><circle cx="258" cy="222" fill="#000000" r="4" /><circle cx="270" cy="222" fill="#f87090" r="4" /><circle cx="282" cy="222" fill="#f87090" r="4" /><circle cx="294" cy="222" fill="#000000" r="4" /><circle cx="306" cy="222" fill="#f8f8f8" r="4" /><circle cx="318" cy="222" fill="#f8f8f8" r="4" /><circle cx="330" cy="222" fill="#f8f8f8" r="4" /><circle cx="342" cy="222" fill="#f8f8f8" r="4" /><circle cx="354" cy="222" fill="#f8f8f8" r="4" /><circle cx="366" cy="222" fill="#f87090" r="4" /><circle cx="378" cy="222" fill="#f87090" r="4" /><circle cx="390" cy="222" fill="#f87090" r="4" /><circle cx="402" cy="222" fill="#f87090" r="4" /><circle cx="414" cy="222" fill="#f87090" r="4" /><circle cx="426" cy="222" fill="#f87090" r="4" /><circle cx="438" cy="222" fill="#f87090" r="4" /><circle cx="450" cy="222" fill="#000000" r="4" /><circle cx="90" cy="234" fill="#f87090" r="4" /><circle cx="102" cy="234" fill="#a04020" r="4" /><circle cx="114" cy="234" fill="#f8f8f8" r="4" /><circle cx="126" cy="234" fill="#f8f8f8" r="4" /><circle cx="138" cy="234" fill="#f8f8f8" r="4" /><circle cx="150" cy="234" fill="#f8f8f8" r="4" /><circle cx="162" cy="234" fill="#f87090" r="4" /><circle cx="174" cy="234" fill="#f87090" r="4" /><circle cx="186" cy="234" fill="#f8f8f8" r="4" /><circle cx="198" cy="234" fill="#f8f8f8" r="4" /><circle cx="210" cy="234" fill="#f8f8f8" r="4" /><circle cx="222" cy="234" fill="#f8f8f8" r="4" /><circle cx="234" cy="234" fill="#f8f8f8" r="4" /><circle cx="246" cy="234" fill="#f8f8f8" r="4" /><circle cx="258" cy="234" fill="#000000" r="4" /><circle cx="270" cy="234" fill="#f87090" r="4" /><circle cx="282" cy="234" fill="#f87090" r="4" /><circle cx="294" cy="234" fill="#000000" r="4" /><circle cx="306" cy="234" fill="#f8f8f8" r="4" /><circle cx="318" cy="234" fill="#f8f8f8" r="4" /><circle cx="330" cy="234" fill="#f8f8f8" r="4" /><circle cx="342" cy="234" fill="#f8f8f8" r="4" /><circle cx="354" cy="234" fill="#f87090" r="4" /><circle cx="366" cy="234" fill="#f87090" r="4" /><circle cx="378" cy="234" fill="#f87090" r="4" /><circle cx="390" cy="234" fill="#f87090" r="4" /><circle cx="402" cy="234" fill="#f87090" r="4" /><circle cx="414" cy="234" fill="#f87090" r="4" /><circle cx="426" cy="234" fill="#f87090" r="4" /><circle cx="438" cy="234" fill="#f87090" r="4" /><circle cx="450" cy="234" fill="#000000" r="4" /><circle cx="90" cy="246" fill="#a04020" r="4" /><circle cx="102" cy="246" fill="#f87090" r="4" /><circle cx="114" cy="246" fill="#f8f8f8" r="4" /><circle cx="126" cy="246" fill="#f8f8f8" r="4" /><circle cx="138" cy="246" fill="#f8f8f8" r="4" /><circle cx="150" cy="246" fill="#f8f8f8" r="4" /><circle cx="162" cy="246" fill="#000000" r="4" /><circle cx="174" cy="246" fill="#a04020" r="4" /><circle cx="186" cy="246" fill="#f87090" r="4" /><circle cx="198" cy="246" fill="#f8f8f8" r="4" /><circle cx="210" cy="246" fill="#f8f8f8" r="4" /><circle cx="222" cy="246" fill="#f8f8f8" r="4" /><circle cx="234" cy="246" fill="#f8f8f8" r="4" /><circle cx="246" cy="246" fill="#f8f8f8" r="4" /><circle cx="258" cy="246" fill="#f8f8f8" r="4" /><circle cx="270" cy="246" fill="#000000" r="4" /><circle cx="282" cy="246" fill="#000000" r="4" /><circle cx="294" cy="246" fill="#f8f8f8" r="4" /><circle cx="306" cy="246" fill="#f8f8f8" r="4" /><circle cx="318" cy="246" fill="#f8f8f8" r="4" /><circle cx="330" cy="246" fill="#f8f8f8" r="4" /><circle cx="342" cy="246" fill="#f8f8f8" r="4" /><circle cx="354" cy="246" fill="#f87090" r="4" /><circle cx="366" cy="246" fill="#f87090" r="4" /><circle cx="378" cy="246" fill="#f87090" r="4" /><circle cx="390" cy="246" fill="#000000" r="4" /><circle cx="402" cy="246" fill="#f87090" r="4" /><circle cx="414" cy="246" fill="#f87090" r="4" /><circle cx="426" cy="246" fill="#f87090" r="4" /><circle cx="438" cy="246" fill="#f87090" r="4" /><circle cx="450" cy="246" fill="#f87090" r="4" /><circle cx="462" cy="246" fill="#000000" r="4" /><circle cx="90" cy="258" fill="#000000" r="4" /><circle cx="102" cy="258" fill="#f8f8f8" r="4" /><circle cx="114" cy="258" fill="#f8f8f8" r="4" /><circle cx="126" cy="258" fill="#f8f8f8" r="4" /><circle cx="138" cy="258" fill="#f8f8f8" r="4" /><circle cx="150" cy="258" fill="#f8f8f8" r="4" /><circle cx="162" cy="258" fill="#f8f8f8" r="4" /><circle cx="174" cy="258" fill="#a04020" r="4" /><circle cx="186" cy="258" fill="#000000" r="4" /><circle cx="198" cy="258" fill="#f87090" r="4" /><circle cx="210" cy="258" fill="#f8f8f8" r="4" /><circle cx="222" cy="258" fill="#f8f8f8" r="4" /><circle cx="234" cy="258" fill="#f8f8f8" r="4" /><circle cx="246" cy="258" fill="#f8f8f8" r="4" /><circle cx="258" cy="258" fill="#f8f8f8" r="4" /><circle cx="270" cy="258" fill="#f8f8f8" r="4" /><circle cx="282" cy="258" fill="#f8f8f8" r="4" /><circle cx="294" cy="258" fill="#f8f8f8" r="4" /><circle cx="306" cy="258" fill="#f8f8f8" r="4" /><circle cx="318" cy="258" fill="#f8f8f8" r="4" /><circle cx="330" cy="258" fill="#f8f8f8" r="4" /><circle cx="342" cy="258" fill="#f8f8f8" r="4" /><circle cx="354" cy="258" fill="#f87090" r="4" /><circle cx="366" cy="258" fill="#000000" r="4" /><circle cx="378" cy="258" fill="#000000" r="4" /><circle cx="390" cy="258" fill="#f8f8f8" r="4" /><circle cx="402" cy="258" fill="#f8f8f8" r="4" /><circle cx="414" cy="258" fill="#f87090" r="4" /><circle cx="426" cy="258" fill="#f87090" r="4" /><circle cx="438" cy="258" fill="#f87090" r="4" /><circle cx="450" cy="258" fill="#f87090" r="4" /><circle cx="462" cy="258" fill="#000000" r="4" /><circle cx="90" cy="270" fill="#000000" r="4" /><circle cx="102" cy="270" fill="#f8f8f8" r="4" /><circle cx="114" cy="270" fill="#f8f8f8" r="4" /><circle cx="126" cy="270" fill="#f8f8f8" r="4" /><circle cx="138" cy="270" fill="#f8f8f8" r="4" /><circle cx="150" cy="270" fill="#f8f8f8" r="4" /><circle cx="162" cy="270" fill="#f8f8f8" r="4" /><circle cx="174" cy="270" fill="#f8f8f8" r="4" /><circle cx="186" cy="270" fill="#f8f8f8" r="4" /><circle cx="198" cy="270" fill="#000000" r="4" /><circle cx="210" cy="270" fill="#f87090" r="4" /><circle cx="222" cy="270" fill="#f87090" r="4" /><circle cx="234" cy="270" fill="#f8f8f8" r="4" /><circle cx="246" cy="270" fill="#f8f8f8" r="4" /><circle cx="258" cy="270" fill="#f8f8f8" r="4" /><circle cx="270" cy="270" fill="#f8f8f8" r="4" /><circle cx="282" cy="270" fill="#f8f8f8" r="4" /><circle cx="294" cy="270" fill="#f8f8f8" r="4" /><circle cx="306" cy="270" fill="#f8f8f8" r="4" /><circle cx="318" cy="270" fill="#f8f8f8" r="4" /><circle cx="330" cy="270" fill="#f8f8f8" r="4" /><circle cx="342" cy="270" fill="#f87090" r="4" /><circle cx="354" cy="270" fill="#000000" r="4" /><circle cx="366" cy="270" fill="#f8f8f8" r="4" /><circle cx="378" cy="270" fill="#f8f8f8" r="4" /><circle cx="390" cy="270" fill="#f8f8f8" r="4" /><circle cx="402" cy="270" fill="#f8f8f8" r="4" /><circle cx="414" cy="270" fill="#f87090" r="4" /><circle cx="426" cy="270" fill="#f87090" r="4" /><circle cx="438" cy="270" fill="#f87090" r="4" /><circle cx="450" cy="270" fill="#f87090" r="4" /><circle cx="462" cy="270" fill="#000000" r="4" /><circle cx="90" cy="282" fill="#000000" r="4" /><circle cx="102" cy="282" fill="#f87090" r="4" /><circle cx="114" cy="282" fill="#f8f8f8" r="4" /><circle cx="126" cy="282" fill="#f8f8f8" r="4" /><circle cx="138" cy="282" fill="#f8f8f8" r="4" /><circle cx="150" cy="282" fill="#f8f8f8" r="4" /><circle cx="162" cy="282" fill="#f8f8f8" r="4" /><circle cx="174" cy="282" fill="#f8f8f8" r="4" /><circle cx="186" cy="282" fill="#f8f8f8" r="4" /><circle cx="198" cy="282" fill="#f8f8f8" r="4" /><circle cx="210" cy="282" fill="#000000" r="4" /><circle cx="222" cy="282" fill="#f87090" r="4" /><circle cx="234" cy="282" fill="#f87090" r="4" /><circle cx="246" cy="282" fill="#f8f8f8" r="4" /><circle cx="258" cy="282" fill="#f8f8f8" r="4" /><circle cx="270" cy="282" fill="#f8f8f8" r="4" /><circle cx="282" cy="282" fill="#f8f8f8" r="4" /><circle cx="294" cy="282" fill="#f8f8f8" r="4" /><circle cx="306" cy="282" fill="#f8f8f8" r="4" /><circle cx="318" cy="282" fill="#f8f8f8" r="4" /><circle cx="330" cy="282" fill="#f87090" r="4" /><circle cx="342" cy="282" fill="#000000" r="4" /><circle cx="354" cy="282" fill="#f8f8f8" r="4" /><circle cx="366" cy="282" fill="#f8f8f8" r="4" /><circle cx="378" cy="282" fill="#f8f8f8" r="4" /><circle cx="390" cy="282" fill="#f8f8f8" r="4" /><circle cx="402" cy="282" fill="#f87090" r="4" /><circle cx="414" cy="282" fill="#f87090" r="4" /><circle cx="426" cy="282" fill="#f87090" r="4" /><circle cx="438" cy="282" fill="#f87090" r="4" /><circle cx="450" cy="282" fill="#f87090" r="4" /><circle cx="462" cy="282" fill="#000000" r="4" /><circle cx="90" cy="294" fill="#000000" r="4" /><circle cx="102" cy="294" fill="#f87090" r="4" /><circle cx="114" cy="294" fill="#f8f8f8" r="4" /><circle cx="126" cy="294" fill="#f8f8f8" r="4" /><circle cx="138" cy="294" fill="#f8f8f8" r="4" /><circle cx="150" cy="294" fill="#f8f8f8" r="4" /><circle cx="162" cy="294" fill="#f8f8f8" r="4" /><circle cx="174" cy="294" fill="#f8f8f8" r="4" /><circle cx="186" cy="294" fill="#f8f8f8" r="4" /><circle cx="198" cy="294" fill="#f8f8f8" r="4" /><circle cx="210" cy="294" fill="#f8f8f8" r="4" /><circle cx="222" cy="294" fill="#000000" r="4" /><circle cx="234" cy="294" fill="#f87090" r="4" /><circle cx="246" cy="294" fill="#f87090" r="4" /><circle cx="258" cy="294" fill="#f87090" r="4" /><circle cx="270" cy="294" fill="#f8f8f8" r="4" /><circle cx="282" cy="294" fill="#f8f8f8" r="4" /><circle cx="294" cy="294" fill="#f8f8f8" r="4" /><circle cx="306" cy="294" fill="#f8f8f8" r="4" /><circle cx="318" cy="294" fill="#f87090" r="4" /><circle cx="330" cy="294" fill="#000000" r="4" /><circle cx="342" cy="294" fill="#f8f8f8" r="4" /><circle cx="354" cy="294" fill="#f8f8f8" r="4" /><circle cx="366" cy="294" fill="#f8f8f8" r="4" /><circle cx="378" cy="294" fill="#f8f8f8" r="4" /><circle cx="390" cy="294" fill="#f8f8f8" r="4" /><circle cx="402" cy="294" fill="#f87090" r="4" /><circle cx="414" cy="294" fill="#f87090" r="4" /><circle cx="426" cy="294" fill="#f87090" r="4" /><circle cx="438" cy="294" fill="#f87090" r="4" /><circle cx="450" cy="294" fill="#f87090" r="4" /><circle cx="462" cy="294" fill="#000000" r="4" /><circle cx="90" cy="306" fill="#000000" r="4" /><circle cx="102" cy="306" fill="#f87090" r="4" /><circle cx="114" cy="306" fill="#f87090" r="4" /><circle cx="126" cy="306" fill="#f87090" r="4" /><circle cx="138" cy="306" fill="#f8f8f8" r="4" /><circle cx="150" cy="306" fill="#f8f8f8" r="4" /><circle cx="162" cy="306" fill="#f8f8f8" r="4" /><circle cx="174" cy="306" fill="#f8f8f8" r="4" /><circle cx="186" cy="306" fill="#f8f8f8" r="4" /><circle cx="198" cy="306" fill="#f8f8f8" r="4" /><circle cx="210" cy="306" fill="#f8f8f8" r="4" /><circle cx="222" cy="306" fill="#f8f8f8" r="4" /><circle cx="234" cy="306" fill="#000000" r="4" /><circle cx="246" cy="306" fill="#000000" r="4" /><circle cx="258" cy="306" fill="#000000" r="4" /><circle cx="270" cy="306" fill="#f87090" r="4" /><circle cx="282" cy="306" fill="#f87090" r="4" /><circle cx="294" cy="306" fill="#000000" r="4" /><circle cx="306" cy="306" fill="#000000" r="4" /><circle cx="318" cy="306" fill="#000000" r="4" /><circle cx="330" cy="306" fill="#f8f8f8" r="4" /><circle cx="342" cy="306" fill="#f8f8f8" r="4" /><circle cx="354" cy="306" fill="#f8f8f8" r="4" /><circle cx="366" cy="306" fill="#f8f8f8" r="4" /><circle cx="378" cy="306" fill="#f8f8f8" r="4" /><circle cx="390" cy="306" fill="#f87090" r="4" /><circle cx="402" cy="306" fill="#f87090" r="4" /><circle cx="414" cy="306" fill="#f87090" r="4" /><circle cx="426" cy="306" fill="#f87090" r="4" /><circle cx="438" cy="306" fill="#f87090" r="4" /><circle cx="450" cy="306" fill="#f87090" r="4" /><circle cx="462" cy="306" fill="#000000" r="4" /><circle cx="90" cy="318" fill="#000000" r="4" /><circle cx="102" cy="318" fill="#f87090" r="4" /><circle cx="114" cy="318" fill="#f87090" r="4" /><circle cx="126" cy="318" fill="#f87090" r="4" /><circle cx="138" cy="318" fill="#f87090" r="4" /><circle cx="150" cy="318" fill="#f87090" r="4" /><circle cx="162" cy="318" fill="#f8f8f8" r="4" /><circle cx="174" cy="318" fill="#f8f8f8" r="4" /><circle cx="186" cy="318" fill="#f8f8f8" r="4" /><circle cx="198" cy="318" fill="#f8f8f8" r="4" /><circle cx="210" cy="318" fill="#f8f8f8" r="4" /><circle cx="222" cy="318" fill="#f8f8f8" r="4" /><circle cx="234" cy="318" fill="#f8f8f8" r="4" /><circle cx="246" cy="318" fill="#f8f8f8" r="4" /><circle cx="258" cy="318" fill="#000000" r="4" /><circle cx="270" cy="318" fill="#f87090" r="4" /><circle cx="282" cy="318" fill="#f87090" r="4" /><circle cx="294" cy="318" fill="#000000" r="4" /><circle cx="306" cy="318" fill="#f8f8f8" r="4" /><circle cx="318" cy="318" fill="#f8f8f8" r="4" /><circle cx="330" cy="318" fill="#f8f8f8" r="4" /><circle cx="342" cy="318" fill="#f8f8f8" r="4" /><circle cx="354" cy="318" fill="#f8f8f8" r="4" /><circle cx="366" cy="318" fill="#f8f8f8" r="4" /><circle cx="378" cy="318" fill="#f87090" r="4" /><circle cx="390" cy="318" fill="#f87090" r="4" /><circle cx="402" cy="318" fill="#f87090" r="4" /><circle cx="414" cy="318" fill="#f87090" r="4" /><circle cx="426" cy="318" fill="#f87090" r="4" /><circle cx="438" cy="318" fill="#f87090" r="4" /><circle cx="450" cy="318" fill="#f87090" r="4" /><circle cx="462" cy="318" fill="#000000" r="4" /><circle cx="90" cy="330" fill="#000000" r="4" /><circle cx="102" cy="330" fill="#f87090" r="4" /><circle cx="114" cy="330" fill="#f87090" r="4" /><circle cx="126" cy="330" fill="#000000" r="4" /><circle cx="138" cy="330" fill="#000000" r="4" /><circle cx="150" cy="330" fill="#f87090" r="4" /><circle cx="162" cy="330" fill="#f87090" r="4" /><circle cx="174" cy="330" fill="#f87090" r="4" /><circle cx="186" cy="330" fill="#f8f8f8" r="4" /><circle cx="198" cy="330" fill="#f8f8f8" r="4" /><circle cx="210" cy="330" fill="#f8f8f8" r="4" /><circle cx="222" cy="330" fill="#f8f8f8" r="4" /><circle cx="234" cy="330" fill="#000000" r="4" /><circle cx="246" cy="330" fill="#000000" r="4" /><circle cx="258" cy="330" fill="#f87090" r="4" /><circle cx="270" cy="330" fill="#f87090" r="4" /><circle cx="282" cy="330" fill="#f87090" r="4" /><circle cx="294" cy="330" fill="#f87090" r="4" /><circle cx="306" cy="330" fill="#000000" r="4" /><circle cx="318" cy="330" fill="#000000" r="4" /><circle cx="330" cy="330" fill="#f8f8f8" r="4" /><circle cx="342" cy="330" fill="#f8f8f8" r="4" /><circle cx="354" cy="330" fill="#f87090" r="4" /><circle cx="366" cy="330" fill="#f87090" r="4" /><circle cx="378" cy="330" fill="#f87090" r="4" /><circle cx="390" cy="330" fill="#f87090" r="4" /><circle cx="402" cy="330" fill="#f87090" r="4" /><circle cx="414" cy="330" fill="#000000" r="4" /><circle cx="426" cy="330" fill="#000000" r="4" /><circle cx="438" cy="330" fill="#f87090" r="4" /><circle cx="450" cy="330" fill="#f87090" r="4" /><circle cx="462" cy="330" fill="#000000" r="4" /><circle cx="102" cy="342" fill="#000000" r="4" /><circle cx="114" cy="342" fill="#f87090" r="4" /><circle cx="126" cy="342" fill="#f87090" r="4" /><circle cx="138" cy="342" fill="#f87090" r="4" /><circle cx="150" cy="342" fill="#000000" r="4" /><circle cx="162" cy="342" fill="#000000" r="4" /><circle cx="174" cy="342" fill="#f87090" r="4" /><circle cx="186" cy="342" fill="#f87090" r="4" /><circle cx="198" cy="342" fill="#f87090" r="4" /><circle cx="210" cy="342" fill="#f8f8f8" r="4" /><circle cx="222" cy="342" fill="#000000" r="4" /><circle cx="234" cy="342" fill="#f8f8f8" r="4" /><circle cx="246" cy="342" fill="#f8f8f8" r="4" /><circle cx="258" cy="342" fill="#000000" r="4" /><circle cx="270" cy="342" fill="#f87090" r="4" /><circle cx="282" cy="342" fill="#f87090" r="4" /><circle cx="294" cy="342" fill="#000000" r="4" /><circle cx="306" cy="342" fill="#f8f8f8" r="4" /><circle cx="318" cy="342" fill="#f8f8f8" r="4" /><circle cx="330" cy="342" fill="#000000" r="4" /><circle cx="342" cy="342" fill="#f87090" r="4" /><circle cx="354" cy="342" fill="#f87090" r="4" /><circle cx="366" cy="342" fill="#f87090" r="4" /><circle cx="378" cy="342" fill="#f87090" r="4" /><circle cx="390" cy="342" fill="#000000" r="4" /><circle cx="402" cy="342" fill="#000000" r="4" /><circle cx="414" cy="342" fill="#f87090" r="4" /><circle cx="426" cy="342" fill="#f87090" r="4" /><circle cx="438" cy="342" fill="#f87090" r="4" /><circle cx="450" cy="342" fill="#000000" r="4" /><circle cx="102" cy="354" fill="#000000" r="4" /><circle cx="114" cy="354" fill="#f87090" r="4" /><circle cx="126" cy="354" fill="#f87090" r="4" /><circle cx="138" cy="354" fill="#f87090" r="4" /><circle cx="150" cy="354" fill="#f87090" r="4" /><circle cx="162" cy="354" fill="#f87090" r="4" /><circle cx="174" cy="354" fill="#000000" r="4" /><circle cx="186" cy="354" fill="#000000" r="4" /><circle cx="198" cy="354" fill="#f87090" r="4" /><circle cx="210" cy="354" fill="#f87090" r="4" /><circle cx="222" cy="354" fill="#f87090" r="4" /><circle cx="234" cy="354" fill="#000000" r="4" /><circle cx="246" cy="354" fill="#000000" r="4" /><circle cx="258" cy="354" fill="#f87090" r="4" /><circle cx="270" cy="354" fill="#f87090" r="4" /><circle cx="282" cy="354" fill="#f87090" r="4" /><circle cx="294" cy="354" fill="#f87090" r="4" /><circle cx="306" cy="354" fill="#000000" r="4" /><circle cx="318" cy="354" fill="#000000" r="4" /><circle cx="330" cy="354" fill="#f87090" r="4" /><circle cx="342" cy="354" fill="#f87090" r="4" /><circle cx="354" cy="354" fill="#f87090" r="4" /><circle cx="366" cy="354" fill="#000000" r="4" /><circle cx="378" cy="354" fill="#000000" r="4" /><circle cx="390" cy="354" fill="#f87090" r="4" /><circle cx="402" cy="354" fill="#f87090" r="4" /><circle cx="414" cy="354" fill="#f87090" r="4" /><circle cx="426" cy="354" fill="#f87090" r="4" /><circle cx="438" cy="354" fill="#f87090" r="4" /><circle cx="450" cy="354" fill="#000000" r="4" /></svg>